<?xml version="1.0" encoding="UTF-8" standalone="no"?>
<!-- Created with Inkscape (http://www.inkscape.org/) -->

<svg
   version="1.1"
   id="svg2"
   width="1866.6667"
   height="2090.6667"
   viewBox="0 0 1866.6667 2090.6667"
   sodipodi:docname="64.eps"
   xmlns:inkscape="http://www.inkscape.org/namespaces/inkscape"
   xmlns:sodipodi="http://sodipodi.sourceforge.net/DTD/sodipodi-0.dtd"
   xmlns="http://www.w3.org/2000/svg"
   xmlns:svg="http://www.w3.org/2000/svg">
  <defs
     id="defs6" />
  <sodipodi:namedview
     id="namedview4"
     pagecolor="#ffffff"
     bordercolor="#000000"
     borderopacity="0.25"
     inkscape:showpageshadow="2"
     inkscape:pageopacity="0.0"
     inkscape:pagecheckerboard="0"
     inkscape:deskcolor="#d1d1d1" />
  <g
     id="g8"
     inkscape:groupmode="layer"
     inkscape:label="ink_ext_XXXXXX"
     transform="matrix(1.3333333,0,0,-1.3333333,0,2090.6667)">
    <g
       id="g10"
       transform="scale(0.1)">
      <path
         d="M 0,0 V 15680 H 14000 V 0 H 0"
         style="fill:#ffffff;fill-opacity:1;fill-rule:nonzero;stroke:none"
         id="path12" />
      <path
         d="m 11209.8,8239.62 c 0,2288.98 -1855.63,4144.58 -4144.66,4144.58 -2288.96,0 -4144.64,-1855.6 -4144.64,-4144.58 0,-2016.65 1440.63,-3696.12 3348.67,-4067.52 V 6729.15 H 8149.81 V 4239.3 c 1762.76,476.9 3059.99,2086.66 3059.99,4000.32"
         style="fill:#877d64;fill-opacity:1;fill-rule:nonzero;stroke:none"
         id="path14" />
      <path
         d="m 7065.14,12352.5 c -2267.91,0 -4112.99,-1845 -4112.99,-4112.88 0,-1951.25 1379.31,-3639.42 3285.36,-4029.02 v 2518.55 c 0,17.49 14.16,31.65 31.66,31.65 h 1880.64 c 17.5,0 31.65,-14.16 31.65,-31.65 V 4280.9 c 1766.6,497 2996.64,2118.87 2996.64,3958.72 0,2267.88 -1845.05,4112.88 -4112.96,4112.88 z M 6269.17,4140.4 c -2.02,0 -4.06,0.2 -6.06,0.6 -1955.18,380.6 -3374.26,2104.29 -3374.26,4098.62 0,2302.78 1873.48,4176.18 4176.29,4176.18 2302.81,0 4176.26,-1873.4 4176.26,-4176.18 0,-1882.19 -1267.87,-3539.72 -3083.34,-4030.82 -9.61,-2.5 -19.72,-0.6 -27.47,5.4 -7.85,6 -12.43,15.3 -12.43,25.1 V 6697.49 H 6300.82 V 4172.1 c 0,-9.5 -4.24,-18.5 -11.54,-24.4 -5.72,-4.7 -12.82,-7.3 -20.11,-7.3"
         style="fill:#231f20;fill-opacity:1;fill-rule:nonzero;stroke:none"
         id="path16" />
      <path
         d="m 10275.8,7927.81 c 0,-1602.47 -1299.11,-2901.51 -2901.57,-2901.51 -1602.52,0 -2901.58,1299.04 -2901.58,2901.51 0,1602.46 1299.06,2901.49 2901.58,2901.49 1602.46,0 2901.57,-1299.03 2901.57,-2901.49"
         style="fill:#786e58;fill-opacity:1;fill-rule:nonzero;stroke:none"
         id="path18" />
      <path
         d="m 5647.02,10851.7 c -273.73,0 -495.6,-221.8 -495.6,-495.5 V 6410.78 c 0,273.73 221.87,495.53 495.6,495.53 h 3201.66 v 2954.2 991.19 H 5647.02"
         style="fill:#ffa27a;fill-opacity:1;fill-rule:nonzero;stroke:none"
         id="path20" />
      <path
         d="m 5647.02,10820.1 c -255.84,0 -463.95,-208.1 -463.95,-463.9 V 6661.08 c 89.26,164.75 263.75,276.88 463.95,276.88 h 3170.01 v 3882.14 z m -495.6,-4440.97 c -17.49,0 -31.65,14.15 -31.65,31.65 v 3945.42 c 0,290.6 236.51,527.2 527.25,527.2 h 3201.66 c 17.49,0 31.65,-14.2 31.65,-31.7 V 6906.31 c 0,-17.5 -14.16,-31.65 -31.65,-31.65 H 5647.02 c -255.84,0 -463.95,-208.08 -463.95,-463.88 0,-17.5 -14.16,-31.65 -31.65,-31.65"
         style="fill:#000000;fill-opacity:1;fill-rule:nonzero;stroke:none"
         id="path22" />
      <path
         d="M 8848.68,6906.31 H 5647.02 c -273.73,0 -495.6,-221.8 -495.6,-495.53 0,-273.74 221.87,-495.67 495.6,-495.67 h 3201.66"
         style="fill:#ffffff;fill-opacity:1;fill-rule:nonzero;stroke:none"
         id="path24" />
      <path
         d="M 8848.68,5883.46 H 5647.02 c -290.74,0 -527.25,236.58 -527.25,527.32 0,290.67 236.51,527.18 527.25,527.18 h 3201.66 c 17.49,0 31.65,-14.16 31.65,-31.65 0,-17.5 -14.16,-31.65 -31.65,-31.65 H 5647.02 c -255.84,0 -463.95,-208.08 -463.95,-463.88 0,-255.87 208.11,-464.02 463.95,-464.02 h 3201.66 c 17.49,0 31.65,-14.16 31.65,-31.65 0,-17.49 -14.16,-31.65 -31.65,-31.65"
         style="fill:#000000;fill-opacity:1;fill-rule:nonzero;stroke:none"
         id="path26" />
      <path
         d="M 8848.68,6552.21 H 5733.56 c -17.49,0 -31.65,14.16 -31.65,31.65 0,17.5 14.16,31.66 31.65,31.66 h 3115.12 c 17.49,0 31.65,-14.16 31.65,-31.66 0,-17.49 -14.16,-31.65 -31.65,-31.65"
         style="fill:#000000;fill-opacity:1;fill-rule:nonzero;stroke:none"
         id="path28" />
      <path
         d="M 8848.68,6206.16 H 5733.56 c -17.49,0 -31.65,14.15 -31.65,31.65 0,17.49 14.16,31.65 31.65,31.65 h 3115.12 c 17.49,0 31.65,-14.16 31.65,-31.65 0,-17.5 -14.16,-31.65 -31.65,-31.65"
         style="fill:#000000;fill-opacity:1;fill-rule:nonzero;stroke:none"
         id="path30" />
      <path
         d="m 5647.02,6874.66 c -17.49,0 -31.65,14.15 -31.65,31.65 v 2356.41 c 0,17.49 14.16,31.65 31.65,31.65 17.49,0 31.65,-14.16 31.65,-31.65 V 6906.31 c 0,-17.5 -14.16,-31.65 -31.65,-31.65"
         style="fill:#000000;fill-opacity:1;fill-rule:nonzero;stroke:none"
         id="path32" />
      <path
         d="m 6599.4,7383.8 c -0.62,0.25 -1.48,0.75 -2.23,1.12 -361.27,165.54 -480.51,554.88 -519.27,766.67 -5.94,32.77 -10.14,61.2 -12.8,83.95 -4.21,35.98 -5.13,57.61 -5.38,58.61 v 648.59 c 241.65,9.9 294.07,-160.72 299.64,-182.36 v -322.2 l 3.09,-4.45 c 3.09,-3.21 31.22,-31.65 64.6,-31.65 0.87,0 1.79,0 2.47,0.12 16.69,0.62 38.82,8.53 55.27,40.68 l 2.04,3.83 4.26,766.06 v 852.83 c 0,82.5 66.95,149.4 149.35,149.4 82.47,0 149.48,-66.9 149.48,-149.4 v -919.59 c 0,-35.37 28.81,-64.05 64.11,-64.05 35.24,0 63.86,28.68 63.86,64.05 v 1111.79 c 0,82.3 67.07,149.4 149.54,149.4 82.4,0 149.29,-67.1 149.29,-149.4 V 9195.21 c 0,-35.48 28.81,-64.04 64.11,-64.04 35.3,0 63.98,28.56 63.98,64.17 v 870.26 c 0,82.5 67.01,149.4 149.41,149.4 82.35,0 149.42,-66.9 149.42,-149.4 v -919.59 c 0,-35.37 28.68,-64.05 64.04,-64.05 35.18,0 64.05,28.68 64.05,64.05 v 508.52 c 0,82.34 66.95,149.22 149.35,149.22 82.41,0 149.35,-66.88 149.35,-149.22 l 0.19,-607.56 -0.24,-1199.28 c 0.74,-27.08 -0.93,-55.02 -5.01,-85.31 -20.96,-160.85 -104.48,-286.35 -105.03,-287.08 l -65.72,-91.5 H 6599.4"
         style="fill:#ffecde;fill-opacity:1;fill-rule:nonzero;stroke:none"
         id="path34" />
      <path
         d="m 6606.54,7415.45 h 1271.85 l 56.23,78.32 c 0.34,0.5 79.44,119.75 99.38,272.69 3.89,28.93 5.44,55.15 4.73,80.36 l 0.24,1200.15 -0.19,607.56 c 0,64.84 -52.79,117.57 -117.7,117.57 -64.9,0 -117.7,-52.73 -117.7,-117.57 v -508.52 c 0,-52.8 -42.94,-95.7 -95.7,-95.7 -52.75,0 -95.69,42.9 -95.69,95.7 v 919.59 c 0,64.9 -52.82,117.7 -117.77,117.7 -64.94,0 -117.76,-52.8 -117.76,-117.7 v -870.26 c 0,-52.86 -42.9,-95.82 -95.63,-95.82 -52.8,0 -95.76,42.9 -95.76,95.69 v 1062.59 c 0,64.9 -52.76,117.8 -117.64,117.8 -65,0 -117.89,-52.9 -117.89,-117.8 V 9146.01 c 0,-52.8 -42.84,-95.7 -95.51,-95.7 -52.79,0 -95.76,42.9 -95.76,95.7 v 919.59 c 0,64.9 -52.85,117.7 -117.83,117.7 -64.9,0 -117.7,-52.8 -117.7,-117.7 v -852.83 l -4.26,-766.24 c -0.03,-5.13 -1.3,-10.14 -3.71,-14.72 -26.67,-51.99 -64.05,-60.52 -84.08,-61.26 -0.09,0 -0.21,0 -0.3,0 -48.84,0 -84.14,34.37 -90.76,41.23 -1.17,1.24 -5.31,6.99 -6.27,8.35 -3.68,5.31 -5.65,11.62 -5.65,18.05 v 317.87 c -7.95,26.77 -54.4,150.22 -236.34,155.29 v -616.39 c 0.12,-1.24 0.22,-2.35 0.28,-2.97 0.53,-7.85 1.79,-26.34 4.88,-52.8 2.6,-22.19 6.71,-49.94 12.52,-81.96 38.18,-208.64 153.56,-581.84 497.49,-741.77 z m 1288.08,-63.3 H 6599.4 c -4.02,0 -8.04,0.75 -11.78,2.29 -376.6,172.6 -500.3,569.84 -540.85,791.46 -6.09,33.57 -10.39,62.69 -13.1,85.99 -3.28,27.94 -4.61,47.48 -5.2,55.76 -0.62,2.54 -0.4,3.9 -0.4,6.5 v 648.59 c 0,17.01 13.39,30.92 30.35,31.66 268.66,8.53 326,-184.41 331.6,-206.1 0.65,-2.6 0.99,-5.26 0.99,-7.92 v -309.71 c 8.47,-7.36 22.84,-16.94 36.04,-16.94 5.19,0.25 16.91,0.68 28.16,20.96 l 4.23,758.26 v 852.65 c 0,99.9 81.2,181 181,181 99.87,0 181.14,-81.1 181.14,-181 v -919.59 c 0,-17.87 14.55,-32.4 32.45,-32.4 17.77,0 32.21,14.53 32.21,32.4 v 1111.79 c 0,99.9 81.29,181.1 181.19,181.1 99.77,0 180.94,-81.2 180.94,-181.1 V 9195.21 c 0,-17.86 14.55,-32.39 32.46,-32.39 17.83,0 32.33,14.59 32.33,32.52 v 870.26 c 0,99.9 81.23,181 181.06,181 99.84,0 181.07,-81.1 181.07,-181 v -919.59 c 0,-17.87 14.53,-32.4 32.39,-32.4 17.87,0 32.39,14.53 32.39,32.4 v 508.52 c 0,99.71 81.2,180.88 181.01,180.88 99.81,0 181,-81.17 181,-180.88 l 0.19,-607.56 -0.24,-1199.28 c 0.77,-27.75 -0.96,-57.37 -5.29,-89.51 -22.07,-169.27 -110.22,-300.69 -111.09,-301.87 l -65.31,-90.99 c -5.96,-8.28 -15.51,-13.17 -25.72,-13.17"
         style="fill:#231f20;fill-opacity:1;fill-rule:nonzero;stroke:none"
         id="path36" />
      <path
         d="m 8070.62,6689.95 c 0,-64.54 -52.91,-117.45 -117.58,-117.45 H 6465.07 c -64.66,0 -117.58,52.91 -117.58,117.45 v 576.28 c 0,64.65 52.92,117.57 117.58,117.57 h 1487.97 c 64.67,0 117.58,-52.92 117.58,-117.57 v -576.28"
         style="fill:#30aed1;fill-opacity:1;fill-rule:nonzero;stroke:none"
         id="path38" />
      <path
         d="m 6465.07,7352.15 c -47.39,0 -85.93,-38.57 -85.93,-85.92 v -576.28 c 0,-47.29 38.54,-85.8 85.93,-85.8 h 1487.97 c 47.38,0 85.93,38.51 85.93,85.8 v 576.28 c 0,47.35 -38.55,85.92 -85.93,85.92 z M 7953.04,6540.84 H 6465.07 c -82.28,0 -149.24,66.89 -149.24,149.11 v 576.28 c 0,82.27 66.96,149.22 149.24,149.22 h 1487.97 c 82.29,0 149.23,-66.95 149.23,-149.22 v -576.28 c 0,-82.22 -66.94,-149.11 -149.23,-149.11"
         style="fill:#231f20;fill-opacity:1;fill-rule:nonzero;stroke:none"
         id="path40" />
      <path
         d="M 6269.17,6729.15 V 4172.1 c 257.65,-50.1 523.6,-77.2 795.97,-77.2 375.42,0 738.86,50.8 1084.67,144.4 V 6729.15 H 6269.17"
         style="fill:#8c8c8c;fill-opacity:1;fill-rule:nonzero;stroke:none"
         id="path42" />
      <path
         d="m 6300.82,4198.2 c 606.68,-113.9 1226.97,-90.6 1817.34,65.4 V 6697.49 H 6300.82 Z m 764.32,-134.9 c -266.78,0 -536.61,26.1 -802.01,77.7 -14.89,2.9 -25.62,15.9 -25.62,31.1 v 2557.05 c 0,17.49 14.16,31.65 31.66,31.65 h 1880.64 c 17.5,0 31.65,-14.16 31.65,-31.65 V 4239.3 c 0,-14.2 -9.58,-26.8 -23.36,-30.5 -356.76,-96.6 -724.49,-145.5 -1092.96,-145.5"
         style="fill:#231f20;fill-opacity:1;fill-rule:nonzero;stroke:none"
         id="path44" />
      <path
         d="M 4089.99,10205 H 649.223 v 2361.9 H 4089.99 V 10205"
         style="fill:#ffffff;fill-opacity:1;fill-rule:nonzero;stroke:none"
         id="path46" />
      <path
         d="M 680.875,10236.6 H 4058.34 v 2298.7 H 680.875 Z m 3409.115,-63.3 H 649.223 c -17.493,0 -31.657,14.2 -31.657,31.7 v 2361.9 c 0,17.5 14.164,31.7 31.657,31.7 H 4089.99 c 17.5,0 31.65,-14.2 31.65,-31.7 V 10205 c 0,-17.5 -14.15,-31.7 -31.65,-31.7"
         style="fill:#000000;fill-opacity:1;fill-rule:nonzero;stroke:none"
         id="path48" />
      <path
         d="M 4089.99,12566.9 H 649.223 v 2361.9 H 4089.99 v -2361.9"
         style="fill:#ffffff;fill-opacity:1;fill-rule:nonzero;stroke:none"
         id="path50" />
      <path
         d="M 680.875,12598.6 H 4058.34 v 2298.5 H 680.875 Z m 3409.115,-63.3 H 649.223 c -17.493,0 -31.657,14.1 -31.657,31.6 v 2361.9 c 0,17.5 14.164,31.6 31.657,31.6 H 4089.99 c 17.5,0 31.65,-14.1 31.65,-31.6 v -2361.9 c 0,-17.5 -14.15,-31.6 -31.65,-31.6"
         style="fill:#000000;fill-opacity:1;fill-rule:nonzero;stroke:none"
         id="path52" />
      <path
         d="m 4287.93,12575.6 c 0,-108.1 -87.53,-195.5 -195.47,-195.5 H 646.688 c -107.938,0 -195.473,87.4 -195.473,195.5 v 0 c 0,107.9 87.535,195.3 195.473,195.3 H 4092.46 c 107.94,0 195.47,-87.4 195.47,-195.3 v 0"
         style="fill:#ffffff;fill-opacity:1;fill-rule:nonzero;stroke:none"
         id="path54" />
      <path
         d="m 646.688,12739.3 c -90.317,0 -163.821,-73.5 -163.821,-163.7 0,-90.3 73.504,-163.8 163.821,-163.8 H 4092.46 c 90.32,0 163.82,73.5 163.82,163.8 0,90.2 -73.5,163.7 -163.82,163.7 z M 4092.46,12348.5 H 646.688 c -125.247,0 -227.122,101.8 -227.122,227.1 0,125.2 101.875,227 227.122,227 H 4092.46 c 125.25,0 227.12,-101.8 227.12,-227 0,-125.3 -101.87,-227.1 -227.12,-227.1"
         style="fill:#000000;fill-opacity:1;fill-rule:nonzero;stroke:none"
         id="path56" />
      <path
         d="M 2263.87,10759 H 995.469 v 1268.4 H 2263.87 V 10759"
         style="fill:#ffffff;fill-opacity:1;fill-rule:nonzero;stroke:none"
         id="path58" />
      <path
         d="m 1027.12,10790.6 h 1205.09 v 1205.1 H 1027.12 Z m 1236.75,-63.3 H 995.469 c -17.496,0 -31.653,14.2 -31.653,31.7 v 1268.4 c 0,17.5 14.157,31.6 31.653,31.6 H 2263.87 c 17.49,0 31.65,-14.1 31.65,-31.6 V 10759 c 0,-17.5 -14.16,-31.7 -31.65,-31.7"
         style="fill:#000000;fill-opacity:1;fill-rule:nonzero;stroke:none"
         id="path60" />
      <path
         d="M 2537.23,11863.4 H 3794.75"
         style="fill:#ffffff;fill-opacity:1;fill-rule:nonzero;stroke:none"
         id="path62" />
      <path
         d="M 3794.75,11831.8 H 2537.23 c -17.5,0 -31.65,14.1 -31.65,31.6 0,17.5 14.15,31.7 31.65,31.7 h 1257.52 c 17.49,0 31.65,-14.2 31.65,-31.7 0,-17.5 -14.16,-31.6 -31.65,-31.6"
         style="fill:#000000;fill-opacity:1;fill-rule:nonzero;stroke:none"
         id="path64" />
      <path
         d="M 2537.23,11393.2 H 3794.75"
         style="fill:#ffffff;fill-opacity:1;fill-rule:nonzero;stroke:none"
         id="path66" />
      <path
         d="M 3794.75,11361.6 H 2537.23 c -17.5,0 -31.65,14.2 -31.65,31.6 0,17.5 14.15,31.7 31.65,31.7 h 1257.52 c 17.49,0 31.65,-14.2 31.65,-31.7 0,-17.4 -14.16,-31.6 -31.65,-31.6"
         style="fill:#000000;fill-opacity:1;fill-rule:nonzero;stroke:none"
         id="path68" />
      <path
         d="m 2537.23,10923.1 h 984.15"
         style="fill:#ffffff;fill-opacity:1;fill-rule:nonzero;stroke:none"
         id="path70" />
      <path
         d="m 3521.38,10891.4 h -984.15 c -17.5,0 -31.65,14.2 -31.65,31.7 0,17.4 14.15,31.6 31.65,31.6 h 984.15 c 17.5,0 31.65,-14.2 31.65,-31.6 0,-17.5 -14.15,-31.7 -31.65,-31.7"
         style="fill:#000000;fill-opacity:1;fill-rule:nonzero;stroke:none"
         id="path72" />
      <path
         d="m 1986.55,13932.1 h -143.67 l -213.21,-93.9 -213.21,93.9 h -143.79 c 0,0 -234.92,-1.3 -234.92,-299.8 v -346.9 h 1183.77 v 346.9 c 0,298.5 -234.97,299.8 -234.97,299.8"
         style="fill:#ffffff;fill-opacity:1;fill-rule:nonzero;stroke:none"
         id="path74" />
      <path
         d="m 1069.4,13317 h 1120.47 v 315.3 c 0,264 -195.19,268.1 -203.51,268.2 h -136.8 l -207.13,-91.3 c -8.16,-3.6 -17.37,-3.6 -25.53,0 l -207.12,91.3 h -137.11 c -7.98,-0.1 -203.27,-6.1 -203.27,-268.2 z m 1152.12,-63.3 H 1037.75 c -17.49,0 -31.65,14.2 -31.65,31.7 v 346.9 c 0,326.2 263.72,331.5 266.38,331.5 h 143.98 c 4.38,0 8.74,-0.9 12.76,-2.7 l 200.45,-88.3 200.44,88.3 c 4.02,1.8 8.38,2.7 12.77,2.7 h 143.67 c 2.84,0 266.62,-5.3 266.62,-331.5 v -346.9 c 0,-17.5 -14.16,-31.7 -31.65,-31.7"
         style="fill:#000000;fill-opacity:1;fill-rule:nonzero;stroke:none"
         id="path76" />
      <path
         d="m 1889.43,14308 c 0,-143.6 -116.41,-259.9 -259.76,-259.9 -143.55,0 -259.89,116.3 -259.89,259.9 0,143.3 116.34,259.8 259.89,259.8 143.35,0 259.76,-116.5 259.76,-259.8"
         style="fill:#ffffff;fill-opacity:1;fill-rule:nonzero;stroke:none"
         id="path78" />
      <path
         d="m 1629.67,14536.1 c -125.87,0 -228.24,-102.3 -228.24,-228.1 0,-125.9 102.37,-228.2 228.24,-228.2 125.77,0 228.11,102.3 228.11,228.2 0,125.8 -102.34,228.1 -228.11,228.1 z m 0,-519.6 c -160.76,0 -291.54,130.8 -291.54,291.5 0,160.7 130.78,291.4 291.54,291.4 160.7,0 291.41,-130.7 291.41,-291.4 0,-160.7 -130.71,-291.5 -291.41,-291.5"
         style="fill:#000000;fill-opacity:1;fill-rule:nonzero;stroke:none"
         id="path80" />
      <path
         d="M 2537.23,14487.8 H 3794.75"
         style="fill:#ffffff;fill-opacity:1;fill-rule:nonzero;stroke:none"
         id="path82" />
      <path
         d="M 3794.75,14456.1 H 2537.23 c -17.5,0 -31.65,14.2 -31.65,31.7 0,17.5 14.15,31.6 31.65,31.6 h 1257.52 c 17.49,0 31.65,-14.1 31.65,-31.6 0,-17.5 -14.16,-31.7 -31.65,-31.7"
         style="fill:#000000;fill-opacity:1;fill-rule:nonzero;stroke:none"
         id="path84" />
      <path
         d="M 2537.23,14048.1 H 3794.75"
         style="fill:#ffffff;fill-opacity:1;fill-rule:nonzero;stroke:none"
         id="path86" />
      <path
         d="M 3794.75,14016.5 H 2537.23 c -17.5,0 -31.65,14.1 -31.65,31.6 0,17.5 14.15,31.7 31.65,31.7 h 1257.52 c 17.49,0 31.65,-14.2 31.65,-31.7 0,-17.5 -14.16,-31.6 -31.65,-31.6"
         style="fill:#000000;fill-opacity:1;fill-rule:nonzero;stroke:none"
         id="path88" />
      <path
         d="M 2537.23,13608.6 H 3794.75"
         style="fill:#ffffff;fill-opacity:1;fill-rule:nonzero;stroke:none"
         id="path90" />
      <path
         d="M 3794.75,13576.9 H 2537.23 c -17.5,0 -31.65,14.2 -31.65,31.7 0,17.5 14.15,31.6 31.65,31.6 h 1257.52 c 17.49,0 31.65,-14.1 31.65,-31.6 0,-17.5 -14.16,-31.7 -31.65,-31.7"
         style="fill:#000000;fill-opacity:1;fill-rule:nonzero;stroke:none"
         id="path92" />
      <path
         d="m 4814.63,14821 v -1633 h 3255.99 l 399.73,-459.6 378.33,459.6 h 302.16 v 1633 H 4814.63"
         style="fill:#ffffff;fill-opacity:1;fill-rule:nonzero;stroke:none"
         id="path94" />
      <path
         d="m 4846.28,13219.6 h 3224.34 c 9.15,0 17.87,-3.9 23.9,-10.9 l 375.17,-431.3 354.53,430.7 c 6.03,7.3 14.99,11.5 24.46,11.5 h 270.51 v 1569.7 H 4846.28 Z m 3624.07,-522.8 c -9.15,0 -17.87,3.9 -23.9,10.8 l -390.23,448.7 H 4814.63 c -17.5,0 -31.65,14.2 -31.65,31.7 v 1633 c 0,17.5 14.15,31.6 31.65,31.6 h 4336.21 c 17.49,0 31.66,-14.1 31.66,-31.6 v -1633 c 0,-17.5 -14.17,-31.7 -31.66,-31.7 H 8863.6 l -368.81,-448 c -5.94,-7.2 -14.71,-11.4 -24.01,-11.5 -0.16,0 -0.29,0 -0.43,0"
         style="fill:#000000;fill-opacity:1;fill-rule:nonzero;stroke:none"
         id="path96" />
      <path
         d="M 4946.18,1447.3 V 3874 H 894.828 V 1447.3 c 268.052,0 485.342,-217.2 485.342,-485.198 H 4460.9 c 0,267.998 217.3,485.198 485.28,485.198"
         style="fill:#ffffff;fill-opacity:1;fill-rule:nonzero;stroke:none"
         id="path98" />
      <path
         d="m 1410.86,993.699 h 3019.35 c 15.76,259.901 224.43,468.601 484.32,484.401 V 3842.3 H 926.48 V 1478.1 c 259.92,-15.8 468.62,-224.5 484.38,-484.401 z M 4460.9,930.402 H 1380.17 c -17.5,0 -31.65,14.2 -31.65,31.7 0,250.098 -203.54,453.598 -453.692,453.598 -17.492,0 -31.648,14.2 -31.648,31.6 V 3874 c 0,17.5 14.156,31.6 31.648,31.6 H 4946.18 c 17.5,0 31.65,-14.1 31.65,-31.6 V 1447.3 c 0,-17.4 -14.15,-31.6 -31.65,-31.6 -250.12,0 -453.63,-203.5 -453.63,-453.598 0,-17.5 -14.15,-31.7 -31.65,-31.7"
         style="fill:#000000;fill-opacity:1;fill-rule:nonzero;stroke:none"
         id="path100" />
      <path
         d="m 4946.18,1447.3 c -267.98,0 -485.28,-217.2 -485.28,-485.198 h 485.28 V 1447.3"
         style="fill:#ffffff;fill-opacity:1;fill-rule:nonzero;stroke:none"
         id="path102" />
      <path
         d="m 4493.64,993.699 h 420.89 V 1414.6 C 4689.57,1399 4509.21,1218.7 4493.64,993.699 Z m 452.54,-63.297 H 4460.9 c -17.49,0 -31.65,14.2 -31.65,31.7 0,284.998 231.88,516.898 516.93,516.898 17.5,0 31.65,-14.2 31.65,-31.7 V 962.102 c 0,-17.5 -14.15,-31.7 -31.65,-31.7"
         style="fill:#000000;fill-opacity:1;fill-rule:nonzero;stroke:none"
         id="path104" />
      <path
         d="M 894.828,1447.3 V 962.102 h 485.342 c 0,267.998 -217.29,485.198 -485.342,485.198"
         style="fill:#ffffff;fill-opacity:1;fill-rule:nonzero;stroke:none"
         id="path106" />
      <path
         d="m 926.48,993.699 h 420.95 C 1331.86,1218.7 1151.47,1399 926.48,1414.6 Z m 453.69,-63.297 H 894.828 c -17.492,0 -31.648,14.2 -31.648,31.7 V 1447.3 c 0,17.5 14.156,31.7 31.648,31.7 285.082,0 516.992,-231.9 516.992,-516.898 0,-17.5 -14.16,-31.7 -31.65,-31.7"
         style="fill:#000000;fill-opacity:1;fill-rule:nonzero;stroke:none"
         id="path108" />
      <path
         d="M 5125.58,3430.9 3384.76,2101.5 H 2456.31 L 715.492,3430.9 V 3874 H 5125.58 v -443.1"
         style="fill:#ffffff;fill-opacity:1;fill-rule:nonzero;stroke:none"
         id="path110" />
      <path
         d="m 2467,2133.2 h 907.07 l 1719.86,1313.3 v 395.8 H 747.145 v -395.8 z m 917.76,-63.3 h -928.45 c -6.96,0 -13.7,2.3 -19.2,6.5 L 696.301,3405.7 c -7.856,6 -12.457,15.3 -12.457,25.2 V 3874 c 0,17.5 14.152,31.6 31.648,31.6 H 5125.58 c 17.49,0 31.65,-14.1 31.65,-31.6 v -443.1 c 0,-9.9 -4.61,-19.2 -12.46,-25.2 L 3403.96,2076.4 c -5.5,-4.2 -12.24,-6.5 -19.2,-6.5"
         style="fill:#000000;fill-opacity:1;fill-rule:nonzero;stroke:none"
         id="path112" />
      <path
         d="m 2135.78,3905.6 h 1449.64 v 416.8 c 0,138.7 -112.84,251.5 -251.53,251.5 h -946.51 c -138.72,0 -251.6,-112.8 -251.6,-251.5 z m 1481.3,-63.3 H 2104.13 c -17.5,0 -31.65,14.2 -31.65,31.7 v 448.4 c 0,173.6 141.25,314.8 314.9,314.8 h 946.51 c 173.61,0 314.84,-141.2 314.84,-314.8 V 3874 c 0,-17.5 -14.16,-31.7 -31.65,-31.7"
         style="fill:#000000;fill-opacity:1;fill-rule:nonzero;stroke:none"
         id="path114" />
      <path
         d="m 2687.02,2069.9 v -389 c 0,-128.7 104.75,-233.4 233.48,-233.4 128.74,0 233.49,104.7 233.49,233.4 v 389 z m 233.48,-685.7 c -163.66,0 -296.79,133.1 -296.79,296.7 v 420.6 c 0,17.5 14.16,31.7 31.65,31.7 h 530.28 c 17.5,0 31.65,-14.2 31.65,-31.7 v -420.6 c 0,-163.6 -133.12,-296.7 -296.79,-296.7"
         style="fill:#000000;fill-opacity:1;fill-rule:nonzero;stroke:none"
         id="path116" />
      <path
         d="m 3374.19,1727 h -907.37 c -17.5,0 -31.65,14.2 -31.65,31.7 0,17.5 14.15,31.6 31.65,31.6 h 907.37 c 17.49,0 31.65,-14.1 31.65,-31.6 0,-17.5 -14.16,-31.7 -31.65,-31.7"
         style="fill:#000000;fill-opacity:1;fill-rule:nonzero;stroke:none"
         id="path118" />
      <path
         d="m 4086.22,9193.48 c 0,203.01 -164.5,367.45 -367.45,367.45 h -27.94 -2655.98 c 202.95,0 367.45,-164.44 367.45,-367.45 v -306.12 h 1921.07 762.85 v 306.12"
         style="fill:#ffffff;fill-opacity:1;fill-rule:nonzero;stroke:none"
         id="path120" />
      <path
         d="m 1433.95,8919.01 h 2620.62 v 274.47 c 0,185.15 -150.65,335.8 -335.8,335.8 H 1250.35 c 110.34,-71.09 183.6,-195.04 183.6,-335.8 z M 4086.22,8855.7 H 1402.3 c -17.5,0 -31.66,14.16 -31.66,31.66 v 306.12 c 0,185.15 -150.64,335.8 -335.79,335.8 -17.5,0 -31.65,14.16 -31.65,31.65 0,17.5 14.15,31.65 31.65,31.65 h 2683.92 c 220.07,0 399.1,-179.02 399.1,-399.1 v -306.12 c 0,-17.5 -14.15,-31.66 -31.65,-31.66"
         style="fill:#000000;fill-opacity:1;fill-rule:nonzero;stroke:none"
         id="path122" />
      <path
         d="M 3323.37,8887.36 H 1402.3 v 306.12 c 0,203.01 -164.5,367.45 -367.45,367.45 h -27.95 c -202.947,0 -367.447,-164.44 -367.447,-367.45 V 8887.36 5691.33 H 3323.37 v 3196.03"
         style="fill:#ffffff;fill-opacity:1;fill-rule:nonzero;stroke:none"
         id="path124" />
      <path
         d="M 671.105,5722.98 H 3291.72 V 8855.7 H 1402.3 c -17.5,0 -31.66,14.16 -31.66,31.66 v 306.12 c 0,185.15 -150.64,335.8 -335.79,335.8 h -27.95 c -185.142,0 -335.795,-150.65 -335.795,-335.8 z M 3323.37,5659.7 H 639.453 c -17.496,0 -31.648,14.1 -31.648,31.63 v 3502.15 c 0,220.08 179.027,399.1 399.095,399.1 h 27.95 c 220.07,0 399.1,-179.02 399.1,-399.1 v -274.47 h 1889.42 c 17.5,0 31.66,-14.16 31.66,-31.65 V 5691.33 c 0,-17.53 -14.16,-31.63 -31.66,-31.63"
         style="fill:#000000;fill-opacity:1;fill-rule:nonzero;stroke:none"
         id="path126" />
      <path
         d="m 2709.45,5100.2 -242.63,176.7 -242.7,-176.7 v 1065.64 h 485.33 V 5100.2"
         style="fill:#ffffff;fill-opacity:1;fill-rule:nonzero;stroke:none"
         id="path128" />
      <path
         d="M 2255.77,6134.19 V 5162.4 l 192.41,140.1 c 11.13,8 26.15,8 37.27,0 l 192.35,-140.1 v 971.79 z M 2709.45,5068.6 c -6.58,0 -13.1,2 -18.63,6 l -224,163.2 -224.07,-163.2 c -9.64,-7 -22.44,-8.1 -32.97,-2.6 -10.64,5.4 -17.31,16.3 -17.31,28.2 v 1065.64 c 0,17.5 14.15,31.66 31.65,31.66 h 485.33 c 17.5,0 31.65,-14.16 31.65,-31.66 V 5100.2 c 0,-11.9 -6.67,-22.8 -17.3,-28.2 -4.52,-2.3 -9.43,-3.4 -14.35,-3.4"
         style="fill:#000000;fill-opacity:1;fill-rule:nonzero;stroke:none"
         id="path130" />
      <path
         d="m 2941.58,6482.36 c 0,-262.24 -212.59,-474.77 -474.76,-474.77 -262.24,0 -474.77,212.53 -474.77,474.77 0,262.11 212.53,474.76 474.77,474.76 262.17,0 474.76,-212.65 474.76,-474.76"
         style="fill:#ffffff;fill-opacity:1;fill-rule:nonzero;stroke:none"
         id="path132" />
      <path
         d="m 2466.82,6925.47 c -244.34,0 -443.12,-198.8 -443.12,-443.11 0,-244.31 198.78,-443.12 443.12,-443.12 244.33,0 443.11,198.81 443.11,443.12 0,244.31 -198.78,443.11 -443.11,443.11 z m 0,-949.53 c -279.24,0 -506.42,227.19 -506.42,506.42 0,279.24 227.18,506.41 506.42,506.41 279.23,0 506.42,-227.17 506.42,-506.41 0,-279.23 -227.19,-506.42 -506.42,-506.42"
         style="fill:#000000;fill-opacity:1;fill-rule:nonzero;stroke:none"
         id="path134" />
      <path
         d="m 2709.45,6482.36 c 0,-134.03 -108.61,-242.7 -242.63,-242.7 -134.03,0 -242.7,108.67 -242.7,242.7 0,134.02 108.67,242.58 242.7,242.58 134.02,0 242.63,-108.56 242.63,-242.58"
         style="fill:#ffffff;fill-opacity:1;fill-rule:nonzero;stroke:none"
         id="path136" />
      <path
         d="m 2466.82,6693.29 c -116.38,0 -211.05,-94.65 -211.05,-210.93 0,-116.34 94.67,-211.05 211.05,-211.05 116.34,0 210.98,94.71 210.98,211.05 0,116.28 -94.64,210.93 -210.98,210.93 z m 0,-485.28 c -151.27,0 -274.35,123.08 -274.35,274.35 0,151.21 123.08,274.23 274.35,274.23 151.24,0 274.28,-123.02 274.28,-274.23 0,-151.27 -123.04,-274.35 -274.28,-274.35"
         style="fill:#000000;fill-opacity:1;fill-rule:nonzero;stroke:none"
         id="path138" />
      <path
         d="M 2973.79,8433.85 H 1006.47 c -17.49,0 -31.65,14.16 -31.65,31.65 0,17.5 14.16,31.66 31.65,31.66 h 1967.32 c 17.49,0 31.65,-14.16 31.65,-31.66 0,-17.49 -14.16,-31.65 -31.65,-31.65"
         style="fill:#000000;fill-opacity:1;fill-rule:nonzero;stroke:none"
         id="path140" />
      <path
         d="M 2973.79,7980.72 H 1006.47 c -17.49,0 -31.65,14.16 -31.65,31.65 0,17.5 14.16,31.65 31.65,31.65 h 1967.32 c 17.49,0 31.65,-14.15 31.65,-31.65 0,-17.49 -14.16,-31.65 -31.65,-31.65"
         style="fill:#000000;fill-opacity:1;fill-rule:nonzero;stroke:none"
         id="path142" />
      <path
         d="M 2973.79,7527.72 H 1006.47 c -17.49,0 -31.65,14.15 -31.65,31.65 0,17.49 14.16,31.65 31.65,31.65 h 1967.32 c 17.49,0 31.65,-14.16 31.65,-31.65 0,-17.5 -14.16,-31.65 -31.65,-31.65"
         style="fill:#000000;fill-opacity:1;fill-rule:nonzero;stroke:none"
         id="path144" />
      <path
         d="m 1629.67,7074.58 h -623.2 c -17.49,0 -31.65,14.16 -31.65,31.66 0,17.49 14.16,31.65 31.65,31.65 h 623.2 c 17.49,0 31.65,-14.16 31.65,-31.65 0,-17.5 -14.16,-31.66 -31.65,-31.66"
         style="fill:#000000;fill-opacity:1;fill-rule:nonzero;stroke:none"
         id="path146" />
      <path
         d="m 1784.03,6379.13 h -777.56 c -17.49,0 -31.65,14.15 -31.65,31.65 0,17.49 14.16,31.65 31.65,31.65 h 777.56 c 17.49,0 31.65,-14.16 31.65,-31.65 0,-17.5 -14.16,-31.65 -31.65,-31.65"
         style="fill:#000000;fill-opacity:1;fill-rule:nonzero;stroke:none"
         id="path148" />
      <path
         d="m 10339.6,10975.7 h 2340.1 v 2863.2 h -2340.1 z m 2371.8,-63.3 H 10308 c -17.5,0 -31.7,14.2 -31.7,31.7 v 2926.5 c 0,17.5 14.2,31.6 31.7,31.6 h 2403.4 c 17.5,0 31.6,-14.1 31.6,-31.6 v -2926.5 c 0,-17.5 -14.1,-31.7 -31.6,-31.7"
         style="fill:#000000;fill-opacity:1;fill-rule:nonzero;stroke:none"
         id="path150" />
      <path
         d="m 10877.5,13383.3 c -96.1,0 -174.2,-78.1 -174.2,-174.1 v -1603.8 c 0,-96.1 78.1,-174.2 174.2,-174.2 96,0 174.1,78.1 174.1,174.2 v 1603.8 c 0,96 -78.1,174.1 -174.1,174.1 z m 0,-2015.4 c -130.9,0 -237.5,106.6 -237.5,237.5 v 1603.8 c 0,130.9 106.6,237.4 237.5,237.4 130.9,0 237.4,-106.5 237.4,-237.4 v -1603.8 c 0,-130.9 -106.5,-237.5 -237.4,-237.5"
         style="fill:#000000;fill-opacity:1;fill-rule:nonzero;stroke:none"
         id="path152" />
      <path
         d="m 11509.7,13383.3 c -96,0 -174.2,-78.1 -174.2,-174.1 v -1603.8 c 0,-96.1 78.2,-174.2 174.2,-174.2 96,0 174.1,78.1 174.1,174.2 v 1603.8 c 0,96 -78.1,174.1 -174.1,174.1 z m 0,-2015.4 c -131,0 -237.5,106.6 -237.5,237.5 v 1603.8 c 0,130.9 106.5,237.4 237.5,237.4 130.9,0 237.4,-106.5 237.4,-237.4 v -1603.8 c 0,-130.9 -106.5,-237.5 -237.4,-237.5"
         style="fill:#000000;fill-opacity:1;fill-rule:nonzero;stroke:none"
         id="path154" />
      <path
         d="m 12141.8,13383.3 c -96,0 -174.1,-78.1 -174.1,-174.1 v -1603.8 c 0,-96.1 78.1,-174.2 174.1,-174.2 96,0 174.2,78.1 174.2,174.2 v 1603.8 c 0,96 -78.2,174.1 -174.2,174.1 z m 0,-2015.4 c -130.9,0 -237.4,106.6 -237.4,237.5 v 1603.8 c 0,130.9 106.5,237.4 237.4,237.4 130.9,0 237.5,-106.5 237.5,-237.4 v -1603.8 c 0,-130.9 -106.6,-237.5 -237.5,-237.5"
         style="fill:#000000;fill-opacity:1;fill-rule:nonzero;stroke:none"
         id="path156" />
      <path
         d="m 12924.7,14238.6 h -2830.1 c -227.58,0 -412.11,-184.4 -412.11,-412 0,-227.7 184.53,-412.1 412.11,-412.1 227.6,0 412.1,184.4 412.1,412.1 0,14.8 -0.9,29.5 -2.5,44 h 2010.9 c -1.6,-14.5 -2.5,-29.2 -2.5,-44 0,-227.7 184.5,-412.1 412.1,-412.1 227.6,0 412.1,184.4 412.1,412.1 0,227.6 -184.5,412 -412.1,412"
         style="fill:#ffffff;fill-opacity:1;fill-rule:nonzero;stroke:none"
         id="path158" />
      <path
         d="m 10504.2,13902.2 h 2010.9 c 9,0 17.5,-3.8 23.5,-10.5 6.1,-6.7 8.9,-15.7 7.9,-24.7 -1.4,-13.2 -2.2,-26.8 -2.2,-40.4 0,-209.8 170.6,-380.5 380.4,-380.5 209.8,0 380.5,170.7 380.5,380.5 0,209.7 -170.7,380.4 -380.5,380.4 h -2830.1 c -209.78,0 -380.46,-170.7 -380.46,-380.4 0,-209.8 170.68,-380.5 380.46,-380.5 209.8,0 380.5,170.7 380.5,380.5 0,13.6 -0.8,27.2 -2.3,40.4 -1,9 1.8,18 7.9,24.7 6,6.7 14.5,10.5 23.5,10.5 z m 2420.5,-519.4 c -244.7,0 -443.7,199.1 -443.7,443.8 0,4.1 0,8.2 0.1,12.3 h -1942.9 c 0.1,-4.1 0.2,-8.2 0.2,-12.3 0,-244.7 -199.1,-443.8 -443.8,-443.8 -244.71,0 -443.77,199.1 -443.77,443.8 0,244.6 199.06,443.7 443.77,443.7 h 2830.1 c 244.7,0 443.8,-199.1 443.8,-443.7 0,-244.7 -199.1,-443.8 -443.8,-443.8"
         style="fill:#000000;fill-opacity:1;fill-rule:nonzero;stroke:none"
         id="path160" />
      <path
         d="m 10285.2,13826.6 c 0,-107.5 -87,-194.5 -194.3,-194.5 -107.42,0 -194.46,87 -194.46,194.5 0,107.3 87.04,194.3 194.46,194.3 107.3,0 194.3,-87 194.3,-194.3"
         style="fill:#ffffff;fill-opacity:1;fill-rule:nonzero;stroke:none"
         id="path162" />
      <path
         d="m 10090.9,13989.3 c -89.8,0 -162.81,-73 -162.81,-162.7 0,-89.8 73.01,-162.9 162.81,-162.9 89.7,0 162.7,73.1 162.7,162.9 0,89.7 -73,162.7 -162.7,162.7 z m 0,-388.9 c -124.66,0 -226.11,101.5 -226.11,226.2 0,124.6 101.45,226 226.11,226 124.6,0 226,-101.4 226,-226 0,-124.7 -101.4,-226.2 -226,-226.2"
         style="fill:#000000;fill-opacity:1;fill-rule:nonzero;stroke:none"
         id="path164" />
      <path
         d="m 13119.5,13826.6 c 0,-107.5 -87,-194.5 -194.3,-194.5 -107.4,0 -194.4,87 -194.4,194.5 0,107.3 87,194.3 194.4,194.3 107.3,0 194.3,-87 194.3,-194.3"
         style="fill:#ffffff;fill-opacity:1;fill-rule:nonzero;stroke:none"
         id="path166" />
      <path
         d="m 12925.2,13989.3 c -89.8,0 -162.8,-73 -162.8,-162.7 0,-89.8 73,-162.9 162.8,-162.9 89.7,0 162.7,73.1 162.7,162.9 0,89.7 -73,162.7 -162.7,162.7 z m 0,-388.9 c -124.6,0 -226.1,101.5 -226.1,226.2 0,124.6 101.5,226 226.1,226 124.6,0 226,-101.4 226,-226 0,-124.7 -101.4,-226.2 -226,-226.2"
         style="fill:#000000;fill-opacity:1;fill-rule:nonzero;stroke:none"
         id="path168" />
      <path
         d="m 10229.3,14695.4 v -110.3 c 0,-191.4 155.2,-346.5 346.5,-346.5 h 1912.6 c 191.4,0 346.5,155.1 346.5,346.5 v 110.3 h -2605.6"
         style="fill:#ffffff;fill-opacity:1;fill-rule:nonzero;stroke:none"
         id="path170" />
      <path
         d="m 10261,14663.7 v -78.6 c 0,-173.6 141.2,-314.8 314.8,-314.8 h 1912.6 c 173.6,0 314.8,141.2 314.8,314.8 v 78.6 z m 2227.4,-456.7 h -1912.6 c -208.5,0 -378.1,169.6 -378.1,378.1 v 110.3 c 0,17.4 14.1,31.6 31.6,31.6 h 2605.6 c 17.5,0 31.6,-14.2 31.6,-31.6 v -110.3 c 0,-208.5 -169.6,-378.1 -378.1,-378.1"
         style="fill:#000000;fill-opacity:1;fill-rule:nonzero;stroke:none"
         id="path172" />
      <path
         d="m 13120.4,14810.5 c 0,63.5 -51.5,115.1 -115.1,115.1 h -2946.4 c -63.55,0 -115.11,-51.6 -115.11,-115.1 v 0 c 0,-63.6 51.56,-115.1 115.11,-115.1 h 2946.4 c 63.6,0 115.1,51.5 115.1,115.1 v 0"
         style="fill:#ffffff;fill-opacity:1;fill-rule:nonzero;stroke:none"
         id="path174" />
      <path
         d="m 10058.9,14893.9 c -46,0 -83.46,-37.5 -83.46,-83.4 0,-46 37.46,-83.5 83.46,-83.5 h 2946.4 c 46,0 83.5,37.5 83.5,83.5 0,45.9 -37.5,83.4 -83.5,83.4 z m 2946.4,-230.2 h -2946.4 c -80.93,0 -146.76,65.8 -146.76,146.8 0,80.9 65.83,146.7 146.76,146.7 h 2946.4 c 80.9,0 146.8,-65.8 146.8,-146.7 0,-81 -65.9,-146.8 -146.8,-146.8"
         style="fill:#000000;fill-opacity:1;fill-rule:nonzero;stroke:none"
         id="path176" />
      <path
         d="m 9966.72,5817.93 c -273.73,0 -495.59,-221.93 -495.59,-495.63 V 1377 c 0,273.6 221.86,495.5 495.59,495.5 h 3201.58 v 2954.2 991.23 H 9966.72"
         style="fill:#ffffff;fill-opacity:1;fill-rule:nonzero;stroke:none"
         id="path178" />
      <path
         d="m 9966.72,5786.28 c -255.8,0 -463.94,-208.18 -463.94,-463.98 v -3695 c 89.27,164.8 263.78,276.9 463.94,276.9 H 13136.7 V 5786.28 Z M 9471.13,1345.3 c -17.5,0 -31.65,14.2 -31.65,31.7 v 3945.3 c 0,290.7 236.51,527.28 527.24,527.28 h 3201.58 c 17.5,0 31.7,-14.16 31.7,-31.65 V 1872.5 c 0,-17.5 -14.2,-31.6 -31.7,-31.6 H 9966.72 c -255.8,0 -463.94,-208.1 -463.94,-463.9 0,-17.5 -14.16,-31.7 -31.65,-31.7"
         style="fill:#000000;fill-opacity:1;fill-rule:nonzero;stroke:none"
         id="path180" />
      <path
         d="M 13168.3,1872.5 H 9966.72 c -273.73,0 -495.59,-221.9 -495.59,-495.5 0,-273.7 221.86,-495.699 495.59,-495.699 h 3201.58"
         style="fill:#ffffff;fill-opacity:1;fill-rule:nonzero;stroke:none"
         id="path182" />
      <path
         d="M 13168.3,849.699 H 9966.72 c -290.73,0 -527.24,236.601 -527.24,527.301 0,290.7 236.51,527.2 527.24,527.2 h 3201.58 c 17.5,0 31.7,-14.2 31.7,-31.7 0,-17.5 -14.2,-31.6 -31.7,-31.6 H 9966.72 c -255.8,0 -463.94,-208.1 -463.94,-463.9 0,-255.9 208.14,-464 463.94,-464 h 3201.58 c 17.5,0 31.7,-14.199 31.7,-31.699 0,-17.5 -14.2,-31.602 -31.7,-31.602"
         style="fill:#000000;fill-opacity:1;fill-rule:nonzero;stroke:none"
         id="path184" />
      <path
         d="m 11319.7,2878.5 c -17.5,0 -31.7,14.1 -31.7,31.6 v 1962.4 c 0,17.5 14.2,31.6 31.7,31.6 17.5,0 31.6,-14.1 31.6,-31.6 V 2910.1 c 0,-17.5 -14.1,-31.6 -31.6,-31.6"
         style="fill:#000000;fill-opacity:1;fill-rule:nonzero;stroke:none"
         id="path186" />
      <path
         d="m 12205.9,4840.8 h -1772.4 c -17.5,0 -31.7,14.2 -31.7,31.7 0,17.5 14.2,31.6 31.7,31.6 h 1772.4 c 17.5,0 31.7,-14.1 31.7,-31.6 0,-17.5 -14.2,-31.7 -31.7,-31.7"
         style="fill:#000000;fill-opacity:1;fill-rule:nonzero;stroke:none"
         id="path188" />
      <path
         d="m 11969.2,3827.9 h 473.4 l -236.7,917.8 z m 515.5,-63.3 c -0.2,0 -0.7,0 -1.2,0 h -555.1 c -9.8,0 -19.1,4.5 -25.1,12.2 -6,7.8 -8,17.9 -5.6,27.3 l 277.6,1076.3 c 7.3,27.9 54,27.9 61.3,0 L 12512,3812.3 c 2.8,-4.7 4.4,-10.2 4.4,-16.1 0,-17.5 -14.2,-31.6 -31.7,-31.6"
         style="fill:#000000;fill-opacity:1;fill-rule:nonzero;stroke:none"
         id="path190" />
      <path
         d="m 10196.8,3827.9 h 473.4 l -236.7,917.8 z m 515.5,-63.3 c -0.3,0 -0.8,0 -1.3,0 h -555.1 c -9.8,0 -19,4.5 -25,12.2 -6,7.8 -8.1,17.9 -5.7,27.3 l 277.6,1076.3 c 7.3,27.9 54,27.9 61.3,0 l 275.5,-1068.1 c 2.8,-4.7 4.3,-10.2 4.3,-16.1 0,-17.5 -14.1,-31.6 -31.6,-31.6"
         style="fill:#000000;fill-opacity:1;fill-rule:nonzero;stroke:none"
         id="path192" />
      <path
         d="m 11873,3764.6 c 20.2,-165.6 163.2,-295.4 332.9,-295.4 169.7,0 312.8,129.8 332.9,295.4 z m 332.9,-358.7 c -214.7,0 -393.5,174.7 -398.5,389.6 -0.2,8.5 3,16.7 9,22.8 5.9,6.1 14.1,9.6 22.6,9.6 h 733.8 c 8.6,0 16.7,-3.5 22.6,-9.6 6,-6.1 9.3,-14.3 9.1,-22.8 -5,-214.9 -183.8,-389.6 -398.6,-389.6"
         style="fill:#000000;fill-opacity:1;fill-rule:nonzero;stroke:none"
         id="path194" />
      <path
         d="m 10100.6,3764.6 c 20.2,-165.6 163.2,-295.4 332.9,-295.4 169.6,0 312.7,129.8 332.9,295.4 z m 332.9,-358.7 c -214.7,0 -393.5,174.7 -398.6,389.6 -0.2,8.5 3,16.7 9,22.8 6,6.1 14.1,9.6 22.7,9.6 h 733.7 c 8.6,0 16.7,-3.5 22.7,-9.6 6,-6.1 9.2,-14.3 9,-22.8 -5,-214.9 -183.8,-389.6 -398.5,-389.6"
         style="fill:#000000;fill-opacity:1;fill-rule:nonzero;stroke:none"
         id="path196" />
      <path
         d="m 11644.1,2878.5 h -648.8 c -17.5,0 -31.7,14.1 -31.7,31.6 0,17.5 14.2,31.7 31.7,31.7 h 648.8 c 17.5,0 31.7,-14.2 31.7,-31.7 0,-17.5 -14.2,-31.6 -31.7,-31.6"
         style="fill:#000000;fill-opacity:1;fill-rule:nonzero;stroke:none"
         id="path198" />
      <path
         d="M 11928.4,2601.5 H 10711 c -17.5,0 -31.6,14.2 -31.6,31.7 0,17.4 14.1,31.6 31.6,31.6 h 1217.4 c 17.5,0 31.6,-14.2 31.6,-31.6 0,-17.5 -14.1,-31.7 -31.6,-31.7"
         style="fill:#000000;fill-opacity:1;fill-rule:nonzero;stroke:none"
         id="path200" />
      <path
         d="m 13168.3,1585.3 h -1137.9 c -17.5,0 -31.6,14.2 -31.6,31.7 0,17.5 14.1,31.6 31.6,31.6 h 1137.9 c 17.5,0 31.7,-14.1 31.7,-31.6 0,-17.5 -14.2,-31.7 -31.7,-31.7"
         style="fill:#000000;fill-opacity:1;fill-rule:nonzero;stroke:none"
         id="path202" />
      <path
         d="m 11682.3,1585.3 h -1463.9 c -17.5,0 -31.7,14.2 -31.7,31.7 0,17.5 14.2,31.6 31.7,31.6 h 1463.9 c 17.5,0 31.6,-14.1 31.6,-31.6 0,-17.5 -14.1,-31.7 -31.6,-31.7"
         style="fill:#000000;fill-opacity:1;fill-rule:nonzero;stroke:none"
         id="path204" />
      <path
         d="m 13168.3,1345.3 h -2173 c -17.5,0 -31.7,14.2 -31.7,31.7 0,17.5 14.2,31.6 31.7,31.6 h 2173 c 17.5,0 31.7,-14.1 31.7,-31.6 0,-17.5 -14.2,-31.7 -31.7,-31.7"
         style="fill:#000000;fill-opacity:1;fill-rule:nonzero;stroke:none"
         id="path206" />
      <path
         d="m 13168.3,1102.7 h -496.9 c -17.5,0 -31.7,14.1 -31.7,31.6 0,17.5 14.2,31.7 31.7,31.7 h 496.9 c 17.5,0 31.7,-14.2 31.7,-31.7 0,-17.5 -14.2,-31.6 -31.7,-31.6"
         style="fill:#000000;fill-opacity:1;fill-rule:nonzero;stroke:none"
         id="path208" />
      <path
         d="m 12354.8,1102.7 h -2198.9 c -17.5,0 -31.7,14.1 -31.7,31.6 0,17.5 14.2,31.7 31.7,31.7 h 2198.9 c 17.5,0 31.7,-14.2 31.7,-31.7 0,-17.5 -14.2,-31.6 -31.7,-31.6"
         style="fill:#000000;fill-opacity:1;fill-rule:nonzero;stroke:none"
         id="path210" />
      <path
         d="m 11121.4,7836.44 c -226.9,0 -427.9,16.81 -593.4,38.45 57,-186.45 213.2,-368.94 567.2,-476.75 0,0 781.7,-192 781.7,-649.09 0,457.09 781.7,649.09 781.7,649.09 704.9,214.39 625.9,725.76 539.8,972.53 -743,-422.96 -1494.3,-534.23 -2077,-534.23"
         style="fill:#ffffff;fill-opacity:1;fill-rule:nonzero;stroke:none"
         id="path212" />
      <path
         d="m 10575,7837.12 c 76.4,-187.56 254.3,-324.92 529.4,-408.69 27.5,-6.67 626.9,-158.13 772.5,-517.66 145.6,359.53 745.2,510.99 774.1,518.1 252.7,76.9 424.6,200.6 509.2,367.26 92.6,182.37 65.5,381.92 20.2,528.06 -619.1,-344.7 -1311.6,-519.4 -2059,-519.4 -182.7,0 -366.2,10.88 -546.4,32.33 z M 11876.9,6717.4 c -17.5,0 -31.6,14.15 -31.6,31.65 0,426.91 -750.1,616.51 -757.6,618.37 -320.8,97.61 -518.7,265.08 -590,498.2 -3.2,10.32 -0.8,21.51 6.1,29.73 7,8.16 17.6,12.43 28.3,10.94 193.8,-25.34 392.1,-38.2 589.3,-38.2 749.9,0 1443.4,178.35 2061.3,530.09 8.2,4.58 18.1,5.44 26.8,2.11 8.8,-3.28 15.6,-10.33 18.7,-19.17 55.8,-159.8 99.1,-395.94 -11.5,-613.67 -92.8,-182.55 -277.4,-317.01 -548.9,-399.59 -9.2,-2.3 -759.2,-191.9 -759.2,-618.81 0,-17.5 -14.2,-31.65 -31.7,-31.65"
         style="fill:#000000;fill-opacity:1;fill-rule:nonzero;stroke:none"
         id="path214" />
      <path
         d="m 12962.5,8996.04 c -132.4,662.44 272.1,994.04 272.1,994.04 -822.9,-219.46 -1357.7,191.92 -1357.7,191.92 0,0 -534.8,-411.38 -1357.6,-191.92 0,0 594.8,-487.5 105.4,-1461.89 512.4,-63.43 1449.4,-73.69 2337.8,467.85"
         style="fill:#ffffff;fill-opacity:1;fill-rule:nonzero;stroke:none"
         id="path216" />
      <path
         d="m 10672.8,8554.4 c 145.2,-16.26 293.4,-24.48 441.2,-24.48 462.4,0 1150.3,83.95 1813.2,481.81 -88.9,481.33 96.5,787.21 209.3,922.53 -127.7,-26.77 -255.6,-40.31 -381.1,-40.31 -482.5,0 -798.9,194.35 -878.5,249.05 -79.6,-54.7 -396.1,-248.99 -878.4,-249.05 -0.1,0 -0.1,0 -0.1,0 -126.4,0 -255,13.73 -383.6,40.8 143.8,-175.75 412.1,-640.07 58,-1380.35 z m 441.2,-87.78 c 0,0 0.1,0 0,0 -165.5,0 -331.4,10.14 -493.2,30.17 -10.2,1.23 -19.2,7.41 -24,16.5 -4.9,9.03 -5,19.91 -0.4,29.12 472.6,940.88 -91.4,1418.49 -97.2,1423.19 -11.5,9.46 -14.9,25.65 -8.1,39 6.8,13.2 21.8,19.8 36.3,16.1 157.7,-42.12 316.2,-63.45 471,-63.45 0,0 0,0 0.1,0 526.9,0.06 855.9,247.35 859.1,249.85 11.4,8.7 27.2,8.7 38.6,0 3.3,-2.5 332.2,-249.85 859.2,-249.85 154.8,0 313.3,21.33 471,63.45 14.4,3.6 29.5,-2.9 36.3,-16.1 6.8,-13.29 3.5,-29.48 -8,-38.94 -3.9,-3.21 -388,-328.81 -261.2,-963.44 2.6,-13.05 -3.2,-26.28 -14.5,-33.2 -681.2,-415.24 -1390.2,-502.4 -1865,-502.4"
         style="fill:#000000;fill-opacity:1;fill-rule:nonzero;stroke:none"
         id="path218" />
      <path
         d="m 13198.4,8370.67 c -29.5,84.57 -59.8,138.23 -59.8,138.23 -91.9,178.66 -146.9,340.99 -176.1,487.14 -888.4,-541.54 -1825.4,-531.28 -2337.8,-467.85 -3.3,-6.43 -6.1,-12.74 -9.4,-19.29 0,0 -182.6,-322.2 -87.3,-634.01 165.5,-21.64 366.5,-38.45 593.4,-38.45 582.7,0 1334,111.27 2077,534.23"
         style="fill:#ffffff;fill-opacity:1;fill-rule:nonzero;stroke:none"
         id="path220" />
      <path
         d="m 10552.7,7903.63 c 187.2,-23.61 378.4,-35.54 568.7,-35.54 740.5,0 1426.1,173.9 2038.1,516.99 -25,66.2 -48.2,107.81 -48.5,108.3 -79.4,154.43 -136.4,306.25 -170.2,452.77 -669.3,-395.58 -1360.8,-479.53 -1826.8,-479.53 -157.7,0 -316.1,9.21 -470.8,27.45 -7.6,-13.85 -166.2,-306.57 -90.5,-590.44 z m 568.7,-98.84 c -200,0 -401,13.04 -597.5,38.7 -12.3,1.6 -22.6,10.26 -26.2,22.13 -98.1,321.14 82.3,645.26 90.1,658.86 l 8.7,18.05 c 6,11.87 19.1,18.92 32.1,17.06 159.3,-19.72 322.6,-29.67 485.4,-29.67 466.7,0 1163.4,85.56 1832,493.13 8.8,5.44 19.7,6.18 29.1,1.97 9.6,-4.14 16.4,-12.67 18.4,-22.8 30.8,-154.18 89.1,-315.28 173.2,-478.85 0.8,-1.18 31.5,-56.01 61.5,-142.25 5.1,-14.46 -0.9,-30.41 -14.2,-37.96 -627.5,-357.25 -1331.6,-538.37 -2092.6,-538.37"
         style="fill:#000000;fill-opacity:1;fill-rule:nonzero;stroke:none"
         id="path222" />
      <path
         d="M 9177.11,1261.8 H 5363.15 V 882 h 3813.96 v 379.8"
         style="fill:#ffffff;fill-opacity:1;fill-rule:nonzero;stroke:none"
         id="path224" />
      <path
         d="M 5394.8,913.602 H 9145.46 V 1230.1 H 5394.8 Z M 9177.11,850.301 H 5363.15 c -17.5,0 -31.65,14.199 -31.65,31.699 v 379.8 c 0,17.5 14.15,31.6 31.65,31.6 h 3813.96 c 17.5,0 31.65,-14.1 31.65,-31.6 V 882 c 0,-17.5 -14.15,-31.699 -31.65,-31.699"
         style="fill:#000000;fill-opacity:1;fill-rule:nonzero;stroke:none"
         id="path226" />
      <path
         d="m 8844.78,1641.6 h -3149.3 v -379.8 h 3149.3 v 379.8"
         style="fill:#ffffff;fill-opacity:1;fill-rule:nonzero;stroke:none"
         id="path228" />
      <path
         d="m 5727.13,1293.4 h 3086 v 316.5 h -3086 z m 3117.65,-63.3 h -3149.3 c -17.49,0 -31.65,14.2 -31.65,31.7 v 379.8 c 0,17.5 14.16,31.6 31.65,31.6 h 3149.3 c 17.49,0 31.65,-14.1 31.65,-31.6 v -379.8 c 0,-17.5 -14.16,-31.7 -31.65,-31.7"
         style="fill:#000000;fill-opacity:1;fill-rule:nonzero;stroke:none"
         id="path230" />
      <path
         d="M 7270.13,4384.2 5940.41,3528.8 v -118.5 h 2659.38 v 118.5 l -1329.66,855.4"
         style="fill:#ffffff;fill-opacity:1;fill-rule:nonzero;stroke:none"
         id="path232" />
      <path
         d="m 5972.06,3442 h 2596.08 v 69.5 L 7270.13,4346.6 5972.06,3511.5 Z m 2627.73,-63.3 H 5940.41 c -17.49,0 -31.65,14.1 -31.65,31.6 v 118.5 c 0,10.7 5.47,20.8 14.53,26.6 L 7253,4410.9 c 10.45,6.7 23.81,6.7 34.25,0 l 1329.67,-855.5 c 9.05,-5.8 14.52,-15.9 14.52,-26.6 v -118.5 c 0,-17.5 -14.16,-31.6 -31.65,-31.6"
         style="fill:#000000;fill-opacity:1;fill-rule:nonzero;stroke:none"
         id="path234" />
      <path
         d="m 5993.76,3303 v -69.8 c 0,-36.1 29.24,-65.4 65.41,-65.4 h 332.39 c 36.11,0 65.41,29.3 65.41,65.4 v 69.8 h -463.21"
         style="fill:#ffffff;fill-opacity:1;fill-rule:nonzero;stroke:none"
         id="path236" />
      <path
         d="m 6025.41,3271.4 v -38.2 c 0,-18.6 15.15,-33.8 33.76,-33.8 h 332.39 c 18.61,0 33.76,15.2 33.76,33.8 v 38.2 z m 366.15,-135.3 h -332.39 c -53.51,0 -97.06,43.5 -97.06,97.1 v 69.8 c 0,17.5 14.15,31.7 31.65,31.7 h 463.21 c 17.49,0 31.65,-14.2 31.65,-31.7 v -69.8 c 0,-53.6 -43.55,-97.1 -97.06,-97.1"
         style="fill:#000000;fill-opacity:1;fill-rule:nonzero;stroke:none"
         id="path238" />
      <path
         d="m 6618.32,3303 v -69.8 c 0,-36.1 29.23,-65.4 65.4,-65.4 h 332.34 c 36.1,0 65.4,29.3 65.4,65.4 v 69.8 h -463.14"
         style="fill:#ffffff;fill-opacity:1;fill-rule:nonzero;stroke:none"
         id="path240" />
      <path
         d="m 6649.97,3271.4 v -38.2 c 0,-18.6 15.14,-33.8 33.75,-33.8 h 332.34 c 18.6,0 33.75,15.2 33.75,33.8 v 38.2 z m 366.09,-135.3 h -332.34 c -53.51,0 -97.05,43.5 -97.05,97.1 v 69.8 c 0,17.5 14.15,31.7 31.65,31.7 h 463.14 c 17.5,0 31.65,-14.2 31.65,-31.7 v -69.8 c 0,-53.6 -43.54,-97.1 -97.05,-97.1"
         style="fill:#000000;fill-opacity:1;fill-rule:nonzero;stroke:none"
         id="path242" />
      <path
         d="m 7458.8,3303 v -69.8 c 0,-36.1 29.24,-65.4 65.35,-65.4 h 332.4 c 36.16,0 65.4,29.3 65.4,65.4 V 3303 H 7458.8"
         style="fill:#ffffff;fill-opacity:1;fill-rule:nonzero;stroke:none"
         id="path244" />
      <path
         d="m 7490.45,3271.4 v -38.2 c 0,-18.6 15.12,-33.8 33.7,-33.8 h 332.4 c 18.6,0 33.75,15.2 33.75,33.8 v 38.2 z m 366.1,-135.3 h -332.4 c -53.48,0 -97,43.5 -97,97.1 v 69.8 c 0,17.5 14.15,31.7 31.65,31.7 h 463.15 c 17.49,0 31.65,-14.2 31.65,-31.7 v -69.8 c 0,-53.6 -43.56,-97.1 -97.05,-97.1"
         style="fill:#000000;fill-opacity:1;fill-rule:nonzero;stroke:none"
         id="path246" />
      <path
         d="m 8083.3,3303 v -69.8 c 0,-36.1 29.29,-65.4 65.4,-65.4 h 332.4 c 36.1,0 65.34,29.3 65.34,65.4 V 3303 H 8083.3"
         style="fill:#ffffff;fill-opacity:1;fill-rule:nonzero;stroke:none"
         id="path248" />
      <path
         d="m 8114.95,3271.4 v -38.2 c 0,-18.6 15.14,-33.8 33.75,-33.8 h 332.4 c 18.57,0 33.69,15.2 33.69,33.8 v 38.2 z m 366.15,-135.3 h -332.4 c -53.51,0 -97.05,43.5 -97.05,97.1 v 69.8 c 0,17.5 14.15,31.7 31.65,31.7 h 463.14 c 17.5,0 31.65,-14.2 31.65,-31.7 v -69.8 c 0,-53.6 -43.51,-97.1 -96.99,-97.1"
         style="fill:#000000;fill-opacity:1;fill-rule:nonzero;stroke:none"
         id="path250" />
      <path
         d="m 6389.28,2014.5 h -327.83 v 1046.1 h 327.83 V 2014.5"
         style="fill:#ffffff;fill-opacity:1;fill-rule:nonzero;stroke:none"
         id="path252" />
      <path
         d="m 6093.1,2046.1 h 264.53 v 982.8 H 6093.1 Z m 296.18,-63.3 h -327.83 c -17.49,0 -31.65,14.2 -31.65,31.7 v 1046.1 c 0,17.5 14.16,31.6 31.65,31.6 h 327.83 c 17.49,0 31.65,-14.1 31.65,-31.6 V 2014.5 c 0,-17.5 -14.16,-31.7 -31.65,-31.7"
         style="fill:#000000;fill-opacity:1;fill-rule:nonzero;stroke:none"
         id="path254" />
      <path
         d="m 7013.76,2014.5 h -327.82 v 1046.1 h 327.82 V 2014.5"
         style="fill:#ffffff;fill-opacity:1;fill-rule:nonzero;stroke:none"
         id="path256" />
      <path
         d="m 6717.6,2046.1 h 264.52 v 982.8 H 6717.6 Z m 296.16,-63.3 h -327.82 c -17.49,0 -31.65,14.2 -31.65,31.7 v 1046.1 c 0,17.5 14.16,31.6 31.65,31.6 h 327.82 c 17.5,0 31.66,-14.1 31.66,-31.6 V 2014.5 c 0,-17.5 -14.16,-31.7 -31.66,-31.7"
         style="fill:#000000;fill-opacity:1;fill-rule:nonzero;stroke:none"
         id="path258" />
      <path
         d="m 7854.32,2014.5 h -327.89 v 1046.1 h 327.89 V 2014.5"
         style="fill:#ffffff;fill-opacity:1;fill-rule:nonzero;stroke:none"
         id="path260" />
      <path
         d="m 7558.08,2046.1 h 264.59 v 982.8 h -264.59 z m 296.24,-63.3 h -327.89 c -17.49,0 -31.65,14.2 -31.65,31.7 v 1046.1 c 0,17.5 14.16,31.6 31.65,31.6 h 327.89 c 17.49,0 31.65,-14.1 31.65,-31.6 V 2014.5 c 0,-17.5 -14.16,-31.7 -31.65,-31.7"
         style="fill:#000000;fill-opacity:1;fill-rule:nonzero;stroke:none"
         id="path262" />
      <path
         d="m 8478.81,2014.5 h -327.82 v 1046.1 h 327.82 V 2014.5"
         style="fill:#ffffff;fill-opacity:1;fill-rule:nonzero;stroke:none"
         id="path264" />
      <path
         d="m 8182.64,2046.1 h 264.52 v 982.8 h -264.52 z m 296.17,-63.3 h -327.82 c -17.5,0 -31.66,14.2 -31.66,31.7 v 1046.1 c 0,17.5 14.16,31.6 31.66,31.6 h 327.82 c 17.49,0 31.65,-14.1 31.65,-31.6 V 2014.5 c 0,-17.5 -14.16,-31.7 -31.65,-31.7"
         style="fill:#000000;fill-opacity:1;fill-rule:nonzero;stroke:none"
         id="path266" />
      <path
         d="m 8546.44,1771.9 v 70 c 0,36.1 -29.24,65.4 -65.34,65.4 h -332.4 c -36.11,0 -65.4,-29.3 -65.4,-65.4 v -70 h 463.14"
         style="fill:#ffffff;fill-opacity:1;fill-rule:nonzero;stroke:none"
         id="path268" />
      <path
         d="m 8114.95,1803.5 h 399.84 v 38.4 c 0,18.6 -15.12,33.7 -33.69,33.7 h -332.4 c -18.61,0 -33.75,-15.1 -33.75,-33.7 z m 431.49,-63.3 H 8083.3 c -17.5,0 -31.65,14.2 -31.65,31.7 v 70 c 0,53.5 43.54,97 97.05,97 h 332.4 c 53.48,0 96.99,-43.5 96.99,-97 v -70 c 0,-17.5 -14.15,-31.7 -31.65,-31.7"
         style="fill:#000000;fill-opacity:1;fill-rule:nonzero;stroke:none"
         id="path270" />
      <path
         d="m 7921.95,1771.9 v 70 c 0,36.1 -29.24,65.4 -65.4,65.4 h -332.4 c -36.11,0 -65.35,-29.3 -65.35,-65.4 v -70 h 463.15"
         style="fill:#ffffff;fill-opacity:1;fill-rule:nonzero;stroke:none"
         id="path272" />
      <path
         d="m 7490.45,1803.5 h 399.85 v 38.4 c 0,18.6 -15.15,33.7 -33.75,33.7 h -332.4 c -18.58,0 -33.7,-15.1 -33.7,-33.7 z m 431.5,-63.3 H 7458.8 c -17.5,0 -31.65,14.2 -31.65,31.7 v 70 c 0,53.5 43.52,97 97,97 h 332.4 c 53.49,0 97.05,-43.5 97.05,-97 v -70 c 0,-17.5 -14.16,-31.7 -31.65,-31.7"
         style="fill:#000000;fill-opacity:1;fill-rule:nonzero;stroke:none"
         id="path274" />
      <path
         d="m 7081.46,1771.9 v 70 c 0,36.1 -29.3,65.4 -65.4,65.4 h -332.34 c -36.17,0 -65.4,-29.3 -65.4,-65.4 v -70 h 463.14"
         style="fill:#ffffff;fill-opacity:1;fill-rule:nonzero;stroke:none"
         id="path276" />
      <path
         d="m 6649.97,1803.5 h 399.84 v 38.4 c 0,18.6 -15.15,33.7 -33.75,33.7 h -332.34 c -18.61,0 -33.75,-15.1 -33.75,-33.7 z m 431.49,-63.3 h -463.14 c -17.5,0 -31.65,14.2 -31.65,31.7 v 70 c 0,53.5 43.54,97 97.05,97 h 332.34 c 53.51,0 97.05,-43.5 97.05,-97 v -70 c 0,-17.5 -14.15,-31.7 -31.65,-31.7"
         style="fill:#000000;fill-opacity:1;fill-rule:nonzero;stroke:none"
         id="path278" />
      <path
         d="m 6456.97,1771.9 v 70 c 0,36.1 -29.3,65.4 -65.41,65.4 h -332.39 c -36.17,0 -65.41,-29.3 -65.41,-65.4 v -70 h 463.21"
         style="fill:#ffffff;fill-opacity:1;fill-rule:nonzero;stroke:none"
         id="path280" />
      <path
         d="m 6025.41,1803.5 h 399.91 v 38.4 c 0,18.6 -15.15,33.7 -33.76,33.7 h -332.39 c -18.61,0 -33.76,-15.1 -33.76,-33.7 z m 431.56,-63.3 h -463.21 c -17.5,0 -31.65,14.2 -31.65,31.7 v 70 c 0,53.5 43.55,97 97.06,97 h 332.39 c 53.51,0 97.06,-43.5 97.06,-97 v -70 c 0,-17.5 -14.16,-31.7 -31.65,-31.7"
         style="fill:#000000;fill-opacity:1;fill-rule:nonzero;stroke:none"
         id="path282" />
      <path
         d="M 6200.42,13414.5 H 5027.29 v 1173.2 h 1173.13 v -1173.2"
         style="fill:#ffffff;fill-opacity:1;fill-rule:nonzero;stroke:none"
         id="path284" />
      <path
         d="M 5058.94,13446.1 H 6168.77 V 14556 H 5058.94 Z m 1141.48,-63.3 H 5027.29 c -17.5,0 -31.66,14.2 -31.66,31.7 v 1173.2 c 0,17.5 14.16,31.6 31.66,31.6 h 1173.13 c 17.5,0 31.65,-14.1 31.65,-31.6 v -1173.2 c 0,-17.5 -14.15,-31.7 -31.65,-31.7"
         style="fill:#000000;fill-opacity:1;fill-rule:nonzero;stroke:none"
         id="path286" />
      <path
         d="m 8834.33,14431.9 h -2413.4 c -17.5,0 -31.65,14.1 -31.65,31.6 0,17.5 14.15,31.7 31.65,31.7 h 2413.4 c 17.49,0 31.65,-14.2 31.65,-31.7 0,-17.5 -14.16,-31.6 -31.65,-31.6"
         style="fill:#000000;fill-opacity:1;fill-rule:nonzero;stroke:none"
         id="path288" />
      <path
         d="m 8834.33,13969.4 h -2413.4 c -17.5,0 -31.65,14.1 -31.65,31.6 0,17.5 14.15,31.7 31.65,31.7 h 2413.4 c 17.49,0 31.65,-14.2 31.65,-31.7 0,-17.5 -14.16,-31.6 -31.65,-31.6"
         style="fill:#000000;fill-opacity:1;fill-rule:nonzero;stroke:none"
         id="path290" />
      <path
         d="M 7987.66,13506.9 H 6420.93 c -17.5,0 -31.65,14.2 -31.65,31.7 0,17.5 14.15,31.7 31.65,31.7 h 1566.73 c 17.49,0 31.65,-14.2 31.65,-31.7 0,-17.5 -14.16,-31.7 -31.65,-31.7"
         style="fill:#000000;fill-opacity:1;fill-rule:nonzero;stroke:none"
         id="path292" />
      <path
         d="m 5342.56,13917.3 271.32,-325.5 271.33,325.5 -95.3,397.3 h -352.05 z m 271.32,-406.6 c -9.39,0 -18.29,4.1 -24.32,11.3 l -305.82,367 c -6.4,7.7 -8.77,17.9 -6.46,27.6 l 104.84,437 c 3.44,14.2 16.17,24.3 30.79,24.3 h 401.95 c 14.62,0 27.35,-10.1 30.78,-24.3 l 104.85,-437 c 2.32,-9.7 -0.07,-19.9 -6.46,-27.6 l -305.82,-367 c -6.03,-7.2 -14.93,-11.3 -24.33,-11.3"
         style="fill:#000000;fill-opacity:1;fill-rule:nonzero;stroke:none"
         id="path294" />
      <path
         d="m 5613.88,14008.7 c -35.54,0 -64.47,-28.9 -64.47,-64.4 0,-35.7 28.93,-64.6 64.47,-64.6 35.55,0 64.48,28.9 64.48,64.6 0,35.5 -28.93,64.4 -64.48,64.4 z m 0,-192.3 c -70.44,0 -127.78,57.4 -127.78,127.9 0,70.4 57.34,127.7 127.78,127.7 70.45,0 127.79,-57.3 127.79,-127.7 0,-70.5 -57.34,-127.9 -127.79,-127.9"
         style="fill:#000000;fill-opacity:1;fill-rule:nonzero;stroke:none"
         id="path296" />
      <path
         d="m 5919.7,14428.1 h -611.63 c -17.5,0 -31.65,14.1 -31.65,31.6 0,17.5 14.15,31.7 31.65,31.7 h 611.63 c 17.5,0 31.65,-14.2 31.65,-31.7 0,-17.5 -14.15,-31.6 -31.65,-31.6"
         style="fill:#000000;fill-opacity:1;fill-rule:nonzero;stroke:none"
         id="path298" />
    </g>
  </g>
</svg>
