<?xml version="1.0" encoding="UTF-8" standalone="no"?>
<!-- Created with Inkscape (http://www.inkscape.org/) -->

<svg
   version="1.1"
   id="svg2"
   width="5333.3335"
   height="5333.3335"
   viewBox="0 0 5333.3335 5333.3335"
   sodipodi:docname="vecteezy_balance-court-judge-justice-law-legal-scale-scales-blue_13461045.eps"
   xmlns:inkscape="http://www.inkscape.org/namespaces/inkscape"
   xmlns:sodipodi="http://sodipodi.sourceforge.net/DTD/sodipodi-0.dtd"
   xmlns="http://www.w3.org/2000/svg"
   xmlns:svg="http://www.w3.org/2000/svg">
  <defs
     id="defs6" />
  <sodipodi:namedview
     id="namedview4"
     pagecolor="#ffffff"
     bordercolor="#000000"
     borderopacity="0.25"
     inkscape:showpageshadow="2"
     inkscape:pageopacity="0.0"
     inkscape:pagecheckerboard="0"
     inkscape:deskcolor="#d1d1d1" />
  <g
     id="g8"
     inkscape:groupmode="layer"
     inkscape:label="ink_ext_XXXXXX"
     transform="matrix(1.3333333,0,0,-1.3333333,0,5333.3333)">
    <g
       id="g10"
       transform="scale(0.1)">
      <path
         d="M 40000,0 H 0 V 40000 H 40000 V 0"
         style="fill:#ffffff;fill-opacity:1;fill-rule:nonzero;stroke:none"
         id="path12" />
      <path
         d="M 12790.2,34002.6 C 11708.4,33442.7 10688.7,32762.5 9762.45,31971.2 8873.46,31211.9 8068.87,30353.4 7370.31,29415.6 6686.67,28498 6104.15,27505.1 5635.91,26461 5170.73,25424 4817.04,24337 4583.62,23224.7 c -234.06,-1115.3 -347.8,-2255.3 -336.06,-3394.9 12.06,-1169.2 155.91,-2337.1 427.76,-3474.2 141.23,-591.4 317.21,-1174.4 525.8,-1745.3 104.3,-285.6 216.82,-568.2 337.23,-847.3 60.19,-139.5 122.44,-278.1 186.45,-416 58.96,-126.5 111.45,-265.6 195.46,-378.1 150.15,-200.7 435.43,-258.7 651.86,-131.1 211.23,124.6 300.73,381.6 216.33,610.3 -49.83,135.2 -121.87,263.4 -181.83,394.3 -63.85,139.2 -125.66,279.4 -185.28,420.5 -118.51,280.3 -229.37,563.9 -331.18,850.8 -397.53,1120.3 -653.98,2291.2 -767.65,3474.4 -110.35,1149 -84.35,2310.5 76.9,3453.5 159.04,1127.2 449,2235.7 860.14,3297.3 414.13,1069.2 952.46,2089.7 1602.71,3034 664.35,964.8 1444.82,1848.7 2319.54,2627.7 905,805.9 1910.3,1499.2 2983.9,2061 1073,561.5 2214.8,992 3392,1275.9 1127.3,271.9 2287.4,413.9 3447.2,413.4 1137.6,-0.5 2274.7,-139.4 3381.1,-402.6 1101.5,-261.9 2175,-645.9 3189.3,-1149.3 1030.5,-511.4 2000.2,-1145.8 2882.5,-1884.1 460.5,-385.3 897.2,-798.8 1307.1,-1237.4 97.6,-104.4 187.9,-214.9 284.8,-319.8 82.9,-89.8 175.2,-162.4 296.1,-191.3 220.8,-52.7 453.4,49.4 561,249.6 50.9,94.5 71.4,204.5 56.6,310.8 -20.5,147 -114.5,255.7 -209.8,362.6 -199.8,224.4 -406.1,442.9 -618.5,655.5 -419.5,419.9 -862.9,816.1 -1327.4,1185.9 -908.2,723 -1896.7,1344.4 -2942,1849.3 -1034.7,500 -2123.6,884.5 -3242,1147.8 -1114.9,262.4 -2256.6,408.1 -3402.1,424.2 -1164.8,16.3 -2331.5,-97.7 -3471.3,-338.1 -1182.8,-249.4 -2336.7,-636.6 -3430.8,-1150.3 -178.1,-83.6 -354.6,-170.7 -529.3,-261.1"
         style="fill:#414faa;fill-opacity:1;fill-rule:nonzero;stroke:none"
         id="path14" />
      <path
         d="m 12797.9,7042.6 c -60.3,116.6 -168.7,187.9 -278.5,252.7 -130,77 -259.4,155.2 -387.3,235.8 -102,64.2 -205.8,128.2 -329.1,137.2 -129.8,9.4 -262.4,-34 -361.2,-118.4 -172.1,-146.8 -229.9,-406.5 -124.3,-609 56.8,-109.1 154.4,-188.6 255.9,-254.3 110,-71.3 225.2,-135.2 337.7,-202.4 124.2,-74.1 248.8,-163.8 397.2,-175.9 131.5,-10.7 265.7,30.9 366.3,116.5 175.8,149.5 229.7,412.4 123.3,617.8"
         style="fill:#414faa;fill-opacity:1;fill-rule:nonzero;stroke:none"
         id="path16" />
      <path
         d="m 10187.7,8950 c -64.3,124.3 -181.2,208.6 -281.89,301.3 -110.01,101.5 -216.77,206.8 -322.63,312.5 -217.21,217 -427.59,440.8 -630.74,671 -202.64,229.5 -395.87,466.3 -585.45,706.6 -77.93,98.6 -167.38,184.2 -290.82,220.5 -116.36,34.2 -244.11,25.7 -354.17,-25.8 -213.53,-99.6 -333.45,-342.4 -279.71,-572.3 32.93,-140.5 131.93,-254.7 221.5,-363.5 96.37,-117.1 192.39,-234.7 289.97,-350.8 390.41,-463.9 807.62,-905.2 1249.05,-1320.9 113.99,-107.3 222.68,-236 375.49,-287.5 134.79,-45.4 286.57,-32.3 410.05,39 228.45,131.9 321.05,434.7 199.35,669.9"
         style="fill:#414faa;fill-opacity:1;fill-rule:nonzero;stroke:none"
         id="path18" />
      <path
         d="m 33232.5,26497.9 c 532.6,-1085.4 934.4,-2235.2 1188.6,-3417.3 122.4,-568.8 210.7,-1145 264.4,-1724.4 26.8,-289.7 45,-580.3 54.5,-871 9.4,-286.9 1,-572.2 -0.9,-858.9 -4,-601 -65.8,-1204.3 -155.5,-1798 -88.3,-584.4 -211.1,-1160.7 -367.8,-1730.4 -299.5,-1089 -723.7,-2143.9 -1261.7,-3137 -545.5,-1006.5 -1208.3,-1948.8 -1971.8,-2801.8 C 30191.5,9275.6 29291.5,8490.5 28311.5,7823.3 27302.1,7136.1 26208.5,6575.1 25062.4,6154.1 23946.2,5744 22782,5465.7 21599.8,5336 c -1149.4,-126 -2313.2,-114.1 -3459.8,34.8 -564.4,73.2 -1124.6,179.4 -1676.9,317 -284.4,70.8 -566.6,150.1 -846.3,237.4 -254.5,79.5 -534.8,229.8 -791.5,78.9 -204.5,-120.1 -295.9,-374.6 -220.2,-598.5 91.1,-269.2 363.6,-331.9 605.5,-409.2 543.3,-173.6 1095.9,-318 1654.7,-432.2 1120.1,-229.1 2264.5,-335.2 3407.6,-315.4 1169,20.3 2334.7,173.7 3470.2,451.5 1175.1,287.6 2315,712.1 3393.5,1260.1 1083.8,550.4 2105.3,1223.8 3034.6,2007.7 897.7,757.1 1707.9,1616.9 2413.6,2555.6 689.4,916.9 1277.9,1908.3 1751.2,2953.3 468.2,1033.5 827.2,2116.9 1066.1,3226.1 240.4,1116.8 358.4,2259.3 350.9,3401.6 -7.6,1170.9 -147.5,2340.1 -414.9,3480 -135.9,579.6 -304.7,1151.3 -505.1,1711.8 -102.1,285 -212.2,567.2 -330.5,845.8 -59.5,140.7 -121.2,280.5 -184.9,419.3 -60.9,132.8 -117,272.1 -190.2,398.7 -121,209.4 -365.3,312.5 -598.7,237.9 -213.2,-68.3 -354.7,-276.4 -346.6,-499.4 4.5,-124.3 63.8,-228.2 117.4,-337.4 50.9,-103.8 101.7,-207.5 152.6,-311.2 58.7,-119.5 117.3,-239 175.9,-358.4 13.1,-26.6 27.1,-53.1 39.3,-80.2 -121.2,268.5 -260.2,530 -389.9,794.4 -15.7,32.2 -31.7,64.2 -47.2,96.5 0.1,-0.3 1.7,-3.6 2.3,-4.6 496.7,-1012.4 -59.6,120.6 0,0"
         style="fill:#414faa;fill-opacity:1;fill-rule:nonzero;stroke:none"
         id="path20" />
      <path
         d="m 14005.8,31581.4 c 6396.1,3310.5 14265,809.1 17575.5,-5587 3310.5,-6396.1 809.1,-14264.9 -5587,-17575.5 -6396.1,-3310.5 -14264.9,-809.2 -17575.5,5587 -3310.52,6396.2 -809.21,14264.9 5587,17575.5"
         style="fill:#d9d9f0;fill-opacity:1;fill-rule:nonzero;stroke:none"
         id="path22" />
      <path
         d="m 9925.9,18843.3 c 125.2,-1937.3 1691.3,-3529 3531.3,-3529 1870,0 3461.8,1591.7 3589.1,3529 z m 3531.3,-4029 c -1077.8,0 -2094.3,453 -2862.3,1275.4 -759.01,813 -1177.05,1879.7 -1177.05,3003.6 0,138 111.94,250 250,250 h 7636.65 c 138.1,0 250,-112 250,-250 0,-2319.5 -1876.3,-4279 -4097.3,-4279"
         style="fill:#414faa;fill-opacity:1;fill-rule:nonzero;stroke:none"
         id="path24" />
      <path
         d="m 11015.8,18842.8 c -28.1,0 -56.5,4.7 -84.5,14.7 -129.9,46.7 -197.5,189.8 -150.8,319.7 l 2245.8,6259.8 c 34.7,96.6 124.9,162.2 227.6,165.4 101.9,2 196.7,-56.7 237.4,-151 l 2695.4,-6259.7 c 54.6,-126.8 -4,-273.9 -130.8,-328.5 -126.7,-54.6 -273.8,3.9 -328.5,130.7 l -2444.6,5677.3 -2031.7,-5662.8 c -36.6,-102.1 -132.8,-165.6 -235.3,-165.6"
         style="fill:#414faa;fill-opacity:1;fill-rule:nonzero;stroke:none"
         id="path26" />
      <path
         d="m 23010.9,20184.4 c 121.2,-1962.1 1658.9,-3518.8 3531.7,-3518.8 1872.7,0 3410.4,1556.7 3531.6,3518.8 z m 3531.7,-4018.8 c -2227.3,0 -4039.4,1915 -4039.4,4268.8 0,138.1 111.9,250 250,250 h 7578.7 c 138.1,0 250,-111.9 250,-250 0,-2353.8 -1812,-4268.8 -4039.3,-4268.8"
         style="fill:#414faa;fill-opacity:1;fill-rule:nonzero;stroke:none"
         id="path28" />
      <path
         d="m 28984.5,20184.3 c -102.6,0 -198.7,63.6 -235.3,165.7 l -2032.2,5662.5 -2444.2,-5677 c -54.7,-126.9 -201.8,-185.3 -328.6,-130.8 -126.8,54.7 -185.3,201.7 -130.7,328.6 l 2695,6259.3 c 40.6,94.3 133.3,153.2 237.4,151.1 102.6,-3.3 192.9,-68.8 227.5,-165.5 l 2246.4,-6259.4 c 46.6,-129.9 -20.9,-273.1 -150.9,-319.7 -27.9,-10 -56.4,-14.8 -84.4,-14.8"
         style="fill:#414faa;fill-opacity:1;fill-rule:nonzero;stroke:none"
         id="path30" />
      <path
         d="m 22240.2,25997.7 c -127.1,0 -235.9,96.4 -248.5,225.6 -13.4,137.4 87.1,259.7 224.5,273.2 l 4294.3,420.6 1511.3,160.2 c 137.6,14.8 260.5,-84.9 275,-222.2 14.6,-137.3 -84.9,-260.4 -222.2,-274.9 l -1513.3,-160.5 -4296.4,-420.9 c -8.3,-0.8 -16.5,-1.1 -24.7,-1.1"
         style="fill:#414faa;fill-opacity:1;fill-rule:nonzero;stroke:none"
         id="path32" />
      <path
         d="m 12362.9,25022.2 c -127.1,0 -235.8,96.5 -248.5,225.7 -13.4,137.4 87.1,259.6 224.5,273.1 l 5390.7,527.2 c 136.8,13 259.7,-87 273.2,-224.5 13.4,-137.4 -87.1,-259.6 -224.5,-273.1 l -5390.7,-527.3 c -8.3,-0.7 -16.5,-1.1 -24.7,-1.1"
         style="fill:#414faa;fill-opacity:1;fill-rule:nonzero;stroke:none"
         id="path34" />
      <path
         d="m 19374.3,13977.8 h 1688.6 l -1013.2,7730.8 z m 1973.5,-500 h -2246.3 c -70.1,0 -136.9,29.5 -184.3,81.1 -47.3,51.7 -70.8,120.9 -64.8,190.7 l 859.4,9837.2 c 11.6,132.7 126.7,234 258.4,228 16.6,-0.6 33.2,-0.4 49.8,-0.5 10.5,-0.1 20.7,-0.1 30.9,0.3 2.6,0 5.2,0 7.7,0 125.1,0 231.5,-92.7 247.8,-217.5 l 1289.3,-9836.8 c 9.3,-71.3 -12.5,-143.3 -60,-197.4 -47.5,-54.1 -115.9,-85.1 -187.9,-85.1"
         style="fill:#414faa;fill-opacity:1;fill-rule:nonzero;stroke:none"
         id="path36" />
      <path
         d="m 15757.9,12636.7 h 8484.3 V 13928 h -2668.5 l 22,-167.6 c 9.3,-71.4 -12.5,-143.4 -60,-197.5 -47.4,-54.1 -115.9,-85.1 -187.9,-85.1 h -2246.3 c -70.1,0 -136.9,29.4 -184.3,81.1 -47.3,51.6 -70.8,120.8 -64.8,190.7 l 15.6,178.4 h -3110.1 z m 8734.3,-500 h -8984.3 c -138.1,0 -250,111.9 -250,250 V 14178 c 0,138.1 111.9,250 250,250 h 3632.9 c 70,0 136.9,-29.4 184.2,-81.1 47.4,-51.7 70.9,-120.8 64.8,-190.7 l -15.5,-178.4 h 1688.5 l -21.9,167.7 c -9.4,71.3 12.4,143.3 59.9,197.4 47.4,54.1 115.9,85.1 187.9,85.1 h 3203.5 c 138.1,0 250,-111.9 250,-250 v -1791.3 c 0,-138.1 -111.9,-250 -250,-250"
         style="fill:#414faa;fill-opacity:1;fill-rule:nonzero;stroke:none"
         id="path38" />
      <path
         d="m 13261.6,25102.5 c -138.1,0 -250,112 -250,250 v 1788.4 c 0,138.1 111.9,250 250,250 138.1,0 250,-111.9 250,-250 v -1788.4 c 0,-138 -111.9,-250 -250,-250"
         style="fill:#414faa;fill-opacity:1;fill-rule:nonzero;stroke:none"
         id="path40" />
      <path
         d="m 26738.1,26443.7 c -138.1,0 -250,112 -250,250 v 1788.8 c 0,138 111.9,250 250,250 138.1,0 250,-112 250,-250 v -1788.8 c 0,-138 -111.9,-250 -250,-250"
         style="fill:#414faa;fill-opacity:1;fill-rule:nonzero;stroke:none"
         id="path42" />
      <path
         d="m 20000.1,26441.6 c -357.5,0 -648.4,-287.9 -648.4,-641.8 0,-354.1 290.9,-642.2 648.4,-642.2 357.5,0 648.3,288.1 648.3,642.2 0,353.9 -290.8,641.8 -648.3,641.8 z m 0,-1784 c -633.2,0 -1148.4,512.4 -1148.4,1142.2 0,629.6 515.2,1141.8 1148.4,1141.8 633.2,0 1148.3,-512.2 1148.3,-1141.8 0,-629.8 -515.1,-1142.2 -1148.3,-1142.2"
         style="fill:#414faa;fill-opacity:1;fill-rule:nonzero;stroke:none"
         id="path44" />
      <path
         d="m 20020,27785.2 c -1111.7,0 -2016,-890.6 -2016,-1985.4 0,-1094.8 904.3,-1985.5 2016,-1985.5 1111.6,0 2016,890.7 2016,1985.5 0,1094.8 -904.4,1985.4 -2016,1985.4 z m 0,-4470.9 c -1387.4,0 -2516,1114.9 -2516,2485.5 0,1370.5 1128.6,2485.4 2516,2485.4 1387.3,0 2516,-1114.9 2516,-2485.4 0,-1370.6 -1128.7,-2485.5 -2516,-2485.5"
         style="fill:#414faa;fill-opacity:1;fill-rule:nonzero;stroke:none"
         id="path46" />
      <path
         d="m 12286,10429.7 h 15428.2 l -694.9,1707 H 12980.7 Z m 15800.9,-500 c -0.3,0 -0.7,0 -1,0 H 11914.4 c -83.3,0 -161,41.4 -207.5,110.5 -46.4,69.1 -55.5,156.7 -24.1,233.8 l 898.2,2206.9 c 38.3,94.2 129.9,155.8 231.6,155.8 h 14374.9 c 101.7,0 193.2,-61.6 231.5,-155.8 l 890.2,-2186.8 c 17.7,-34.3 27.7,-73.2 27.7,-114.4 0,-138 -111.9,-250 -250,-250"
         style="fill:#414faa;fill-opacity:1;fill-rule:nonzero;stroke:none"
         id="path48" />
      <path
         d="m 20000.1,27785.2 c -138.1,0 -250,111.9 -250,250 v 1788.4 c 0,138.1 111.9,250 250,250 138.1,0 250,-111.9 250,-250 v -1788.4 c 0,-138.1 -111.9,-250 -250,-250"
         style="fill:#414faa;fill-opacity:1;fill-rule:nonzero;stroke:none"
         id="path50" />
      <path
         d="M 30781.2,9926.4 H 9218.77 c -138.06,0 -250,111.9 -250,250 0,138.1 111.94,250 250,250 H 30781.2 c 138.1,0 250,-111.9 250,-250 0,-138.1 -111.9,-250 -250,-250"
         style="fill:#414faa;fill-opacity:1;fill-rule:nonzero;stroke:none"
         id="path52" />
    </g>
  </g>
</svg>
