<?xml version="1.0" encoding="UTF-8" standalone="no"?>
<!-- Created with Inkscape (http://www.inkscape.org/) -->

<svg
   version="1.1"
   id="svg2"
   width="3129.3333"
   height="2557.3333"
   viewBox="0 0 3129.3333 2557.3333"
   sodipodi:docname="vecteezy_legal-advice-illustration_5968482.eps"
   xmlns:inkscape="http://www.inkscape.org/namespaces/inkscape"
   xmlns:sodipodi="http://sodipodi.sourceforge.net/DTD/sodipodi-0.dtd"
   xmlns="http://www.w3.org/2000/svg"
   xmlns:svg="http://www.w3.org/2000/svg">
  <defs
     id="defs6" />
  <sodipodi:namedview
     id="namedview4"
     pagecolor="#ffffff"
     bordercolor="#000000"
     borderopacity="0.25"
     inkscape:showpageshadow="2"
     inkscape:pageopacity="0.0"
     inkscape:pagecheckerboard="0"
     inkscape:deskcolor="#d1d1d1" />
  <g
     id="g8"
     inkscape:groupmode="layer"
     inkscape:label="ink_ext_XXXXXX"
     transform="matrix(1.3333333,0,0,-1.3333333,0,2557.3333)">
    <g
       id="g10"
       transform="scale(0.1)">
      <path
         d="M -0.03125,2.90234 H 23465.269 V 19180.002 H -0.03125 Z"
         style="fill:#f2f3f3;fill-opacity:1;fill-rule:nonzero;stroke:none"
         id="path12" />
      <path
         d="M 23465.4,18710.4 H -0.00390625 v 247.3 H 23465.4 v -247.3"
         style="fill:#f0f1f0;fill-opacity:1;fill-rule:nonzero;stroke:none"
         id="path14" />
      <path
         d="M 23465.4,17390 H -0.00390625 v 247.3 H 23465.4 V 17390"
         style="fill:#f0f1f0;fill-opacity:1;fill-rule:nonzero;stroke:none"
         id="path16" />
      <path
         d="M 23465.4,16069.6 H -0.00390625 V 16317 H 23465.4 v -247.4"
         style="fill:#f0f1f0;fill-opacity:1;fill-rule:nonzero;stroke:none"
         id="path18" />
      <path
         d="M 23465.4,14749.3 H -0.00390625 v 247.3 H 23465.4 v -247.3"
         style="fill:#f0f1f0;fill-opacity:1;fill-rule:nonzero;stroke:none"
         id="path20" />
      <path
         d="M 23465.4,13428.9 H -0.00390625 v 247.3 H 23465.4 v -247.3"
         style="fill:#f0f1f0;fill-opacity:1;fill-rule:nonzero;stroke:none"
         id="path22" />
      <path
         d="M 23465.4,12108.5 H -0.00390625 v 247.3 H 23465.4 v -247.3"
         style="fill:#f0f1f0;fill-opacity:1;fill-rule:nonzero;stroke:none"
         id="path24" />
      <path
         d="M 23465.4,10788.1 H -0.00390625 v 247.3 H 23465.4 v -247.3"
         style="fill:#f0f1f0;fill-opacity:1;fill-rule:nonzero;stroke:none"
         id="path26" />
      <path
         d="M 23465.4,9467.77 H -0.00390625 v 247.27 H 23465.4 v -247.27"
         style="fill:#f0f1f0;fill-opacity:1;fill-rule:nonzero;stroke:none"
         id="path28" />
      <path
         d="M 23465.4,8147.4 H -0.00390625 v 247.3 H 23465.4 v -247.3"
         style="fill:#f0f1f0;fill-opacity:1;fill-rule:nonzero;stroke:none"
         id="path30" />
      <path
         d="M 23465.4,6827 H -0.00390625 v 247.3 H 23465.4 V 6827"
         style="fill:#f0f1f0;fill-opacity:1;fill-rule:nonzero;stroke:none"
         id="path32" />
      <path
         d="M 23465.4,5506.6 H -0.00390625 v 247.3 H 23465.4 v -247.3"
         style="fill:#f0f1f0;fill-opacity:1;fill-rule:nonzero;stroke:none"
         id="path34" />
      <path
         d="M -0.03125,4186.2 H 23465.269 v 247.402 H -0.03125 Z"
         style="fill:#f0f1f0;fill-opacity:1;fill-rule:nonzero;stroke:none"
         id="path36" />
      <path
         d="M 23465.4,2865.9 H -0.00390625 v 247.3 H 23465.4 v -247.3"
         style="fill:#f0f1f0;fill-opacity:1;fill-rule:nonzero;stroke:none"
         id="path38" />
      <path
         d="M 23465.4,1545.5 H -0.00390625 v 247.3 H 23465.4 v -247.3"
         style="fill:#f0f1f0;fill-opacity:1;fill-rule:nonzero;stroke:none"
         id="path40" />
      <path
         d="M 23465.4,225.102 H -0.00390625 v 247.3 H 23465.4 v -247.3"
         style="fill:#f0f1f0;fill-opacity:1;fill-rule:nonzero;stroke:none"
         id="path42" />
      <path
         d="m 5382.84,14137.6 c 513.88,857.1 64.25,2142.8 1156.2,2571.3 1477.38,551 2954.73,-122.4 4432.06,-489.8 1092,-244.8 2119.7,183.7 2569.3,1102.1 284.4,542 428.3,1231.8 333.6,1858.8 H -0.00390625 V 13002.2 C 107.621,13066.2 230.359,13119.3 372.691,13158.1 c 1670.039,489.7 3918.199,-612.3 5010.149,979.5"
         style="fill:#dfe1ea;fill-opacity:1;fill-rule:nonzero;stroke:none"
         id="path44" />
      <path
         d="m 20413.4,6058.3 c -449.6,-844.9 -256.9,-2037.7 -1348.9,-2385.6 -835,-298.3 -1798.5,-49.7 -2762,198.8 -1092,248.5 -1991.2,-198.8 -2376.6,-1043.7 -192.8,-546.8 -385.5,-1093.5 -963.5,-1391.7 -835.1,-397.6 -1927,-149.1 -2890.5,-99.4 -642.34,0 -1284.7,248.5 -1991.27,99.4 C 6731.74,1137.9 5254.39,1038.5 4419.37,94.2031 4392.45,64.3984 4368.47,33.9023 4346.84,2.80078 H 23465.4 V 7556.9 c -1461.5,375.3 -2541.8,-610.3 -3052,-1498.6"
         style="fill:#dfe1ea;fill-opacity:1;fill-rule:nonzero;stroke:none"
         id="path46" />
      <path
         d="m 17912.8,9800.41 c 0,-3667.31 -3624.7,-6524.91 -7069.7,-6524.91 -3445.02,0 -5290.51,3098.7 -5290.51,6766.1 0,3667.3 2677.47,5399.2 6122.51,5399.2 3445,0 6237.7,-1973.1 6237.7,-5640.39"
         style="fill:#dfe1ea;fill-opacity:1;fill-rule:nonzero;stroke:none"
         id="path48" />
      <path
         d="m 7104.82,3610.1 c 0,-308.6 -1054.88,-558.7 -2356.06,-558.7 -1301.11,0 -2355.92,250.1 -2355.92,558.7 0,308.6 1054.81,558.7 2355.92,558.7 1301.18,0 2356.06,-250.1 2356.06,-558.7"
         style="fill:#c7bfc4;fill-opacity:1;fill-rule:nonzero;stroke:none"
         id="path50" />
      <path
         d="m 10223.5,4647.9 c 0,-328 -2044.21,-594 -4565.98,-594 -2521.7,0 -4565.99,266 -4565.99,594 0,328.1 2044.29,594.1 4565.99,594.1 2521.77,0 4565.98,-266 4565.98,-594.1"
         style="fill:#c7bfc4;fill-opacity:1;fill-rule:nonzero;stroke:none"
         id="path52" />
      <path
         d="m 12361.9,4051.9 c 0,-329.1 -1268.1,-595.9 -2832.4,-595.9 -1564.3,0 -2832.41,266.8 -2832.41,595.9 0,329.2 1268.11,596 2832.41,596 1564.3,0 2832.4,-266.8 2832.4,-596"
         style="fill:#c7bfc4;fill-opacity:1;fill-rule:nonzero;stroke:none"
         id="path54" />
      <path
         d="m 16902.4,3956.1 c 0,-340 -1340.4,-615.7 -2993.9,-615.7 -1653.5,0 -2993.9,275.7 -2993.9,615.7 0,340 1340.4,615.7 2993.9,615.7 1653.5,0 2993.9,-275.7 2993.9,-615.7"
         style="fill:#c7bfc4;fill-opacity:1;fill-rule:nonzero;stroke:none"
         id="path56" />
      <path
         d="m 19958,3914.2 c 0,-316.9 -1016.8,-573.8 -2271,-573.8 -1254.3,0 -2271.1,256.9 -2271.1,573.8 0,317 1016.8,573.9 2271.1,573.9 1254.2,0 2271,-256.9 2271,-573.9"
         style="fill:#c7bfc4;fill-opacity:1;fill-rule:nonzero;stroke:none"
         id="path58" />
      <path
         d="m 22475.9,3754.6 c 0,-228.8 -736.7,-414.2 -1645.5,-414.2 -908.8,0 -1645.4,185.4 -1645.4,414.2 0,228.7 736.6,414.2 1645.4,414.2 908.8,0 1645.5,-185.5 1645.5,-414.2"
         style="fill:#c7bfc4;fill-opacity:1;fill-rule:nonzero;stroke:none"
         id="path60" />
      <path
         d="M 10037,10850.8 H 1511.62 V 10705 c 0,-188.4 152.71,-341.1 341.11,-341.1 h 7843.14 c 188.38,0 341.13,152.7 341.13,341.1 v 145.8"
         style="fill:#753844;fill-opacity:1;fill-rule:nonzero;stroke:none"
         id="path62" />
      <path
         d="M 9619.23,5636.9 H 1929.36 c -230.73,0 -417.73,-187 -417.73,-417.8 V 4779.2 H 10037 v 439.9 c 0,230.8 -187.05,417.8 -417.77,417.8"
         style="fill:#753844;fill-opacity:1;fill-rule:nonzero;stroke:none"
         id="path64" />
      <path
         d="M 1511.63,4779.2 H 10037 v 333.102 H 1511.63 Z"
         style="fill:#a25f69;fill-opacity:1;fill-rule:nonzero;stroke:none"
         id="path66" />
      <path
         d="M 10037,10851.2 H 1511.62 l 4227.22,2143 z"
         style="fill:#924d57;fill-opacity:1;fill-rule:nonzero;stroke:none"
         id="path68" />
      <path
         d="M 9373.51,10851.3 5738.84,12669.5 2175.07,10851.3 Z"
         style="fill:#a25f69;fill-opacity:1;fill-rule:nonzero;stroke:none"
         id="path70" />
      <path
         d="m 5380.59,11076.7 c -407.57,27.2 -896.65,217.4 -978.14,679.3 -14.66,84.9 -15.33,160.9 -4.45,229.4 L 2175.07,10851.3 h 7198.44 l -385.87,193 c -1203.39,-11.4 -2396.64,-32.5 -3607.05,32.4"
         style="fill:#97505f;fill-opacity:1;fill-rule:nonzero;stroke:none"
         id="path72" />
      <path
         d="M 3373.6,10062.9 H 2109.94 v 301.7 H 3373.6 v -301.7"
         style="fill:#924d57;fill-opacity:1;fill-rule:nonzero;stroke:none"
         id="path74" />
      <path
         d="m 3186.67,9761.17 h -889.8 V 6240.3 h 889.8 v 3520.87"
         style="fill:#a25f69;fill-opacity:1;fill-rule:nonzero;stroke:none"
         id="path76" />
      <path
         d="M 3258.03,9761.17 H 2225.52 v 301.73 h 1032.51 v -301.73"
         style="fill:#753844;fill-opacity:1;fill-rule:nonzero;stroke:none"
         id="path78" />
      <path
         d="M 3258.03,5938.6 H 2225.52 v 301.7 h 1032.51 v -301.7"
         style="fill:#753844;fill-opacity:1;fill-rule:nonzero;stroke:none"
         id="path80" />
      <path
         d="M 3373.6,5636.9 H 2109.94 v 301.7 H 3373.6 v -301.7"
         style="fill:#924d57;fill-opacity:1;fill-rule:nonzero;stroke:none"
         id="path82" />
      <path
         d="M 5395.29,10062.9 H 4131.64 v 301.7 h 1263.65 v -301.7"
         style="fill:#924d57;fill-opacity:1;fill-rule:nonzero;stroke:none"
         id="path84" />
      <path
         d="M 5208.37,9761.17 H 4318.56 V 6240.3 h 889.81 v 3520.87"
         style="fill:#a25f69;fill-opacity:1;fill-rule:nonzero;stroke:none"
         id="path86" />
      <path
         d="M 5279.73,9761.17 H 4247.21 v 301.73 h 1032.52 v -301.73"
         style="fill:#753844;fill-opacity:1;fill-rule:nonzero;stroke:none"
         id="path88" />
      <path
         d="M 5279.73,5938.6 H 4247.21 v 301.7 h 1032.52 v -301.7"
         style="fill:#753844;fill-opacity:1;fill-rule:nonzero;stroke:none"
         id="path90" />
      <path
         d="M 5395.29,5636.9 H 4131.64 v 301.7 h 1263.65 v -301.7"
         style="fill:#924d57;fill-opacity:1;fill-rule:nonzero;stroke:none"
         id="path92" />
      <path
         d="M 7416.96,10062.9 H 6153.31 v 301.7 h 1263.65 v -301.7"
         style="fill:#924d57;fill-opacity:1;fill-rule:nonzero;stroke:none"
         id="path94" />
      <path
         d="M 7230.04,9761.17 H 6340.23 V 6240.3 h 889.81 v 3520.87"
         style="fill:#a25f69;fill-opacity:1;fill-rule:nonzero;stroke:none"
         id="path96" />
      <path
         d="M 7301.4,9761.17 H 6268.88 v 301.73 H 7301.4 v -301.73"
         style="fill:#753844;fill-opacity:1;fill-rule:nonzero;stroke:none"
         id="path98" />
      <path
         d="M 7301.4,5938.6 H 6268.88 v 301.7 H 7301.4 v -301.7"
         style="fill:#753844;fill-opacity:1;fill-rule:nonzero;stroke:none"
         id="path100" />
      <path
         d="M 7416.96,5636.9 H 6153.31 v 301.7 h 1263.65 v -301.7"
         style="fill:#924d57;fill-opacity:1;fill-rule:nonzero;stroke:none"
         id="path102" />
      <path
         d="M 9438.66,10062.9 H 8175 v 301.7 h 1263.66 v -301.7"
         style="fill:#924d57;fill-opacity:1;fill-rule:nonzero;stroke:none"
         id="path104" />
      <path
         d="M 9251.74,9761.17 H 8361.9 V 6240.3 h 889.84 v 3520.87"
         style="fill:#a25f69;fill-opacity:1;fill-rule:nonzero;stroke:none"
         id="path106" />
      <path
         d="M 9323.07,9761.17 H 8290.58 v 301.73 h 1032.49 v -301.73"
         style="fill:#753844;fill-opacity:1;fill-rule:nonzero;stroke:none"
         id="path108" />
      <path
         d="M 9323.07,5938.6 H 8290.58 v 301.7 h 1032.49 v -301.7"
         style="fill:#753844;fill-opacity:1;fill-rule:nonzero;stroke:none"
         id="path110" />
      <path
         d="M 9438.66,5636.9 H 8175 v 301.7 h 1263.66 v -301.7"
         style="fill:#924d57;fill-opacity:1;fill-rule:nonzero;stroke:none"
         id="path112" />
      <path
         d="m 15953.4,14671.1 c 0,240.3 -162.9,435.2 -363.7,435.2 -200.9,0 -363.8,-194.9 -363.8,-435.2 0,-240.3 162.9,-435.1 363.8,-435.1 200.8,0 363.7,194.8 363.7,435.1"
         style="fill:#c5978f;fill-opacity:1;fill-rule:nonzero;stroke:none"
         id="path114" />
      <path
         d="m 12143.3,12084.7 -38.9,12.5 L 11018,8714.4 h 2250.7 l -1125.4,3504.2 -38.9,-121.4 38.9,-12.5 -38.9,-12.5 1052.1,-3276 h -2026.3 l 1052.1,3276 -39,12.5 -38.9,-12.5 38.9,12.5"
         style="fill:#ba806f;fill-opacity:1;fill-rule:nonzero;stroke:none"
         id="path116" />
      <path
         d="m 15167,6896.2 c -250.3,17.8 -571.4,92.8 -601.5,326.5 -302.5,-67.6 -526.7,-288.4 -530.5,-549.6 h 3109.3 c -0.9,62.1 -14.4,121.8 -38.3,177.9 -640.2,-11.2 -1283.6,-36.8 -1939,45.2"
         style="fill:#6e2e3d;fill-opacity:1;fill-rule:nonzero;stroke:none"
         id="path118" />
      <path
         d="m 13401.6,5998.6 h 4376.1 c 76.5,0 118.7,88.8 70.4,148.2 l -307.8,377.8 c -76.5,94 -191.3,148.5 -312.5,148.5 h -3276.3 c -121.2,0 -236,-54.5 -312.5,-148.5 l -307.8,-377.8 c -48.3,-59.4 -6.1,-148.2 70.4,-148.2"
         style="fill:#c5978f;fill-opacity:1;fill-rule:nonzero;stroke:none"
         id="path120" />
      <path
         d="m 14358.5,6289.8 c -112.3,0 -292,67.4 -336.9,157.2 -27.1,81.2 -14.2,155.1 16.6,226.1 h -86.7 c -121.2,0 -236,-54.5 -312.5,-148.5 l -307.8,-377.8 c -48.3,-59.4 -6.1,-148.2 70.4,-148.2 h 4376.1 c 76.5,0 118.7,88.8 70.4,148.2 l -81.5,100 c -1129.4,-8.9 -2261.9,-45.2 -3408.1,43"
         style="fill:#ba806f;fill-opacity:1;fill-rule:nonzero;stroke:none"
         id="path122" />
      <path
         d="m 17144.3,6673.1 c -4.6,314.7 -329.1,571.1 -725.3,571.1 h -1658.7 c -396.2,0 -720.7,-256.4 -725.3,-571.1 h 3109.3"
         style="fill:#ba806f;fill-opacity:1;fill-rule:nonzero;stroke:none"
         id="path124" />
      <path
         d="m 15853.5,14145.7 h -527.7 l -195.9,-6901.5 h 919.6 l -196,6901.5"
         style="fill:#c5978f;fill-opacity:1;fill-rule:nonzero;stroke:none"
         id="path126" />
      <path
         d="m 19075,12316.3 c -301.9,85.9 -595.7,191.4 -887.3,295.1 -290.5,101.9 -578.9,200.8 -867.4,287 -288.7,84.9 -576.6,159.9 -865.2,210.1 -288.4,51.3 -576.9,79.1 -865.4,79.4 -288.6,0.2 -577.1,-27.6 -865.7,-78.3 -288.5,-50.6 -577.2,-123.5 -865.8,-208.8 -288.9,-85.5 -577.9,-183.6 -869,-284.6 -291.6,-103.8 -584.3,-211.3 -884.8,-299.9 252.9,185.9 512.5,355 775.3,523.8 263.8,170.4 539.5,324.5 828.1,458.7 145.6,63.8 292.1,128.5 444.3,180.4 75.3,27.8 152.4,52.2 229.4,76.4 38.6,11.9 77.9,21.9 116.9,32.8 39.1,10.8 78.1,21.8 117.8,30.8 l 118.7,28.4 120.2,23 c 40,8.1 80.4,14.8 121,20.6 40.5,5.9 80.8,12.9 121.5,17.9 162.9,20.3 327.4,28.6 492.1,31.4 164.6,-2.2 329.1,-11.4 492.1,-30.8 40.7,-5 81,-11.9 121.6,-17.9 40.5,-5.8 80.9,-12.4 120.9,-20.5 l 120.2,-23 c 39.8,-8.6 79.3,-18.5 118.9,-27.9 39.7,-9 78.7,-20 117.8,-30.8 39,-11 78.3,-20.9 116.9,-32.8 77.3,-23.5 154.3,-48.2 229.6,-75.9 152.3,-52 299.2,-115.5 444.7,-179.7 289,-133.5 565.2,-286.8 829.6,-456.3 262.8,-168.9 521.4,-340 773,-528.6"
         style="fill:#c5978f;fill-opacity:1;fill-rule:nonzero;stroke:none"
         id="path128" />
      <path
         d="m 10753,8803.9 c 199.5,-575.9 746.5,-989.7 1390.3,-989.7 643.9,0 1190.8,413.8 1390.4,989.7 H 10753"
         style="fill:#c5978f;fill-opacity:1;fill-rule:nonzero;stroke:none"
         id="path130" />
      <path
         d="m 12095.5,8217.7 c -311.8,41.6 -654.9,273.3 -776.7,586.2 H 10753 c 199.5,-575.9 746.5,-989.7 1390.3,-989.7 404.6,0 770.8,163.4 1036.6,427.6 -348.3,-93.5 -739.1,-81.6 -1084.4,-24.1"
         style="fill:#ba806f;fill-opacity:1;fill-rule:nonzero;stroke:none"
         id="path132" />
      <path
         d="m 19036,12084.7 -39,12.5 -1086.4,-3382.8 h 2250.7 l -1125.3,3504.1 -39,-121.3 39,-12.5 -39,-12.5 1052.1,-3276 h -2026.2 l 1052,3276 -38.9,12.5 -39,-12.5 39,12.5"
         style="fill:#ba806f;fill-opacity:1;fill-rule:nonzero;stroke:none"
         id="path134" />
      <path
         d="m 17645.6,8803.9 c 199.6,-575.9 746.5,-989.7 1390.4,-989.7 643.9,0 1190.8,413.8 1390.3,989.7 h -2780.7"
         style="fill:#c5978f;fill-opacity:1;fill-rule:nonzero;stroke:none"
         id="path136" />
      <path
         d="m 18988.1,8217.7 c -311.7,41.6 -654.9,273.3 -776.7,586.2 h -565.8 c 199.6,-575.9 746.5,-989.7 1390.4,-989.7 404.5,0 770.7,163.4 1036.6,427.6 -348.4,-93.5 -739.2,-81.6 -1084.5,-24.1"
         style="fill:#ba806f;fill-opacity:1;fill-rule:nonzero;stroke:none"
         id="path138" />
      <path
         d="m 12507.1,12084.7 c 0,204.2 -162.9,369.6 -363.8,369.6 -200.8,0 -363.7,-165.4 -363.7,-369.6 0,-204.1 162.9,-369.5 363.7,-369.5 200.9,0 363.8,165.4 363.8,369.5"
         style="fill:#ba806f;fill-opacity:1;fill-rule:nonzero;stroke:none"
         id="path140" />
      <path
         d="m 19399.7,12084.7 c 0,204.2 -162.8,369.6 -363.7,369.6 -200.9,0 -363.8,-165.4 -363.8,-369.6 0,-204.1 162.9,-369.5 363.8,-369.5 200.9,0 363.7,165.4 363.7,369.5"
         style="fill:#ba806f;fill-opacity:1;fill-rule:nonzero;stroke:none"
         id="path142" />
      <path
         d="m 15945,13970.5 h -710.7 c -105.3,0 -191.5,86.2 -191.5,191.6 0,105.3 86.2,191.5 191.5,191.5 h 710.7 c 105.3,0 191.5,-86.2 191.5,-191.5 0,-105.4 -86.2,-191.6 -191.5,-191.6"
         style="fill:#ba806f;fill-opacity:1;fill-rule:nonzero;stroke:none"
         id="path144" />
      <path
         d="m 10461.8,4791.4 -5.7,0.3 H 7533.7 l -3.05,-0.1 c -111.01,-10 -214.14,-61.3 -290.32,-144.4 -76.87,-83.9 -119.18,-192.4 -119.18,-305.7 0,-113.3 42.31,-221.9 119.18,-305.7 76.18,-83.1 179.28,-134.4 290.32,-144.4 l 1.52,-0.2 h 2923.93 l 5.7,0.3 v 899.9"
         style="fill:#c5978f;fill-opacity:1;fill-rule:nonzero;stroke:none"
         id="path146" />
      <path
         d="m 10431.3,4629.1 c -156.9,-1.6 -284.5,-130.7 -284.5,-287.6 0,-157 127.6,-286 284.6,-287.6 h 1714.4 v 575.2 h -1714.5"
         style="fill:#fdedc2;fill-opacity:1;fill-rule:nonzero;stroke:none"
         id="path148" />
      <path
         d="m 10616.7,4216.5 c -157,1.6 -284.7,130.7 -284.7,287.6 0,40.3 8.6,78.7 23.8,113.7 -120.3,-34.5 -209,-145.5 -209,-276.3 0,-157 127.6,-286 284.6,-287.6 h 1714.4 v 162.6 h -1529.1"
         style="fill:#f4e2aa;fill-opacity:1;fill-rule:nonzero;stroke:none"
         id="path150" />
      <path
         d="m 12145.8,4053.9 h -1714.4 c -157,1.6 -284.6,130.6 -284.6,287.6 0,156.9 127.6,286 284.5,287.6 h 1714.5 v 162.6 h -1749.1 l -3,-0.1 c -111,-10 -214.2,-61.3 -290.4,-144.4 -76.8,-83.9 -119.13,-192.4 -119.13,-305.7 0,-113.3 42.33,-221.9 119.13,-305.7 76.2,-83.1 179.4,-134.4 290.4,-144.4 l 1.5,-0.2 h 1750.6 v 162.7"
         style="fill:#d7aba3;fill-opacity:1;fill-rule:nonzero;stroke:none"
         id="path152" />
      <path
         d="m 7715.97,4647.2 c 76.21,83.1 179.3,134.4 290.35,144.4 l 3.02,0.1 h 209.23 l -3.04,-0.1 c -111.02,-10 -214.14,-61.3 -290.32,-144.4 -76.85,-83.9 -119.18,-192.4 -119.18,-305.7 0,-113.3 42.33,-221.9 119.18,-305.7 76.18,-83.1 179.27,-134.4 290.32,-144.4 l 1.51,-0.2 h -209.21 l -1.54,0.2 c -111.02,10 -214.11,61.3 -290.32,144.4 -76.86,83.8 -119.19,192.4 -119.19,305.7 0,113.3 42.33,221.8 119.19,305.7"
         style="fill:#cb9f96;fill-opacity:1;fill-rule:nonzero;stroke:none"
         id="path154" />
      <path
         d="m 8115.13,4647.2 c 76.18,83.1 179.29,134.4 290.32,144.4 l 3.05,0.1 h 209.21 l -3.04,-0.1 c -111.03,-10 -214.15,-61.3 -290.33,-144.4 -76.85,-83.9 -119.18,-192.4 -119.18,-305.7 0,-113.3 42.33,-221.9 119.18,-305.7 76.18,-83.1 179.3,-134.4 290.33,-144.4 l 1.53,-0.2 h -209.24 l -1.51,0.2 c -111.05,10 -214.14,61.3 -290.32,144.4 -76.89,83.8 -119.19,192.4 -119.19,305.7 0,113.3 42.3,221.8 119.19,305.7"
         style="fill:#cb9f96;fill-opacity:1;fill-rule:nonzero;stroke:none"
         id="path156" />
      <path
         d="m 8896.23,5691.9 5.73,0.3 h 2922.34 l 3.1,-0.1 c 111,-10 214.1,-61.4 290.3,-144.5 76.8,-83.8 119.2,-192.4 119.2,-305.6 0,-113.3 -42.4,-221.9 -119.2,-305.7 -76.2,-83.1 -179.3,-134.4 -290.3,-144.5 l -1.6,-0.1 H 8901.96 l -5.73,0.3 v 899.9"
         style="fill:#3c5770;fill-opacity:1;fill-rule:nonzero;stroke:none"
         id="path158" />
      <path
         d="m 8896.23,5691.9 5.73,0.3 h -772.77 l -5.73,-0.3 V 4792 l 5.73,-0.3 h 772.77 l -5.73,0.3 v 899.9"
         style="fill:#3c5770;fill-opacity:1;fill-rule:nonzero;stroke:none"
         id="path160" />
      <path
         d="m 11611.5,5547.6 c -76.2,83.1 -179.3,134.5 -290.3,144.5 l -3.1,0.1 h -209.2 l 3,-0.1 c 111.1,-10 214.2,-61.4 290.4,-144.5 76.8,-83.8 119.2,-192.4 119.2,-305.6 0,-113.3 -42.4,-221.9 -119.2,-305.7 -76.2,-83.1 -179.3,-134.4 -290.3,-144.5 l -1.6,-0.1 h 209.3 l 1.5,0.1 c 111,10.1 214.1,61.4 290.3,144.5 76.9,83.8 119.2,192.4 119.2,305.7 0,113.2 -42.3,221.8 -119.2,305.6"
         style="fill:#3f5d78;fill-opacity:1;fill-rule:nonzero;stroke:none"
         id="path162" />
      <path
         d="m 11212.4,5547.6 c -76.2,83.1 -179.3,134.5 -290.4,144.5 l -3,0.1 h -209.2 l 3,-0.1 c 111.1,-10 214.2,-61.4 290.3,-144.5 76.9,-83.8 119.2,-192.4 119.2,-305.6 0,-113.3 -42.3,-221.9 -119.2,-305.7 -76.1,-83.1 -179.2,-134.4 -290.3,-144.5 l -1.5,-0.1 h 209.2 l 1.5,0.1 c 111.1,10.1 214.2,61.4 290.4,144.5 76.8,83.8 119.2,192.4 119.2,305.7 0,113.2 -42.4,221.8 -119.2,305.6"
         style="fill:#3f5d78;fill-opacity:1;fill-rule:nonzero;stroke:none"
         id="path164" />
      <path
         d="m 8926.71,5529.5 h -1718.8 v -575.1 h 1718.71 c 156.93,1.6 284.61,130.6 284.61,287.6 0,156.9 -127.68,285.9 -284.52,287.5"
         style="fill:#fdedc2;fill-opacity:1;fill-rule:nonzero;stroke:none"
         id="path166" />
      <path
         d="m 9008.62,5516.5 c 23.61,-41.7 37.27,-89.6 37.27,-140.6 0,-157 -127.67,-286 -284.61,-287.6 H 7207.91 v -133.9 h 1718.71 c 156.93,1.6 284.61,130.6 284.61,287.6 0,128.4 -85.56,238.1 -202.61,274.5"
         style="fill:#f4e2aa;fill-opacity:1;fill-rule:nonzero;stroke:none"
         id="path168" />
      <path
         d="m 9254.67,5547.6 c -76.2,83.1 -179.3,134.5 -290.34,144.5 l -3.05,0.1 H 7207.91 v -162.7 h 1718.8 c 156.84,-1.6 284.52,-130.6 284.52,-287.5 0,-157 -127.68,-286 -284.61,-287.6 H 7207.91 v -162.7 h 1754.9 l 1.52,0.1 c 111.04,10.1 214.14,61.4 290.34,144.5 76.85,83.8 119.19,192.4 119.19,305.7 0,113.2 -42.34,221.8 -119.19,305.6"
         style="fill:#466785;fill-opacity:1;fill-rule:nonzero;stroke:none"
         id="path170" />
      <path
         d="m 15250.1,7585.7 -14.9,26.2 -13.7,25.9 c -9.7,17.1 -18.9,34.1 -28.9,50.5 -18.9,33 -38,64.9 -57.5,95 l -14.7,22.4 c -5.3,7.1 -10.1,14.4 -15.1,21.5 -9.5,14.5 -20.2,27.8 -30.4,41.1 -10.3,13.4 -20.9,25.7 -30.9,38.4 -11,11.7 -21.1,23.8 -32.3,34.6 -86.7,89 -177.3,139.9 -282.8,176.2 -26.2,9.5 -53.8,17.3 -82,24.4 l -43,10.6 c -14.3,3.6 -29.7,6.1 -44.4,9.2 -60.3,10.4 -123.4,20.5 -189.1,26.1 -16.7,1.3 -33,2.6 -49.6,4.3 l -50.4,3.9 c -16.8,1.4 -34.2,1.7 -51.3,2.7 -17,0.9 -34.1,1.7 -51.7,1.8 -69,3.6 -140.4,4 -211.8,3.6 -71.3,0.4 -142.6,0.1 -211.5,-3.7 -69.2,-1.5 -137.3,-6.6 -202.6,-12.8 -65.6,-5.7 -128.6,-15.9 -188.9,-26.5 -30.2,-5.5 -59,-12.8 -87.4,-20 -28.3,-7.1 -55.9,-15.1 -82.1,-24.6 -13,-4.8 -26.4,-9.5 -38.9,-14.7 l -19.4,-7.5 -18.5,-8.4 c -25.3,-11 -48.1,-24.8 -72.5,-38.2 -11.6,-7.2 -23.3,-14.6 -34.8,-22.6 -11,-8.4 -22.9,-16.3 -34,-25.5 l -17.1,-13.5 -16.5,-14.7 c -11.5,-9.6 -21.3,-21 -32.7,-31.5 -11.2,-10.8 -21.5,-22.8 -32.5,-34.6 -10,-12.5 -20.7,-24.8 -31.1,-38.1 -10.2,-13.3 -21,-26.5 -30.6,-40.9 -5,-7.1 -9.7,-14.3 -15.1,-21.4 l -14.8,-22.3 c -19.6,-29.9 -38.8,-61.7 -57.7,-94.6 -10,-16.3 -19.2,-33.3 -28.9,-50.3 l -13.8,-25.9 -14.9,-26.1 -17.1,-30.1 c -23.6,-41.4 -76.3,-55.8 -117.7,-32.2 -31.6,18 -47.5,53.2 -42.7,87.2 23.1,161.9 64.7,327.6 149.2,479.1 42.4,75.3 95,146.1 157.3,207.3 62.4,61.1 133.2,112.7 208.1,154.3 150.3,83.8 313.5,128.5 474.7,156 161.9,27.2 323.9,35.4 484.6,36.1 160.6,-0.8 322.5,-8.9 484.4,-35.8 161.2,-27.2 324.5,-71.5 475,-155.1 75,-41.6 145.9,-93.4 208.2,-154.6 62.3,-61.3 114.6,-132.6 156.7,-208 83.8,-152 124.5,-317.7 147.6,-479.3 6.8,-47.2 -26,-91 -73.2,-97.7 -36.1,-5.2 -70.2,12.8 -87.2,42.6 l -17.1,30.2"
         style="fill:#481d24;fill-opacity:1;fill-rule:nonzero;stroke:none"
         id="path172" />
      <path
         d="m 16580.6,3742.7 h -5192.2 c -144.9,0 -263.4,118.6 -263.4,263.5 v 3324 c 0,144.9 118.5,263.5 263.4,263.5 h 5192.2 c 144.9,0 263.5,-118.6 263.5,-263.5 v -3324 c 0,-144.9 -118.6,-263.5 -263.5,-263.5"
         style="fill:#753844;fill-opacity:1;fill-rule:nonzero;stroke:none"
         id="path174" />
      <path
         d="m 11828.3,4473.7 c -161.3,537.9 89.7,1147.4 681.3,1183.3 1428.9,88.2 2875.2,37.7 4304.6,36 v 1637.2 c 0,144.9 -118.5,263.5 -263.4,263.5 h -5192.2 c -144.9,0 -263.4,-118.6 -263.4,-263.5 v -3324 c 0,-144.9 118.5,-263.5 263.4,-263.5 h 1679.3 c -189.8,40.2 -378,91.6 -564.1,157.3 -269,107.5 -537.9,304.7 -645.5,573.7"
         style="fill:#6e2e3d;fill-opacity:1;fill-rule:nonzero;stroke:none"
         id="path176" />
      <path
         d="m 16814.2,5827.6 v 1502.6 c 0,144.9 -118.5,263.5 -263.4,263.5 h -5192.2 c -144.9,0 -263.4,-118.6 -263.4,-263.5 V 5827.6 h 5719"
         style="fill:#38151a;fill-opacity:1;fill-rule:nonzero;stroke:none"
         id="path178" />
      <path
         d="m 16902.4,5943.2 v 1403.9 c 0,149.4 -122.2,271.7 -271.6,271.7 h -5352.2 c -149.4,0 -271.6,-122.3 -271.6,-271.7 V 5943.2 h 5895.4"
         style="fill:#481d24;fill-opacity:1;fill-rule:nonzero;stroke:none"
         id="path180" />
      <path
         d="m 12061.4,6427.9 c -492.4,153.9 -588.3,743.4 -379,1190.9 h -403.8 c -149.4,0 -271.6,-122.3 -271.6,-271.7 V 5943.2 h 5895.4 v 220.5 c -1628,32.5 -3285.7,-254.2 -4841,264.2"
         style="fill:#3a141b;fill-opacity:1;fill-rule:nonzero;stroke:none"
         id="path182" />
      <path
         d="m 14379,5591.1 h -788.9 c -19.7,0 -35.9,16.1 -35.9,35.8 v 521.7 c 0,19.7 16.2,35.8 35.9,35.8 h 788.9 c 19.7,0 35.8,-16.1 35.8,-35.8 v -521.7 c 0,-19.7 -16.1,-35.8 -35.8,-35.8"
         style="fill:#672231;fill-opacity:1;fill-rule:nonzero;stroke:none"
         id="path184" />
      <path
         d="m 2392.84,5173.6 3365.25,-430.6 8.48,-0.6 10.05,-1.1 20.25,-2.1 c 52.46,-6.6 104.13,-18.6 154.01,-35.9 49.82,-17.5 98.01,-39.8 143.04,-67.4 22.6,-13.7 44.43,-28.7 65.4,-44.6 10.58,-8 20.64,-16.5 30.89,-24.8 l 14.86,-13.2 7.3,-6.5 6.24,-5.7 99.58,-91.8 c 132.59,-122.5 264.97,-245.3 396.57,-369.4 65.87,-62 131.53,-124.3 196.87,-187.6 l 48.98,-47.8 c 16.29,-15.9 32.59,-32 48.89,-48.5 16.24,-16.1 32.68,-33.2 49.18,-50.3 7.95,-8 17.08,-18.6 25.57,-28 l 6.5,-7.2 3.49,-3.9 4.72,-6.1 0.21,-0.3 c 10.05,-13 6.1,-31.9 -7.95,-40.2 l -121.35,-71.7 c -100.11,-59.2 -228.22,-38 -303.82,50.4 l -86.37,102.4 c -29.32,34 -59.09,67.5 -88.87,101.2 -29.91,33.5 -59.55,67.5 -89.92,100.7 l -91.56,99.3 -91.9,99.1 -93.47,97.6 -93.61,97.5 -18.99,19.7 c -5.99,5.8 -11.97,11.8 -18.41,17.2 -12.69,10.9 -25.97,21.3 -39.83,30.9 -27.61,19.4 -57.72,35.5 -89.14,48.9 -31.55,13 -64.81,22.9 -98.73,29.4 l -12.09,2 -6.05,1 -8.42,0.9 c 0,0 -3165.74,404.8 -3345.85,412.2 v 274.9"
         style="fill:#300f14;fill-opacity:1;fill-rule:nonzero;stroke:none"
         id="path186" />
      <path
         d="M 7134.07,5173.6 3768.82,4743 l -8.48,-0.6 -10.06,-1.1 -20.24,-2.1 c -52.45,-6.6 -104.12,-18.6 -154.01,-35.9 -49.83,-17.5 -98.01,-39.8 -143.04,-67.4 -22.61,-13.7 -44.44,-28.7 -65.4,-44.6 -10.59,-8 -20.64,-16.5 -30.83,-24.8 l -14.92,-13.2 -7.3,-6.5 -6.24,-5.7 -99.59,-91.8 c -132.58,-122.5 -264.96,-245.3 -396.56,-369.4 -65.87,-62 -131.54,-124.3 -196.88,-187.6 l -48.96,-47.8 c -16.31,-15.9 -32.61,-32 -48.91,-48.5 -16.24,-16.1 -32.66,-33.2 -49.17,-50.3 -7.95,-8 -17.09,-18.6 -25.56,-28 l -6.52,-7.2 -3.42,-3.9 -4.79,-6.1 -0.2,-0.3 c -10.05,-13 -6.11,-31.9 8.02,-40.2 l 121.27,-71.7 c 100.12,-59.2 228.3,-38 303.83,50.4 l 86.37,102.4 c 29.31,34 59.09,67.5 88.87,101.2 29.91,33.5 59.55,67.5 89.93,100.7 l 91.56,99.3 91.89,99.1 93.41,97.6 93.66,97.5 19,19.7 c 5.98,5.8 11.97,11.8 18.4,17.2 12.69,10.9 25.97,21.3 39.84,30.9 27.61,19.4 57.71,35.5 89.13,48.9 31.55,13 64.81,22.9 98.74,29.4 l 12.09,2 6.04,1 8.42,0.9 c 0,0 3165.75,404.8 3345.86,412.2 v 274.9"
         style="fill:#3d141c;fill-opacity:1;fill-rule:nonzero;stroke:none"
         id="path188" />
      <path
         d="m 3641.1,5161 c -151.63,0 -300.58,-18.7 -421.74,-48.7 h 812.15 c -120.73,34.2 -256.59,48.7 -390.41,48.7"
         style="fill:#844751;fill-opacity:1;fill-rule:nonzero;stroke:none"
         id="path190" />
      <path
         d="m 4031.51,5112.3 h -812.15 c -34.26,-8.5 -66.32,-18 -95.57,-28.1 -2.88,-1 -5.75,-2 -8.62,-3 L 4350.5,4923.1 c -73.17,90.9 -187.02,151.8 -318.99,189.2"
         style="fill:#ae6d74;fill-opacity:1;fill-rule:nonzero;stroke:none"
         id="path192" />
      <path
         d="M 3415.99,4779.2 H 3061.6 c 0.09,-58.3 5.39,-117.5 16.7,-177.7 13.32,-73.3 42.24,-140.3 83.86,-195.2 15.51,14.3 31.03,28.7 46.55,43 l 99.59,91.8 6.24,5.7 7.3,6.5 14.92,13.2 c 10.19,8.3 20.24,16.8 30.83,24.8 20.96,15.9 42.79,30.9 65.4,44.6 45.03,27.6 93.21,49.9 143.04,67.4 49.89,17.3 101.56,29.3 154.01,35.9 l 4.38,0.5 c -108.78,13.5 -215.41,26.8 -318.43,39.5"
         style="fill:#cec4c5;fill-opacity:1;fill-rule:nonzero;stroke:none"
         id="path194" />
      <path
         d="m 3062.49,4822.6 c -0.62,-14.4 -0.92,-28.9 -0.89,-43.4 h 354.39 c -124.52,15.4 -243.61,30 -353.5,43.4"
         style="fill:#ae6d74;fill-opacity:1;fill-rule:nonzero;stroke:none"
         id="path196" />
      <path
         d="m 3115.17,5081.2 c -3.35,-1.2 -6.71,-2.4 -10.06,-3.7 -23.78,-82.7 -38.92,-167.7 -42.62,-254.9 109.89,-13.4 228.98,-28 353.5,-43.4 v 0 c 103.02,-12.7 209.65,-26 318.43,-39.5 l 15.86,1.6 10.06,1.1 8.48,0.6 639.31,81.8 c -14.41,36.1 -33.87,68.8 -57.63,98.3 l -1235.33,158.1 m -116.95,-52.7 c -0.03,0 -0.05,0 -0.08,-0.1 0.03,0.1 0.06,0.1 0.08,0.1 m -3.85,-2.3 c -0.05,0 -0.12,-0.1 -0.18,-0.1 0.06,0 0.13,0.1 0.18,0.1 m -3.92,-2.4 c -0.04,0 -0.08,0 -0.12,0 0.04,0 0.09,0 0.12,0 m -3.75,-2.3 c -0.09,0 -0.18,-0.1 -0.26,-0.2 0.08,0.1 0.17,0.2 0.26,0.2 m -3.9,-2.5 c -0.06,0 -0.11,0 -0.16,-0.1 0.05,0.1 0.1,0.1 0.16,0.1 m -15.08,-10.1 c -0.16,-0.1 -0.33,-0.2 -0.49,-0.3 0.16,0.1 0.33,0.2 0.49,0.3 m -3.55,-2.5 c -0.3,-0.3 -0.6,-0.5 -0.89,-0.7 0.3,0.2 0.59,0.4 0.89,0.7 m -3.56,-2.6 c -0.33,-0.3 -0.67,-0.5 -1,-0.8 0.33,0.3 0.67,0.5 1,0.8 m -3.42,-2.6 c -0.45,-0.3 -0.89,-0.7 -1.34,-1 0.45,0.3 0.89,0.7 1.34,1 m -3.43,-2.6 c -0.46,-0.4 -0.93,-0.8 -1.39,-1.1 0.46,0.3 0.93,0.7 1.39,1.1 m -3.43,-2.7 c -0.47,-0.4 -0.95,-0.8 -1.41,-1.2 0.46,0.4 0.94,0.8 1.41,1.2 m -3.39,-2.8 c -0.47,-0.4 -0.92,-0.8 -1.39,-1.1 0.47,0.3 0.92,0.7 1.39,1.1 m -3.34,-2.8 c -0.48,-0.4 -0.95,-0.8 -1.43,-1.2 0.48,0.4 0.95,0.8 1.43,1.2 m -3.32,-2.8 c -0.46,-0.4 -0.92,-0.8 -1.38,-1.2 0.46,0.4 0.92,0.8 1.38,1.2 m -3.28,-2.9 c -0.47,-0.4 -0.93,-0.8 -1.39,-1.2 0.46,0.4 0.93,0.8 1.39,1.2 m -3.29,-2.9 c -0.43,-0.4 -0.86,-0.8 -1.29,-1.2 0.43,0.4 0.86,0.8 1.29,1.2 m -3.17,-2.9 c -0.45,-0.5 -0.89,-0.9 -1.33,-1.3 0.44,0.4 0.88,0.8 1.33,1.3 m -3.37,-3.3 c -0.35,-0.3 -0.71,-0.6 -1.07,-1 0.35,0.4 0.72,0.7 1.07,1 m -4.07,-3.9 c -0.41,-0.5 -0.82,-0.9 -1.23,-1.3 0.41,0.4 0.83,0.8 1.23,1.3 m -3.07,-3.2 c -0.42,-0.4 -0.84,-0.8 -1.26,-1.3 0.41,0.5 0.84,0.9 1.26,1.3 m -2.96,-3.1 c -0.46,-0.5 -0.91,-1 -1.38,-1.4 0.46,0.4 0.92,0.9 1.38,1.4 m -2.96,-3.2 c -0.44,-0.4 -0.9,-1 -1.35,-1.5 0.45,0.5 0.9,1.1 1.35,1.5 m -2.89,-3.2 c -0.44,-0.5 -0.88,-1 -1.32,-1.5 0.44,0.5 0.88,1 1.32,1.5 m -2.86,-3.3 c -0.45,-0.5 -0.88,-1 -1.33,-1.5 0.44,0.5 0.88,1 1.33,1.5 m -2.75,-3.2 c -0.45,-0.6 -0.91,-1.1 -1.37,-1.7 0.45,0.6 0.92,1.1 1.37,1.7 m -2.78,-3.4 c -0.44,-0.5 -0.88,-1.1 -1.31,-1.6 0.43,0.5 0.87,1.1 1.31,1.6 m -2.7,-3.4 c -0.42,-0.6 -0.85,-1.1 -1.26,-1.6 0.41,0.5 0.83,1 1.26,1.6 m -2.72,-3.6 c -0.38,-0.5 -0.78,-1 -1.17,-1.5 0.39,0.5 0.79,1 1.17,1.5 m -2.58,-3.4 c -0.39,-0.6 -0.78,-1.1 -1.17,-1.7 0.39,0.6 0.78,1.1 1.17,1.7 m -2.59,-3.7 c -0.37,-0.5 -0.73,-1 -1.1,-1.5 0.37,0.5 0.73,1 1.1,1.5 m -2.65,-3.8 c -0.29,-0.5 -0.61,-0.9 -0.89,-1.3 0.29,0.4 0.59,0.8 0.89,1.3"
         style="fill:#461e24;fill-opacity:1;fill-rule:nonzero;stroke:none"
         id="path198" />
      <path
         d="m 4168.86,4086.2 c -21.87,-22.2 -44.69,-43.3 -68.33,-63.3 23.66,20 46.49,41.1 68.38,63.3 -0.14,0 0.08,0 -0.05,0 m -69.05,-63.9 c -0.91,-0.8 -1.84,-1.6 -2.75,-2.3 0.92,0.7 1.83,1.5 2.75,2.3 m -6.56,-5.5 c -0.2,-0.2 -0.41,-0.4 -0.61,-0.5 0.2,0.1 0.4,0.3 0.61,0.5 m -4.47,-3.7 c -0.11,-0.1 -0.21,-0.2 -0.31,-0.3 0.1,0.1 0.2,0.2 0.31,0.3 m -106.9,-76.3 c -0.02,0 -0.07,-0.1 -0.1,-0.1 0.04,0.1 0.07,0.1 0.1,0.1 m -4.88,-3 v 0 c -3.53,-2.1 -7.1,-4.2 -10.69,-6.4 3.59,2.2 7.16,4.3 10.69,6.4 v 0 m -863.53,-4.7 v 0 c 42.92,-38 90.9,-71.1 144.61,-91.5 1.98,-0.8 3.94,-1.5 5.94,-2.2 -2,0.7 -3.96,1.4 -5.94,2.2 -53.71,20.4 -101.69,53.5 -144.61,91.5 m 850.19,-3.2 c -3.31,-1.9 -6.65,-3.8 -10.02,-5.7 3.37,1.9 6.71,3.8 10.02,5.7 m -697.3,-91.4 c 66.96,-24 141.92,-34.8 219.22,-34.9 -77.29,0.1 -152.27,11 -219.22,34.9 m 222.51,-34.9 c -0.68,0 -1.34,0 -2.02,0 v 0 c 0.68,0 1.34,0 2.02,0"
         style="fill:#cec4c5;fill-opacity:1;fill-rule:nonzero;stroke:none"
         id="path200" />
      <path
         d="m 4428.1,4567.9 c -377.76,-47.9 -639.89,-81.4 -639.89,-81.4 l -8.42,-0.9 -6.04,-1 -12.09,-2 c -33.93,-6.5 -67.19,-16.4 -98.74,-29.4 -31.42,-13.4 -61.52,-29.5 -89.13,-48.9 -13.87,-9.6 -27.15,-20 -39.84,-30.9 -6.43,-5.4 -12.42,-11.4 -18.4,-17.2 l -19,-19.7 -80.53,-83.8 c 118.22,-34.9 241.43,-52.7 364.42,-52.7 198.95,0 397.22,46.6 572.35,142.7 v 0 0 c -46.64,-94.1 -109.77,-181.3 -183.93,-256.5 0.13,0 -0.09,0 0.05,0 115.58,117.2 204.42,263.3 245.54,419.4 5.63,21.4 10.16,42.2 13.65,62.3"
         style="fill:#cec4c5;fill-opacity:1;fill-rule:nonzero;stroke:none"
         id="path202" />
      <path
         d="m 4408.13,4824.8 -639.31,-81.8 -8.48,-0.6 -10.06,-1.1 -15.86,-1.6 -4.38,-0.5 c -52.45,-6.6 -104.12,-18.6 -154.01,-35.9 -49.83,-17.5 -98.01,-39.8 -143.04,-67.4 -22.61,-13.7 -44.44,-28.7 -65.4,-44.6 -10.59,-8 -20.64,-16.5 -30.83,-24.8 l -14.92,-13.2 -7.3,-6.5 -6.24,-5.7 -99.59,-91.8 c -15.52,-14.3 -31.04,-28.7 -46.55,-43 47.13,-62.2 110.54,-108.9 185.97,-131.5 22.41,-8 45.06,-15.4 67.89,-22.1 l 80.53,83.8 19,19.7 c 5.98,5.8 11.97,11.8 18.4,17.2 12.69,10.9 25.97,21.3 39.84,30.9 27.61,19.4 57.71,35.5 89.13,48.9 31.55,13 64.81,22.9 98.74,29.4 l 12.09,2 6.04,1 8.42,0.9 c 0,0 262.13,33.5 639.89,81.4 17.31,100.2 8.63,185.2 -19.97,256.9"
         style="fill:#52232b;fill-opacity:1;fill-rule:nonzero;stroke:none"
         id="path204" />
      <path
         d="m 4100.53,4022.9 c -0.24,-0.2 -0.49,-0.4 -0.72,-0.6 0.24,0.2 0.47,0.4 0.72,0.6 m -3.47,-2.9 c -1.27,-1.1 -2.54,-2.2 -3.81,-3.2 1.27,1 2.54,2.1 3.81,3.2 m -4.42,-3.7 c -1.28,-1.1 -2.57,-2.1 -3.86,-3.2 1.29,1.1 2.57,2.1 3.86,3.2 m -4.17,-3.5 c -34.06,-27.8 -69.73,-53.3 -106.59,-76 36.87,22.7 72.53,48.2 106.59,76 m -106.69,-76.1 c -1.59,-0.9 -3.19,-1.9 -4.78,-2.9 1.59,1 3.18,2 4.78,2.9 m -15.47,-9.3 c -0.88,-0.5 -1.77,-1 -2.65,-1.5 0.88,0.5 1.77,1 2.65,1.5 m -12.67,-7.2 c -129.89,-72.6 -302.32,-120.2 -464.77,-120.6 162.47,0.4 334.87,48 464.77,120.6 m -689.62,-84.8 c 0.77,-0.3 1.56,-0.6 2.34,-0.9 -0.78,0.3 -1.57,0.6 -2.34,0.9 m 221.56,-35.8 c 0.42,0 0.85,0 1.27,0 v 0 c -0.42,0 -0.85,0 -1.27,0"
         style="fill:#cec4c5;fill-opacity:1;fill-rule:nonzero;stroke:none"
         id="path206" />
      <path
         d="m 3105.12,5077.6 c -36.71,-13.6 -73.26,-29.4 -106.9,-49.1 33.64,19.7 70.18,35.5 106.89,49 l 0.01,0.1 m -106.98,-49.2 c -1.26,-0.7 -2.52,-1.4 -3.77,-2.2 1.25,0.8 2.51,1.5 3.77,2.2 m -3.95,-2.3 c -1.25,-0.7 -2.5,-1.5 -3.74,-2.3 1.24,0.8 2.49,1.6 3.74,2.3 m -3.86,-2.3 c -1.21,-0.8 -2.42,-1.5 -3.63,-2.3 1.21,0.8 2.42,1.5 3.63,2.3 m -3.89,-2.5 c -1.23,-0.7 -2.43,-1.5 -3.64,-2.3 1.21,0.8 2.41,1.6 3.64,2.3 m -3.8,-2.4 c -5.05,-3.2 -10.03,-6.6 -14.92,-10 4.89,3.4 9.87,6.8 14.92,10 m -15.41,-10.3 c -1.03,-0.8 -2.03,-1.5 -3.06,-2.2 1.02,0.7 2.04,1.4 3.06,2.2 m -3.95,-2.9 c -0.9,-0.6 -1.79,-1.3 -2.67,-1.9 0.88,0.6 1.77,1.3 2.67,1.9 m -3.67,-2.7 c -0.81,-0.6 -1.61,-1.2 -2.42,-1.8 0.81,0.6 1.61,1.2 2.42,1.8 m -3.76,-2.8 c -0.7,-0.6 -1.4,-1.1 -2.09,-1.6 0.69,0.5 1.4,1 2.09,1.6 m -3.48,-2.7 c -0.68,-0.6 -1.35,-1.1 -2.04,-1.6 0.69,0.5 1.36,1 2.04,1.6 m -3.45,-2.8 c -0.66,-0.5 -1.32,-1.1 -1.98,-1.6 0.66,0.5 1.31,1.1 1.98,1.6 m -3.37,-2.7 c -0.65,-0.6 -1.3,-1.1 -1.95,-1.7 0.65,0.6 1.3,1.1 1.95,1.7 m -3.38,-2.9 c -0.64,-0.5 -1.25,-1.1 -1.89,-1.6 0.64,0.5 1.25,1.1 1.89,1.6 m -3.27,-2.8 c -0.64,-0.5 -1.26,-1.1 -1.9,-1.7 0.63,0.6 1.26,1.2 1.9,1.7 m -3.29,-2.9 c -0.64,-0.6 -1.26,-1.1 -1.9,-1.7 0.64,0.6 1.27,1.1 1.9,1.7 m -3.19,-2.9 c -0.63,-0.6 -1.26,-1.2 -1.88,-1.7 0.62,0.5 1.25,1.1 1.88,1.7 m -3.21,-3 c -0.69,-0.6 -1.36,-1.3 -2.04,-2 0.67,0.7 1.36,1.4 2.04,2 m -3.11,-3 c -1,-1 -2,-1.9 -3,-2.9 0.99,1 2,1.9 3,2.9 m -4.23,-4.2 c -0.61,-0.6 -1.23,-1.2 -1.84,-1.9 0.6,0.7 1.23,1.3 1.84,1.9 m -3.1,-3.2 c -0.57,-0.6 -1.13,-1.2 -1.7,-1.8 0.57,0.6 1.13,1.2 1.7,1.8 m -3.08,-3.2 c -0.52,-0.6 -1.04,-1.2 -1.58,-1.8 0.53,0.6 1.06,1.2 1.58,1.8 m -2.93,-3.3 c -0.51,-0.5 -1.03,-1.1 -1.54,-1.7 0.51,0.6 1.03,1.2 1.54,1.7 m -2.86,-3.2 c -0.52,-0.6 -1.02,-1.2 -1.54,-1.8 0.52,0.6 1.02,1.2 1.54,1.8 m -2.87,-3.3 c -0.48,-0.6 -0.95,-1.1 -1.42,-1.7 0.47,0.6 0.95,1.1 1.42,1.7 m -2.79,-3.4 c -0.48,-0.6 -0.94,-1.1 -1.41,-1.7 0.46,0.6 0.94,1.2 1.41,1.7 m -2.72,-3.3 c -0.47,-0.6 -0.93,-1.2 -1.39,-1.8 0.47,0.6 0.92,1.2 1.39,1.8 m -2.65,-3.4 c -0.49,-0.7 -0.97,-1.3 -1.46,-2 0.49,0.7 0.97,1.3 1.46,2 m -2.63,-3.5 c -0.47,-0.7 -0.93,-1.3 -1.41,-1.9 0.48,0.6 0.94,1.2 1.41,1.9 m -2.58,-3.6 c -0.48,-0.6 -0.95,-1.3 -1.42,-2 0.47,0.7 0.94,1.4 1.42,2 m -2.52,-3.5 c -0.52,-0.8 -1.03,-1.6 -1.55,-2.3 0.52,0.7 1.03,1.5 1.55,2.3 m -2.44,-3.6 c -0.81,-1.2 -1.61,-2.5 -2.41,-3.7 -15.58,-24.2 -26.77,-50.6 -34.86,-78.1 v 0 c 8.09,27.5 19.28,53.9 34.86,78.1 0.8,1.2 1.6,2.5 2.41,3.7"
         style="fill:#461e24;fill-opacity:1;fill-rule:nonzero;stroke:none"
         id="path208" />
      <path
         d="m 3061.6,4779.2 h -224.4 c -3.27,-24.3 -5.05,-49 -6.13,-73.3 -0.78,-17.8 -1.19,-35.6 -1.23,-53.5 -0.34,-159.8 29.45,-322.8 95.74,-466 78.68,73.6 157.57,146.8 236.58,219.9 -41.62,54.9 -70.54,121.9 -83.86,195.2 -11.31,60.2 -16.61,119.4 -16.7,177.7"
         style="fill:#d5c6c6;fill-opacity:1;fill-rule:nonzero;stroke:none"
         id="path210" />
      <path
         d="m 2851.43,4848 c -6.57,-22.3 -11.08,-45.4 -14.23,-68.8 h 224.4 c -0.03,14.5 0.27,29 0.89,43.4 -74.93,9.1 -145.6,17.6 -211.06,25.4"
         style="fill:#b87b7e;fill-opacity:1;fill-rule:nonzero;stroke:none"
         id="path212" />
      <path
         d="m 3105.11,5077.5 c -36.71,-13.5 -73.25,-29.3 -106.89,-49 -0.02,0 -0.05,0 -0.08,-0.1 -1.26,-0.7 -2.52,-1.4 -3.77,-2.2 -0.05,0 -0.12,-0.1 -0.18,-0.1 -1.25,-0.7 -2.5,-1.5 -3.74,-2.3 -0.03,0 -0.08,0 -0.12,0 -1.21,-0.8 -2.42,-1.5 -3.63,-2.3 -0.09,0 -0.18,-0.1 -0.26,-0.2 -1.23,-0.7 -2.43,-1.5 -3.64,-2.3 -0.06,0 -0.11,0 -0.16,-0.1 -5.05,-3.2 -10.03,-6.6 -14.92,-10 -0.16,-0.1 -0.33,-0.2 -0.49,-0.3 -1.02,-0.8 -2.04,-1.5 -3.06,-2.2 -0.3,-0.3 -0.59,-0.5 -0.89,-0.7 -0.9,-0.6 -1.79,-1.3 -2.67,-1.9 -0.33,-0.3 -0.67,-0.5 -1,-0.8 -0.81,-0.6 -1.61,-1.2 -2.42,-1.8 -0.45,-0.3 -0.89,-0.7 -1.34,-1 -0.69,-0.6 -1.4,-1.1 -2.09,-1.6 -0.46,-0.4 -0.93,-0.8 -1.39,-1.1 -0.68,-0.6 -1.35,-1.1 -2.04,-1.6 -0.47,-0.4 -0.95,-0.8 -1.41,-1.2 -0.67,-0.5 -1.32,-1.1 -1.98,-1.6 -0.47,-0.4 -0.92,-0.8 -1.39,-1.1 -0.65,-0.6 -1.3,-1.1 -1.95,-1.7 -0.48,-0.4 -0.95,-0.8 -1.43,-1.2 -0.64,-0.5 -1.25,-1.1 -1.89,-1.6 -0.46,-0.4 -0.92,-0.8 -1.38,-1.2 -0.64,-0.5 -1.27,-1.1 -1.9,-1.7 -0.46,-0.4 -0.93,-0.8 -1.39,-1.2 -0.63,-0.6 -1.26,-1.1 -1.9,-1.7 -0.43,-0.4 -0.86,-0.8 -1.29,-1.2 -0.63,-0.6 -1.26,-1.2 -1.88,-1.7 -0.45,-0.5 -0.89,-0.9 -1.33,-1.3 -0.68,-0.6 -1.37,-1.3 -2.04,-2 -0.35,-0.3 -0.72,-0.6 -1.07,-1 -1,-1 -2.01,-1.9 -3,-2.9 -0.4,-0.5 -0.82,-0.9 -1.23,-1.3 -0.61,-0.6 -1.24,-1.2 -1.84,-1.9 -0.42,-0.4 -0.85,-0.8 -1.26,-1.3 -0.57,-0.6 -1.13,-1.2 -1.7,-1.8 -0.46,-0.5 -0.92,-1 -1.38,-1.4 -0.52,-0.6 -1.05,-1.2 -1.58,-1.8 -0.45,-0.4 -0.9,-1 -1.35,-1.5 -0.51,-0.5 -1.03,-1.1 -1.54,-1.7 -0.44,-0.5 -0.88,-1 -1.32,-1.5 -0.52,-0.6 -1.02,-1.2 -1.54,-1.8 -0.45,-0.5 -0.89,-1 -1.33,-1.5 -0.47,-0.6 -0.95,-1.1 -1.42,-1.7 -0.45,-0.6 -0.92,-1.1 -1.37,-1.7 -0.47,-0.5 -0.95,-1.1 -1.41,-1.7 -0.44,-0.5 -0.88,-1.1 -1.31,-1.6 -0.47,-0.6 -0.92,-1.2 -1.39,-1.8 -0.43,-0.6 -0.85,-1.1 -1.26,-1.6 -0.49,-0.7 -0.97,-1.3 -1.46,-2 -0.38,-0.5 -0.78,-1 -1.17,-1.5 -0.47,-0.7 -0.93,-1.3 -1.41,-1.9 -0.39,-0.6 -0.78,-1.1 -1.17,-1.7 -0.48,-0.6 -0.95,-1.3 -1.42,-2 -0.37,-0.5 -0.73,-1 -1.1,-1.5 -0.52,-0.8 -1.03,-1.6 -1.55,-2.3 -0.3,-0.5 -0.6,-0.9 -0.89,-1.3 -0.81,-1.2 -1.61,-2.5 -2.41,-3.7 -15.58,-24.2 -26.77,-50.6 -34.86,-78.1 65.46,-7.8 136.13,-16.3 211.06,-25.4 3.7,87.2 18.84,172.2 42.62,254.9"
         style="fill:#5a2e33;fill-opacity:1;fill-rule:nonzero;stroke:none"
         id="path214" />
      <path
         d="m 3306.86,4138.6 -89.27,-96.3 -8.57,-9.3 c 149.49,30.6 315.43,56.9 494.18,77.9 -135.99,8.4 -268.13,17.6 -396.34,27.7"
         style="fill:#f4ebe7;fill-opacity:1;fill-rule:nonzero;stroke:none"
         id="path216" />
      <path
         d="m 3703.2,4110.9 c -178.75,-21 -344.69,-47.3 -494.18,-77.9 l -82.99,-90 c -4.2,-4.6 -8.39,-9.2 -12.56,-13.9 42.92,-38 90.9,-71.1 144.61,-91.5 1.98,-0.8 3.94,-1.5 5.94,-2.2 0.77,-0.3 1.56,-0.6 2.34,-0.9 66.95,-23.9 141.93,-34.8 219.22,-34.9 0.42,0 0.85,0 1.27,0 0.68,0 1.34,0 2.02,0 162.45,0.4 334.88,48 464.77,120.6 3.37,1.9 6.71,3.8 10.02,5.7 0.88,0.5 1.77,1 2.65,1.5 3.59,2.2 7.16,4.3 10.69,6.4 v 0 c 1.59,1 3.19,2 4.78,2.9 0.03,0 0.08,0.1 0.1,0.1 36.86,22.7 72.53,48.2 106.59,76 0.1,0.1 0.2,0.2 0.31,0.3 1.29,1.1 2.58,2.1 3.86,3.2 0.2,0.1 0.41,0.3 0.61,0.5 1.27,1 2.54,2.1 3.81,3.2 0.91,0.7 1.84,1.5 2.75,2.3 0.23,0.2 0.48,0.4 0.72,0.6 23.64,20 46.46,41.1 68.33,63.3 -159.28,7.1 -314.91,15.4 -465.66,24.7"
         style="fill:#d5c6c6;fill-opacity:1;fill-rule:nonzero;stroke:none"
         id="path218" />
      <path
         d="m 4352.79,4342.7 c -175.13,-96.1 -373.4,-142.7 -572.35,-142.7 -122.99,0 -246.2,17.8 -364.42,52.7 l -13.13,-13.7 -93.41,-97.6 -2.62,-2.8 c 128.21,-10.1 260.35,-19.3 396.34,-27.7 150.75,-9.3 306.38,-17.6 465.66,-24.7 74.16,75.2 137.29,162.4 183.93,256.5"
         style="fill:#d5c6c6;fill-opacity:1;fill-rule:nonzero;stroke:none"
         id="path220" />
      <path
         d="m 3162.16,4406.3 c -79.01,-73.1 -157.9,-146.3 -236.58,-219.9 45.07,-97.3 107.02,-185.5 187.89,-257.3 v 0 c 4.17,4.7 8.36,9.3 12.56,13.9 l 82.99,90 8.57,9.3 89.27,96.3 2.62,2.8 93.41,97.6 13.13,13.7 c -22.83,6.7 -45.48,14.1 -67.89,22.1 -75.43,22.6 -138.84,69.3 -185.97,131.5"
         style="fill:#65333a;fill-opacity:1;fill-rule:nonzero;stroke:none"
         id="path222" />
      <path
         d="m 6689.7,4779.2 h -578.77 c -103.03,-12.7 -209.66,-26 -318.44,-39.5 l 4.38,-0.5 c 52.46,-6.6 104.13,-18.6 154.01,-35.9 49.82,-17.5 98.01,-39.8 143.04,-67.4 22.6,-13.7 44.43,-28.7 65.4,-44.6 10.58,-8 20.64,-16.5 30.89,-24.8 l 14.86,-13.2 7.3,-6.5 6.24,-5.7 99.58,-91.8 c 51.38,-47.4 102.71,-94.9 153.99,-142.6 73.15,26.3 141.69,61.4 201.89,107.5 v 0 0 c -15.68,-78.9 -39.7,-155.8 -72.9,-227.6 0.05,-0.1 0.12,-0.2 0.16,-0.2 73.72,159.2 102.28,342.9 94.5,519.5 -1.06,24.3 -2.85,49 -6.13,73.3 M 5465.01,4521.4 c 21.97,-40.7 49.77,-80.4 84.32,-118.8 85.18,-99.4 213.03,-142 340.82,-156.2 48.57,-4.1 99.15,-6.4 150.68,-6.4 26.57,0 53.38,0.6 80.3,1.9 l -90.78,94.6 -18.99,19.7 c -5.99,5.8 -11.97,11.8 -18.41,17.2 -12.69,10.9 -25.97,21.3 -39.83,30.9 -27.61,19.4 -57.72,35.5 -89.14,48.9 -31.55,13 -64.81,22.9 -98.73,29.4 l -12.09,2 -6.05,1 -8.42,0.9 c 0,0 -103.29,13.2 -273.68,34.9"
         style="fill:#cec4c5;fill-opacity:1;fill-rule:nonzero;stroke:none"
         id="path224" />
      <path
         d="m 5885.81,5161 c -133.83,0 -269.68,-14.5 -390.42,-48.7 h 812.15 c -121.14,30 -270.11,48.7 -421.73,48.7"
         style="fill:#844751;fill-opacity:1;fill-rule:nonzero;stroke:none"
         id="path226" />
      <path
         d="m 6307.54,5112.3 h -812.15 c -131.96,-37.4 -245.82,-98.3 -318.98,-189.2 h 0.08 c 61.95,76.9 153.03,132.3 259.57,170.2 -12.39,-46.8 -22.73,-93.9 -29.95,-140.8 l 1005.63,128.7 c -2.87,1 -5.74,2 -8.61,3 -29.26,10.1 -61.31,19.6 -95.59,28.1 M 6675.46,4848 c -161.49,-19.3 -355.14,-42.9 -564.53,-68.8 h 578.77 c -3.15,23.4 -7.66,46.5 -14.24,68.8"
         style="fill:#ae6d74;fill-opacity:1;fill-rule:nonzero;stroke:none"
         id="path228" />
      <path
         d="m 5792.49,4739.7 c -127.35,-15.9 -257.34,-32.1 -386.84,-48.4 10.63,-58 29.67,-114.9 59.36,-169.9 170.39,-21.7 273.68,-34.9 273.68,-34.9 l 8.42,-0.9 6.05,-1 12.09,-2 c 33.92,-6.5 67.18,-16.4 98.73,-29.4 31.42,-13.4 61.53,-29.5 89.14,-48.9 13.86,-9.6 27.14,-20 39.83,-30.9 6.44,-5.4 12.42,-11.4 18.41,-17.2 l 18.99,-19.7 90.78,-94.6 c 119.17,5.8 240.42,25.1 351.05,64.8 -51.28,47.7 -102.61,95.2 -153.99,142.6 l -99.58,91.8 -6.24,5.7 -7.3,6.5 -14.86,13.2 c -10.25,8.3 -20.31,16.8 -30.89,24.8 -20.97,15.9 -42.8,30.9 -65.4,44.6 -45.03,27.6 -93.22,49.9 -143.04,67.4 -49.88,17.3 -101.55,29.3 -154.01,35.9 l -4.38,0.5 m 808.68,-553.1 c -41.81,-90.6 -98.19,-173.1 -170.86,-242 72.67,68.8 129.14,151.3 171.02,241.8 -0.04,0 -0.11,0.1 -0.16,0.2"
         style="fill:#461e24;fill-opacity:1;fill-rule:nonzero;stroke:none"
         id="path230" />
      <path
         d="M 6411.74,5081.2 5406.11,4952.5 c -13.54,-88.1 -16.08,-175.9 -0.46,-261.2 129.5,16.3 259.49,32.5 386.84,48.4 108.78,13.5 215.41,26.8 318.44,39.5 v 0 c 209.39,25.9 403.04,49.5 564.53,68.8 -8.1,27.5 -19.31,53.9 -34.91,78.1 -50.75,79 -140.04,123.4 -228.81,155.1 M 5176.49,4923.1 h -0.08 c -49.77,-61.9 -80.73,-137.6 -85.76,-229.4 5.04,91.8 36.03,167.6 85.84,229.4 m -85.87,-230 c -0.15,-2.8 -0.28,-5.7 -0.38,-8.5 0.1,2.8 0.23,5.7 0.38,8.5 m -0.42,-9.7 c -0.04,-1.3 -0.08,-2.6 -0.11,-3.9 0.03,1.3 0.07,2.6 0.11,3.9 m -0.16,-5.8 c -0.02,-0.8 -0.03,-1.5 -0.04,-2.2 0.01,0.7 0.02,1.4 0.04,2.2 m -0.07,-4.2 c -0.02,-1.1 -0.03,-2.3 -0.03,-3.4 0,1.1 0.01,2.3 0.03,3.4 m -0.04,-5.6 c 0,-0.7 0,-1.3 0,-2 0,0.7 0,1.3 0,2 m 0.01,-4.8 c 0.01,-0.8 0.01,-1.6 0.02,-2.4 -0.01,0.8 -0.01,1.6 -0.02,2.4 m 0.06,-5.2 c 0.02,-0.5 0.03,-1.1 0.04,-1.6 -0.01,0.5 -0.02,1.1 -0.04,1.6"
         style="fill:#52232b;fill-opacity:1;fill-rule:nonzero;stroke:none"
         id="path232" />
      <path
         d="m 5090.16,4651.7 h -0.01 c 0.01,-0.3 0.02,-0.6 0.03,-0.8 -0.01,0.3 -0.02,0.5 -0.02,0.8"
         style="fill:#461e24;fill-opacity:1;fill-rule:nonzero;stroke:none"
         id="path234" />
      <path
         d="m 5090.14,4652.2 c 0,-0.2 0.01,-0.4 0.01,-0.5 h 0.01 c -0.01,0.2 -0.02,0.3 -0.02,0.5"
         style="fill:#52232b;fill-opacity:1;fill-rule:nonzero;stroke:none"
         id="path236" />
      <path
         d="m 5090.28,4647.8 c 0.02,-0.5 0.04,-1 0.05,-1.5 -0.01,0.5 -0.03,1 -0.05,1.5 m 0.23,-5.6 c 0.02,-0.4 0.04,-0.8 0.07,-1.2 -0.03,0.4 -0.04,0.8 -0.07,1.2 m 0.25,-4.9 c 0.02,-0.3 0.04,-0.6 0.06,-0.9 -0.02,0.3 -0.04,0.6 -0.06,0.9 m 0.32,-5.2 c 0.02,-0.4 0.05,-0.8 0.08,-1.2 -0.03,0.4 -0.06,0.8 -0.08,1.2 m 0.37,-5.2 c 0.01,-0.2 0.02,-0.4 0.04,-0.6 -0.02,0.2 -0.03,0.4 -0.04,0.6 m 0.41,-5.1 c 0.02,-0.4 0.05,-0.8 0.09,-1.2 -0.04,0.4 -0.07,0.8 -0.09,1.2 m 0.97,-10.5 c 0.03,-0.3 0.06,-0.6 0.08,-0.8 -0.03,0.2 -0.05,0.5 -0.08,0.8 m 0.61,-5.7 c 0,-0.1 0.01,-0.1 0.02,-0.1 -0.01,0 -0.02,0 -0.02,0.1 m 0.57,-5 c 0.03,-0.2 0.05,-0.4 0.08,-0.6 -0.03,0.2 -0.05,0.4 -0.08,0.6 m 0.71,-5.6 c 0.01,-0.1 0.02,-0.2 0.03,-0.2 -0.01,0 -0.02,0.1 -0.03,0.2 m 0.69,-5.2 c 0.01,-0.1 0.04,-0.2 0.05,-0.4 -0.01,0.2 -0.04,0.3 -0.05,0.4 m 0.78,-5.5 c 0.02,-0.1 0.04,-0.2 0.06,-0.4 -0.02,0.2 -0.04,0.3 -0.06,0.4 m 0.82,-5.4 c 0.01,-0.1 0.01,-0.1 0.03,-0.2 -0.01,0.1 -0.02,0.1 -0.03,0.2 m 0.85,-5.3 c 0.04,-0.2 0.06,-0.4 0.1,-0.6 -0.03,0.2 -0.07,0.4 -0.1,0.6"
         style="fill:#461e24;fill-opacity:1;fill-rule:nonzero;stroke:none"
         id="path238" />
      <path
         d="m 5099.74,4562.7 c 0.04,-0.2 0.08,-0.5 0.12,-0.7 -0.04,0.2 -0.08,0.5 -0.12,0.7 m 2.11,-11.1 c 0.04,-0.3 0.06,-0.4 0.1,-0.6 -0.04,0.2 -0.07,0.4 -0.1,0.6 m 2.3,-11.2 c 0.04,-0.2 0.09,-0.4 0.12,-0.6 -0.04,0.2 -0.08,0.4 -0.12,0.6 m 1.26,-5.8 c 0.06,-0.2 0.1,-0.4 0.17,-0.7 -0.06,0.2 -0.12,0.5 -0.17,0.7 m 1.28,-5.6 c 0.03,-0.2 0.07,-0.3 0.1,-0.5 -0.04,0.2 -0.06,0.3 -0.1,0.5 m 1.34,-5.7 c 0.07,-0.3 0.12,-0.5 0.19,-0.8 -0.06,0.2 -0.13,0.5 -0.19,0.8 m 1.42,-5.9 c 0.02,-0.1 0.04,-0.2 0.07,-0.3 -0.03,0.1 -0.05,0.2 -0.07,0.3 m 1.37,-5.5 c 0.1,-0.3 0.2,-0.7 0.28,-1.1 -0.08,0.4 -0.18,0.8 -0.28,1.1"
         style="fill:#cec4c5;fill-opacity:1;fill-rule:nonzero;stroke:none"
         id="path240" />
      <path
         d="m 6429.42,3943.8 c -0.79,-0.8 -1.59,-1.5 -2.38,-2.3 0.8,0.8 1.59,1.5 2.38,2.3 m -4.59,-4.3 c -0.88,-0.8 -1.77,-1.7 -2.67,-2.5 0.89,0.8 1.8,1.7 2.67,2.5 m -5.66,-5.2 c -0.49,-0.5 -1,-0.9 -1.48,-1.4 0.49,0.5 0.98,0.9 1.48,1.4"
         style="fill:#461e24;fill-opacity:1;fill-rule:nonzero;stroke:none"
         id="path242" />
      <path
         d="m 5090.65,4693.7 c -0.01,-0.2 -0.02,-0.4 -0.03,-0.6 0.01,0.2 0.02,0.4 0.03,0.6 m -0.41,-9.1 c -0.02,-0.4 -0.03,-0.8 -0.04,-1.2 0.01,0.4 0.02,0.8 0.04,1.2 m -0.15,-5.1 c -0.02,-0.7 -0.03,-1.3 -0.05,-1.9 0.02,0.6 0.03,1.2 0.05,1.9 m -0.09,-4.1 c -0.01,-0.7 -0.02,-1.4 -0.03,-2 0.01,0.6 0.02,1.3 0.03,2 m -0.06,-5.4 c -0.01,-0.7 -0.01,-1.5 -0.01,-2.2 0,0.8 0,1.5 0.01,2.2 m -0.01,-4.2 c 0,-1 0.01,-1.9 0.01,-2.8 0,0.9 -0.01,1.9 -0.01,2.8 m 0.03,-5.2 c 0.02,-0.9 0.03,-1.8 0.04,-2.8 -0.01,1 -0.02,1.9 -0.04,2.8 m 0.08,-4.4 c 0.03,-1.4 0.06,-2.6 0.1,-4 -0.05,1.4 -0.07,2.6 -0.1,4"
         style="fill:#52232b;fill-opacity:1;fill-rule:nonzero;stroke:none"
         id="path244" />
      <path
         d="m 5090.18,4650.9 c 0.02,-1.1 0.06,-2.1 0.1,-3.1 -0.04,1 -0.08,2 -0.1,3.1 m 0.15,-4.6 c 0.05,-1.3 0.12,-2.7 0.18,-4.1 -0.06,1.4 -0.13,2.7 -0.18,4.1 m 0.25,-5.3 c 0.05,-1.3 0.12,-2.5 0.18,-3.7 -0.06,1.2 -0.13,2.4 -0.18,3.7 m 0.24,-4.6 c 0.08,-1.4 0.17,-2.9 0.26,-4.3 -0.08,1.4 -0.18,2.9 -0.26,4.3 m 0.34,-5.5 c 0.09,-1.3 0.19,-2.7 0.29,-4 -0.1,1.3 -0.2,2.6 -0.29,4 m 0.33,-4.6 c 0.11,-1.5 0.24,-3 0.37,-4.5 -0.13,1.5 -0.26,3 -0.37,4.5 m 0.46,-5.7 c 0.27,-3.1 0.57,-6.2 0.88,-9.3 -0.31,3.1 -0.61,6.2 -0.88,9.3 m 0.96,-10.1 c 0.18,-1.7 0.34,-3.3 0.53,-4.9 -0.19,1.6 -0.35,3.2 -0.53,4.9 m 0.55,-5 c 0.17,-1.6 0.36,-3.3 0.55,-4.9 -0.19,1.7 -0.38,3.2 -0.55,4.9 m 0.63,-5.5 c 0.21,-1.7 0.41,-3.3 0.63,-5 -0.23,1.7 -0.42,3.3 -0.63,5 m 0.66,-5.2 c 0.21,-1.7 0.43,-3.3 0.66,-5 -0.23,1.7 -0.45,3.3 -0.66,5 m 0.71,-5.4 c 0.23,-1.7 0.48,-3.4 0.73,-5.1 -0.25,1.7 -0.5,3.5 -0.73,5.1 m 0.79,-5.5 c 0.24,-1.6 0.5,-3.3 0.76,-5 -0.26,1.7 -0.52,3.4 -0.76,5 m 0.79,-5.2 c 0.27,-1.7 0.54,-3.4 0.82,-5.1 -0.28,1.7 -0.56,3.4 -0.82,5.1"
         style="fill:#461e24;fill-opacity:1;fill-rule:nonzero;stroke:none"
         id="path246" />
      <path
         d="m 5098.81,4567.9 c 0.3,-1.7 0.6,-3.4 0.93,-5.2 -0.33,1.8 -0.63,3.5 -0.93,5.2 v 0"
         style="fill:#cec4c5;fill-opacity:1;fill-rule:nonzero;stroke:none"
         id="path248" />
      <path
         d="m 5097.96,4573 c 0.28,-1.7 0.56,-3.4 0.85,-5.1 v 0 c -0.29,1.7 -0.57,3.4 -0.85,5.1"
         style="fill:#461e24;fill-opacity:1;fill-rule:nonzero;stroke:none"
         id="path250" />
      <path
         d="m 5099.86,4562 c 0.64,-3.5 1.3,-7 1.99,-10.4 -0.69,3.4 -1.36,7 -1.99,10.4 m 2.09,-11 c 0.71,-3.5 1.44,-7 2.2,-10.6 -0.76,3.5 -1.49,7.1 -2.2,10.6 m 2.32,-11.2 c 0.38,-1.7 0.75,-3.4 1.14,-5.2 -0.39,1.8 -0.76,3.5 -1.14,5.2 m 1.31,-5.9 c 0.36,-1.6 0.73,-3.3 1.11,-4.9 -0.38,1.6 -0.75,3.3 -1.11,4.9 m 1.21,-5.4 c 0.4,-1.7 0.82,-3.5 1.24,-5.2 -0.42,1.8 -0.84,3.5 -1.24,5.2 m 1.43,-6 c 0.4,-1.7 0.81,-3.4 1.23,-5.1 -0.42,1.7 -0.83,3.4 -1.23,5.1 m 1.3,-5.4 c 0.42,-1.7 0.86,-3.4 1.3,-5.2 -0.44,1.8 -0.87,3.5 -1.3,5.2 m 1.58,-6.3 c 0.45,-1.7 0.9,-3.4 1.36,-5.2 -0.46,1.8 -0.91,3.5 -1.36,5.2"
         style="fill:#cec4c5;fill-opacity:1;fill-rule:nonzero;stroke:none"
         id="path252" />
      <path
         d="m 6430.31,3944.6 c -0.3,-0.3 -0.58,-0.5 -0.89,-0.8 0.3,0.3 0.6,0.5 0.89,0.8 m -3.27,-3.1 c -0.73,-0.6 -1.47,-1.3 -2.21,-2 0.75,0.7 1.48,1.4 2.21,2 m -4.88,-4.5 c -0.99,-0.9 -1.98,-1.8 -2.99,-2.7 1.01,0.9 2,1.8 2.99,2.7 m -4.47,-4.1 c -1.41,-1.2 -2.83,-2.5 -4.25,-3.8 1.42,1.3 2.83,2.6 4.25,3.8"
         style="fill:#461e24;fill-opacity:1;fill-rule:nonzero;stroke:none"
         id="path254" />
      <path
         d="m 6293.24,4059.6 c -44.17,-0.8 -88.29,-1.5 -132.86,-2.1 56.89,-10.1 111.77,-20.8 164.5,-32.1 l -15.55,16.9 -16.09,17.3"
         style="fill:#f4ebe7;fill-opacity:1;fill-rule:nonzero;stroke:none"
         id="path256" />
      <path
         d="m 6160.38,4057.5 c -165.11,-2.4 -332.94,-3.6 -502.86,-3.6 -89.73,0 -178.84,0.3 -267.29,1 49.51,-46 103.22,-86.8 159.68,-121.1 132.59,-80.5 317.14,-134.2 490.14,-134.2 80.97,0 159.37,11.7 228.78,38 53.7,20.4 101.69,53.5 144.61,91.5 -4.17,4.7 -8.35,9.3 -12.55,13.9 l -76.01,82.4 c -52.73,11.3 -107.61,22 -164.5,32.1"
         style="fill:#d5c6c6;fill-opacity:1;fill-rule:nonzero;stroke:none"
         id="path258" />
      <path
         d="m 5098.81,4567.9 c 0.3,-1.7 0.6,-3.4 0.93,-5.2 0.04,-0.2 0.08,-0.5 0.12,-0.7 0.63,-3.4 1.3,-7 1.99,-10.4 0.03,-0.2 0.06,-0.4 0.1,-0.6 0.71,-3.5 1.44,-7.1 2.2,-10.6 0.04,-0.2 0.08,-0.4 0.12,-0.6 0.38,-1.7 0.75,-3.4 1.14,-5.2 0.05,-0.2 0.11,-0.5 0.17,-0.7 0.36,-1.6 0.73,-3.3 1.11,-4.9 0.04,-0.2 0.06,-0.3 0.1,-0.5 0.4,-1.7 0.82,-3.4 1.24,-5.2 0.06,-0.3 0.13,-0.6 0.19,-0.8 0.4,-1.7 0.81,-3.4 1.23,-5.1 0.02,-0.1 0.04,-0.2 0.07,-0.3 0.43,-1.7 0.86,-3.4 1.3,-5.2 0.1,-0.3 0.2,-0.7 0.28,-1.1 0.45,-1.7 0.9,-3.4 1.36,-5.2 v 0 c 44.86,-170.4 146.53,-328.8 277.77,-450.7 88.45,-0.7 177.56,-1 267.29,-1 169.92,0 337.75,1.2 502.86,3.6 44.57,0.6 88.69,1.3 132.86,2.1 l -75.81,81.8 -93.47,97.6 -2.83,2.9 c -26.92,-1.3 -53.73,-1.9 -80.3,-1.9 -51.53,0 -102.11,2.3 -150.68,6.4 -127.79,14.2 -255.64,56.8 -340.82,156.2 -34.55,38.4 -62.35,78.1 -84.32,118.8 -101.02,12.8 -225.6,28.7 -366.2,46.5 m 1575.26,-153.7 c -60.2,-46.1 -128.74,-81.2 -201.89,-107.5 43.04,-39.9 86.05,-80 128.99,-120.1 33.2,71.8 57.22,148.7 72.9,227.6"
         style="fill:#d5c6c6;fill-opacity:1;fill-rule:nonzero;stroke:none"
         id="path260" />
      <path
         d="m 5436.06,5093.3 c -106.54,-37.9 -197.62,-93.3 -259.57,-170.2 l 229.62,29.4 c 7.22,46.9 17.56,94 29.95,140.8"
         style="fill:#b87b7e;fill-opacity:1;fill-rule:nonzero;stroke:none"
         id="path262" />
      <path
         d="m 5405.65,4691.3 c -106.04,-13.3 -211.79,-26.6 -315.49,-39.6 0,-0.3 0.01,-0.5 0.02,-0.8 0.02,-1.1 0.06,-2.1 0.1,-3.1 0.02,-0.5 0.04,-1 0.05,-1.5 0.05,-1.4 0.12,-2.7 0.18,-4.1 0.03,-0.4 0.04,-0.8 0.07,-1.2 0.05,-1.3 0.12,-2.5 0.18,-3.7 0.02,-0.3 0.04,-0.6 0.06,-0.9 0.08,-1.4 0.18,-2.9 0.26,-4.3 0.02,-0.4 0.05,-0.8 0.08,-1.2 0.09,-1.4 0.19,-2.7 0.29,-4 0.01,-0.2 0.02,-0.4 0.04,-0.6 0.11,-1.5 0.24,-3 0.37,-4.5 0.02,-0.4 0.05,-0.8 0.09,-1.2 0.27,-3.1 0.57,-6.2 0.88,-9.3 0.03,-0.3 0.05,-0.6 0.08,-0.8 0.18,-1.7 0.34,-3.3 0.53,-4.9 0,-0.1 0.01,-0.1 0.02,-0.1 0.17,-1.7 0.36,-3.2 0.55,-4.9 0.03,-0.2 0.05,-0.4 0.08,-0.6 0.21,-1.7 0.4,-3.3 0.63,-5 0.01,-0.1 0.02,-0.2 0.03,-0.2 0.21,-1.7 0.43,-3.3 0.66,-5 0.01,-0.1 0.04,-0.2 0.05,-0.4 0.23,-1.6 0.48,-3.4 0.73,-5.1 0.02,-0.1 0.04,-0.2 0.06,-0.4 0.24,-1.6 0.5,-3.3 0.76,-5 0.01,-0.1 0.02,-0.1 0.03,-0.2 0.26,-1.7 0.54,-3.4 0.82,-5.1 0.03,-0.2 0.07,-0.4 0.1,-0.6 0.28,-1.7 0.56,-3.4 0.85,-5.1 140.6,-17.8 265.18,-33.7 366.2,-46.5 -29.69,55 -48.73,111.9 -59.36,169.9 m 1066.53,-384.6 c -110.63,-39.7 -231.88,-59 -351.05,-64.8 l 2.83,-2.9 93.47,-97.6 75.81,-81.8 16.09,-17.3 15.55,-16.9 76.01,-82.4 c 4.2,-4.6 8.38,-9.2 12.55,-13.9 v 0 0 c 1.42,1.3 2.84,2.6 4.25,3.8 0.48,0.5 0.99,0.9 1.48,1.4 1.01,0.9 2,1.8 2.99,2.7 0.9,0.8 1.79,1.7 2.67,2.5 0.74,0.7 1.48,1.4 2.21,2 0.79,0.8 1.59,1.5 2.38,2.3 0.31,0.3 0.59,0.5 0.89,0.8 72.67,68.9 129.05,151.4 170.86,242 -42.94,40.1 -85.95,80.2 -128.99,120.1"
         style="fill:#5a2e33;fill-opacity:1;fill-rule:nonzero;stroke:none"
         id="path264" />
      <path
         d="m 5406.11,4952.5 -229.62,-29.4 c -49.81,-61.8 -80.8,-137.6 -85.84,-229.4 -0.01,-0.2 -0.02,-0.4 -0.03,-0.6 -0.15,-2.8 -0.28,-5.7 -0.38,-8.5 -0.02,-0.4 -0.03,-0.8 -0.04,-1.2 -0.04,-1.3 -0.08,-2.6 -0.11,-3.9 -0.02,-0.7 -0.03,-1.3 -0.05,-1.9 -0.02,-0.8 -0.03,-1.5 -0.04,-2.2 -0.01,-0.7 -0.02,-1.4 -0.03,-2 -0.02,-1.1 -0.03,-2.3 -0.03,-3.4 -0.01,-0.7 -0.01,-1.4 -0.01,-2.2 0,-0.7 0,-1.3 0,-2 0,-0.9 0.01,-1.9 0.01,-2.8 0.01,-0.8 0.01,-1.6 0.02,-2.4 0.02,-0.9 0.03,-1.8 0.04,-2.8 0.02,-0.5 0.03,-1.1 0.04,-1.6 0.03,-1.4 0.05,-2.6 0.1,-4 0,-0.2 0.01,-0.3 0.02,-0.5 103.7,13 209.45,26.3 315.49,39.6 -15.62,85.3 -13.08,173.1 0.46,261.2"
         style="fill:#65333a;fill-opacity:1;fill-rule:nonzero;stroke:none"
         id="path266" />
      <path
         d="m 6413.45,3929.2 c -42.9,-38.1 -90.95,-71.3 -144.62,-91.6 -69.42,-26.3 -147.86,-38 -228.83,-38 -172.97,0 -357.48,53.6 -490.08,134.2 -206.17,125.2 -375.69,337.2 -437.48,571.8 -130.94,497.3 332.47,655.5 773.28,655.5 h 0.12 c 194.46,-0.1 384.63,-30.9 517.26,-76.9 91.59,-31.8 185.04,-76.6 237.49,-158.1 41.43,-64.4 51.86,-143.7 55.23,-220.2 12.59,-284.6 -69.31,-587.7 -282.37,-776.7 z M 4414.47,4505.6 C 4352.68,4271 4183.16,4059 3976.99,3933.8 c -132.61,-80.6 -317.11,-134.2 -490.08,-134.2 -80.97,0 -159.41,11.7 -228.82,38 -53.69,20.3 -101.73,53.5 -144.63,91.6 -213.07,189 -294.96,492.1 -282.38,776.7 3.37,76.5 13.8,155.8 55.25,220.2 52.43,81.5 145.89,126.3 237.48,158.1 132.63,46 322.79,76.8 517.26,76.9 h 0.11 c 440.82,0 904.22,-158.2 773.29,-655.5 z m 2113.07,736.6 c -173.35,23.4 -343.33,59.6 -518.37,71.5 -231.77,15.8 -463.56,-7.1 -690.51,-54.9 -180.96,-38.1 -360.12,-97.9 -546.85,-97.9 l -8.35,0.1 -8.36,-0.1 c -186.74,0 -365.88,59.8 -546.85,97.9 -226.94,47.8 -458.74,70.7 -690.51,54.9 -175.04,-11.9 -345.03,-48.1 -518.38,-71.5 -265.96,-35.8 -335.24,-83 -606.53,-66.8 v -276.7 c 0,0 298.05,-43.9 298.05,-344.4 l 0.62,-4.1 c 20.67,-297.6 135.95,-557.1 327.7,-727.2 61.84,-55 123.54,-93.6 188.62,-118.2 82.81,-31.4 176.69,-47.2 279.09,-47.2 193.4,0 404.17,57.8 563.81,154.8 244.53,148.5 431.87,394.2 501.1,657.1 12.13,46.1 19.69,89.4 23.6,130 8.97,50.9 20.26,95.3 33.19,134 18.63,55.6 71.28,92.6 129.92,92.6 h 24.93 24.92 c 58.64,0 111.29,-37 129.91,-92.6 12.93,-38.7 24.25,-83.1 33.19,-134 3.94,-40.6 11.49,-83.9 23.62,-130 69.25,-262.9 256.55,-508.6 501.09,-657.1 159.63,-97 370.41,-154.8 563.81,-154.8 102.39,0 196.28,15.8 279.08,47.2 65.08,24.6 126.78,63.2 188.63,118.2 191.75,170.1 307.03,429.6 327.69,727.2 l 0.63,4.1 c 0,300.5 298.05,344.4 298.05,344.4 v 276.7 c -271.3,-16.2 -340.57,31 -606.54,66.8"
         style="fill:#481d24;fill-opacity:1;fill-rule:nonzero;stroke:none"
         id="path268" />
      <path
         d="m 3078.27,3891.4 c -170.84,116.9 -205.02,313.5 -225.15,521.3 -15.43,77.2 -23.06,156.2 -23.19,234.7 -5.47,42.3 -12.26,84 -21.48,124.4 -52.51,210.2 -229.4,288.1 -415.62,303 v -176.1 c 0,0 298.05,-43.9 298.05,-344.4 l 0.62,-4.1 c 20.67,-297.6 135.95,-557.1 327.7,-727.2 61.84,-55 123.54,-93.6 188.62,-118.2 82.81,-31.4 176.69,-47.2 279.09,-47.2 193.4,0 404.17,57.8 563.81,154.8 65.02,39.5 125.83,86 181.61,137.7 -358.49,-219.8 -784.38,-318.5 -1154.06,-58.7"
         style="fill:#3d141c;fill-opacity:1;fill-rule:nonzero;stroke:none"
         id="path270" />
      <path
         d="m 6529.21,4005 c -326.64,-312.4 -752.68,-298.3 -1121.92,-28.4 -227.21,170.4 -255.61,440.2 -383.42,667.5 -28.41,70.9 -56.81,156.1 -127.82,184.6 -51.76,22.2 -114.95,21 -167.76,-3 l 10.24,0.4 h 24.93 24.92 c 58.64,0 111.29,-37 129.91,-92.6 12.93,-38.7 24.25,-83.1 33.19,-134 3.94,-40.6 11.49,-83.9 23.62,-130 69.25,-262.9 256.55,-508.6 501.09,-657.1 159.63,-97 370.41,-154.8 563.81,-154.8 102.39,0 196.28,15.8 279.08,47.2 65.08,24.6 126.78,63.2 188.63,118.2 191.75,170.1 307.03,429.6 327.69,727.2 l 0.63,4.1 c 0,38.3 4.87,72.4 13.34,102.8 -91.24,-227 -134.71,-477 -320.16,-652.1"
         style="fill:#3d141c;fill-opacity:1;fill-rule:nonzero;stroke:none"
         id="path272" />
      <path
         d="m 6983.64,4899.7 c -39.69,-50.3 -71.49,-104.6 -98.62,-161 84.55,135.6 249.06,160 249.06,160 v 52.9 c -60.39,3.2 -116.68,-11.4 -150.44,-51.9"
         style="fill:#3d141c;fill-opacity:1;fill-rule:nonzero;stroke:none"
         id="path274" />
      <path
         d="m 9996.43,7192.8 c -129.77,73.4 -280.76,101.9 -412.17,172.4 l -2.8,1.5 c -181.17,98.6 -181.17,233.9 0,332.5 l 2.8,1.5 c 131.41,70.4 282.4,98.9 412.17,172.3 185.67,105.1 312.57,295.7 374.77,499.8 60.7,199 65.2,410.8 50.2,618.4 H 9406.73 9251.31 8108.77 c -14.98,-207.6 -10.46,-419.4 50.19,-618.4 62.2,-204.1 189.04,-394.7 374.76,-499.8 129.8,-73.4 280.78,-101.9 412.2,-172.3 l 2.8,-1.5 c 181.13,-98.6 181.13,-233.9 0,-332.5 l -2.8,-1.5 c -131.42,-70.5 -282.4,-99 -412.2,-172.4 -185.72,-105 -312.56,-295.7 -374.76,-499.8 -60.65,-198.9 -65.17,-410.7 -50.19,-618.3 h 1142.54 27.56 1142.53 c 15,207.6 10.5,419.4 -50.2,618.3 -62.2,204.1 -189.1,394.8 -374.77,499.8"
         style="fill:#fad9cb;fill-opacity:1;fill-rule:nonzero;stroke:none"
         id="path276" />
      <path
         d="m 9008.22,6285.1 c -225.57,33.9 -451.14,67.7 -575.2,270.7 -146.62,236.8 90.21,473.7 304.52,575.2 180.44,78.9 349.61,169.1 462.4,338.3 124.06,180.5 0,417.3 -169.17,507.6 -396.52,218 -688.43,584.2 -630.76,1014.3 h -291.24 c -14.98,-207.6 -10.46,-419.4 50.19,-618.4 62.2,-204.1 189.04,-394.7 374.76,-499.8 129.8,-73.4 280.78,-101.9 412.2,-172.3 l 2.8,-1.5 c 181.13,-98.6 181.13,-233.9 0,-332.5 l -2.8,-1.5 c -131.42,-70.5 -282.4,-99 -412.2,-172.4 -185.72,-105 -312.56,-295.7 -374.76,-499.8 -60.65,-198.9 -65.17,-410.7 -50.19,-618.3 h 1142.54 27.56 1142.53 c 9.5,132.1 11.1,265.9 -4.6,397 -390.3,-261.8 -940.87,-248.3 -1408.58,-186.6"
         style="fill:#f9caae;fill-opacity:1;fill-rule:nonzero;stroke:none"
         id="path278" />
      <path
         d="m 10023.8,6776.5 c -41.87,44.1 -92.66,78.6 -158.46,95.1 -180.44,56.4 -338.35,225.6 -462.4,191.7 -259.4,-78.9 -552.63,-146.6 -812.01,-270.7 -45.92,-20.8 -81.01,-54.1 -109.87,-94 -41.14,-56.9 -65.07,-124.3 -73.83,-194 -12.5,-99.6 -11.43,-201.4 -4.17,-301.9 h 851.74 20.54 851.76 c 11.2,154.8 7.8,312.6 -37.4,461 l -0.2,0.5 c -12.8,42 -35.6,80.4 -65.7,112.3"
         style="fill:#ba806f;fill-opacity:1;fill-rule:nonzero;stroke:none"
         id="path280" />
      <path
         d="m 9583.4,8089.6 c -301,87.4 -643.7,49.3 -905.95,-135.7 153.24,-77.3 316.19,-124.7 461.94,-217.5 27.65,-17.6 63.46,-12 85.13,12.6 31.23,35.5 76.96,57.1 116.97,73.1 106.3,43.5 239.51,53.9 365.89,75.5 137.78,23.6 257.26,105 329.62,220.2 -125.51,-73.2 -292.17,-74.3 -453.6,-28.2"
         style="fill:#ba806f;fill-opacity:1;fill-rule:nonzero;stroke:none"
         id="path282" />
      <path
         d="M 10467.1,8886.7 H 8063.12 c -84.37,0 -152.76,68.4 -152.76,152.7 v 136.7 c 0,84.41 68.39,152.8 152.76,152.8 h 2403.98 c 84.3,0 152.7,-68.39 152.7,-152.8 v -136.7 c 0,-84.3 -68.4,-152.7 -152.7,-152.7"
         style="fill:#c5978f;fill-opacity:1;fill-rule:nonzero;stroke:none"
         id="path284" />
      <path
         d="M 10467.1,5692.2 H 8063.12 c -84.37,0 -152.76,68.4 -152.76,152.8 v 136.6 c 0,84.4 68.39,152.8 152.76,152.8 h 2403.98 c 84.3,0 152.7,-68.4 152.7,-152.8 V 5845 c 0,-84.4 -68.4,-152.8 -152.7,-152.8"
         style="fill:#c5978f;fill-opacity:1;fill-rule:nonzero;stroke:none"
         id="path286" />
      <path
         d="m 8692.41,5732.5 c -203,11.3 -473.68,33.8 -563.88,259.4 -16.5,38.5 -30.28,90.3 -28.35,142.5 h -37.06 c -84.37,0 -152.76,-68.4 -152.76,-152.8 V 5845 c 0,-84.4 68.39,-152.8 152.76,-152.8 h 2403.98 c 17.9,0 35.1,3.3 51.1,9 -608.07,-8.6 -1214.35,-14.6 -1825.79,31.3"
         style="fill:#ba806f;fill-opacity:1;fill-rule:nonzero;stroke:none"
         id="path288" />
      <path
         d="m 8692.41,8927 c -203,11.3 -473.68,33.8 -563.88,259.41 -16.5,38.41 -30.28,90.32 -28.35,142.49 h -37.06 c -84.37,0 -152.76,-68.39 -152.76,-152.8 v -136.7 c 0,-84.3 68.39,-152.7 152.76,-152.7 h 2403.98 c 17.9,0 35.1,3.3 51.1,8.9 -608.07,-8.5 -1214.35,-14.4 -1825.79,31.4"
         style="fill:#ba806f;fill-opacity:1;fill-rule:nonzero;stroke:none"
         id="path290" />
      <path
         d="m 18359.6,7412.3 c -5.1,26 -7.9,120.7 -7.9,148.1 0,221.5 175,401.6 394.2,410.8 -9.5,0.6 -19,0.9 -28.6,0.9 h -2522.8 c -272.2,0 -396,-306.8 -287.3,-559.8 h 2452.4"
         style="fill:#e0b195;fill-opacity:1;fill-rule:nonzero;stroke:none"
         id="path292" />
      <path
         d="m 19261.3,3678.5 h -2457.1 c -228.6,0 -413.9,185.2 -413.9,413.9 v 3177.1 c 0,0 37.4,627 -195.8,702.6 h 195.8 2491.8 c 209.4,0 379.2,-169.8 379.2,-379.2 V 3678.5"
         style="fill:#fad9cb;fill-opacity:1;fill-rule:nonzero;stroke:none"
         id="path294" />
      <path
         d="m 17104.5,4708.5 c -285.9,197.6 -191.4,621.7 -167.4,956.6 47.8,729.4 251.1,1530.5 -191.3,2200.1 -28.4,46.4 -62.9,81.1 -101.8,106.9 h -253.7 -195.8 c 233.2,-75.6 195.8,-702.6 195.8,-702.6 V 4092.4 c 0,-228.7 185.3,-413.9 413.9,-413.9 h 2457.1 v 761.8 c -590.8,-1.4 -1645.7,-85.2 -2156.8,268.2"
         style="fill:#f9caae;fill-opacity:1;fill-rule:nonzero;stroke:none"
         id="path296" />
      <path
         d="m 19588.6,4381 h -2666.9 c 74.4,-74.5 120.4,-177.3 120.4,-290.9 0,-192.6 -132.4,-353.9 -311,-398.8 -26.8,-6.6 53.5,-12.8 53.5,-12.8 h 2414.8 c 274.5,0 433,224.6 433,499.1 0,72.4 -15.8,141.2 -43.8,203.4"
         style="fill:#e0b195;fill-opacity:1;fill-rule:nonzero;stroke:none"
         id="path298" />
      <path
         d="M 18811.7,7089.3 H 16999 c -15.7,0 -28.4,12.8 -28.4,28.4 v 64.7 c 0,15.6 12.7,28.4 28.4,28.4 h 1812.7 c 15.6,0 28.4,-12.8 28.4,-28.4 v -64.7 c 0,-15.6 -12.8,-28.4 -28.4,-28.4"
         style="fill:#e0b195;fill-opacity:1;fill-rule:nonzero;stroke:none"
         id="path300" />
      <path
         d="m 18904.2,6751.8 h -2099 c -14.8,0 -27,12.2 -27,27 0,14.9 12.2,27 27,27 h 2099 c 14.9,0 27,-12.1 27,-27 0,-14.8 -12.1,-27 -27,-27"
         style="fill:#e0b195;fill-opacity:1;fill-rule:nonzero;stroke:none"
         id="path302" />
      <path
         d="m 18904.2,6414.3 h -2099 c -14.8,0 -27,12.2 -27,27 0,14.9 12.2,27.1 27,27.1 h 2099 c 14.9,0 27,-12.2 27,-27.1 0,-14.8 -12.1,-27 -27,-27"
         style="fill:#e0b195;fill-opacity:1;fill-rule:nonzero;stroke:none"
         id="path304" />
      <path
         d="m 18904.2,6076.9 h -2099 c -14.8,0 -27,12.2 -27,27 0,14.9 12.2,27 27,27 h 2099 c 14.9,0 27,-12.1 27,-27 0,-14.8 -12.1,-27 -27,-27"
         style="fill:#e0b195;fill-opacity:1;fill-rule:nonzero;stroke:none"
         id="path306" />
      <path
         d="m 18904.2,5739.4 h -2099 c -14.8,0 -27,12.2 -27,27 0,14.9 12.2,27 27,27 h 2099 c 14.9,0 27,-12.1 27,-27 0,-14.8 -12.1,-27 -27,-27"
         style="fill:#e0b195;fill-opacity:1;fill-rule:nonzero;stroke:none"
         id="path308" />
      <path
         d="m 18904.2,5402 h -2099 c -14.8,0 -27,12.1 -27,27 0,14.8 12.2,27 27,27 h 2099 c 14.9,0 27,-12.2 27,-27 0,-14.9 -12.1,-27 -27,-27"
         style="fill:#e0b195;fill-opacity:1;fill-rule:nonzero;stroke:none"
         id="path310" />
      <path
         d="m 18904.2,5064.5 h -2099 c -14.8,0 -27,12.2 -27,27 0,14.9 12.2,27 27,27 h 2099 c 14.9,0 27,-12.1 27,-27 0,-14.8 -12.1,-27 -27,-27"
         style="fill:#e0b195;fill-opacity:1;fill-rule:nonzero;stroke:none"
         id="path312" />
      <path
         d="m 18233.6,4535.3 v 0 c -69.6,102.5 -42.8,243.3 59.7,313 l 1450.3,983.3 253.4,-372.8 -1450.3,-983.3 c -102.5,-69.6 -243.4,-42.7 -313.1,59.8"
         style="fill:#924d57;fill-opacity:1;fill-rule:nonzero;stroke:none"
         id="path314" />
      <path
         d="m 18666.2,4697.9 c -79.1,-33.9 -169.4,-22.6 -248.4,0 -78.3,16.8 -115,72.3 -137.6,140.5 -91.4,-72.5 -113.1,-205.2 -46.6,-303.1 69.7,-102.5 210.6,-129.4 313.1,-59.8 l 1450.3,983.3 -39.5,58 c -403,-314.6 -804.4,-642.8 -1291.3,-818.9"
         style="fill:#924355;fill-opacity:1;fill-rule:nonzero;stroke:none"
         id="path316" />
      <path
         d="m 19506.8,6172.4 746.7,-1091.9 780.6,534 -746.7,1091.8 -780.6,-533.9"
         style="fill:#753844;fill-opacity:1;fill-rule:nonzero;stroke:none"
         id="path318" />
      <path
         d="m 19617.6,6248.2 -110.8,-75.8 746.7,-1091.9 780.6,534 -115.9,169.5 c -103.8,-66 -221.5,-112.2 -343.9,-137.7 -418.5,-77.9 -761.5,255.4 -956.7,601.9"
         style="fill:#6e2e3d;fill-opacity:1;fill-rule:nonzero;stroke:none"
         id="path320" />
      <path
         d="m 19192.1,6472.3 185.3,-270.7 c 30.3,-44.3 90.7,-55.6 134.9,-25.3 l 769.4,526.2 c 44.2,30.2 55.5,90.6 25.3,134.9 l -185.1,270.9 c -30.2,44.3 -90.7,55.6 -135,25.4 l -769.5,-526.4 c -44.2,-30.3 -55.6,-90.7 -25.3,-135"
         style="fill:#924d57;fill-opacity:1;fill-rule:nonzero;stroke:none"
         id="path322" />
      <path
         d="m 19772.6,6459.2 c -184.8,-48.7 -411.5,11.8 -506.8,181.2 l -48.4,-33.1 c -44.2,-30.3 -55.6,-90.7 -25.3,-135 l 185.3,-270.7 c 30.3,-44.3 90.7,-55.6 134.9,-25.3 l 602.6,412.1 c -109.2,-52.3 -223.2,-95.7 -342.3,-129.2"
         style="fill:#924355;fill-opacity:1;fill-rule:nonzero;stroke:none"
         id="path324" />
      <path
         d="m 19493.2,6038.8 v 0 c 22.1,-32.3 66.3,-40.6 98.6,-18.5 l 812.5,555.8 c 32.3,22.1 40.7,66.2 18.6,98.5 -22.1,32.5 -66.3,40.9 -98.7,18.6 l -812.5,-555.6 c -32.4,-22.2 -40.7,-66.4 -18.5,-98.8"
         style="fill:#924d57;fill-opacity:1;fill-rule:nonzero;stroke:none"
         id="path326" />
      <path
         d="m 20416.7,4681.6 -184.9,271 c -30.2,44.3 -18.8,104.7 25.5,135 l 769.8,525.4 c 44.3,30.2 104.7,18.8 134.9,-25.4 l 185.2,-270.9 c 30.2,-44.3 18.8,-104.8 -25.5,-135 l -770.1,-525.6 c -44.3,-30.2 -104.7,-18.8 -134.9,25.5"
         style="fill:#924d57;fill-opacity:1;fill-rule:nonzero;stroke:none"
         id="path328" />
      <path
         d="m 20438.8,5002.7 c -59.8,18 -103.7,61.2 -140.2,113.1 l -41.3,-28.2 c -44.3,-30.3 -55.7,-90.7 -25.5,-135 l 184.9,-271 c 30.2,-44.3 90.6,-55.7 134.9,-25.5 l 770.1,525.6 c 29.5,20.1 44.3,53.6 42,86.8 -267.9,-211.9 -582,-383.1 -924.9,-265.8"
         style="fill:#924355;fill-opacity:1;fill-rule:nonzero;stroke:none"
         id="path330" />
      <path
         d="m 20122.3,5119.7 v 0 c -22.1,32.4 -13.7,76.4 18.6,98.5 l 813.1,555 c 32.3,22.1 76.4,13.8 98.5,-18.5 h 0.1 c 22.1,-32.4 13.8,-76.6 -18.6,-98.7 l -813.1,-555 c -32.3,-22.1 -76.6,-13.8 -98.6,18.7"
         style="fill:#924d57;fill-opacity:1;fill-rule:nonzero;stroke:none"
         id="path332" />
      <path
         d="m 21658.6,4100.4 c -2.3,158.3 -165.4,287.1 -364.6,287.1 h -833.9 c -199.1,0 -362.3,-128.8 -364.6,-287.1 h 1563.1"
         style="fill:#753844;fill-opacity:1;fill-rule:nonzero;stroke:none"
         id="path334" />
      <path
         d="m 20664.6,4212.6 c -125.9,9 -287.3,46.7 -302.4,164.1 -152.1,-34 -264.8,-145 -266.7,-276.3 h 1563.1 c -0.5,31.3 -7.2,61.3 -19.3,89.5 -321.8,-5.7 -645.3,-18.5 -974.7,22.7"
         style="fill:#6e2e3d;fill-opacity:1;fill-rule:nonzero;stroke:none"
         id="path336" />
      <path
         d="M 19777.1,3761.3 H 21977 c 38.5,0 59.7,44.7 35.4,74.5 l -154.7,190 c -38.5,47.3 -96.2,74.6 -157.1,74.6 h -1647 c -61,0 -118.7,-27.3 -157.1,-74.6 l -154.8,-190 c -24.3,-29.8 -3.1,-74.5 35.4,-74.5"
         style="fill:#481d24;fill-opacity:1;fill-rule:nonzero;stroke:none"
         id="path338" />
      <path
         d="m 20258.1,3907.7 c -56.4,0 -146.7,33.9 -169.3,79.1 -13.6,40.8 -7.2,78 8.3,113.6 h -43.5 c -61,0 -118.7,-27.3 -157.1,-74.6 l -154.8,-190 c -24.3,-29.8 -3.1,-74.5 35.4,-74.5 H 21977 c 38.5,0 59.7,44.7 35.4,74.5 l -40.9,50.3 c -567.8,-4.4 -1137.1,-22.7 -1713.4,21.6"
         style="fill:#3d141c;fill-opacity:1;fill-rule:nonzero;stroke:none"
         id="path340" />
    </g>
  </g>
</svg>
