<?xml version="1.0" encoding="UTF-8" standalone="no"?>
<svg
   xmlns:dc="http://purl.org/dc/elements/1.1/"
   xmlns:cc="http://creativecommons.org/ns#"
   xmlns:rdf="http://www.w3.org/1999/02/22-rdf-syntax-ns#"
   xmlns:svg="http://www.w3.org/2000/svg"
   xmlns="http://www.w3.org/2000/svg"
   viewBox="0 0 2829.3333 2829.3333"
   height="2829.3333"
   width="2829.3333"
   xml:space="preserve"
   id="svg2"
   version="1.1"><metadata
     id="metadata8"><rdf:RDF><cc:Work
         rdf:about=""><dc:format>image/svg+xml</dc:format><dc:type
           rdf:resource="http://purl.org/dc/dcmitype/StillImage" /></cc:Work></rdf:RDF></metadata><defs
     id="defs6" /><g
     transform="matrix(1.3333333,0,0,-1.3333333,0,2829.3333)"
     id="g10"><g
       transform="scale(0.1)"
       id="g12"><g
         transform="scale(1.16096)"
         id="g14"><path
           id="path16"
           style="fill:#fbcec0;fill-opacity:1;fill-rule:nonzero;stroke:none"
           d="m 15116.1,12930.2 c 10.4,6.1 20.8,12 31.2,17.8 l 384.5,219.7 768.2,439.4 -768.2,-447.9 -384.5,-224.2 c -73.6,-42.4 -132.6,-79.9 -191.7,-115.4 -63.7,-39.6 -127.3,-84.3 -191.2,-126.5 -253.9,-176.7 -504.9,-389.1 -741.3,-634.9 -236.8,-245.6 -458,-524.9 -656.1,-823.7 -199.8,-297.9 -370.7,-617.9 -522.3,-940.7 l -56.5,-121.4 c -9.3,-20.2 -18.9,-40.2 -27.8,-60.6 l -25.5,-61.4 -102,-244.89 c -33.1,-81.9 -61.4,-164.29 -92.5,-246.29 -30.3,-81.92 -60.8,-164 -90,-246.52 L 11744,7336.32 11565.8,6842.25 c -59.3,-164.43 -118.5,-329.38 -180.7,-494.42 -124.5,-329.12 -262.5,-660.91 -436.7,-979.96 -173.3,-318.87 -384.1,-620.6 -617.7,-879.27 -116.8,-129.89 -238.7,-249.36 -363.2,-358.06 -124.38,-108.54 -250.83,-209.91 -378.31,-300.27 -177.52,-128.34 -356,-235.24 -533.95,-338 -36.87,-21.27 -73.73,-42.38 -110.51,-63.48 -41.43,-23.94 -83.12,-47.63 -124.3,-71.4 l -768.48,-442.14 -1536.78,-878.75 1536.74,895.81 768.52,445.23 c 256.26,149.53 512.77,290.1 766.18,474.26 126.7,90.27 252.03,191.31 375.38,299.49 123.11,108.28 243.71,226.54 359.01,355.74 230.9,256.43 438.1,554.46 608.7,869.63 171.8,316.03 307.9,644.81 431,972.9 61.5,164.08 120.5,328.86 179.4,493.55 l 176.9,494.07 710.5,1975.61 c 29.2,82.17 60.3,164.86 91.2,247.38 31.4,82.6 60,165.12 93.5,247.62 l 102.9,246.41 26,61.7 c 9,20.3 18.8,40.5 28.1,61.1 l 57.1,122 c 153.3,324.7 326.1,646.4 527.8,946.3 200.3,300.7 423.7,581.3 662.4,828.1 238.6,247 491.2,460.1 746.5,635.9 64.2,41.8 128.1,86 192,124.8 53.7,31.8 107.5,65.2 161.1,96.1" /></g><g
         transform="scale(1.16096)"
         id="g18"><path
           id="path20"
           style="fill:#f2dbd2;fill-opacity:1;fill-rule:nonzero;stroke:none"
           d="m 11756.9,16247.3 -768.3,-439.5 -384.4,-219.7 c -10.4,-5.8 -20.7,-11.7 -31.2,-17.7 -53.5,-31 -107.4,-64.3 -161.1,-96.1 -63.9,-38.8 -127.9,-83 -192,-124.8 -255.33,-175.9 -507.88,-388.9 -746.56,-636 -238.68,-246.7 -462.12,-527.3 -662.46,-828 -201.65,-299.9 -374.43,-621.7 -527.69,-946.4 l -57.06,-122 c -9.32,-20.5 -19.14,-40.7 -28.16,-61.1 l -25.94,-61.7 -102.89,-246.3 c -33.59,-82.6 -62.18,-165.1 -93.57,-247.6 -30.83,-82.6 -61.92,-165.2 -91.09,-247.5 L 7173.93,9977.34 6996.95,9483.25 C 6938.07,9318.56 6879.18,9153.78 6817.51,8989.69 6694.5,8661.6 6558.3,8332.82 6386.6,8016.79 6216.01,7701.71 6008.85,7403.59 5777.9,7147.17 5662.56,7018.05 5541.97,6899.79 5418.89,6791.43 5295.51,6683.24 5170.21,6582.21 5043.53,6492.02 4790.1,6307.78 4533.55,6167.29 4277.29,6017.76 L 3508.77,5572.44 1972.06,4676.72 6515.17,2036.5 l 1536.74,895.81 768.52,445.23 c 256.26,149.53 512.77,290.1 766.18,474.26 126.7,90.27 252.03,191.31 375.38,299.49 123.11,108.28 243.71,226.54 359.01,355.74 230.9,256.43 438.1,554.46 608.7,869.63 171.8,316.03 307.9,644.81 431,972.9 61.5,164.08 120.5,328.86 179.4,493.55 l 176.9,494.07 710.5,1975.61 c 29.2,82.17 60.3,164.86 91.2,247.38 31.4,82.6 60,165.12 93.5,247.62 l 102.9,246.41 26,61.7 c 9,20.3 18.8,40.5 28.1,61.1 l 57.1,122 c 153.3,324.7 326.1,646.4 527.8,946.3 200.3,300.7 423.7,581.3 662.4,828.1 238.6,247 491.2,460.1 746.5,635.9 64.2,41.8 128.1,86 192,124.8 53.7,31.8 107.5,65.2 161.1,96.1 10.4,6.1 20.8,12 31.2,17.8 l 384.5,219.7 768.2,439.4 -4543.1,2640.2" /></g><g
         transform="scale(1.16096)"
         id="g22"><path
           id="path24"
           style="fill:#dbc6b2;fill-opacity:1;fill-rule:nonzero;stroke:none"
           d="m 14857.2,14445.5 c -329,-170.7 -623.3,-402.8 -872.4,-685 -375,-424.9 -643.6,-932.6 -875,-1446.3 -110.6,-245.4 -197.5,-506.4 -332.8,-739.6 -113,-194.7 -258.3,-369.2 -420.7,-524.5 -333.4,-318.6 -731.1,-558.8 -1117.6,-806.1 -371,-237.4 -750.8,-485.53 -1032.4,-829.83 -140,-171.07 -250.08,-365.99 -316.24,-577.28 -82.51,-263.41 -82,-531.11 -79.07,-804.34 6.98,-648.94 39.19,-1308.13 -93.63,-1947.69 -65.29,-314.48 -172.96,-619.48 -326.62,-901.84 -171.93,-315.68 -400.7,-590.19 -644.21,-852.74 C 7988.95,3513.72 7087.06,2822.83 6114.67,2269.24 l 400.5,-232.74 1536.74,895.81 768.52,445.23 c 256.26,149.53 512.77,290.1 766.18,474.26 126.7,90.27 252.03,191.31 375.38,299.49 123.11,108.28 243.71,226.54 359.01,355.74 230.9,256.43 438.1,554.46 608.7,869.63 171.8,316.03 307.9,644.81 431,972.9 61.5,164.08 120.5,328.86 179.4,493.55 l 176.9,494.07 710.5,1975.61 c 29.2,82.17 60.3,164.86 91.2,247.38 31.4,82.6 60,165.12 93.5,247.62 l 102.9,246.41 26,61.7 c 9,20.3 18.8,40.5 28.1,61.1 l 57.1,122 c 153.3,324.7 326.1,646.4 527.8,946.3 200.3,300.7 423.7,581.3 662.4,828.1 238.6,247 491.2,460.1 746.5,635.9 64.2,41.8 128.1,86 192,124.8 53.7,31.8 107.5,65.2 161.1,96.1 10.4,6.1 20.8,12 31.2,17.8 l 384.5,219.7 768.2,439.4 -1442.8,838.4" /></g><path
         id="path26"
         style="fill:#c14439;fill-opacity:1;fill-rule:nonzero;stroke:none"
         d="m 8539.88,4904.6 c -1124.14,653.2 -2248.2,1306.5 -3372.3,1959.7 359.92,207 532.81,316.6 770.94,488.4 1124.14,-653.2 2248.16,-1306.5 3372.3,-1959.8 -216.72,-155.8 -379.45,-263.3 -770.94,-488.3" /><path
         id="path28"
         style="fill:#b88776;fill-opacity:1;fill-rule:nonzero;stroke:none"
         d="M 11118.2,4754.3 C 6291.21,7559.4 6291.21,7559.4 6275.35,7579.8 c 11.33,89.6 115.74,105.7 146.49,90.6 1609.02,-935 3240.15,-1831.8 4827.06,-2805.1 44.1,-27.1 -6.4,-96.6 -68.5,-113.4 -9.5,-2.6 -38.3,-10.4 -62.2,2.4" /><path
         id="path30"
         style="fill:#b88776;fill-opacity:1;fill-rule:nonzero;stroke:none"
         d="M 11367.7,4971.8 C 9758.63,5906.9 8126.6,6802.1 6540.66,7777 c -46.48,28.5 10,102.1 65.94,121.3 11.88,4 36.6,12.4 61.53,0.3 1609.02,-935 3241.17,-1830.1 4826.97,-2805.2 43.6,-26.7 -5.8,-103 -65.7,-122.2 -9.4,-3 -37.8,-12.1 -61.7,0.6" /><path
         id="path32"
         style="fill:#b88776;fill-opacity:1;fill-rule:nonzero;stroke:none"
         d="m 11610.1,5210.5 c -1609,935 -3242.37,1828 -4826.97,2805.1 -44.11,27.2 7.1,111 66.6,130.3 16.09,5.2 39.45,4.8 56.21,2.9 1609.06,-935 3242.16,-1828.4 4826.96,-2805.1 27.1,-16.7 19.8,-100.4 -61.7,-131.6 -9.2,-3.6 -37.3,-14.3 -61.1,-1.7" /><path
         id="path34"
         style="fill:#b88776;fill-opacity:1;fill-rule:nonzero;stroke:none"
         d="m 11843.4,5470.7 c -1609.1,935.1 -3245.94,1822.1 -4827.03,2805.2 -51.21,31.9 14.76,133.8 78.9,147.2 11.1,2.3 27.07,0.4 37.62,-3.7 1609.06,-935.1 3245.91,-1822 4827.01,-2805.2 53.1,-33 -13,-135.1 -78.6,-147.6 -11.3,-2.1 -27.9,-1.2 -37.9,4.1" /><path
         id="path36"
         style="fill:#b88776;fill-opacity:1;fill-rule:nonzero;stroke:none"
         d="m 12063.5,5750.5 c -1609,935 -3246.59,1820.8 -4827.02,2805 -51.36,32.1 9.69,140.5 72.11,156.2 10.82,2.6 26.61,1 37.04,-3 1609.02,-935 3246.57,-1820.8 4826.97,-2805.1 52.9,-33 -8.1,-141.4 -71.8,-156.4 -10.9,-2.6 -27.4,-2 -37.3,3.3" /><path
         id="path38"
         style="fill:#b88776;fill-opacity:1;fill-rule:nonzero;stroke:none"
         d="m 12268.7,6047.5 c -1609,935.1 -3246.79,1820.5 -4826.98,2805.2 -51.72,32.3 3.51,145.4 64.1,162.7 10.43,3.1 26.02,1.6 36.17,-2.3 C 9151.02,8078 10788.8,7192.7 12369,6207.9 c 53.1,-33.1 -2.2,-146.4 -63.7,-163 -10.7,-2.9 -26.8,-2.5 -36.6,2.6" /><path
         id="path40"
         style="fill:#b88776;fill-opacity:1;fill-rule:nonzero;stroke:none"
         d="m 12456.7,6357.9 c -1609.1,935.1 -3245.92,1822 -4827.01,2805.2 -49.03,30.5 -7.97,140.4 49.22,165.7 11.52,5.1 29.8,4.2 41.87,0.8 1609.06,-935 3245.82,-1822 4827.02,-2805.1 50.1,-31.2 9.3,-141.3 -48.8,-166 -11.7,-5 -31.1,-6.5 -42.3,-0.6" /><path
         id="path42"
         style="fill:#b88776;fill-opacity:1;fill-rule:nonzero;stroke:none"
         d="m 12627.1,6678.8 c -1608.9,935.1 -3245.54,1822.5 -4826.94,2805.1 -49.46,30.8 -13.83,142.7 41.32,168.6 11.1,5.2 29.03,4.3 40.79,0.9 1609.06,-935.1 3245.63,-1822.5 4827.03,-2805.1 50.2,-31.2 14.7,-143.1 -40.9,-168.7 -11.3,-5.1 -30.3,-6.6 -41.3,-0.8" /><path
         id="path44"
         style="fill:#b88776;fill-opacity:1;fill-rule:nonzero;stroke:none"
         d="m 12781.2,7005.2 c -1609.1,935.1 -3245.22,1823.2 -4827.02,2805.1 -52.77,32.8 -12.07,148.8 34.57,170.1 10.94,5 28.79,5.5 40,1.3 1609.02,-935.1 3245.25,-1823.2 4827.05,-2805.2 49.9,-31 17.9,-147 -34.3,-170.2 -11,-4.9 -29.6,-6.7 -40.3,-1.1" /><path
         id="path46"
         style="fill:#b88776;fill-opacity:1;fill-rule:nonzero;stroke:none"
         d="m 12921.3,7334.3 c -1609,935 -3244.85,1823.7 -4827,2805.1 -53.21,33 -16.25,149.5 29.29,170.8 10.71,5.1 28.32,5.5 39.34,1.3 1609.02,-935.1 3244.87,-1823.8 4827.07,-2805.1 49.8,-31 21.4,-147.4 -29.1,-170.9 -10.7,-5 -29.1,-6.8 -39.6,-1.2" /><path
         id="path48"
         style="fill:#b88776;fill-opacity:1;fill-rule:nonzero;stroke:none"
         d="m 13050.9,7664.6 c -1609.1,935 -3244.69,1824.1 -4827.03,2805.1 -44.46,27.6 -26.6,146.2 25.82,171.5 10.54,5 28.04,5.5 38.98,1.3 1609.03,-935.1 3244.83,-1823.8 4827.03,-2805.2 47.7,-29.6 27.9,-142.5 -29.9,-170.2 -9.5,-4.5 -25.6,-7.4 -34.9,-2.5" /><path
         id="path50"
         style="fill:#b88776;fill-opacity:1;fill-rule:nonzero;stroke:none"
         d="m 11113.1,9193.5 c -922.1,535.9 -1872.67,1022.6 -2766.19,1607.6 -58.51,38.3 -15.39,171.2 40.71,177 6.64,0.7 15.78,-1.6 21.83,-4.5 922.07,-535.9 1872.65,-1022.5 2766.15,-1607.5 57.9,-37.9 14.8,-170.7 -40.8,-176.9 -6.5,-0.8 -15.8,1.2 -21.7,4.3" /><path
         id="path52"
         style="fill:#b88776;fill-opacity:1;fill-rule:nonzero;stroke:none"
         d="m 14714.6,12099 c -1606.1,933.3 -3234.5,1828.2 -4818.31,2800.1 -50.31,30.9 -22.5,123.7 28.48,139.3 11.32,3.5 28.47,1.8 39.45,-2.8 1606.18,-933.3 3234.58,-1828.1 4818.38,-2800.1 49.9,-30.7 22,-123.5 -28.7,-139.2 -11.3,-3.5 -28.9,-2.9 -39.3,2.7" /><path
         id="path54"
         style="fill:#b88776;fill-opacity:1;fill-rule:nonzero;stroke:none"
         d="m 14846.8,12359.9 c -1606.2,933.3 -3234.7,1828 -4818.4,2800.1 -50.43,30.9 -19.9,122.5 32.2,137.5 11.6,3.4 28.9,1.6 40,-3 1606.1,-933.4 3234.7,-1828.1 4818.3,-2800.1 50,-30.8 19.5,-122.4 -32.5,-137.5 -11.4,-3.3 -29.1,-2.7 -39.6,3" /><path
         id="path56"
         style="fill:#b88776;fill-opacity:1;fill-rule:nonzero;stroke:none"
         d="m 14987.3,12616.7 c -1606.1,933.4 -3234.7,1827.9 -4818.2,2800.1 -50.5,31 -16.9,121.1 36.6,135.5 11.8,3.2 29.3,1.4 40.6,-3.3 1606.1,-933.4 3234.7,-1827.9 4818.3,-2800.1 49.8,-30.6 16.1,-120.7 -36.9,-135.3 -11.7,-3.3 -29.6,-2.6 -40.4,3.1" /><path
         id="path58"
         style="fill:#b88776;fill-opacity:1;fill-rule:nonzero;stroke:none"
         d="m 15137.8,12868.4 c -1606.2,933.4 -3235.5,1826.8 -4818.4,2800.1 -53,32.7 -9.4,125.8 47.5,133.7 10.5,1.5 25.4,-0.6 34.9,-5.3 1606.1,-933.4 3235.5,-1826.7 4818.4,-2800.1 52.2,-32.1 8.5,-125.2 -47.7,-133.5 -10.5,-1.5 -25.5,0.1 -34.7,5.1" /><path
         id="path60"
         style="fill:#b88776;fill-opacity:1;fill-rule:nonzero;stroke:none"
         d="m 15298,13113.2 c -1606.1,933.4 -3235.3,1827 -4818.4,2800.2 -52.7,32.4 -6.2,123 51.5,130.1 10.6,1.3 25.7,-0.8 35.2,-5.5 1606.2,-933.4 3235.3,-1827 4818.4,-2800.1 52.3,-32.2 5.7,-122.7 -51.6,-130.1 -10.6,-1.4 -25.8,0.4 -35.1,5.4" /><path
         id="path62"
         style="fill:#b88776;fill-opacity:1;fill-rule:nonzero;stroke:none"
         d="m 15466.3,13350.2 c -1606.2,933.4 -3235.1,1827.5 -4818.4,2800.2 -53,32.6 -3.6,120.1 55.4,126 10.7,1.1 25.8,-1.1 35.6,-5.9 1606.1,-933.4 3235,-1827.4 4818.3,-2800.1 52,-32 2.7,-119.5 -55.5,-126 -10.7,-1.1 -26,0.8 -35.4,5.8" /><g
         transform="scale(1.01233)"
         id="g64"><path
           id="path66"
           style="fill:#b88776;fill-opacity:1;fill-rule:nonzero;stroke:none"
           d="m 15452.1,13413.1 c -1586.5,922 -3195.2,1805.7 -4759.7,2766 -51.3,31.5 -0.4,113.6 58.3,119.8 10.8,1.1 25.5,-2.1 35.5,-6.4 1586.6,-922 3195.2,-1805.8 4759.7,-2766 50.4,-31 -0.4,-113 -58.4,-119.6 -10.7,-1.2 -25.9,1.1 -35.4,6.2" /></g><g
         transform="scale(1.02543)"
         id="g68"><path
           id="path70"
           style="fill:#b88776;fill-opacity:1;fill-rule:nonzero;stroke:none"
           d="m 15433.9,13454 c -1566.4,910.2 -3150.8,1789 -4698.9,2730.7 -40.9,24.8 -13.6,86.5 34.5,106.4 21.3,8.9 40.2,8.8 61.3,-0.2 1566.3,-910.3 3153.9,-1783.6 4698.8,-2730.7 50.7,-31 -0.5,-107.2 -60.5,-112.7 -10.7,-1 -25.9,1.4 -35.2,6.5" /></g><g
         transform="scale(1.03771)"
         id="g72"><path
           id="path74"
           style="fill:#b88776;fill-opacity:1;fill-rule:nonzero;stroke:none"
           d="m 15434.4,13493.4 c -1547.8,899.4 -3113,1768.7 -4643.3,2698.3 -41.1,25 -13,82 36.4,100.3 21.4,8 40.4,7.5 61.3,-1.6 1547.7,-899.4 3112.9,-1768.8 4643.2,-2698.3 43,-26.1 7.5,-82.9 -36.6,-99.8 -33,-12.6 -56.6,-1.3 -61,1.1" /></g><g
         transform="scale(1.04936)"
         id="g76"><path
           id="path78"
           style="fill:#b88776;fill-opacity:1;fill-rule:nonzero;stroke:none"
           d="m 15449.2,13527.9 c -1530.5,889.4 -3078.7,1748.5 -4591.7,2668.3 -41.6,25.4 -7.4,83.1 44.4,96.2 7.5,1.9 30.1,7.6 54.7,-4.8 1530.5,-889.5 3078.6,-1748.7 4591.6,-2668.4 41.6,-25.2 7.8,-81.8 -44.5,-95.7 -25.9,-6.8 -43.9,-1.4 -54.5,4.4" /></g><g
         transform="scale(1.05981)"
         id="g80"><path
           id="path82"
           style="fill:#b88776;fill-opacity:1;fill-rule:nonzero;stroke:none"
           d="m 15485.6,13564.8 c -1515.5,880.7 -3048.5,1731.2 -4546.5,2642.1 -43.7,26.6 -2.8,83.2 52,91 14.4,2.1 34,-2.6 47.7,-7.1 1515.5,-880.8 3048.4,-1731.3 4546.4,-2642.1 43.5,-26.5 3.1,-82.1 -52,-90.7 -14.2,-2.2 -34.9,-0.1 -47.6,6.8" /></g><g
         transform="scale(1.0698)"
         id="g84"><path
           id="path86"
           style="fill:#b88776;fill-opacity:1;fill-rule:nonzero;stroke:none"
           d="m 13608,14711.9 c -860.3,500 -1736.6,972.4 -2581,1500 -38.8,24.2 -11.8,73.5 46,83.7 24.9,4.4 41.9,-2.2 54.1,-7.1 860.4,-499.9 1736.7,-972.5 2581.1,-1499.9 38.4,-24 11.6,-72.2 -46.3,-83.2 -15,-2.8 -38.3,-2 -53.9,6.5" /></g><path
         id="path88"
         style="fill:#b88776;fill-opacity:1;fill-rule:nonzero;stroke:none"
         d="M 7607.85,3227.6 4165.59,5228 c -43.52,7.9 -86.84,17.2 -129.57,27.1 l 3530.43,-2051.6 41.4,24.1 m -3499.3,2033.5 -184.84,107.5 c -18.01,-5.6 -36.05,-11.2 -54.18,-16.7 l 100.51,-58.4 c 45.35,-11.5 91.76,-22.5 138.51,-32.4 m -213.67,124.3 -589.8,342.7 -41.41,-24.1 576.92,-335.3 c 18.2,5.5 36.29,11 54.29,16.7" /><path
         id="path90"
         style="fill:#c14439;fill-opacity:1;fill-rule:nonzero;stroke:none"
         d="m 4838.48,5734.5 -2.43,1.3 c -28.86,14.7 -68.2,11 -108.12,-9.9 -74.61,-39.1 -151.56,-76.6 -230.78,-112.6 -90.35,2.5 -192.11,14.5 -310.51,36.6 -203.79,37.8 -400.04,92.5 -583.01,162.3 -9.1,3.4 -20.5,2.3 -25.39,-2.6 -4.18,-4.1 -2.19,-9.6 4.1,-13.3 l 3.64,-1.8 c 186.21,-71 386.05,-126.6 593.47,-165.1 102.03,-19.1 192.27,-30.8 273.95,-35.7 -176.02,-77.6 -362.66,-147.2 -558.52,-208.3 -18,-5.7 -36.09,-11.2 -54.29,-16.7 -25.63,-7.8 -51.41,-15.4 -77.35,-22.9 -176.29,41.9 -371.87,75.4 -548.12,44.8 -45.04,-7.9 -97.19,-28.6 -112.19,-57.6 -8.05,-15.1 -3.98,-30.9 11.64,-45.1 4.18,-3.7 9.26,-7.5 15.04,-10.8 14.3,-8.4 34.14,-15.5 59.02,-21.4 151.64,-36.4 310,-5.4 445.04,29.8 45.31,11.8 90.39,24.1 134.92,36.6 46.1,-11.1 90.9,-22.6 133.48,-33.7 43.59,-11.4 88.44,-22.7 133.95,-33.3 42.73,-9.9 86.05,-19.2 129.57,-27.1 98.79,-18 198.36,-29.2 293.55,-26.2 -11.76,-11.2 -16.8,-25.5 -12.97,-39.4 2.97,-11.4 11.53,-21.5 24.81,-29.2 l 8.71,-4.5 c 19.02,-8.4 40.7,-11.2 61.6,-13.1 42.34,-3.9 84.73,-4.6 125.55,-5.4 57.3,-1 111.29,-2 165.35,-10.5 7.89,-1.2 15.86,-2.7 20.35,-5.3 l 0.74,-0.4 3.67,-5.8 c -1.44,-8.5 -19.72,-20 -41.01,-25.7 -27.46,-7.2 -58.91,-21.2 -64.85,-38.3 -2.57,-8.6 0.67,-17.2 10.47,-25 l 6.49,-4.4 c 15.78,-9.1 36.95,-12.3 50.35,-14.4 l 287.81,-44.3 c -2.03,-9.7 -21.68,-17.5 -51.33,-28.1 -34.88,-12.8 -78.59,-28.6 -61.87,-57.4 3.9,-6.7 10.47,-12.3 18.4,-16.9 20.97,-12.2 51.48,-17.8 66.79,-20.5 l 257.19,-46.4 c -5.94,-8.4 -25.66,-15.2 -47.3,-22 -20.71,-6.5 -44.77,-19.1 -49.65,-34.8 -2.89,-8.4 0.39,-17 9.22,-24.5 l 7.54,-5.1 c 12.61,-7.4 28.86,-11.3 40.35,-14 l 250.08,-58.6 c 12.89,-3 26.25,-7.3 33.9,-11.7 l 6.49,-7.4 -7.27,-9.2 -6.95,-7.3 c -13.36,-16.7 -13.13,-44.9 58.94,-86.7 l 9.77,-5.5 685.12,-375 c 7.96,-4.4 19.76,-4.5 26.36,-0.4 5.67,3.8 6.25,10.2 -0.82,14.3 l -1.99,1 -685.12,375 -8.86,5 c -32.66,19 -63.95,43 -49.3,61.3 l 5.31,5.4 c 5.35,4.8 11.37,10.4 11.92,18.3 0.5,6.2 -2.15,15.8 -19.07,25.6 -10.15,5.9 -25.47,11.8 -48.32,17.2 l -250.08,58.7 c -10.39,2.5 -20.03,5 -25.7,8.2 l -2.42,1.7 -2.42,7.3 c 2.03,7.4 15.9,16.3 33.43,21.9 28.68,8.8 71.68,22.5 65.08,49 l -6.09,6.8 -8.83,3.2 -273.32,49.2 c -17.62,3.3 -37.69,7.5 -49.22,14.3 l -8.12,7.2 c -7.23,12.4 13.71,21.1 49.29,34 34.89,12.5 78.17,28.3 63.32,57 l -5.46,5.3 -9.57,3.2 -301.92,46.5 c -12.3,2 -24.84,4.3 -31.37,8.1 l -1.64,1.1 -3.12,7.2 c 2.65,8 22.46,18.7 46.99,25.1 26.52,7 56.6,22.8 59.38,40.7 1.36,9.3 -4.3,18.3 -16.61,25.4 l -0.5,0.3 c -11.76,6.6 -25.94,9.5 -39.34,11.5 -58.12,9.1 -116.87,10.2 -173.91,11.2 -40.07,0.8 -81.09,1.4 -121.01,5 -15.47,1.5 -31.45,3.6 -42.58,8.6 l -4.06,2 c -8.36,4.8 -11.8,11 -13.13,15.6 -3.04,11.1 2.97,23.1 15.04,30.7 9.06,5.6 19.92,9.9 32.74,13.3 23.71,2.7 47.07,6.4 69.61,11.3 8.75,1.9 12.85,7.5 8.94,13.1 l -4.73,4.3 c -4.8,2.7 -11.68,4.1 -18.2,3.4 -22.07,-2.7 -46.95,-5.5 -70.08,-11.4 -128,-14 -269.45,4.4 -407.58,33.4 -46.75,9.9 -93.16,20.9 -138.51,32.4 -18.99,4.8 -37.81,9.6 -56.41,14.4 -33.16,8.7 -67.54,17.6 -103.08,26.4 19.76,5.8 39.41,11.6 58.98,17.6 18.13,5.5 36.17,11.1 54.18,16.7 207.34,65.1 404.18,139.6 589.22,223 52.34,-1.1 101.02,1.3 147.27,6.6 112.3,12.9 185.89,48.5 197.81,95.5 4.29,16.5 -2.78,31.1 -19.53,40.8 M 4560.7,5613.2 c 66.37,30.8 131.18,62.8 193.99,95.9 18.51,9.6 44.88,18.2 58.79,11.3 l 0.78,-0.6 c 9.76,-5.7 7.69,-17.1 7.15,-20.5 -14.57,-57.3 -135.71,-75.7 -172.43,-79.8 -28.32,-3.4 -57.77,-5.4 -88.28,-6.3 m -1406.48,-321.7 -9.18,6.5 c -9.14,8.4 -11.25,17.1 -6.41,26.7 10,18.7 47.97,37.6 90.94,45.1 154.77,26.8 328.91,0.4 490.23,-36.1 -34.72,-9.7 -69.45,-19.2 -104.72,-28.3 -128.2,-33.3 -277.97,-63.1 -415.9,-29.9 -19.88,4.7 -34.65,10 -44.96,16" /></g></g></svg>