<?xml version="1.0" encoding="UTF-8" standalone="no"?>
<!-- Created with Inkscape (http://www.inkscape.org/) -->

<svg
   version="1.1"
   id="svg2"
   width="2829.3333"
   height="2829.3333"
   viewBox="0 0 2829.3333 2829.3333"
   sodipodi:docname="vecteezy_online-legal-advice_.eps"
   xmlns:inkscape="http://www.inkscape.org/namespaces/inkscape"
   xmlns:sodipodi="http://sodipodi.sourceforge.net/DTD/sodipodi-0.dtd"
   xmlns="http://www.w3.org/2000/svg"
   xmlns:svg="http://www.w3.org/2000/svg">
  <defs
     id="defs6" />
  <sodipodi:namedview
     id="namedview4"
     pagecolor="#ffffff"
     bordercolor="#000000"
     borderopacity="0.25"
     inkscape:showpageshadow="2"
     inkscape:pageopacity="0.0"
     inkscape:pagecheckerboard="0"
     inkscape:deskcolor="#d1d1d1" />
  <g
     id="g8"
     inkscape:groupmode="layer"
     inkscape:label="ink_ext_XXXXXX"
     transform="matrix(1.3333333,0,0,-1.3333333,0,2829.3333)">
    <g
       id="g10"
       transform="scale(0.1)">
      <path
         d="M 21213.2,6.80078 H 0 V 21220 H 21213.2 V 6.80078"
         style="fill:#7484bc;fill-opacity:1;fill-rule:nonzero;stroke:none"
         id="path12" />
      <path
         d="m 17448.1,2813.8 h -6910 c -107.6,-186.7 -308.7,-312.7 -539.7,-312.7 H 3733.56 c -561.17,0 -853.69,305 -853.69,649.1 l 0.03,1.2 c -9.91,44.1 -15.56,89.8 -15.56,136.8 v 143.9 c -267.67,-20.1 -529.7,-61.4 -779.67,-139.8 -356.36,-111.7 -698.39,-458 -594.27,-816.7 94.96,-327.2 486.68,-453.7 824.17,-500.4 715.2,-99 1441.21,-68.7 2162.6,-38.2 1253.15,53 2506.31,105.9 3759.45,158.9 1571.33,66.5 3143.68,133 4716.18,110.3 1820.1,-25.9 3591.6,64.2 5406,155.6 180.6,9.1 368.9,19.4 526.2,108.6 425.9,241.7 247.7,785.5 -121.8,932 -332.4,131.8 -737.2,186.2 -1143.4,222.7 v -639.7 c 0,-94.8 -76.9,-171.6 -171.7,-171.6"
         style="fill:#687eba;fill-opacity:1;fill-rule:nonzero;stroke:none"
         id="path14" />
      <path
         d="m 3202.99,17720 c 310.64,0 562.44,251.8 562.44,562.4 0,310.7 -251.8,562.5 -562.44,562.5 -310.6,0 -562.38,-251.8 -562.38,-562.5 0,-310.6 251.78,-562.4 562.38,-562.4"
         style="fill:#647db4;fill-opacity:1;fill-rule:nonzero;stroke:none"
         id="path16" />
      <path
         d="m 19358,14830.2 c 393.3,0 712.1,318.8 712.1,712.1 0,393.2 -318.8,712 -712.1,712 -393.3,0 -712.1,-318.8 -712.1,-712 0,-393.3 318.8,-712.1 712.1,-712.1"
         style="fill:#647db4;fill-opacity:1;fill-rule:nonzero;stroke:none"
         id="path18" />
      <path
         d="m 2202.6,10599.3 h 0.44"
         style="fill:none;stroke:#647db4;stroke-width:7.5;stroke-linecap:round;stroke-linejoin:round;stroke-miterlimit:4;stroke-dasharray:none;stroke-opacity:1"
         id="path20" />
      <path
         d="M 3487.37,15202 H 7542.3 v 1736.5 c 0,359 291.11,650.1 650.21,650.1 h 3643.99 c 359.1,0 650.2,-291.1 650.2,-650.1 v -1418.9 h 1075.8 c 30.5,120.8 139.7,210.4 270,210.4 130.4,0 239.6,-89.6 270.1,-210.4 h 18.1 c 5.4,4.9 10.9,9.8 16.4,14.4 141,118.2 309.1,254.8 371.6,309.7 46.1,40.6 75.5,60.3 100.1,63.7 24.6,-3.4 54,-23.1 100.2,-63.7 62.4,-54.9 230.5,-191.5 371.5,-309.7 5.5,-4.6 11,-9.5 16.4,-14.4 h 18.1 c 30.6,120.8 139.7,210.4 270.1,210.4 130.3,0 239.5,-89.6 270,-210.4 h 1344.4 c 24.6,46.1 72.6,77.8 128.5,77.8 80.7,0 146.2,-65.5 146.2,-146.2 0,-44.4 -20.3,-83.7 -51.5,-110.5 l 175.1,-468.9 h 279.4 c 361.5,0 654.6,318.7 654.6,712 0,393.3 -293.1,712.1 -654.6,712.1 h -654.6 -1831.2 c -361.5,0 -654.6,318.8 -654.6,712 0,393.3 293.1,712.1 654.6,712.1 h 548 c 361.5,0 654.7,251.8 654.7,562.4 0,310.7 -293.2,562.5 -654.7,562.5 H 4778.1 c -361.57,0 -654.62,-251.8 -654.62,-562.5 0,-310.6 293.05,-562.4 654.62,-562.4 h 1630.83 c 361.56,0 654.61,-318.8 654.61,-712.1 0,-393.2 -293.05,-712 -654.61,-712 H 2203.04 c -361.51,0 -654.61,-318.8 -654.61,-712.1 0,-393.3 293.1,-712 654.61,-712 h 734.46 c 104.82,196.4 311.64,330.2 549.87,330.2"
         style="fill:#647db4;fill-opacity:1;fill-rule:nonzero;stroke:none"
         id="path22" />
      <path
         d="M 17619.8,8741.4 V 7140.8 c 8.8,-483.8 17.7,-969 0,-1450.7 v -787.3 h 790.4 c 696.3,0 1793.8,371.8 1793.8,2136.1 0,1678.2 -964.5,2136.3 -1793.8,2136.3 h -790.4 v -73.8 c 12.6,-116.1 6.5,-239.1 0,-360"
         style="fill:#647db4;fill-opacity:1;fill-rule:nonzero;stroke:none"
         id="path24" />
      <path
         d="m 2203.04,7751 c -545.24,0 -1143.92,-523.1 -1143.92,-1424.1 0,-811.9 573.74,-1424.2 1143.92,-1424.1 h 661.3 V 7751 h -661.3"
         style="fill:#647db4;fill-opacity:1;fill-rule:nonzero;stroke:none"
         id="path26" />
      <path
         d="m 13173.2,12547 -747.9,2002.1 c -103.5,-221.8 -327.9,-375.8 -588.8,-375.8 h -209.1 L 11020,12547 h 2153.2"
         style="fill:#647db4;fill-opacity:1;fill-rule:nonzero;stroke:none"
         id="path28" />
      <path
         d="m 2203.04,13447.6 c -545.24,0 -1193.81,-523.1 -1193.81,-1424.1 0,-811.9 623.63,-1424.2 1193.81,-1424.2 h 661.3 v 2848.3 h -661.3"
         style="fill:#647db4;fill-opacity:1;fill-rule:nonzero;stroke:none"
         id="path30" />
      <path
         d="m 18294.4,12547 c 30.1,0 54.5,-24.4 54.5,-54.4 v -101.7 c 0,-30 -24.4,-54.4 -54.5,-54.4 h -18.6 c -12.9,-512.9 -519.2,-925.4 -1142.4,-925.4 -25.9,0 -51.6,1 -77.1,2.4 -6.5,0.4 -12.9,0.8 -19.2,1.2 -25.3,1.7 -50.4,3.9 -75.1,7 -0.1,0 -0.2,0 -0.3,0 -25,3.1 -49.6,7.1 -74,11.6 -6,1.1 -11.9,2.2 -17.8,3.3 -48.6,9.5 -96,21.6 -142,36 -5.4,1.7 -10.8,3.5 -16.2,5.2 -45.8,15.1 -90.1,32.5 -132.8,52.1 -4.8,2.3 -9.7,4.5 -14.5,6.9 -319.1,151.9 -541.1,427.4 -570.2,747.6 v 0 0 c -1.6,17.2 -2.8,34.6 -3.2,52.1 h -13.2 c -30.1,0 -54.5,24.4 -54.5,54.4 v 101.7 c 0,30 24.4,54.4 54.5,54.4 h 42.2 l 336.4,900.6 h -167.2 c -361.5,0 -654.6,318.8 -654.6,712.1 0,393.2 293.1,712.1 654.6,712.1 h 532.2 166.9 l 168.9,452.2 c -24.5,13.7 -44.5,34 -57.7,58.9 h -1344.4 c -30.5,-120.9 -139.7,-210.5 -270,-210.5 -118.6,0 -219.6,74.1 -259.9,178.4 l -0.6,-1.3 c -34.9,-76.7 -322.5,-637.3 -426.5,-807.2 l 82.5,-3490.1 h 34 c 31.2,0 56.8,-25.6 56.8,-56.8 0,-31.3 -25.6,-56.9 -56.8,-56.9 h -31.3 l 3.7,-157 h 27.6 c 31.2,0 56.8,-25.6 56.8,-56.9 0,-31.2 -25.6,-56.8 -56.8,-56.8 h -24.9 l 5.1,-215.8 h 562.4 c 53.8,0 97.4,-43.6 97.4,-97.4 v -84.7 -71.6 c 115.3,-0.8 223.9,-18.4 316.3,-57.4 102.5,278.9 368.2,458.4 651,458.4 h 600.7 0.4 164.9 c 820.9,0 1353.1,612.3 1353.1,1424.2 0,512.3 -199.1,902.3 -506.4,1143.6 l 231.6,-620.1 h 28.2"
         style="fill:#647db4;fill-opacity:1;fill-rule:nonzero;stroke:none"
         id="path32" />
      <path
         d="m 17097.8,15308.2 -163,-436.4 h 416.5 l -166.1,444.8 c -17.6,-7.4 -36.9,-11.6 -57.2,-11.6 -10.4,0 -20.4,1.1 -30.2,3.2"
         style="fill:#647db4;fill-opacity:1;fill-rule:nonzero;stroke:none"
         id="path34" />
      <path
         d="m 13763,10354.6 c 0,53.8 43.6,97.4 97.4,97.4 h 562.5 l 5.1,215.8 h -24.9 c -31.3,0 -56.9,25.6 -56.9,56.8 0,31.3 25.6,56.9 56.9,56.9 h 27.5 l 3.8,157 h -31.3 c -31.3,0 -56.9,25.6 -56.9,56.9 0,31.2 25.6,56.8 56.9,56.8 h 33.9 l 82.6,3490.1 c -104.1,169.9 -391.7,730.5 -426.6,807.2 l -0.5,1.3 c -40.4,-104.3 -141.4,-178.4 -260,-178.4 -130.3,0 -239.5,89.6 -270,210.5 h -1075.8 v -559.4 c 0,-75.4 -13.5,-147.5 -37.1,-214.8 l 770.1,-2061.7 h 28.2 c 30.1,0 54.5,-24.4 54.5,-54.4 v -101.7 c 0,-30 -24.4,-54.4 -54.5,-54.4 h -18.6 c -12.9,-512.9 -519.2,-925.4 -1142.4,-925.4 -26,0 -51.6,1 -77.1,2.4 -6.4,0.4 -12.8,0.7 -19.2,1.2 -25.3,1.7 -50.4,3.9 -75.2,7 -0.1,0 -0.1,0 -0.2,0 -25,3.1 -49.6,7.2 -74.1,11.6 -5.9,1.1 -11.8,2.2 -17.7,3.3 -48.6,9.5 -96,21.6 -142,36 -5.4,1.7 -10.8,3.4 -16.2,5.2 -45.8,15.1 -90.1,32.5 -132.8,52.1 -4.9,2.3 -9.7,4.5 -14.5,6.8 -319,151.9 -541,427.5 -570.2,747.7 v 0 c -0.1,0.1 -0.1,0.2 -0.1,0.4 -1.5,17.1 -2.6,34.3 -3.1,51.7 h -13.2 c -30,0 -54.5,24.4 -54.5,54.4 v 101.7 c 0,30 24.5,54.4 54.5,54.4 h 42.2 l 607.4,1626.3 h -959.5 V 9384 h 2078.4 24.1 c 56,249.9 231.8,388.2 460.3,448.7 2.1,9.2 4.3,18.2 6.8,26.9 0.7,2.4 1.5,4.8 2.3,7.1 73,239.9 304.3,329.7 569.7,331.6 v 71.6 84.7"
         style="fill:#647db4;fill-opacity:1;fill-rule:nonzero;stroke:none"
         id="path36" />
      <path
         d="m 17022.6,13447.6 h -619.7 l -336.4,-900.6 h 2153.1 l -249,666.9 c -222.2,152.6 -492.9,233.7 -782.7,233.7 h -165.3"
         style="fill:#647db4;fill-opacity:1;fill-rule:nonzero;stroke:none"
         id="path38" />
      <path
         d="m 14554.3,11394.8 c -4.9,-80 -60,-39.6 -61.6,17.6 -22.8,832.8 21.4,1682 59.8,2514.2 1.8,38.5 28.8,38.9 29.2,0.1 10,-838.8 24.3,-1694.6 -27.4,-2531.9 z m 54.5,3052.3 c -18.8,4 -41,23.1 -70.1,65.3 -5.4,7.8 -11.8,17.9 -19.1,29.9 l -82.6,-3490.1 h 343.6 l -82.5,3490.1 c -7.4,-12 -13.8,-22.1 -19.1,-29.9 -29.1,-42.2 -51.3,-61.3 -70.2,-65.3"
         style="fill:#f9ad4a;fill-opacity:1;fill-rule:nonzero;stroke:none"
         id="path40" />
      <path
         d="m 14430.6,10781.5 h 356.4 l -3.7,157 h -348.9 l -3.8,-157"
         style="fill:#f9ad4a;fill-opacity:1;fill-rule:nonzero;stroke:none"
         id="path42" />
      <path
         d="m 14422.9,10452 h 371.9 l -5.1,215.8 H 14428 l -5.1,-215.8"
         style="fill:#f9ad4a;fill-opacity:1;fill-rule:nonzero;stroke:none"
         id="path44" />
      <path
         d="m 13860.4,10452 c -53.8,0 -97.4,-43.6 -97.4,-97.4 v -84.7 h 1691.6 v 84.7 c 0,53.8 -43.6,97.4 -97.4,97.4 h -562.4 -371.9 -562.5"
         style="fill:#f9ad4a;fill-opacity:1;fill-rule:nonzero;stroke:none"
         id="path46" />
      <path
         d="m 13763,10269.9 v -71.6 c 3,0.1 5.9,0.2 8.9,0.2 h 1673.8 c 3,0 5.9,-0.1 8.9,-0.2 v 71.6 H 13763"
         style="fill:#f8993f;fill-opacity:1;fill-rule:nonzero;stroke:none"
         id="path48" />
      <path
         d="m 16033.4,9832.7 c -2.3,10.3 -5,20.3 -7.8,30.1 2.8,-9.4 4.5,-19.9 6.8,-29.8 0.4,-0.1 0.7,-0.2 1,-0.3"
         style="fill:#f9ad4a;fill-opacity:1;fill-rule:nonzero;stroke:none"
         id="path50" />
      <path
         d="m 13185,9832.9 c 2.1,8.9 3.5,18.3 6,26.7 -2.5,-8.7 -4.7,-17.7 -6.8,-26.9 0.2,0.1 0.5,0.2 0.8,0.2"
         style="fill:#f9ad4a;fill-opacity:1;fill-rule:nonzero;stroke:none"
         id="path52" />
      <path
         d="m 15073.8,10116.9 c -46.3,-23.8 -75.9,-30.1 -127.8,-29.2 -48,0.9 -83.9,4.2 -128.2,22.3 -7.4,3 -7.7,34.4 -0.1,37.5 43.9,17.8 80.6,21.8 127.9,25.2 21.4,1.6 46.7,7.6 68,3.5 20,-3.9 41,-14.2 60,-21.8 7.7,-3 7.2,-33.8 0.2,-37.5 z m -1574.4,-47.5 c -8.8,0.5 -8.5,30.7 -1.8,34 168.3,81.6 351,74.3 534.7,72.3 228.1,-2.5 460.3,1.9 687.2,-22.1 9.6,-1 9.7,-37.8 0.2,-39 -390.1,-45.9 -827.6,-63.7 -1220.3,-45.2 z m 1946.3,129.1 h -1673.8 c -3,0 -5.9,-0.1 -8.9,-0.2 -265.4,-1.9 -496.7,-91.7 -569.7,-331.6 6.2,19.9 13.3,38.9 21.5,56.8 70.8,23.6 144.9,37.6 219,45.9 h 2356.3 c 70.3,-5.5 140,-18.1 208.3,-36.2 9.2,-18.6 16.9,-38.7 23.7,-59.6 -42.2,131.8 -133,217.4 -251.2,267.3 -92.4,39 -201,56.6 -316.3,57.4 -3,0.1 -5.9,0.2 -8.9,0.2"
         style="fill:#f9ad4a;fill-opacity:1;fill-rule:nonzero;stroke:none"
         id="path54" />
      <path
         d="m 15790.1,9969.4 h -2356.3 c -74.1,-8.3 -148.2,-22.3 -219,-45.9 -8.2,-17.9 -15.3,-36.9 -21.5,-56.8 -0.8,-2.3 -1.6,-4.7 -2.3,-7.1 -2.5,-8.4 -3.9,-17.8 -6,-26.7 97.9,25.8 205.1,37.9 316.9,37.9 h 2213.9 c 111.7,0 218.8,-12.1 316.6,-37.8 -2.3,9.9 -4,20.4 -6.8,29.8 -1.1,3.7 -2.3,7.2 -3.5,10.8 -6.8,20.9 -14.5,41 -23.7,59.6 -68.3,18.1 -138,30.7 -208.3,36.2"
         style="fill:#f8993f;fill-opacity:1;fill-rule:nonzero;stroke:none"
         id="path56" />
      <path
         d="m 14524.1,9709.9 c -299.7,-64.4 -635.2,-39.5 -942.6,-73.8 -122.6,-13.7 -246,-27.1 -365,-61 -97.1,-27.6 -187.8,-108.1 -287,-95.2 -24.5,3.2 -18.5,62.7 -12.4,77.5 91.6,220.5 319.2,242.4 535.7,249.6 338.3,11.3 740,59 1070.9,-6.3 23.2,-4.5 23.4,-85.8 0.4,-90.8 z m 1191.7,160.9 h -2213.9 c -111.8,0 -219,-12.1 -316.9,-37.9 -0.3,0 -0.6,-0.1 -0.8,-0.2 -228.5,-60.5 -404.3,-198.8 -460.3,-448.7 h 1184.3 45.3 92.2 983.9 1297.1 45.4 92.1 29.5 c -56,249.9 -231.8,388.3 -460.3,448.7 -0.3,0.1 -0.6,0.2 -1,0.3 -97.8,25.7 -204.9,37.8 -316.6,37.8"
         style="fill:#f9ad4a;fill-opacity:1;fill-rule:nonzero;stroke:none"
         id="path58" />
      <path
         d="m 15655.1,15382.9 h 1344.4 c -10.9,20.4 -17.7,43.5 -17.7,68.3 0,24.8 6.8,47.9 17.7,68.4 h -1344.4 c 5.5,-21.9 8.8,-44.8 8.8,-68.4 0,-23.6 -3.3,-46.4 -8.8,-68.3"
         style="fill:#f9ad4a;fill-opacity:1;fill-rule:nonzero;stroke:none"
         id="path60" />
      <path
         d="m 15111.5,15505 c 1,4.9 2.3,9.7 3.5,14.6 h -18.1 c 5.2,-4.7 9.9,-9.6 14.6,-14.6"
         style="fill:#f9ad4a;fill-opacity:1;fill-rule:nonzero;stroke:none"
         id="path62" />
      <path
         d="m 13562.5,15382.9 c -5.5,21.9 -8.8,44.7 -8.8,68.3 0,23.6 3.3,46.5 8.8,68.4 h -1075.8 v -136.7 h 1075.8"
         style="fill:#f9ad4a;fill-opacity:1;fill-rule:nonzero;stroke:none"
         id="path64" />
      <path
         d="m 14120.7,15519.6 h -18.1 c 1.2,-4.9 2.5,-9.7 3.5,-14.6 4.7,5 9.5,9.9 14.6,14.6"
         style="fill:#f9ad4a;fill-opacity:1;fill-rule:nonzero;stroke:none"
         id="path66" />
      <path
         d="m 16402.9,13447.6 531.9,1424.2 163,436.4 c -14.5,3 -28,8.8 -40.6,15.8 l -168.9,-452.2 -531.9,-1424.2 -336.4,-900.6 h 46.5 l 336.4,900.6"
         style="fill:#f9ad4a;fill-opacity:1;fill-rule:nonzero;stroke:none"
         id="path68" />
      <path
         d="m 17185.2,15316.6 166.1,-444.8 619.3,-1657.9 249,-666.9 h 46.6 l -231.6,620.1 -636.8,1704.7 -175.1,468.9 c -11.3,-9.7 -23.7,-18.2 -37.5,-24.1"
         style="fill:#f9ad4a;fill-opacity:1;fill-rule:nonzero;stroke:none"
         id="path70" />
      <path
         d="m 14544.6,15640.4 c 29.6,26.1 48.5,38.7 64.2,40.9 15.8,-2.2 34.6,-14.8 64.3,-40.9 40,-35.2 147.9,-122.8 238.3,-198.6 18.1,-15.3 37.1,-32.6 41.7,-55.9 4,-20.3 -3.8,-40.8 -12.3,-59.8 l -1.2,-2.6 c -23.9,-52.7 -233.6,-460.9 -285.8,-537 -18.7,-27.1 -32.9,-39.3 -45,-41.8 -12.1,2.5 -26.3,14.7 -45,41.8 -52.2,76.1 -261.9,484.3 -285.8,537 l -1.2,2.6 c -8.5,19 -16.3,39.5 -12.3,59.8 4.6,23.3 23.6,40.6 41.7,55.9 90.5,75.8 198.3,163.4 238.4,198.6 z m -438.5,-135.4 c 3.4,-17.4 5.3,-35.4 5.3,-53.8 0,-35.4 -6.9,-69.2 -18.9,-100.4 l 0.5,-1.3 c 34.9,-76.7 322.5,-637.3 426.6,-807.2 7.3,-12 13.7,-22.1 19.1,-29.9 29.1,-42.2 51.3,-61.3 70.1,-65.3 18.9,4 41.1,23.1 70.2,65.3 5.3,7.8 11.7,17.9 19.1,29.9 104,169.9 391.6,730.5 426.5,807.2 l 0.6,1.3 c -12.1,31.2 -19,65 -19,100.4 0,18.4 1.9,36.4 5.3,53.8 -4.7,5 -9.4,9.9 -14.6,14.6 -5.4,4.9 -10.9,9.8 -16.4,14.4 -141,118.2 -309.1,254.8 -371.5,309.7 -46.2,40.6 -75.6,60.3 -100.2,63.7 -24.6,-3.4 -54,-23.1 -100.1,-63.7 -62.5,-54.9 -230.6,-191.5 -371.6,-309.7 -5.5,-4.6 -11,-9.5 -16.4,-14.4 -5.1,-4.7 -9.9,-9.6 -14.6,-14.6"
         style="fill:#f9ad4a;fill-opacity:1;fill-rule:nonzero;stroke:none"
         id="path72" />
      <path
         d="m 14264.5,15385.9 c -4,-20.3 3.8,-40.8 12.3,-59.8 l 1.2,-2.6 c 23.9,-52.7 233.6,-460.9 285.8,-537 18.7,-27.1 32.9,-39.3 45,-41.8 12.1,2.5 26.3,14.7 45,41.8 52.2,76.1 261.9,484.3 285.8,537 l 1.2,2.6 c 8.5,19 16.3,39.5 12.3,59.8 -4.6,23.3 -23.6,40.6 -41.7,55.9 -90.4,75.8 -198.3,163.4 -238.3,198.6 -29.7,26.1 -48.5,38.7 -64.3,40.9 -15.7,-2.2 -34.6,-14.8 -64.2,-40.9 -40.1,-35.2 -147.9,-122.8 -238.4,-198.6 -18.1,-15.3 -37.1,-32.6 -41.7,-55.9"
         style="fill:#f8993f;fill-opacity:1;fill-rule:nonzero;stroke:none"
         id="path74" />
      <path
         d="m 15258.2,15657.1 c 34.6,25.2 94.2,54.1 125.8,11.3 32.5,-43.8 2.4,-112.1 -38.2,-139.7 -22.6,-15.4 -46.1,-25.5 -66.8,-44.1 -11.5,-10.2 -29.3,-23.3 -33,-38.5 -4.7,-19.3 -19.5,-50.9 -41.9,-32.3 -23,18.9 -23,66.2 -19.9,92.6 6.4,55 27.2,116.9 74,150.7 z m -152,-205.9 c 0,-35.4 6.9,-69.2 19,-100.4 40.3,-104.3 141.3,-178.4 259.9,-178.4 130.3,0 239.5,89.6 270,210.5 5.5,21.9 8.8,44.7 8.8,68.3 0,23.6 -3.3,46.5 -8.8,68.4 -30.5,120.8 -139.7,210.4 -270,210.4 -130.4,0 -239.5,-89.6 -270.1,-210.4 -1.2,-4.9 -2.5,-9.7 -3.5,-14.6 -3.4,-17.4 -5.3,-35.4 -5.3,-53.8"
         style="fill:#f9ad4a;fill-opacity:1;fill-rule:nonzero;stroke:none"
         id="path76" />
      <path
         d="m 16999.5,15382.9 c 13.2,-24.9 33.2,-45.2 57.7,-58.9 12.6,-7 26.1,-12.8 40.6,-15.8 9.8,-2.1 19.8,-3.2 30.2,-3.2 20.3,0 39.6,4.2 57.2,11.6 13.8,5.9 26.2,14.4 37.5,24.1 31.2,26.8 51.5,66.1 51.5,110.5 0,80.7 -65.5,146.2 -146.2,146.2 -55.9,0 -103.9,-31.7 -128.5,-77.8 -10.9,-20.5 -17.7,-43.6 -17.7,-68.4 0,-24.8 6.8,-47.9 17.7,-68.3"
         style="fill:#f9ad4a;fill-opacity:1;fill-rule:nonzero;stroke:none"
         id="path78" />
      <path
         d="m 13832.9,15669.4 c 12.1,-32.3 19.4,-65.7 2.8,-99.4 -12.5,-25.3 -41.8,-39.5 -61,-59.4 -18.1,-19 -35.3,-39.9 -51.6,-60.5 -13.8,-17.3 -22.3,-45.9 -46.6,-48.8 -25.6,-3.1 -30.7,50.3 -30.9,65.2 -0.7,52.4 25.2,112.5 58.9,153 17.2,20.5 107.4,105.3 128.4,49.9 z m -270.4,-286.5 c 30.5,-120.9 139.7,-210.5 270,-210.5 118.6,0 219.6,74.1 260,178.4 12,31.2 18.9,65 18.9,100.4 0,18.4 -1.9,36.4 -5.3,53.8 -1,4.9 -2.3,9.7 -3.5,14.6 -30.5,120.8 -139.7,210.4 -270.1,210.4 -130.3,0 -239.5,-89.6 -270,-210.4 -5.5,-21.9 -8.8,-44.8 -8.8,-68.4 0,-23.6 3.3,-46.4 8.8,-68.3"
         style="fill:#f9ad4a;fill-opacity:1;fill-rule:nonzero;stroke:none"
         id="path80" />
      <path
         d="m 17623.4,11627.1 c 162.4,73.9 490,326.8 334.3,491.3 -60.9,64.3 -261.3,77.1 -360,80.8 -127.1,4.7 -1254.8,69.8 -1603.5,85.2 29.1,-320.2 251.1,-595.7 570.2,-747.6 -21.1,10 -42,20.4 -62.2,31.5 393,-105 826.2,-75.4 1121.2,58.8"
         style="fill:#f9ad4a;fill-opacity:1;fill-rule:nonzero;stroke:none"
         id="path82" />
      <path
         d="m 16961.7,11421.7 c -25,3.1 -49.6,7.1 -74,11.6 24.4,-4.5 49,-8.5 74,-11.6"
         style="fill:#f9ad4a;fill-opacity:1;fill-rule:nonzero;stroke:none"
         id="path84" />
      <path
         d="m 16711.7,11477.8 c -45.8,15.1 -90.1,32.5 -132.8,52.1 42.7,-19.6 87,-37 132.8,-52.1"
         style="fill:#f9ad4a;fill-opacity:1;fill-rule:nonzero;stroke:none"
         id="path86" />
      <path
         d="m 17037.1,11414.7 c -25.3,1.7 -50.4,3.9 -75.1,7 24.7,-3.1 49.8,-5.3 75.1,-7"
         style="fill:#f9ad4a;fill-opacity:1;fill-rule:nonzero;stroke:none"
         id="path88" />
      <path
         d="m 17133.4,11411.1 c -25.9,0 -51.6,1 -77.1,2.4 25.5,-1.4 51.2,-2.4 77.1,-2.4"
         style="fill:#f9ad4a;fill-opacity:1;fill-rule:nonzero;stroke:none"
         id="path90" />
      <path
         d="m 16869.9,11436.6 c -48.6,9.5 -96,21.6 -142,36 46,-14.4 93.4,-26.5 142,-36"
         style="fill:#f9ad4a;fill-opacity:1;fill-rule:nonzero;stroke:none"
         id="path92" />
      <path
         d="m 15994.2,12284.4 c -1.6,17.2 -2.8,34.6 -3.2,52.1 0.4,-17.5 1.6,-34.9 3.2,-52.1"
         style="fill:#f9ad4a;fill-opacity:1;fill-rule:nonzero;stroke:none"
         id="path94" />
      <path
         d="m 15994.2,12284.4 v 0 0 c 348.7,-15.4 1476.4,-80.5 1603.5,-85.2 98.7,-3.7 299.1,-16.5 360,-80.8 155.7,-164.5 -171.9,-417.4 -334.3,-491.3 -295,-134.2 -728.2,-163.8 -1121.2,-58.8 20.2,-11.1 41.1,-21.5 62.2,-31.5 4.8,-2.4 9.7,-4.6 14.5,-6.9 42.7,-19.6 87,-37 132.8,-52.1 5.4,-1.7 10.8,-3.5 16.2,-5.2 46,-14.4 93.4,-26.5 142,-36 5.9,-1.1 11.8,-2.2 17.8,-3.3 24.4,-4.5 49,-8.5 74,-11.6 0.1,0 0.2,0 0.3,0 24.7,-3.1 49.8,-5.3 75.1,-7 6.3,-0.4 12.7,-0.8 19.2,-1.2 25.5,-1.4 51.2,-2.4 77.1,-2.4 623.2,0 1129.5,412.5 1142.4,925.4 H 15991 c 0.4,-17.5 1.6,-34.9 3.2,-52.1"
         style="fill:#f8a441;fill-opacity:1;fill-rule:nonzero;stroke:none"
         id="path96" />
      <path
         d="m 16020,12547 h -42.2 c -30.1,0 -54.5,-24.4 -54.5,-54.4 v -101.7 c 0,-30 24.4,-54.4 54.5,-54.4 h 13.2 2284.8 18.6 c 30.1,0 54.5,24.4 54.5,54.4 v 101.7 c 0,30 -24.4,54.4 -54.5,54.4 h -28.2 -46.6 -2153.1 -46.5"
         style="fill:#f8993f;fill-opacity:1;fill-rule:nonzero;stroke:none"
         id="path98" />
      <path
         d="m 11020,12547 607.4,1626.3 h -46.5 L 10973.5,12547 h 46.5"
         style="fill:#f9ad4a;fill-opacity:1;fill-rule:nonzero;stroke:none"
         id="path100" />
      <path
         d="m 13219.7,12547 -770.1,2061.7 c -7.1,-20.4 -15.2,-40.2 -24.3,-59.6 l 747.9,-2002.1 h 46.5"
         style="fill:#f9ad4a;fill-opacity:1;fill-rule:nonzero;stroke:none"
         id="path102" />
      <path
         d="m 12086.9,11411.1 c -25.9,0 -51.6,1 -77.1,2.4 25.5,-1.4 51.1,-2.4 77.1,-2.4"
         style="fill:#f9ad4a;fill-opacity:1;fill-rule:nonzero;stroke:none"
         id="path104" />
      <path
         d="m 11990.6,11414.7 c -25.3,1.7 -50.4,3.9 -75.2,7 24.8,-3.1 49.9,-5.3 75.2,-7"
         style="fill:#f9ad4a;fill-opacity:1;fill-rule:nonzero;stroke:none"
         id="path106" />
      <path
         d="m 11823.4,11436.6 c -48.6,9.5 -96,21.6 -142,36 46,-14.4 93.4,-26.5 142,-36"
         style="fill:#f9ad4a;fill-opacity:1;fill-rule:nonzero;stroke:none"
         id="path108" />
      <path
         d="m 11665.2,11477.8 c -45.8,15.1 -90.1,32.5 -132.8,52.1 42.7,-19.6 87,-37 132.8,-52.1"
         style="fill:#f9ad4a;fill-opacity:1;fill-rule:nonzero;stroke:none"
         id="path110" />
      <path
         d="m 10947.6,12284.8 c -1.5,17.1 -2.6,34.3 -3.1,51.7 0.5,-17.4 1.6,-34.6 3.1,-51.7"
         style="fill:#f9ad4a;fill-opacity:1;fill-rule:nonzero;stroke:none"
         id="path112" />
      <path
         d="m 12576.9,11627.1 c 162.4,73.9 490,326.8 334.3,491.3 -60.9,64.3 -261.3,77.1 -360,80.8 -127.1,4.7 -1254.7,69.8 -1603.5,85.2 29.2,-320.2 251.2,-595.8 570.2,-747.7 -21.1,10.1 -42,20.5 -62.2,31.6 393,-105 826.2,-75.4 1121.2,58.8"
         style="fill:#f9ad4a;fill-opacity:1;fill-rule:nonzero;stroke:none"
         id="path114" />
      <path
         d="m 11915.2,11421.7 c -25,3.1 -49.6,7.1 -74.1,11.6 24.5,-4.4 49.1,-8.5 74.1,-11.6"
         style="fill:#f9ad4a;fill-opacity:1;fill-rule:nonzero;stroke:none"
         id="path116" />
      <path
         d="m 10947.6,12284.8 c 0,-0.2 0,-0.3 0.1,-0.4 v 0 c 348.8,-15.4 1476.4,-80.5 1603.5,-85.2 98.7,-3.7 299.1,-16.5 360,-80.8 155.7,-164.5 -171.9,-417.4 -334.3,-491.3 -295,-134.2 -728.2,-163.8 -1121.2,-58.8 20.2,-11.1 41.1,-21.5 62.2,-31.6 4.8,-2.3 9.6,-4.5 14.5,-6.8 42.7,-19.6 87,-37 132.8,-52.1 5.4,-1.8 10.8,-3.5 16.2,-5.2 46,-14.4 93.4,-26.5 142,-36 5.9,-1.1 11.8,-2.2 17.7,-3.3 24.5,-4.5 49.1,-8.5 74.1,-11.6 0.1,0 0.1,0 0.2,0 24.8,-3.1 49.9,-5.3 75.2,-7 6.4,-0.5 12.8,-0.8 19.2,-1.2 25.5,-1.4 51.2,-2.4 77.1,-2.4 623.2,0 1129.5,412.5 1142.4,925.4 h -2284.8 c 0.5,-17.4 1.6,-34.6 3.1,-51.7"
         style="fill:#f8a441;fill-opacity:1;fill-rule:nonzero;stroke:none"
         id="path118" />
      <path
         d="m 11020,12547 h -88.7 c -30,0 -54.5,-24.4 -54.5,-54.4 v -101.7 c 0,-30 24.5,-54.4 54.5,-54.4 h 13.2 2284.8 18.6 c 30.1,0 54.5,24.4 54.5,54.4 v 101.7 c 0,30 -24.4,54.4 -54.5,54.4 h -28.2 -46.5 -2153.2"
         style="fill:#f8993f;fill-opacity:1;fill-rule:nonzero;stroke:none"
         id="path120" />
      <path
         d="m 14403.1,10781.5 c -31.3,0 -56.9,-25.6 -56.9,-56.9 0,-31.2 25.6,-56.8 56.9,-56.8 h 24.9 361.7 24.9 c 31.2,0 56.8,25.6 56.8,56.8 0,31.3 -25.6,56.9 -56.8,56.9 h -27.6 -356.4 -27.5"
         style="fill:#f8a441;fill-opacity:1;fill-rule:nonzero;stroke:none"
         id="path122" />
      <path
         d="m 14403.1,11052.2 c -31.3,0 -56.9,-25.6 -56.9,-56.8 0,-31.3 25.6,-56.9 56.9,-56.9 h 31.3 348.9 31.3 c 31.2,0 56.8,25.6 56.8,56.9 0,31.2 -25.6,56.8 -56.8,56.8 h -34 -343.6 -33.9"
         style="fill:#f8a441;fill-opacity:1;fill-rule:nonzero;stroke:none"
         id="path124" />
      <path
         d="m 14523.7,9800.7 c -330.9,65.3 -732.6,17.6 -1070.9,6.3 -216.5,-7.2 -444.1,-29.1 -535.7,-249.6 -6.1,-14.8 -12.1,-74.3 12.4,-77.5 99.2,-12.9 189.9,67.6 287,95.2 119,33.9 242.4,47.3 365,61 307.4,34.3 642.9,9.4 942.6,73.8 23,5 22.8,86.3 -0.4,90.8"
         style="fill:#fabb55;fill-opacity:1;fill-rule:nonzero;stroke:none"
         id="path126" />
      <path
         d="m 14719.7,10114.6 c 9.5,1.2 9.4,38 -0.2,39 -226.9,24 -459.1,19.6 -687.2,22.1 -183.7,2 -366.4,9.3 -534.7,-72.3 -6.7,-3.3 -7,-33.5 1.8,-34 392.7,-18.5 830.2,-0.7 1220.3,45.2"
         style="fill:#fabb55;fill-opacity:1;fill-rule:nonzero;stroke:none"
         id="path128" />
      <path
         d="m 15013.6,10176.2 c -21.3,4.1 -46.6,-1.9 -68,-3.5 -47.3,-3.4 -84,-7.4 -127.9,-25.2 -7.6,-3.1 -7.3,-34.5 0.1,-37.5 44.3,-18.1 80.2,-21.4 128.2,-22.3 51.9,-0.9 81.5,5.4 127.8,29.2 7,3.7 7.5,34.5 -0.2,37.5 -19,7.6 -40,17.9 -60,21.8"
         style="fill:#fabb55;fill-opacity:1;fill-rule:nonzero;stroke:none"
         id="path130" />
      <path
         d="m 14552.5,13926.6 c -38.4,-832.2 -82.6,-1681.4 -59.8,-2514.2 1.6,-57.2 56.7,-97.6 61.6,-17.6 51.7,837.3 37.4,1693.1 27.4,2531.9 -0.4,38.8 -27.4,38.4 -29.2,-0.1"
         style="fill:#fabb55;fill-opacity:1;fill-rule:nonzero;stroke:none"
         id="path132" />
      <path
         d="m 13645.6,15466.5 c 0.2,-14.9 5.3,-68.3 30.9,-65.2 24.3,2.9 32.8,31.5 46.6,48.8 16.3,20.6 33.5,41.5 51.6,60.5 19.2,19.9 48.5,34.1 61,59.4 16.6,33.7 9.3,67.1 -2.8,99.4 -21,55.4 -111.2,-29.4 -128.4,-49.9 -33.7,-40.5 -59.6,-100.6 -58.9,-153"
         style="fill:#fabb55;fill-opacity:1;fill-rule:nonzero;stroke:none"
         id="path134" />
      <path
         d="m 15204.1,15413.8 c 22.4,-18.6 37.2,13 41.9,32.3 3.7,15.2 21.5,28.3 33,38.5 20.7,18.6 44.2,28.7 66.8,44.1 40.6,27.6 70.7,95.9 38.2,139.7 -31.6,42.8 -91.2,13.9 -125.8,-11.3 -46.8,-33.8 -67.6,-95.7 -74,-150.7 -3.1,-26.4 -3.1,-73.7 19.9,-92.6"
         style="fill:#fabb55;fill-opacity:1;fill-rule:nonzero;stroke:none"
         id="path136" />
      <path
         d="m 17610.1,7941.4 c 0,-265.9 4.8,-533 9.7,-800.6 v 1600.6 c -3.5,-63.9 -7,-127.2 -7.5,-188.3 -1.7,-203.9 -2.3,-407.8 -2.2,-611.7"
         style="fill:#b66082;fill-opacity:1;fill-rule:nonzero;stroke:none"
         id="path138" />
      <path
         d="m 17323.3,3236.7 h -562.6 v 546.8 h 562.6 z M 16760.7,8961 h 562.6 V 4069.1 h -562.6 z m 859.1,-3270.9 c -4.4,-117 -10,-233.9 -17.8,-350.4 -6.7,-98.5 -73.7,-48.1 -76.2,21.6 -25.6,708.4 0.9,1423.1 -2,2132.1 -1.4,353.1 -2.4,706.3 0.3,1059.3 1.1,148.3 48.3,361.9 7,502.7 -44.1,150.6 -208.8,108.5 -335.2,147.8 -41.5,12.9 -42.1,124 -0.5,137.1 209.7,65.9 386.6,24.6 420.3,-202 1.8,-12.1 2.7,-24.6 4.1,-36.9 v 73.8 37.1 c 0,94.8 -76.9,171.7 -171.7,171.7 h -954.4 -29.5 V 2813.8 h 983.9 c 94.8,0 171.7,76.8 171.7,171.6 v 639.7 1277.7 787.3"
         style="fill:#b66082;fill-opacity:1;fill-rule:nonzero;stroke:none"
         id="path140" />
      <path
         d="m 16326.7,9384 h -1297.1 c 94.8,0 171.6,-76.9 171.6,-171.7 v -846.1 h 640.6 v -603.4 h -640.6 v -334 h 640.6 V 7127 h -640.6 V 3148.6 c 35.7,-1 70.9,-1.7 105.1,-1.3 194.2,2.7 388.4,8.4 582.4,19.7 150.1,8.8 218.1,24.7 242.7,178.6 12.9,81.1 -0.5,187.8 -0.6,269.9 -0.3,187 -5,375.1 17.5,561 8.5,69.4 51.5,70 60.3,0.2 34.5,-273.6 21.9,-555.3 21.1,-830.7 -0.3,-109.6 16.9,-278.1 -77,-361.1 -141.8,-125.3 -533.5,-62.4 -707.6,-62.7 -82,-0.1 -169.7,-4 -258.8,-6.2 -26.7,-60.1 -86.7,-102.2 -156.7,-102.2 h 1297.1 V 9384"
         style="fill:#c76e8d;fill-opacity:1;fill-rule:nonzero;stroke:none"
         id="path142" />
      <path
         d="m 16372.1,2813.8 h 92.1 V 9384 h -92.1 V 2813.8"
         style="fill:#c76e8d;fill-opacity:1;fill-rule:nonzero;stroke:none"
         id="path144" />
      <path
         d="m 15841.8,7762.8 v 603.4 h -640.6 v -603.4 h 640.6"
         style="fill:#b66082;fill-opacity:1;fill-rule:nonzero;stroke:none"
         id="path146" />
      <path
         d="m 15841.8,7127 v 301.8 h -640.6 V 7127 h 640.6"
         style="fill:#b66082;fill-opacity:1;fill-rule:nonzero;stroke:none"
         id="path148" />
      <path
         d="M 17323.3,4069.1 V 8961 h -562.6 V 4069.1 h 562.6"
         style="fill:#c76e8d;fill-opacity:1;fill-rule:nonzero;stroke:none"
         id="path150" />
      <path
         d="m 16760.7,3783.5 v -546.8 h 562.6 v 546.8 h -562.6"
         style="fill:#c76e8d;fill-opacity:1;fill-rule:nonzero;stroke:none"
         id="path152" />
      <path
         d="m 16372.1,9384 h -45.4 V 2813.8 h 45.4 V 9384"
         style="fill:#b66082;fill-opacity:1;fill-rule:nonzero;stroke:none"
         id="path154" />
      <path
         d="m 17619.8,7140.8 c -4.9,267.6 -9.7,534.7 -9.7,800.6 -0.1,203.9 0.5,407.8 2.2,611.7 0.5,61.1 4,124.4 7.5,188.3 6.5,120.9 12.6,243.9 0,360 -1.4,12.3 -2.3,24.8 -4.1,36.9 -33.7,226.6 -210.6,267.9 -420.3,202 -41.6,-13.1 -41,-124.2 0.5,-137.1 126.4,-39.3 291.1,2.8 335.2,-147.8 41.3,-140.8 -5.9,-354.4 -7,-502.7 -2.7,-353 -1.7,-706.2 -0.3,-1059.3 2.9,-709 -23.6,-1423.7 2,-2132.1 2.5,-69.7 69.5,-120.1 76.2,-21.6 7.8,116.5 13.4,233.4 17.8,350.4 17.7,481.7 8.8,966.9 0,1450.7"
         style="fill:#c56e90;fill-opacity:1;fill-rule:nonzero;stroke:none"
         id="path156" />
      <path
         d="m 15186.3,2916 c 89.1,2.2 176.8,6.1 258.8,6.2 174.1,0.3 565.8,-62.6 707.6,62.7 93.9,83 76.7,251.5 77,361.1 0.8,275.4 13.4,557.1 -21.1,830.7 -8.8,69.8 -51.8,69.2 -60.3,-0.2 -22.5,-185.9 -17.8,-374 -17.5,-561 0.1,-82.1 13.5,-188.8 0.6,-269.9 -24.6,-153.9 -92.6,-169.8 -242.7,-178.6 -194,-11.3 -388.2,-17 -582.4,-19.7 -34.2,-0.4 -69.4,0.3 -105.1,1.3 v -163.2 c 0,-24.7 -5.4,-48.1 -14.9,-69.4"
         style="fill:#d27a99;fill-opacity:1;fill-rule:nonzero;stroke:none"
         id="path158" />
      <path
         d="m 14342.1,3783.5 h 562.7 v -546.8 h -562.7 z m 0,5177.5 h 562.7 V 4069.1 h -562.7 z m 362.6,386.6 c 146.3,-4.8 371.9,33.6 441.2,-131.6 72.1,-171.9 13.1,-447.9 9.5,-628.6 -12.2,-633.6 17.7,-1268.3 -16,-1901.6 -3.8,-70.2 -60.2,-71.7 -60,-0.2 1.1,493.4 15.3,986.3 10.5,1479.9 -2.1,210.7 2.8,421.2 6.4,631.9 2.1,121.5 47.2,327.9 -90.1,402 -68.4,36.9 -222.7,22.7 -301.1,31.9 -37.7,4.5 -36.6,117.5 -0.4,116.3 z M 15186.3,2916 c 9.5,21.3 14.9,44.7 14.9,69.4 v 163.2 3978.4 301.8 334 603.4 846.1 c 0,94.8 -76.8,171.7 -171.6,171.7 h -983.9 V 2813.8 h 983.9 c 70,0 130,42.1 156.7,102.2"
         style="fill:#8bbdca;fill-opacity:1;fill-rule:nonzero;stroke:none"
         id="path160" />
      <path
         d="m 10803.2,7684.4 h 503.9 c -36.2,91.1 -181.4,456.2 -252,633.7 -70.5,-177.5 -215.7,-542.6 -251.9,-633.7"
         style="fill:#a2cdd5;fill-opacity:1;fill-rule:nonzero;stroke:none"
         id="path162" />
      <path
         d="m 14045.7,9384 h -92.2 V 2813.8 h 92.2 V 9384"
         style="fill:#a2cdd5;fill-opacity:1;fill-rule:nonzero;stroke:none"
         id="path164" />
      <path
         d="m 13700.7,2968.6 c -141.8,-125.2 -533.5,-62.4 -707.6,-62.6 -257.1,-0.4 -569.1,-38.3 -809.3,58.4 -33.8,13.6 -26.5,123.6 6.4,134.7 201.2,67.3 451,29 664.1,32 194.2,2.7 388.4,8.4 582.3,19.7 150.2,8.7 218.2,24.6 242.8,178.6 12.9,81 -0.5,187.7 -0.6,269.8 -0.4,187 -5,375.1 17.5,561 8.5,69.5 51.5,70.1 60.3,0.3 34.5,-273.7 21.9,-555.3 21.1,-830.7 -0.3,-109.7 16.9,-278.2 -77,-361.2 z m -3065.4,3130.3 h 2691.8 v -343.7 h -2691.8 z m 103.9,1597.3 c 31.1,78.1 230.2,579 282.6,710.7 -0.1,0.8 -0.5,1.5 -0.5,2.3 0,0.1 0.1,0.2 0.1,0.3 0,3 0.9,5.8 1.7,8.6 0.4,1.2 0.3,2.5 0.8,3.7 0.7,1.6 2,2.8 2.9,4.3 1.3,1.9 2.3,4.1 4,5.7 0.7,0.7 1.7,1.1 2.4,1.7 2.5,2 5,4 8,5.2 0.1,0 0.1,0.1 0.2,0.1 1.9,0.8 3.8,0.7 5.7,1.1 2,0.4 3.9,1.2 6.1,1.2 80.2,0 475.6,0 877.6,0 -28.7,17.9 -47.9,49.5 -47.9,85.8 0,56 45.3,101.3 101.3,101.3 55.9,0 101.3,-45.3 101.3,-101.3 0,-36.3 -19.3,-67.9 -48,-85.8 376.9,0 735.4,0 818.6,0 v 0 c 0.1,0 0.2,-0.1 0.3,-0.1 0.6,0 1.1,-0.1 1.6,-0.2 4.6,0.3 9.2,-0.2 13.7,-2 13.2,-5.2 20.5,-18.3 19.6,-31.8 52.3,-131.4 251.6,-632.6 282.6,-710.8 h 0.1 c 1.5,-3.8 2.1,-7.8 2.1,-11.8 h 31.9 l -32.7,-130.7 c -37.8,-151.5 -165.7,-250.2 -293.1,-250.2 h -52.2 c -127.4,0 -255.3,98.7 -293.1,250.2 l -32.7,130.7 h 35.7 c 0,4 0.6,8 2.2,11.8 29.1,73.1 205.3,516.5 270.8,681.1 -132.3,0 -461.6,0 -801.5,0 -3.5,-330.3 -7,-622.1 -10.5,-920.9 h 59.8 v -735.1 c 234.8,-7.2 457.9,-54.4 527.8,-123.9 24.3,-24.1 7.2,-65.4 -26.9,-65.4 h -1232.7 c -34.1,0 -51.1,41.3 -26.9,65.4 75.2,74.7 327.4,123.7 580.9,124.9 v 734.1 h 54.2 c 3.5,298.9 7,590.6 10.5,920.9 -355.2,0 -708.5,0 -847.3,0 65.4,-164.6 241.7,-608 270.8,-681.1 v 0 c 1.5,-3.9 2.1,-7.8 2.1,-11.8 h 31.9 l -32.6,-130.7 c -37.9,-151.5 -165.8,-250.2 -293.2,-250.2 h -52.1 c -127.4,0 -255.3,98.7 -293.2,250.2 l -32.6,130.7 h 35.7 c 0,4 0.6,8 2.1,11.8 z m 197.2,1569.6 c 40.8,53.5 140,27.9 200.3,25.5 68,-2.7 145.7,5.7 210.3,-18.7 24.7,-9.3 23.6,-104.5 0.5,-115.3 -62.2,-29.3 -143.3,-20 -210.1,-21.8 -60.9,-1.7 -159.6,-25.3 -200.6,28.4 -16.4,21.4 -16.8,80.4 -0.4,101.9 z m 586.8,-4.7 c 320.5,98.5 750.5,36.1 1086.4,34.9 355.7,-1.2 736.1,28.3 1086.6,-35.6 25.3,-4.6 25.6,-86.6 0.4,-91.3 -349.7,-66.3 -731.1,-39.7 -1086.3,-43.2 -337.3,-3.4 -764,-69.4 -1086.6,27.2 -27.6,8.3 -28.1,99.5 -0.5,108 z m 2385,122.9 H 10621.4 V 3124.1 c 0,-113.1 -30.6,-218.9 -83.3,-310.3 h 2161.7 1208.4 V 9384"
         style="fill:#a2cdd5;fill-opacity:1;fill-rule:nonzero;stroke:none"
         id="path166" />
      <path
         d="m 13110,7684.4 c -36.2,91.1 -181.4,456.2 -252,633.7 -70.6,-177.5 -215.7,-542.6 -252,-633.7 h 504"
         style="fill:#a2cdd5;fill-opacity:1;fill-rule:nonzero;stroke:none"
         id="path168" />
      <path
         d="m 14342.1,4069.1 h 562.7 V 8961 h -562.7 V 4069.1"
         style="fill:#a2cdd5;fill-opacity:1;fill-rule:nonzero;stroke:none"
         id="path170" />
      <path
         d="m 14904.8,3783.5 h -562.7 v -546.8 h 562.7 v 546.8"
         style="fill:#a2cdd5;fill-opacity:1;fill-rule:nonzero;stroke:none"
         id="path172" />
      <path
         d="m 13953.5,9384 h -45.3 V 2813.8 h 45.3 V 9384"
         style="fill:#8bbdca;fill-opacity:1;fill-rule:nonzero;stroke:none"
         id="path174" />
      <path
         d="m 11937.1,7456.4 h 63.8 c 3.5,298.8 7,590.6 10.5,920.9 -21.2,0 -42.5,0 -63.8,0 -3.5,-330.3 -7,-622 -10.5,-920.9"
         style="fill:#b3d6df;fill-opacity:1;fill-rule:nonzero;stroke:none"
         id="path176" />
      <path
         d="m 11026.8,8426.1 c 1.3,1.9 2.3,4.1 4,5.7 -1.7,-1.6 -2.7,-3.8 -4,-5.7"
         style="fill:#b3d6df;fill-opacity:1;fill-rule:nonzero;stroke:none"
         id="path178" />
      <path
         d="m 11023.1,8418.1 c 0.4,1.2 0.3,2.5 0.8,3.7 -0.5,-1.2 -0.4,-2.5 -0.8,-3.7"
         style="fill:#b3d6df;fill-opacity:1;fill-rule:nonzero;stroke:none"
         id="path180" />
      <path
         d="m 11033.2,8433.5 c 2.5,2 4.9,3.9 8,5.2 -3,-1.2 -5.5,-3.2 -8,-5.2"
         style="fill:#b3d6df;fill-opacity:1;fill-rule:nonzero;stroke:none"
         id="path182" />
      <path
         d="m 11021.4,8409.5 c 0,-0.1 -0.1,-0.2 -0.1,-0.3 0,-0.8 0.4,-1.5 0.5,-2.3 0,0 0,0.1 0.1,0.1 -0.1,0.9 -0.5,1.7 -0.5,2.5"
         style="fill:#b3d6df;fill-opacity:1;fill-rule:nonzero;stroke:none"
         id="path184" />
      <path
         d="m 11055.1,8440.8 c 4.6,0.3 9.2,-0.2 13.7,-2 13.3,-5.2 20.6,-18.3 19.6,-31.8 3.4,-8.5 7.3,-18.3 11.9,-29.7 138.8,0 492.1,0 847.3,0 21.3,0 42.6,0 63.8,0 339.9,0 669.2,0 801.5,0 4.5,11.4 8.5,21.2 11.8,29.7 -0.9,13.5 6.4,26.6 19.6,31.8 4,1.6 8.1,2.3 12.1,2.2 -0.1,0 -0.2,0.1 -0.3,0.1 v 0 c -83.2,0 -441.7,0 -818.6,0 -15.5,-9.7 -33.7,-15.5 -53.3,-15.5 -19.7,0 -37.9,5.8 -53.4,15.5 -402,0 -797.4,0 -877.6,0 -2.2,0 -4.1,-0.8 -6.1,-1.2 2.7,0.5 5.4,1.1 8,0.9"
         style="fill:#b3d6df;fill-opacity:1;fill-rule:nonzero;stroke:none"
         id="path186" />
      <path
         d="m 10734,7553.7 c 37.9,-151.5 165.8,-250.2 293.2,-250.2 h 52.1 c 127.4,0 255.3,98.7 293.2,250.2 l 32.6,130.7 h -31.9 c 0,-12.6 -7.5,-24.6 -20,-29.6 -16.4,-6.5 -34.9,1.5 -41.4,17.9 -1.2,2.9 -3.1,7.6 -4.7,11.7 h -503.9 c -1.7,-4.1 -3.5,-8.8 -4.7,-11.7 v -0.1 c -6.5,-16.3 -25.1,-24.3 -41.4,-17.8 -12.5,5 -20,17 -20,29.6 h -35.7 l 32.6,-130.7"
         style="fill:#b3d6df;fill-opacity:1;fill-rule:nonzero;stroke:none"
         id="path188" />
      <path
         d="m 11027.4,8421 c 4.7,11.9 15.8,19.1 27.7,19.8 -2.6,0.2 -5.3,-0.4 -8,-0.9 -1.9,-0.4 -3.8,-0.3 -5.7,-1.1 -0.1,0 -0.1,-0.1 -0.2,-0.1 -3.1,-1.3 -5.5,-3.2 -8,-5.2 -0.7,-0.6 -1.7,-1 -2.4,-1.7 -1.7,-1.6 -2.7,-3.8 -4,-5.7 -0.9,-1.5 -2.2,-2.7 -2.9,-4.3 -0.5,-1.2 -0.4,-2.5 -0.8,-3.7 -0.8,-2.8 -1.7,-5.6 -1.7,-8.6 0,-0.8 0.4,-1.6 0.5,-2.5 1.9,4.8 4,10.2 5.5,14"
         style="fill:#b3d6df;fill-opacity:1;fill-rule:nonzero;stroke:none"
         id="path190" />
      <path
         d="m 11086.7,8397.4 c -6.7,-16.7 -17.9,-44.9 -31.6,-79.3 70.6,-177.5 215.8,-542.6 252,-633.7 1.6,-4.1 3.5,-8.8 4.7,-11.7 6.5,-16.4 25,-24.4 41.4,-17.9 12.5,5 20,17 20,29.6 0,4 -0.6,7.9 -2.1,11.8 v 0 c -29.1,73.1 -205.4,516.5 -270.8,681.1 -4.6,11.4 -8.5,21.2 -11.9,29.7 -0.2,-3.2 -0.5,-6.4 -1.7,-9.6"
         style="fill:#b3d6df;fill-opacity:1;fill-rule:nonzero;stroke:none"
         id="path192" />
      <path
         d="m 10757.1,7654.8 c 16.3,-6.5 34.9,1.5 41.4,17.8 v 0.1 c 1.2,2.9 3,7.6 4.7,11.7 36.2,91.1 181.4,456.2 251.9,633.7 13.7,34.4 24.9,62.6 31.6,79.3 1.2,3.2 1.5,6.4 1.7,9.6 1,13.5 -6.3,26.6 -19.6,31.8 -4.5,1.8 -9.1,2.3 -13.7,2 -11.9,-0.7 -23,-7.9 -27.7,-19.8 -1.5,-3.8 -3.6,-9.2 -5.5,-14 -0.1,0 -0.1,-0.1 -0.1,-0.1 -52.4,-131.7 -251.5,-632.6 -282.6,-710.7 -1.5,-3.8 -2.1,-7.8 -2.1,-11.8 0,-12.6 7.5,-24.6 20,-29.6"
         style="fill:#b3d6df;fill-opacity:1;fill-rule:nonzero;stroke:none"
         id="path194" />
      <path
         d="m 13156.1,7654.8 c -16.4,-6.5 -34.9,1.5 -41.4,17.9 -1.2,2.9 -3.1,7.6 -4.7,11.7 h -504 c -1.6,-4.1 -3.5,-8.8 -4.6,-11.7 v -0.1 c -6.6,-16.3 -25.1,-24.3 -41.5,-17.8 -12.5,5 -20,17 -20,29.6 h -35.7 l 32.7,-130.7 c 37.8,-151.5 165.7,-250.2 293.1,-250.2 h 52.2 c 127.4,0 255.3,98.7 293.1,250.2 l 32.7,130.7 h -31.9 c 0,-12.6 -7.5,-24.6 -20,-29.6"
         style="fill:#b3d6df;fill-opacity:1;fill-rule:nonzero;stroke:none"
         id="path196" />
      <path
         d="m 12858,8318.1 c 70.6,-177.5 215.8,-542.6 252,-633.7 1.6,-4.1 3.5,-8.8 4.7,-11.7 6.5,-16.4 25,-24.4 41.4,-17.9 12.5,5 20,17 20,29.6 0,4 -0.6,8 -2.1,11.8 h -0.1 c -31,78.2 -230.3,579.4 -282.6,710.8 -0.2,-3.2 -0.5,-6.4 -1.7,-9.6 -6.7,-16.7 -17.9,-44.9 -31.6,-79.3"
         style="fill:#b3d6df;fill-opacity:1;fill-rule:nonzero;stroke:none"
         id="path198" />
      <path
         d="m 12824.7,8407 c 1.9,4.8 4.1,10.2 5.6,14 4.7,11.9 15.8,19.1 27.7,19.8 -0.5,0.1 -1,0.2 -1.6,0.2 -4,0.1 -8.1,-0.6 -12.1,-2.2 -13.2,-5.2 -20.5,-18.3 -19.6,-31.8"
         style="fill:#b3d6df;fill-opacity:1;fill-rule:nonzero;stroke:none"
         id="path200" />
      <path
         d="m 12830.3,8421 c -1.5,-3.8 -3.7,-9.2 -5.6,-14 -3.3,-8.5 -7.3,-18.3 -11.8,-29.7 -65.5,-164.6 -241.7,-608 -270.8,-681.1 -1.6,-3.8 -2.2,-7.8 -2.2,-11.8 0,-12.6 7.5,-24.6 20,-29.6 16.4,-6.5 34.9,1.5 41.5,17.8 v 0.1 c 1.1,2.9 3,7.6 4.6,11.7 36.3,91.1 181.4,456.2 252,633.7 13.7,34.4 24.9,62.6 31.6,79.3 1.2,3.2 1.5,6.4 1.7,9.6 0.9,13.5 -6.4,26.6 -19.6,31.8 -4.5,1.8 -9.1,2.3 -13.7,2 -11.9,-0.7 -23,-7.9 -27.7,-19.8"
         style="fill:#b3d6df;fill-opacity:1;fill-rule:nonzero;stroke:none"
         id="path202" />
      <path
         d="m 11882.9,6667.6 v 54.7 c -253.5,-1.2 -505.7,-50.2 -580.9,-124.9 -24.2,-24.1 -7.2,-65.4 26.9,-65.4 h 1232.7 c 34.1,0 51.2,41.3 26.9,65.4 -69.9,69.5 -293,116.7 -527.8,123.9 v -53.7 h -177.8"
         style="fill:#b3d6df;fill-opacity:1;fill-rule:nonzero;stroke:none"
         id="path204" />
      <path
         d="m 11882.9,7456.4 v -788.8 h 177.8 v 788.8 h -59.8 -63.8 -54.2"
         style="fill:#b3d6df;fill-opacity:1;fill-rule:nonzero;stroke:none"
         id="path206" />
      <path
         d="m 11984.2,8425.6 c 19.6,0 37.8,5.8 53.3,15.5 28.7,17.9 48,49.5 48,85.8 0,56 -45.4,101.3 -101.3,101.3 -56,0 -101.3,-45.3 -101.3,-101.3 0,-36.3 19.2,-67.9 47.9,-85.8 15.5,-9.7 33.7,-15.5 53.4,-15.5"
         style="fill:#b3d6df;fill-opacity:1;fill-rule:nonzero;stroke:none"
         id="path208" />
      <path
         d="m 13327.1,5755.2 v 343.7 h -2691.8 v -343.7 h 2691.8"
         style="fill:#b3d6df;fill-opacity:1;fill-rule:nonzero;stroke:none"
         id="path210" />
      <path
         d="m 11523.7,9153.1 c 322.6,-96.6 749.3,-30.6 1086.6,-27.2 355.2,3.5 736.6,-23.1 1086.3,43.2 25.2,4.7 24.9,86.7 -0.4,91.3 -350.5,63.9 -730.9,34.4 -1086.6,35.6 -335.9,1.2 -765.9,63.6 -1086.4,-34.9 -27.6,-8.5 -27.1,-99.7 0.5,-108"
         style="fill:#b3d6df;fill-opacity:1;fill-rule:nonzero;stroke:none"
         id="path212" />
      <path
         d="m 11137.4,9135.5 c 66.8,1.8 147.9,-7.5 210.1,21.8 23.1,10.8 24.2,106 -0.5,115.3 -64.6,24.4 -142.3,16 -210.3,18.7 -60.3,2.4 -159.5,28 -200.3,-25.5 -16.4,-21.5 -16,-80.5 0.4,-101.9 41,-53.7 139.7,-30.1 200.6,-28.4"
         style="fill:#b3d6df;fill-opacity:1;fill-rule:nonzero;stroke:none"
         id="path214" />
      <path
         d="m 14705.1,9231.3 c 78.4,-9.2 232.7,5 301.1,-31.9 137.3,-74.1 92.2,-280.5 90.1,-402 -3.6,-210.7 -8.5,-421.2 -6.4,-631.9 4.8,-493.6 -9.4,-986.5 -10.5,-1479.9 -0.2,-71.5 56.2,-70 60,0.2 33.7,633.3 3.8,1268 16,1901.6 3.6,180.7 62.6,456.7 -9.5,628.6 -69.3,165.2 -294.9,126.8 -441.2,131.6 -36.2,1.2 -37.3,-111.8 0.4,-116.3"
         style="fill:#9ccad1;fill-opacity:1;fill-rule:nonzero;stroke:none"
         id="path216" />
      <path
         d="m 13756.6,4160.5 c -8.8,69.8 -51.8,69.2 -60.3,-0.3 -22.5,-185.9 -17.9,-374 -17.5,-561 0.1,-82.1 13.5,-188.8 0.6,-269.8 -24.6,-154 -92.6,-169.9 -242.8,-178.6 -193.9,-11.3 -388.1,-17 -582.3,-19.7 -213.1,-3 -462.9,35.3 -664.1,-32 -32.9,-11.1 -40.2,-121.1 -6.4,-134.7 240.2,-96.7 552.2,-58.8 809.3,-58.4 174.1,0.2 565.8,-62.6 707.6,62.6 93.9,83 76.7,251.5 77,361.2 0.8,275.4 13.4,557 -21.1,830.7"
         style="fill:#b3d6df;fill-opacity:1;fill-rule:nonzero;stroke:none"
         id="path218" />
      <path
         d="m 10621.4,9384 v 4789.3 h -246.1 V 3288.2 c 0,-344.1 -279,-623 -623.08,-623 H 3487.37 c -297.01,0 -545.04,208 -607.47,486.2 l -0.03,-1.2 c 0,-344.1 292.52,-649.1 853.69,-649.1 H 9998.4 c 231,0 432.1,126 539.7,312.7 52.7,91.4 83.3,197.2 83.3,310.3 V 9384"
         style="fill:#223344;fill-opacity:1;fill-rule:nonzero;stroke:none"
         id="path220" />
      <path
         d="m 4257.41,15032.7 c 522.76,-32.2 1056.4,-35.5 1575.47,-106 7.4,-1 7.45,-27.7 0.12,-28.9 -440.49,-72.1 -904.55,-10.1 -1348.35,-5.2 -456.2,5 -1004.78,46.4 -1281.52,-380.2 -24.89,-38.3 -31.29,65.7 -29.68,75.6 81.76,499.7 697.41,468.6 1083.96,444.7 z M 3162.27,10132 c 6.23,-560.9 12.17,-1121.8 12.97,-1682.7 0.66,-453.3 56.52,-954.2 -38.27,-1400.3 -7.3,-34.4 -35.49,-34.9 -42.85,-0.2 -94.78,446.4 -42.45,946.3 -46.08,1400 -4.39,549.5 -5.64,1099 -8.34,1648.5 -4.07,832.9 -44.33,1671.7 -19.9,2504 2.46,83.2 86.82,130.6 96.15,24.7 72.55,-823.7 37.16,-1667.8 46.32,-2494 z m 27.74,-5988.2 c 1,-312.6 -104.34,-885.1 218.95,-1065.2 86.14,-48 68.89,-318.4 -40.73,-269.1 -334.32,150.3 -345.8,535.8 -343.87,854.5 3.16,526.7 -4.88,1055.1 17.53,1581.3 6.8,159.4 130.97,159.5 137.27,0.6 14.57,-367.1 9.68,-734.8 10.85,-1102.1 z m 3429.78,-69.6 c 301.56,0 546,-244.4 546,-546 0,-301.5 -244.44,-546 -546,-546 -301.55,0 -546.01,244.5 -546.01,546 0,301.6 244.46,546 546.01,546 z M 2879.9,3151.4 c 62.43,-278.2 310.46,-486.2 607.47,-486.2 h 6264.85 c 344.08,0 623.08,278.9 623.08,623 v 10885.1 h -360.8 v -1082 -1097 -1181.8 -808.2 -5071.6 c 0,-331.4 -268.64,-600.1 -600.05,-600.1 h -5543.4 -45.91 c -18.48,0 -36.66,1.2 -54.7,2.8 -5.21,0.5 -10.35,1.1 -15.5,1.7 -13.95,1.6 -27.74,3.7 -41.39,6.3 -4.33,0.8 -8.74,1.5 -13.04,2.4 -16.71,3.5 -33.15,7.7 -49.31,12.6 -5.23,1.6 -10.33,3.5 -15.51,5.2 -11.24,3.8 -22.33,7.8 -33.27,12.2 -6.29,2.5 -12.56,5.1 -18.75,7.8 -10.9,4.8 -21.57,10 -32.13,15.5 -9.58,4.9 -18.91,10.1 -28.18,15.5 -7.9,4.7 -15.79,9.3 -23.45,14.3 -7.83,5 -15.47,10.3 -23.04,15.8 -5.25,3.7 -10.39,7.6 -15.5,11.6 -12.31,9.4 -24.17,19.2 -35.7,29.5 -2.85,2.5 -5.65,5.1 -8.43,7.7 -8.85,8.2 -17.51,16.5 -25.84,25.3 -2.88,3 -5.58,6.1 -8.4,9.2 -1.92,2.1 -3.83,4.2 -5.72,6.3 -12.07,13.6 -23.48,27.6 -34.3,42.3 -3.5,4.7 -7.18,9.2 -10.53,14.1 -5.19,7.4 -9.99,15.2 -14.84,22.9 -4.53,7.1 -8.99,14.4 -13.22,21.7 -4.17,7.3 -8.2,14.6 -12.06,22.1 -4.68,9 -9.03,18.3 -13.27,27.5 -2.87,6.4 -5.93,12.6 -8.57,19 -6.44,15.6 -12.27,31.4 -17.38,47.5 -1.47,4.6 -2.56,9.4 -3.92,14 -3.67,12.7 -7.04,25.5 -9.88,38.5 -1.34,6 -2.48,12.2 -3.63,18.3 -2.33,12.5 -4.23,25.1 -5.78,37.9 -0.69,5.7 -1.49,11.3 -2.01,17.1 -1.68,18.3 -2.8,36.7 -2.8,55.5 v 743.9 1325.6 4470.6 1128.5 1604.6 c 0,331.4 268.64,600 600.05,600 H 5700.63 7135 7543.19 c -0.15,5.9 -0.89,11.7 -0.89,17.6 V 15202 H 3487.37 c -238.23,0 -445.05,-133.8 -549.87,-330.2 -46.58,-87.4 -73.16,-186.9 -73.16,-292.8 V 13447.6 10599.3 7751 4902.8 3432.1 3288.2 c 0,-47 5.65,-92.7 15.56,-136.8"
         style="fill:#2d3d52;fill-opacity:1;fill-rule:nonzero;stroke:none"
         id="path222" />
      <path
         d="m 3489.3,4436.1 c -4.15,2.9 -8.35,5.6 -12.43,8.6 7.57,-5.5 15.21,-10.8 23.04,-15.8 -2.55,1.6 -4.99,3.4 -7.51,5.1 -1.04,0.7 -2.06,1.4 -3.1,2.1"
         style="fill:#a2cdd5;fill-opacity:1;fill-rule:nonzero;stroke:none"
         id="path224" />
      <path
         d="m 3450.46,4464.9 c -7.61,6.1 -15.05,12.4 -22.34,18.8 -0.81,0.7 -1.66,1.4 -2.45,2.1 11.53,-10.3 23.39,-20.1 35.7,-29.5 -0.76,0.5 -1.5,1.1 -2.25,1.7 -2.93,2.3 -5.79,4.6 -8.66,6.9"
         style="fill:#a2cdd5;fill-opacity:1;fill-rule:nonzero;stroke:none"
         id="path226" />
      <path
         d="m 3399.66,4510.7 c -2.73,2.7 -5.6,5.3 -8.26,8.1 8.33,-8.8 16.99,-17.1 25.84,-25.3 -0.72,0.6 -1.37,1.3 -2.07,2 -5.28,5 -10.42,10 -15.51,15.2"
         style="fill:#a2cdd5;fill-opacity:1;fill-rule:nonzero;stroke:none"
         id="path228" />
      <path
         d="m 3602.42,4375.8 c -6.29,2.5 -12.58,5.1 -18.75,7.8 6.19,-2.7 12.46,-5.3 18.75,-7.8"
         style="fill:#a2cdd5;fill-opacity:1;fill-rule:nonzero;stroke:none"
         id="path230" />
      <path
         d="m 3651.2,4358.4 c -5.23,1.6 -10.34,3.5 -15.51,5.2 5.18,-1.7 10.28,-3.6 15.51,-5.2"
         style="fill:#a2cdd5;fill-opacity:1;fill-rule:nonzero;stroke:none"
         id="path232" />
      <path
         d="m 3713.55,4343.4 c -4.33,0.8 -8.74,1.5 -13.04,2.4 4.3,-0.9 8.71,-1.6 13.04,-2.4"
         style="fill:#a2cdd5;fill-opacity:1;fill-rule:nonzero;stroke:none"
         id="path234" />
      <path
         d="m 3353.91,4562.2 c -0.83,1 -1.62,2.1 -2.45,3.2 -2.88,3.7 -5.69,7.4 -8.48,11.2 10.82,-14.7 22.23,-28.7 34.3,-42.3 -1.15,1.3 -2.19,2.7 -3.32,4 -6.87,7.8 -13.61,15.7 -20.05,23.9"
         style="fill:#a2cdd5;fill-opacity:1;fill-rule:nonzero;stroke:none"
         id="path236" />
      <path
         d="m 3304.39,4635.3 c -4.17,7.3 -8.18,14.7 -12.06,22.1 3.86,-7.5 7.89,-14.8 12.06,-22.1"
         style="fill:#a2cdd5;fill-opacity:1;fill-rule:nonzero;stroke:none"
         id="path238" />
      <path
         d="m 3253.11,4751.4 c -1.47,4.6 -2.56,9.4 -3.92,14 1.36,-4.6 2.45,-9.4 3.92,-14"
         style="fill:#a2cdd5;fill-opacity:1;fill-rule:nonzero;stroke:none"
         id="path240" />
      <path
         d="m 3332.45,4590.7 c -5.2,7.4 -9.99,15.2 -14.84,22.9 4.85,-7.7 9.65,-15.5 14.84,-22.9"
         style="fill:#a2cdd5;fill-opacity:1;fill-rule:nonzero;stroke:none"
         id="path242" />
      <path
         d="m 3239.31,4803.9 c -1.34,6 -2.48,12.2 -3.63,18.3 1.15,-6.1 2.29,-12.3 3.63,-18.3"
         style="fill:#a2cdd5;fill-opacity:1;fill-rule:nonzero;stroke:none"
         id="path244" />
      <path
         d="m 3229.9,4860.1 c -0.68,5.7 -1.48,11.3 -2.01,17.1 0.52,-5.8 1.32,-11.4 2.01,-17.1"
         style="fill:#a2cdd5;fill-opacity:1;fill-rule:nonzero;stroke:none"
         id="path246" />
      <path
         d="m 3770.44,4335.4 c -5.2,0.5 -10.35,1.1 -15.5,1.7 5.15,-0.6 10.29,-1.2 15.5,-1.7"
         style="fill:#a2cdd5;fill-opacity:1;fill-rule:nonzero;stroke:none"
         id="path248" />
      <path
         d="m 3279.06,4684.9 c -2.88,6.4 -5.92,12.6 -8.57,19 2.64,-6.4 5.7,-12.6 8.57,-19"
         style="fill:#a2cdd5;fill-opacity:1;fill-rule:nonzero;stroke:none"
         id="path250" />
      <path
         d="m 3551.54,4399.1 c -9.56,4.9 -18.92,10.1 -28.18,15.5 9.27,-5.4 18.6,-10.6 28.18,-15.5"
         style="fill:#a2cdd5;fill-opacity:1;fill-rule:nonzero;stroke:none"
         id="path252" />
      <path
         d="m 4044.5,14659.7 c -331.39,0 -600.05,-268.7 -600.05,-600.1 v -1269.2 c 710.22,609.7 1405.78,1236.5 2096.19,1869.3 H 4044.5"
         style="fill:#a2cdd5;fill-opacity:1;fill-rule:nonzero;stroke:none"
         id="path254" />
      <path
         d="M 3444.45,5869.6 V 4803.2 c 372.46,326.1 1100.4,984.8 1940.75,1750.9 -214.21,155.1 -428.23,329.7 -619.28,519.7 C 4187.15,6542.2 3714.06,6111.1 3444.45,5869.6"
         style="fill:#a2cdd5;fill-opacity:1;fill-rule:nonzero;stroke:none"
         id="path256" />
      <path
         d="m 8931.17,13721.5 c -124.68,-126.6 -293.82,-220.8 -472.11,-239.4 -28.43,-3 -84.28,-2.2 -100.78,28.3 -20.19,37.1 30.28,94.7 48.77,123 29.01,44.5 47.56,93.6 59.49,145 19.2,82.7 21.32,171.4 22.48,256.9 0.65,46 1.28,92 1.92,138 h -298.43 c -302.41,0 -555.85,206.7 -628.57,486.4 H 6955.17 C 5759.6,13685.8 4487.26,12601.9 3444.45,11669.7 V 7192.9 c 214.74,187.4 456.29,400.3 717.12,631.8 -137.94,235.9 -222.3,485.7 -222.3,744.4 v 3115.4 l 2609.59,960.9 2105.39,-775.2 c 700.21,633.5 1216.72,1099.4 1360.25,1221.1 v 1082 h -849.53 c -30.79,-165.6 -108.53,-324.7 -233.8,-451.8"
         style="fill:#a2cdd5;fill-opacity:1;fill-rule:nonzero;stroke:none"
         id="path258" />
      <path
         d="m 9300.32,10147.9 c 414.42,383 683.44,633.2 714.18,664.6 v 1181.8 c -198.69,-195.4 -441.16,-429.6 -714.18,-690.5 v -1155.9"
         style="fill:#a2cdd5;fill-opacity:1;fill-rule:nonzero;stroke:none"
         id="path260" />
      <path
         d="m 9300.32,8398.8 c 0,-1441.2 -2609.59,-2609.6 -2609.59,-2609.6 0,0 -354.94,159 -802.91,431.8 C 4880.86,5289.3 4050.89,4514.8 3871.05,4332.6 h 5543.4 c 331.41,0 600.05,268.7 600.05,600.1 v 5071.6 c -174.78,-156.7 -420.79,-379.7 -714.18,-647 v -958.5"
         style="fill:#a2cdd5;fill-opacity:1;fill-rule:nonzero;stroke:none"
         id="path262" />
      <path
         d="m 3444.45,12790.4 v -1120.7 c 1042.81,932.2 2315.15,2016.1 3510.72,2990 H 5540.64 C 4850.23,14026.9 4154.67,13400.1 3444.45,12790.4"
         style="fill:#b0d6db;fill-opacity:1;fill-rule:nonzero;stroke:none"
         id="path264" />
      <path
         d="m 9158.43,11684.5 141.89,-170.3 v -210.4 c 273.02,260.9 515.49,495.1 714.18,690.5 v 1097 c -143.53,-121.7 -660.04,-587.6 -1360.25,-1221.1 l 504.18,-185.7"
         style="fill:#b0d6db;fill-opacity:1;fill-rule:nonzero;stroke:none"
         id="path266" />
      <path
         d="m 4765.92,7073.8 c -104.65,104 -202.32,212.7 -289.29,325.3 -121.26,135.6 -228.66,277.8 -315.06,425.6 -260.83,-231.5 -502.38,-444.4 -717.12,-631.8 V 5869.6 c 269.61,241.5 742.7,672.6 1321.47,1204.2"
         style="fill:#b0d6db;fill-opacity:1;fill-rule:nonzero;stroke:none"
         id="path268" />
      <path
         d="m 5887.82,6221 c -159.69,97.3 -331.1,208.9 -502.62,333.1 C 4544.85,5788 3816.91,5129.3 3444.45,4803.2 v -16.8 c 0,-160.5 63.39,-305.9 166,-413.5 -41.81,16 -81.34,36.6 -118.05,61.1 2.52,-1.7 4.96,-3.5 7.51,-5.1 7.66,-5 15.55,-9.6 23.45,-14.3 9.26,-5.4 18.62,-10.6 28.18,-15.5 10.56,-5.5 21.23,-10.7 32.13,-15.5 6.17,-2.7 12.46,-5.3 18.75,-7.8 10.94,-4.4 22.03,-8.4 33.27,-12.2 5.17,-1.7 10.28,-3.6 15.51,-5.2 16.16,-4.9 32.6,-9.1 49.31,-12.6 4.3,-0.9 8.71,-1.6 13.04,-2.4 13.65,-2.6 27.44,-4.7 41.39,-6.3 5.15,-0.6 10.3,-1.2 15.5,-1.7 18.04,-1.6 36.22,-2.8 54.7,-2.8 h 45.91 c 179.84,182.2 1009.81,956.7 2016.77,1888.4"
         style="fill:#b0d6db;fill-opacity:1;fill-rule:nonzero;stroke:none"
         id="path270" />
      <path
         d="m 3415.17,4495.5 c -5.3,4.9 -10.41,10 -15.51,15.2 5.09,-5.2 10.23,-10.2 15.51,-15.2"
         style="fill:#b0d6db;fill-opacity:1;fill-rule:nonzero;stroke:none"
         id="path272" />
      <path
         d="m 3459.12,4458 c 0.75,-0.6 1.49,-1.2 2.25,-1.7 5.11,-4 10.25,-7.9 15.5,-11.6 4.08,-3 8.28,-5.7 12.43,-8.6 -10.31,7 -20.34,14.4 -30.18,21.9"
         style="fill:#b0d6db;fill-opacity:1;fill-rule:nonzero;stroke:none"
         id="path274" />
      <path
         d="m 3373.96,4538.3 c 1.13,-1.3 2.17,-2.7 3.32,-4 1.89,-2.1 3.8,-4.2 5.72,-6.3 -3.09,3.4 -6.04,6.8 -9.04,10.3"
         style="fill:#b0d6db;fill-opacity:1;fill-rule:nonzero;stroke:none"
         id="path276" />
      <path
         d="m 3351.46,4565.4 c 0.83,-1.1 1.62,-2.2 2.45,-3.2 -0.84,1 -1.62,2.1 -2.45,3.2"
         style="fill:#b0d6db;fill-opacity:1;fill-rule:nonzero;stroke:none"
         id="path278" />
      <path
         d="m 3450.46,4464.9 c -7.62,6.1 -15.03,12.4 -22.34,18.8 7.29,-6.4 14.73,-12.7 22.34,-18.8"
         style="fill:#b0d6db;fill-opacity:1;fill-rule:nonzero;stroke:none"
         id="path280" />
      <path
         d="m 9300.32,9357.3 c 293.39,267.3 539.4,490.3 714.18,647 v 808.2 c -30.74,-31.4 -299.76,-281.6 -714.18,-664.6 v -790.6"
         style="fill:#b0d6db;fill-opacity:1;fill-rule:nonzero;stroke:none"
         id="path282" />
      <path
         d="m 3450.46,4464.9 c 2.87,-2.3 5.73,-4.6 8.66,-6.9 9.84,-7.5 19.87,-14.9 30.18,-21.9 1.04,-0.7 2.06,-1.4 3.1,-2.1 36.71,-24.5 76.24,-45.1 118.05,-61.1 -102.61,107.6 -166,253 -166,413.5 v 16.8 1066.4 1323.3 4476.8 1120.7 1269.2 c 0,331.4 268.66,600.1 600.05,600.1 h 1496.14 1414.53 608.77 c -12.21,46.9 -19.4,95.8 -20.75,146.2 H 7135 5700.63 3825.14 c -331.41,0 -600.05,-268.6 -600.05,-600 V 12601.3 11472.8 7002.2 5676.6 4932.7 c 0,-18.8 1.12,-37.2 2.8,-55.5 0.53,-5.8 1.33,-11.4 2.01,-17.1 1.55,-12.8 3.45,-25.4 5.78,-37.9 1.15,-6.1 2.29,-12.3 3.63,-18.3 2.84,-13 6.21,-25.8 9.88,-38.5 1.36,-4.6 2.45,-9.4 3.92,-14 5.11,-16.1 10.94,-31.9 17.38,-47.5 2.65,-6.4 5.69,-12.6 8.57,-19 4.24,-9.2 8.59,-18.5 13.27,-27.5 3.88,-7.4 7.89,-14.8 12.06,-22.1 4.23,-7.3 8.69,-14.6 13.22,-21.7 4.85,-7.7 9.64,-15.5 14.84,-22.9 3.35,-4.9 7.03,-9.4 10.53,-14.1 2.79,-3.8 5.6,-7.5 8.48,-11.2 0.83,-1.1 1.61,-2.2 2.45,-3.2 6.44,-8.2 13.18,-16.1 20.05,-23.9 3,-3.5 5.95,-6.9 9.04,-10.3 2.82,-3.1 5.52,-6.2 8.4,-9.2 2.66,-2.8 5.53,-5.4 8.26,-8.1 5.1,-5.2 10.21,-10.3 15.51,-15.2 0.7,-0.7 1.35,-1.4 2.07,-2 2.78,-2.6 5.58,-5.2 8.43,-7.7 0.79,-0.7 1.64,-1.4 2.45,-2.1 7.31,-6.4 14.72,-12.7 22.34,-18.8"
         style="fill:#93c1d1;fill-opacity:1;fill-rule:nonzero;stroke:none"
         id="path284" />
      <path
         d="m 6619.79,2982.2 c 301.56,0 546,244.5 546,546 0,301.6 -244.44,546 -546,546 -301.55,0 -546.01,-244.4 -546.01,-546 0,-301.5 244.46,-546 546.01,-546"
         style="fill:#394962;fill-opacity:1;fill-rule:nonzero;stroke:none"
         id="path286" />
      <path
         d="m 3041.89,5245.3 c -22.41,-526.2 -14.37,-1054.6 -17.53,-1581.3 -1.93,-318.7 9.55,-704.2 343.87,-854.5 109.62,-49.3 126.87,221.1 40.73,269.1 -323.29,180.1 -217.95,752.6 -218.95,1065.2 -1.17,367.3 3.72,735 -10.85,1102.1 -6.3,158.9 -130.47,158.8 -137.27,-0.6"
         style="fill:#43526c;fill-opacity:1;fill-rule:nonzero;stroke:none"
         id="path288" />
      <path
         d="m 3115.95,12626 c -9.33,105.9 -93.69,58.5 -96.15,-24.7 -24.43,-832.3 15.83,-1671.1 19.9,-2504 2.7,-549.5 3.95,-1099 8.34,-1648.5 3.63,-453.7 -48.7,-953.6 46.08,-1400 7.36,-34.7 35.55,-34.2 42.85,0.2 94.79,446.1 38.93,947 38.27,1400.3 -0.8,560.9 -6.74,1121.8 -12.97,1682.7 -9.16,826.2 26.23,1670.3 -46.32,2494"
         style="fill:#43526c;fill-opacity:1;fill-rule:nonzero;stroke:none"
         id="path290" />
      <path
         d="m 3173.45,14588 c -1.61,-9.9 4.79,-113.9 29.68,-75.6 276.74,426.6 825.32,385.2 1281.52,380.2 443.8,-4.9 907.86,-66.9 1348.35,5.2 7.33,1.2 7.28,27.9 -0.12,28.9 -519.07,70.5 -1052.71,73.8 -1575.47,106 -386.55,23.9 -1002.2,55 -1083.96,-444.7"
         style="fill:#43526c;fill-opacity:1;fill-rule:nonzero;stroke:none"
         id="path292" />
      <path
         d="m 9158.43,8569.1 c 0,-1441.3 -2609.57,-2609.6 -2609.57,-2609.6 0,0 -1308.36,585.9 -2072.23,1439.6 86.97,-112.6 184.64,-221.3 289.29,-325.3 191.05,-190 405.07,-364.6 619.28,-519.7 171.52,-124.2 342.93,-235.8 502.62,-333.1 447.97,-272.8 802.91,-431.8 802.91,-431.8 0,0 2609.59,1168.4 2609.59,2609.6 v 958.5 790.6 1155.9 210.4 l -141.89,170.3 V 8569.1"
         style="fill:#f8993f;fill-opacity:1;fill-rule:nonzero;stroke:none"
         id="path294" />
      <path
         d="m 4049.77,11378.1 c 5.44,109.2 104.5,179.7 118.58,33.6 38.03,-394 68.13,-861.9 -6.53,-1251.8 -13.74,-71.9 -67.75,-76.1 -79.93,-0.4 -61.94,385.1 -51.59,829.3 -32.12,1218.6 z m 1603.72,858.1 c 225.16,86.3 468.31,206 708.18,237.9 63.83,8.4 56.01,-207.3 13.13,-234 -231.76,-144.7 -524.18,-227.4 -781.85,-318.5 -217.3,-76.9 -473.91,-218.7 -708.25,-181.4 -39.76,6.4 -27.46,100.5 -7.07,119.8 204.66,193.6 515.27,276.2 775.86,376.2 z M 8580.04,8613.6 c 0,-1074.7 -1946.07,-1946 -1946.07,-1946 0,0 -1370.66,613.8 -1811.24,1446.5 -134.62,200.9 -219.94,416.7 -219.94,641.4 v 2323.3 l 1946.07,716.6 1946.03,-716.6 85.15,-141.9 z M 6548.86,5959.5 c 0,0 2609.57,1168.3 2609.57,2609.6 v 3115.4 l -504.18,185.7 -2105.39,775.2 -2609.59,-960.9 V 8569.1 c 0,-258.7 84.36,-508.5 222.3,-744.4 86.4,-147.8 193.8,-290 315.06,-425.6 763.87,-853.7 2072.23,-1439.6 2072.23,-1439.6"
         style="fill:#f9ad4a;fill-opacity:1;fill-rule:nonzero;stroke:none"
         id="path296" />
      <path
         d="M 8494.89,11078.8 V 8755.5 c 0,-1074.7 -1946.03,-1946 -1946.03,-1946 0,0 -1217,545 -1726.13,1304.6 440.58,-832.7 1811.24,-1446.5 1811.24,-1446.5 0,0 1946.07,871.3 1946.07,1946 v 2323.3 l -85.15,141.9"
         style="fill:#f8993f;fill-opacity:1;fill-rule:nonzero;stroke:none"
         id="path298" />
      <path
         d="m 7786.74,8881.6 v -6.6 l 88.82,-1.6 c 62.53,0 125.38,4.7 188.65,14.2 v 3.9 c 0,78.9 -35.12,118.9 -105.32,120 -93.57,-3.6 -150.96,-46.9 -172.15,-129.9"
         style="fill:#fab750;fill-opacity:1;fill-rule:nonzero;stroke:none"
         id="path300" />
      <path
         d="m 6624.79,9993.4 c 14.96,-5.1 32.15,-7.7 51.52,-7.7 h 10.97 c 77.85,2.6 137.65,46.9 179.31,132.7 -4.38,70.2 -8.04,139.5 -10.96,207.8 -29.97,17.6 -69.82,26.4 -119.54,26.4 -46.82,0 -89.74,-13.6 -128.86,-40.6 -39.84,-34.3 -59.76,-93.6 -59.76,-177.7 0,-70.5 25.74,-117.5 77.32,-140.9"
         style="fill:#fab750;fill-opacity:1;fill-rule:nonzero;stroke:none"
         id="path302" />
      <path
         d="m 6254.09,10235.2 v 3.9 c 0,78.9 -35.08,119 -105.28,120 -93.6,-3.6 -150.96,-46.9 -172.18,-129.9 v -6.6 l 88.85,-1.6 c 62.5,0 125.37,4.7 188.61,14.2"
         style="fill:#fab750;fill-opacity:1;fill-rule:nonzero;stroke:none"
         id="path304" />
      <path
         d="m 5246.82,9214.4 c -8.41,-0.7 -26.78,-43.9 -55.11,-129.7 -28.33,-85.7 -50.19,-152.8 -65.53,-201.5 h 5.48 l 206.16,-7.6 v 4.3 c -51.88,223 -82.04,334.5 -90.48,334.5 h -0.52"
         style="fill:#fab750;fill-opacity:1;fill-rule:nonzero;stroke:none"
         id="path306" />
      <path
         d="m 7444.03,10329.6 c -44.63,20.4 -85.38,30.6 -122.29,30.6 -73.86,0 -123.77,-60.5 -149.72,-181.5 l -3.29,-76.7 c 0,-41.7 11.16,-74.1 33.48,-97.1 16.41,-12.8 36.9,-19.2 61.38,-19.2 h 13.74 c 62.48,0 121.73,36.2 177.66,108.6 -5.14,110.7 -7.7,189.2 -7.7,235.3 h -3.26"
         style="fill:#fab750;fill-opacity:1;fill-rule:nonzero;stroke:none"
         id="path308" />
      <path
         d="m 5796.24,8638.2 h 13.74 c 62.51,0 121.73,36.1 177.66,108.5 -5.11,110.7 -7.67,189.2 -7.67,235.2 h -3.29 c -44.63,20.5 -85.36,30.7 -122.3,30.7 -73.83,0 -123.75,-60.5 -149.69,-181.5 l -3.28,-76.7 c 0,-41.7 11.13,-74.1 33.44,-97.1 16.45,-12.8 36.91,-19.1 61.39,-19.1"
         style="fill:#fab750;fill-opacity:1;fill-rule:nonzero;stroke:none"
         id="path310" />
      <path
         d="M 6976.85,9073.5 6971.9,8574 c 0,-26.8 -16.98,-42.6 -50.98,-47.7 -32.89,5.8 -49.36,22.3 -49.36,49.3 1.47,343.6 5.29,515.5 11.5,515.5 10.98,16.4 25.8,24.6 44.43,24.6 23.76,0 40.22,-14.1 49.36,-42.2 z m 1177.27,-100.3 c 9.13,-27.1 13.71,-55.4 13.71,-85 v -41.1 c 0,-30 -20.29,-47.2 -60.85,-51.6 -82.29,-12.5 -159.41,-18.6 -231.42,-18.6 l -99.25,1.6 v -15.4 c 0,-33.9 9.33,-62.7 27.97,-86.1 29.6,-31.4 64.14,-47.1 103.63,-47.1 53.4,0 93.86,6.5 121.46,19.7 27.59,13.2 54.03,21.4 79.24,24.7 27.77,-1.8 41.68,-19.4 41.68,-52.6 -7.69,-31.5 -34.39,-55 -80.07,-70.5 -45.7,-15.5 -100.37,-23.2 -163.95,-23.2 -76.06,0 -138.75,31.7 -188.09,95.3 -30.35,46.8 -45.5,111.5 -45.5,194.1 10.96,182.8 104.53,279.7 280.76,290.7 102.69,0 169.6,-45.1 200.68,-134.9 z m -1299,268.6 v 7.8 c 0,30.3 19.73,51.8 59.22,64.6 l 16.44,1.7 c 36.2,0 60.88,-19.2 74.03,-57.6 l 1.64,-14.8 c 0,-31.8 -18.83,-54.5 -56.47,-68 l -13.15,-1.7 h -13.72 c -31.09,0 -53.21,18.3 -66.36,54.9 z M 5710.18,9061.4 c 42.77,35.5 90.47,53.2 143.11,53.2 40.93,0 86.83,-8.9 137.64,-26.8 v 5.5 c 4.02,138.1 9.11,207.2 15.34,207.2 12.43,16.5 26.87,24.7 43.32,24.7 h 5.51 c 30.33,-6.6 45.51,-21.8 45.51,-45.5 l 1.63,-4.4 c -5.12,-57.8 -8.77,-156.8 -10.97,-297.2 0,-200.7 11.88,-331.8 35.63,-393.1 v -5.6 c 0,-25.5 -13.15,-42.5 -39.48,-50.9 l -11.52,-1.7 c -32.16,0 -52.99,28.7 -62.48,86.1 -1.11,0 -2.74,7.5 -4.95,22.5 -27.04,-34.8 -53.18,-57.6 -78.42,-68.6 -38.73,-20.4 -78.24,-30.7 -118.44,-30.7 h -15.37 c -91.01,0 -152.06,43.5 -183.11,130.6 -9.17,29.5 -13.73,59.3 -13.73,89.3 0,125.8 36.91,227.6 110.78,305.4 z m 284.02,963.3 c 29.59,-31.5 64.13,-47.2 103.62,-47.2 53.37,0 93.84,6.6 121.47,19.7 27.57,13.2 54,21.4 79.22,24.7 27.79,-1.8 41.68,-19.4 41.68,-52.6 -7.68,-31.5 -34.38,-55 -80.08,-70.5 -45.68,-15.5 -100.33,-23.3 -163.95,-23.3 -76.02,0 -138.73,31.8 -188.05,95.4 -30.36,46.8 -45.53,111.5 -45.53,194.2 10.96,182.7 104.55,279.6 280.75,290.6 102.72,0 169.62,-45 200.7,-135 9.11,-27 13.69,-55.3 13.69,-84.9 v -41.2 c 0,-30 -20.29,-47.1 -60.84,-51.5 -82.27,-12.4 -159.4,-18.6 -231.4,-18.6 l -99.28,1.6 v -15.4 c 0,-33.9 9.33,-62.7 28,-86 z m -678.84,-36.2 1.63,654.1 c 10.97,23.1 27.22,34.6 48.8,34.6 32.18,-7.3 48.23,-22.9 48.23,-46.7 l 1.68,-4.9 1.64,-644.3 h 4.38 l 63.07,-1.6 c 58.85,0 139.63,5.6 242.36,17 26.34,0 42.22,-17 47.72,-51 0,-21.9 -12.08,-37.5 -36.22,-46.6 -84.79,-14.3 -168.52,-21.4 -251.13,-21.4 -86.65,0 -136.17,4.9 -148.59,14.8 -15.73,8.8 -23.57,40.8 -23.57,96 z m 193.58,-1398.1 c 1.82,-7.3 2.72,-14.2 2.72,-20.8 0,-15 -4.94,-27.1 -14.81,-36.2 -8.01,-3.7 -17.35,-6.6 -27.96,-8.8 -31.07,0 -50.82,22.8 -59.2,68.6 l -47.73,180.4 h -3.84 l -252.2,7.6 -9.34,1.7 -64.72,-199.6 c -7.31,-32.6 -24.29,-50.1 -50.99,-52.6 -34,0 -50.99,17 -50.99,50.9 143.29,469.4 225.9,711.3 247.84,725.5 17.57,11.7 38.93,17.5 64.17,17.5 5.45,0 11.3,-0.2 17.54,-0.5 32.52,-3.3 54.91,-13 67.16,-29 12.26,-16.2 73.04,-251 182.35,-704.7 z m 928.35,-61.4 c -17.93,0 -32.08,7.3 -42.51,21.9 -10.42,14.7 -42.12,93.5 -95.15,236.6 -52.99,143.2 -81.32,237 -84.97,281.6 v 1.7 c 1.45,29.2 16.07,43.8 43.87,43.8 h 1.63 c 31.81,0 52.64,-18.8 62.54,-56.5 l 114.03,-366.8 h 6.04 c 116.98,261.3 178.2,396.3 183.7,404.7 10.21,12.4 24.31,18.6 42.19,18.6 h 1.68 c 27.04,0 40.57,-15.9 40.57,-47.7 v -3.9 c -12.79,-47.8 -51,-140.6 -114.62,-278.2 -63.6,-137.6 -101.51,-214.7 -113.77,-231.1 -12.28,-16.5 -27.32,-24.7 -45.23,-24.7 z m 843.31,137.1 c 14.27,-9.9 26.89,-16.1 37.86,-18.6 l 13.15,-3.4 c 12.06,-2.5 24.48,-3.8 37.3,-3.8 48.98,0 98.87,10.1 149.69,30.2 8.04,2.5 15.91,3.8 23.58,3.8 l 13.16,-1.7 c 16.08,-10.6 24.11,-24.1 24.11,-40.5 0,-7.7 -1.63,-15.7 -4.92,-24.1 -10.96,-27.8 -39.95,-46.7 -86.92,-56.8 -46.97,-10.1 -86.18,-15.1 -117.63,-15.1 -22.29,0 -43.49,2.6 -63.58,7.7 l -16.47,4.4 c -80.42,19.7 -132.16,77.7 -155.17,173.8 -3.67,15.7 -5.49,33.5 -5.49,53.2 0,30.4 4.19,65.8 12.61,106.4 23.39,99.4 84.61,171.4 183.69,216 41.68,11 80.42,16.5 116.28,16.5 22.65,0 43.86,-2 63.57,-6 l 2.22,-1.2 c 44.22,-10.5 68.36,-23.3 72.37,-38.3 3.29,-10.3 4.95,-18.9 4.95,-25.8 l -1.12,-8.8 c -5.48,-26.6 -22.12,-41.3 -49.89,-43.8 h -6.04 l -51.53,14.2 c -13.52,3 -27.26,4.4 -41.15,4.4 -43.13,0 -85.35,-14.6 -126.64,-43.9 -31.81,-27.8 -52.64,-64.3 -62.54,-109.6 -5.45,-24.9 -8.21,-48.1 -8.21,-69.7 0,-48.6 14.26,-88.4 42.76,-119.5 z m 313.66,1266.4 v -5.4 c 0,-25.6 -13.15,-42.7 -39.48,-51 l -11.53,-1.7 c -32.18,0 -52.98,28.7 -62.48,86.1 -1.09,0 -2.75,7.5 -4.97,22.5 -27.04,-34.7 -53.15,-57.6 -78.4,-68.6 -38.75,-20.5 -78.24,-30.7 -118.44,-30.7 h -15.37 c -91,0 -152.06,43.5 -183.14,130.5 -9.13,29.6 -13.69,59.4 -13.69,89.4 0,125.7 36.9,227.6 110.77,305.4 42.77,35.5 90.48,53.2 143.11,53.2 40.93,0 87.83,-7.7 140.64,-23 52.84,-15.4 81.07,-45.9 84.73,-91.6 8.4,-215.3 24.51,-353.6 48.25,-415.1 z m 87.75,703 c 0,19.4 12.06,33.8 36.17,43.3 l 16.48,3.3 c 12.05,0 24.84,-6.6 38.36,-19.7 8.41,-7 12.62,-45.5 12.62,-115.7 2.9,-118.5 4.39,-242.9 4.39,-373.4 l -1.66,-257.8 c 0,-22.6 -12.99,-38.5 -38.93,-47.7 l -13.15,-1.6 c -22.69,0 -38.76,12.2 -48.26,36.8 l -1.66,3.7 1.66,280.8 c 0,120.3 -2.02,269.6 -6.02,448 z m -923.99,-184.8 c 67.64,-6.6 116.07,-18.5 145.33,-35.9 29.21,-17.4 45.61,-29.2 49.06,-35.4 3.46,-6.2 8.77,-55.5 15.91,-148 7.11,-92.5 10.67,-180.1 10.67,-262.7 v -73.4 c 0,-87.4 -18.27,-156.3 -54.81,-206.8 -46.46,-65.5 -118.81,-98.1 -217.15,-98.1 -88.11,0 -154.1,17.7 -197.95,53.2 -22.32,22.6 -33.45,42.5 -33.45,59.7 l 1.1,6.6 c 2.92,17.9 12.62,30 29.05,36.2 5.13,1.8 10.24,2.7 15.35,2.7 10.99,0 22.3,-4 34.02,-12 17.9,-13.2 35.53,-23.9 52.91,-32.1 17.36,-8.2 50.35,-12.4 98.97,-12.4 68.36,0 114.59,24.9 138.73,74.6 20.83,28.2 31.23,70.4 31.23,126.7 v 85.6 h -6.01 c -47.53,-63.7 -108.74,-95.5 -183.7,-95.5 h -18.64 c -88.83,0 -154.45,41.9 -196.86,125.6 -17.54,40.5 -26.31,83.3 -26.31,128.3 0,138.9 44.61,233.3 133.79,283 40.93,21.1 87.56,31.7 139.82,31.7 12.43,0 25.39,-0.5 38.94,-1.6 z M 6267.15,7087 c -214.54,60.5 -434.15,241.9 -620.7,365 -167.6,110.6 -330.06,229.7 -467,377.4 -266.23,287.3 -425.93,555.1 -426.45,955.4 -0.07,58.5 60.37,150.3 86.79,49.3 52.39,-200.3 74.53,-376.2 204.52,-546.2 109.93,-143.9 230.49,-278.8 369.86,-394.3 273.4,-226.5 658.83,-366 889.98,-634.2 30.34,-35.2 41.4,-194.4 -37,-172.4 z m 281.71,-277.5 c 0,0 1946.03,871.3 1946.03,1946 v 2323.3 l -1946.03,716.6 -1946.07,-716.6 V 8755.5 c 0,-224.7 85.32,-440.5 219.94,-641.4 509.13,-759.6 1726.13,-1304.6 1726.13,-1304.6"
         style="fill:#fab750;fill-opacity:1;fill-rule:nonzero;stroke:none"
         id="path312" />
      <path
         d="m 4081.89,10159.5 c 12.18,-75.7 66.19,-71.5 79.93,0.4 74.66,389.9 44.56,857.8 6.53,1251.8 -14.08,146.1 -113.14,75.6 -118.58,-33.6 -19.47,-389.3 -29.82,-833.5 32.12,-1218.6"
         style="fill:#fabb55;fill-opacity:1;fill-rule:nonzero;stroke:none"
         id="path314" />
      <path
         d="m 4884.7,11740.2 c 234.34,-37.3 490.95,104.5 708.25,181.4 257.67,91.1 550.09,173.8 781.85,318.5 42.88,26.7 50.7,242.4 -13.13,234 -239.87,-31.9 -483.02,-151.6 -708.18,-237.9 -260.59,-100 -571.2,-182.6 -775.86,-376.2 -20.39,-19.3 -32.69,-113.4 7.07,-119.8"
         style="fill:#fabb55;fill-opacity:1;fill-rule:nonzero;stroke:none"
         id="path316" />
      <path
         d="m 5414.17,7893.6 c -139.37,115.5 -259.93,250.4 -369.86,394.3 -129.99,170 -152.13,345.9 -204.52,546.2 -26.42,101 -86.86,9.2 -86.79,-49.3 0.52,-400.3 160.22,-668.1 426.45,-955.4 136.94,-147.7 299.4,-266.8 467,-377.4 186.55,-123.1 406.16,-304.5 620.7,-365 78.4,-22 67.34,137.2 37,172.4 -231.15,268.2 -616.58,407.7 -889.98,634.2"
         style="fill:#fbc95d;fill-opacity:1;fill-rule:nonzero;stroke:none"
         id="path318" />
      <path
         d="m 5487.52,9877.7 c 82.61,0 166.34,7.1 251.13,21.4 24.14,9.1 36.22,24.7 36.22,46.6 -5.5,34 -21.38,51 -47.72,51 -102.73,-11.4 -183.51,-17 -242.36,-17 l -63.07,1.6 h -4.38 l -1.64,644.3 -1.68,4.9 c 0,23.8 -16.05,39.4 -48.23,46.7 -21.58,0 -37.83,-11.5 -48.8,-34.6 l -1.63,-654.1 c 0,-55.2 7.84,-87.2 23.57,-96 12.42,-9.9 61.94,-14.8 148.59,-14.8"
         style="fill:#f4f4f4;fill-opacity:1;fill-rule:nonzero;stroke:none"
         id="path320" />
      <path
         d="m 5976.63,10229.2 c 21.22,83 78.58,126.3 172.18,129.9 70.2,-1 105.28,-41.1 105.28,-120 v -3.9 c -63.24,-9.5 -126.11,-14.2 -188.61,-14.2 l -88.85,1.6 z m 88.85,-104.7 c 72,0 149.13,6.2 231.4,18.6 40.55,4.4 60.84,21.5 60.84,51.5 v 41.2 c 0,29.6 -4.58,57.9 -13.69,84.9 -31.08,90 -97.98,135 -200.7,135 -176.2,-11 -269.79,-107.9 -280.75,-290.6 0,-82.7 15.17,-147.4 45.53,-194.2 49.32,-63.6 112.03,-95.4 188.05,-95.4 63.62,0 118.27,7.8 163.95,23.3 45.7,15.5 72.4,39 80.08,70.5 0,33.2 -13.89,50.8 -41.68,52.6 -25.22,-3.3 -51.65,-11.5 -79.22,-24.7 -27.63,-13.1 -68.1,-19.7 -121.47,-19.7 -39.49,0 -74.03,15.7 -103.62,47.2 -18.67,23.3 -28,52.1 -28,86 v 15.4 l 99.28,-1.6"
         style="fill:#f4f4f4;fill-opacity:1;fill-rule:nonzero;stroke:none"
         id="path322" />
      <path
         d="m 6736.09,10352.6 c 49.72,0 89.57,-8.8 119.54,-26.4 2.92,-68.3 6.58,-137.6 10.96,-207.8 -41.66,-85.8 -101.46,-130.1 -179.31,-132.7 h -10.97 c -19.37,0 -36.56,2.6 -51.52,7.7 -51.58,23.4 -77.32,70.4 -77.32,140.9 0,84.1 19.92,143.4 59.76,177.7 39.12,27 82.04,40.6 128.86,40.6 z m -290.62,-215 c 0,-45 8.77,-87.8 26.31,-128.3 42.41,-83.7 108.03,-125.6 196.86,-125.6 h 18.64 c 74.96,0 136.17,31.8 183.7,95.5 h 6.01 v -85.6 c 0,-56.3 -10.4,-98.5 -31.23,-126.7 -24.14,-49.7 -70.37,-74.6 -138.73,-74.6 -48.62,0 -81.61,4.2 -98.97,12.4 -17.38,8.2 -35.01,18.9 -52.91,32.1 -11.72,8 -23.03,12 -34.02,12 -5.11,0 -10.22,-0.9 -15.35,-2.7 -16.43,-6.2 -26.13,-18.3 -29.05,-36.2 l -1.1,-6.6 c 0,-17.2 11.13,-37.1 33.45,-59.7 43.85,-35.5 109.84,-53.2 197.95,-53.2 98.34,0 170.69,32.6 217.15,98.1 36.54,50.5 54.81,119.4 54.81,206.8 v 73.4 c 0,82.6 -3.56,170.2 -10.67,262.7 -7.14,92.5 -12.45,141.8 -15.91,148 -3.45,6.2 -19.85,18 -49.06,35.4 -29.26,17.4 -77.69,29.3 -145.33,35.9 -13.55,1.1 -26.51,1.6 -38.94,1.6 -52.26,0 -98.89,-10.6 -139.82,-31.7 -89.18,-49.7 -133.79,-144.1 -133.79,-283"
         style="fill:#f4f4f4;fill-opacity:1;fill-rule:nonzero;stroke:none"
         id="path324" />
      <path
         d="m 7277.33,9985.7 h -13.74 c -24.48,0 -44.97,6.4 -61.38,19.2 -22.32,23 -33.48,55.4 -33.48,97.1 l 3.29,76.7 c 25.95,121 75.86,181.5 149.72,181.5 36.91,0 77.66,-10.2 122.29,-30.6 h 3.26 c 0,-46.1 2.56,-124.6 7.7,-235.3 -55.93,-72.4 -115.18,-108.6 -177.66,-108.6 z m 183.95,453.5 c -52.81,15.3 -99.71,23 -140.64,23 -52.63,0 -100.34,-17.7 -143.11,-53.2 -73.87,-77.8 -110.77,-179.7 -110.77,-305.4 0,-30 4.56,-59.8 13.69,-89.4 31.08,-87 92.14,-130.5 183.14,-130.5 h 15.37 c 40.2,0 79.69,10.2 118.44,30.7 25.25,11 51.36,33.9 78.4,68.6 2.22,-15 3.88,-22.5 4.97,-22.5 9.5,-57.4 30.3,-86.1 62.48,-86.1 l 11.53,1.7 c 26.33,8.3 39.48,25.4 39.48,51 v 5.4 c -23.74,61.5 -39.85,199.8 -48.25,415.1 -3.66,45.7 -31.89,76.2 -84.73,91.6"
         style="fill:#f4f4f4;fill-opacity:1;fill-rule:nonzero;stroke:none"
         id="path326" />
      <path
         d="m 7688.03,9903 c 9.5,-24.6 25.57,-36.8 48.26,-36.8 l 13.15,1.6 c 25.94,9.2 38.93,25.1 38.93,47.7 l 1.66,257.8 c 0,130.5 -1.49,254.9 -4.39,373.4 0,70.2 -4.21,108.7 -12.62,115.7 -13.52,13.1 -26.31,19.7 -38.36,19.7 l -16.48,-3.3 c -24.11,-9.5 -36.17,-23.9 -36.17,-43.3 4,-178.4 6.02,-327.7 6.02,-448 l -1.66,-280.8 1.66,-3.7"
         style="fill:#f4f4f4;fill-opacity:1;fill-rule:nonzero;stroke:none"
         id="path328" />
      <path
         d="m 5337.82,8875.6 -206.16,7.6 h -5.48 c 15.34,48.7 37.2,115.8 65.53,201.5 28.33,85.8 46.7,129 55.11,129.7 h 0.52 c 8.44,0 38.6,-111.5 90.48,-334.5 z m -78.39,448.5 c -6.24,0.3 -12.09,0.5 -17.54,0.5 -25.24,0 -46.6,-5.8 -64.17,-17.5 -21.94,-14.2 -104.55,-256.1 -247.84,-725.5 0,-33.9 16.99,-50.9 50.99,-50.9 26.7,2.5 43.68,20 50.99,52.6 l 64.72,199.6 9.34,-1.7 252.2,-7.6 h 3.84 l 47.73,-180.4 c 8.38,-45.8 28.13,-68.6 59.2,-68.6 10.61,2.2 19.95,5.1 27.96,8.8 9.87,9.1 14.81,21.2 14.81,36.2 0,6.6 -0.9,13.5 -2.72,20.8 -109.31,453.7 -170.09,688.5 -182.35,704.7 -12.25,16 -34.64,25.7 -67.16,29"
         style="fill:#f4f4f4;fill-opacity:1;fill-rule:nonzero;stroke:none"
         id="path330" />
      <path
         d="m 5704.69,8831.1 c 25.94,121 75.86,181.5 149.69,181.5 36.94,0 77.67,-10.2 122.3,-30.7 h 3.29 c 0,-46 2.56,-124.5 7.67,-235.2 -55.93,-72.4 -115.15,-108.5 -177.66,-108.5 h -13.74 c -24.48,0 -44.94,6.3 -61.39,19.1 -22.31,23 -33.44,55.4 -33.44,97.1 z m 91.55,-295 h 15.37 c 40.2,0 79.71,10.3 118.44,30.7 25.24,11 51.38,33.8 78.42,68.6 2.21,-15 3.84,-22.5 4.95,-22.5 9.49,-57.4 30.32,-86.1 62.48,-86.1 l 11.52,1.7 c 26.33,8.4 39.48,25.4 39.48,50.9 v 5.6 c -23.75,61.3 -35.63,192.4 -35.63,393.1 2.2,140.4 5.85,239.4 10.97,297.2 l -1.63,4.4 c 0,23.7 -15.18,38.9 -45.51,45.5 h -5.51 c -16.45,0 -30.89,-8.2 -43.32,-24.7 -6.23,0 -11.32,-69.1 -15.34,-207.2 v -5.5 c -50.81,17.9 -96.71,26.8 -137.64,26.8 -52.64,0 -100.34,-17.7 -143.11,-53.2 -73.87,-77.8 -110.78,-179.6 -110.78,-305.4 0,-30 4.56,-59.8 13.73,-89.3 31.05,-87.1 92.1,-130.6 183.11,-130.6"
         style="fill:#f4f4f4;fill-opacity:1;fill-rule:nonzero;stroke:none"
         id="path332" />
      <path
         d="m 6596.29,8784.8 c 63.62,137.6 101.83,230.4 114.62,278.2 v 3.9 c 0,31.8 -13.53,47.7 -40.57,47.7 h -1.68 c -17.88,0 -31.98,-6.2 -42.19,-18.6 -5.5,-8.4 -66.72,-143.4 -183.7,-404.7 h -6.04 l -114.03,366.8 c -9.9,37.7 -30.73,56.5 -62.54,56.5 h -1.63 c -27.8,0 -42.42,-14.6 -43.87,-43.8 v -1.7 c 3.65,-44.6 31.98,-138.4 84.97,-281.6 53.03,-143.1 84.73,-221.9 95.15,-236.6 10.43,-14.6 24.58,-21.9 42.51,-21.9 17.91,0 32.95,8.2 45.23,24.7 12.26,16.4 50.17,93.5 113.77,231.1"
         style="fill:#f4f4f4;fill-opacity:1;fill-rule:nonzero;stroke:none"
         id="path334" />
      <path
         d="m 6927.49,9115.7 c -18.63,0 -33.45,-8.2 -44.43,-24.6 -6.21,0 -10.03,-171.9 -11.5,-515.5 0,-27 16.47,-43.5 49.36,-49.3 34,5.1 50.98,20.9 50.98,47.7 l 4.95,499.5 c -9.14,28.1 -25.6,42.2 -49.36,42.2"
         style="fill:#f4f4f4;fill-opacity:1;fill-rule:nonzero;stroke:none"
         id="path336" />
      <path
         d="m 6923.11,9173.8 h 13.72 l 13.15,1.7 c 37.64,13.5 56.47,36.2 56.47,68 l -1.64,14.8 c -13.15,38.4 -37.83,57.6 -74.03,57.6 l -16.44,-1.7 c -39.49,-12.8 -59.22,-34.3 -59.22,-64.6 v -7.8 l 1.63,-13.1 c 13.15,-36.6 35.27,-54.9 66.36,-54.9"
         style="fill:#f4f4f4;fill-opacity:1;fill-rule:nonzero;stroke:none"
         id="path338" />
      <path
         d="m 7308.59,8964.9 c 41.29,29.3 83.51,43.9 126.64,43.9 13.89,0 27.63,-1.4 41.15,-4.4 l 51.53,-14.2 h 6.04 c 27.77,2.5 44.41,17.2 49.89,43.8 l 1.12,8.8 c 0,6.9 -1.66,15.5 -4.95,25.8 -4.01,15 -28.15,27.8 -72.37,38.3 l -2.22,1.2 c -19.71,4 -40.92,6 -63.57,6 -35.86,0 -74.6,-5.5 -116.28,-16.5 -99.08,-44.6 -160.3,-116.6 -183.69,-216 -8.42,-40.6 -12.61,-76 -12.61,-106.4 0,-19.7 1.82,-37.5 5.49,-53.2 23.01,-96.1 74.75,-154.1 155.17,-173.8 l 16.47,-4.4 c 20.09,-5.1 41.29,-7.7 63.58,-7.7 31.45,0 70.66,5 117.63,15.1 46.97,10.1 75.96,29 86.92,56.8 3.29,8.4 4.92,16.4 4.92,24.1 0,16.4 -8.03,29.9 -24.11,40.5 l -13.16,1.7 c -7.67,0 -15.54,-1.3 -23.58,-3.8 -50.82,-20.1 -100.71,-30.2 -149.69,-30.2 -12.82,0 -25.24,1.3 -37.3,3.8 l -13.15,3.4 c -10.97,2.5 -23.59,8.7 -37.86,18.6 -28.5,31.1 -42.76,70.9 -42.76,119.5 0,21.6 2.76,44.8 8.21,69.7 9.9,45.3 30.73,81.8 62.54,109.6"
         style="fill:#f4f4f4;fill-opacity:1;fill-rule:nonzero;stroke:none"
         id="path340" />
      <path
         d="m 8064.21,8891.5 v -3.9 c -63.27,-9.5 -126.12,-14.2 -188.65,-14.2 l -88.82,1.6 v 6.6 c 21.19,83 78.58,126.3 172.15,129.9 70.2,-1.1 105.32,-41.1 105.32,-120 z m -110.77,216.6 c -176.23,-11 -269.8,-107.9 -280.76,-290.7 0,-82.6 15.15,-147.3 45.5,-194.1 49.34,-63.6 112.03,-95.3 188.09,-95.3 63.58,0 118.25,7.7 163.95,23.2 45.68,15.5 72.38,39 80.07,70.5 0,33.2 -13.91,50.8 -41.68,52.6 -25.21,-3.3 -51.65,-11.5 -79.24,-24.7 -27.6,-13.2 -68.06,-19.7 -121.46,-19.7 -39.49,0 -74.03,15.7 -103.63,47.1 -18.64,23.4 -27.97,52.2 -27.97,86.1 v 15.4 l 99.25,-1.6 c 72.01,0 149.13,6.1 231.42,18.6 40.56,4.4 60.85,21.6 60.85,51.6 v 41.1 c 0,29.6 -4.58,57.9 -13.71,85 -31.08,89.8 -97.99,134.9 -200.68,134.9"
         style="fill:#f4f4f4;fill-opacity:1;fill-rule:nonzero;stroke:none"
         id="path342" />
      <path
         d="m 8466.54,13778.4 c -11.93,-51.4 -30.48,-100.5 -59.49,-145 -18.49,-28.3 -68.96,-85.9 -48.77,-123 16.5,-30.5 72.35,-31.3 100.78,-28.3 178.29,18.6 347.43,112.8 472.11,239.4 125.27,127.1 203.01,286.2 233.8,451.8 h -674.03 c -0.64,-46 -1.27,-92 -1.92,-138 -1.16,-85.5 -3.28,-174.2 -22.48,-256.9"
         style="fill:#c76e8d;fill-opacity:1;fill-rule:nonzero;stroke:none"
         id="path344" />
      <path
         d="m 8078.96,17279.5 c 154.04,152.4 436.18,156.6 637.25,163.3 264.43,8.7 556.54,-16.4 816.59,-67 37.44,-7.2 38.59,-132.9 0.56,-139 -378.61,-60.3 -773.15,18.7 -1151.33,-67.6 -499.09,-114 -312.6,-648.2 -402.61,-1020.6 -13.44,-55.7 -56.63,-54.6 -71.03,-0.2 -81.53,307.9 -78.42,884.8 170.57,1131.1 z m 1706.46,95 c 70.57,33.2 140.26,43.3 217.88,45.2 75.3,1.8 157.1,20.9 219.9,-26 26.8,-20 27.5,-110.1 0.6,-130.3 -62.7,-47 -144.6,-27.8 -219.8,-26 -77.65,1.9 -147.54,12 -218.24,45.2 -19.15,8.9 -19.73,82.8 -0.34,91.9 z m 2107.48,-566.7 c 55.3,0 100.2,-44.8 100.2,-100.2 0,-55.3 -44.9,-100.2 -100.2,-100.2 H 8501.36 c -55.36,0 -100.24,44.9 -100.24,100.2 0,55.4 44.88,100.2 100.24,100.2 z m 0,-1027.1 H 8501.36 c -55.36,0 -100.24,44.9 -100.24,100.3 0,55.3 44.88,100.2 100.24,100.2 h 3391.54 c 55.3,0 100.2,-44.9 100.2,-100.2 0,-55.4 -44.9,-100.3 -100.2,-100.3 z m -1253,-826.6 H 8501.36 c -55.36,0 -100.24,44.9 -100.24,100.2 0,55.4 44.88,100.3 100.24,100.3 h 2138.54 c 55.4,0 100.2,-44.9 100.2,-100.3 0,-55.3 -44.8,-100.2 -100.2,-100.2 z m 941,-780.8 h 255.6 c 260.9,0 485.3,154 588.8,375.8 9.1,19.4 17.2,39.2 24.3,59.6 23.6,67.3 37.1,139.4 37.1,214.8 v 559.4 136.7 1418.9 c 0,359 -291.1,650.1 -650.2,650.1 H 8192.51 c -359.1,0 -650.21,-291.1 -650.21,-650.1 V 15202 14823.5 c 0,-5.9 0.74,-11.7 0.89,-17.6 1.35,-50.4 8.54,-99.3 20.75,-146.2 72.72,-279.7 326.16,-486.4 628.57,-486.4 h 298.43 674.03 849.53 360.8 246.1 959.5"
         style="fill:#c76e8d;fill-opacity:1;fill-rule:nonzero;stroke:none"
         id="path346" />
      <path
         d="m 8401.12,16707.6 c 0,-55.3 44.88,-100.2 100.24,-100.2 h 3391.54 c 55.3,0 100.2,44.9 100.2,100.2 0,55.4 -44.9,100.2 -100.2,100.2 H 8501.36 c -55.36,0 -100.24,-44.8 -100.24,-100.2"
         style="fill:#ffffff;fill-opacity:1;fill-rule:nonzero;stroke:none"
         id="path348" />
      <path
         d="M 11892.9,15981.2 H 8501.36 c -55.36,0 -100.24,-44.9 -100.24,-100.2 0,-55.4 44.88,-100.3 100.24,-100.3 h 3391.54 c 55.3,0 100.2,44.9 100.2,100.3 0,55.3 -44.9,100.2 -100.2,100.2"
         style="fill:#ffffff;fill-opacity:1;fill-rule:nonzero;stroke:none"
         id="path350" />
      <path
         d="M 10639.9,15154.6 H 8501.36 c -55.36,0 -100.24,-44.9 -100.24,-100.3 0,-55.3 44.88,-100.2 100.24,-100.2 h 2138.54 c 55.4,0 100.2,44.9 100.2,100.2 0,55.4 -44.8,100.3 -100.2,100.3"
         style="fill:#ffffff;fill-opacity:1;fill-rule:nonzero;stroke:none"
         id="path352" />
      <path
         d="m 7979.42,16148.6 c 90.01,372.4 -96.48,906.6 402.61,1020.6 378.18,86.3 772.72,7.3 1151.33,67.6 38.03,6.1 36.88,131.8 -0.56,139 -260.05,50.6 -552.16,75.7 -816.59,67 -201.07,-6.7 -483.21,-10.9 -637.25,-163.3 -248.99,-246.3 -252.1,-823.2 -170.57,-1131.1 14.4,-54.4 57.59,-55.5 71.03,0.2"
         style="fill:#d27a99;fill-opacity:1;fill-rule:nonzero;stroke:none"
         id="path354" />
      <path
         d="m 9785.76,17282.6 c 70.7,-33.2 140.59,-43.3 218.24,-45.2 75.2,-1.8 157.1,-21 219.8,26 26.9,20.2 26.2,110.3 -0.6,130.3 -62.8,46.9 -144.6,27.8 -219.9,26 -77.62,-1.9 -147.31,-12 -217.88,-45.2 -19.39,-9.1 -18.81,-83 0.34,-91.9"
         style="fill:#d27a99;fill-opacity:1;fill-rule:nonzero;stroke:none"
         id="path356" />
    </g>
  </g>
</svg>
