<?xml version="1.0" encoding="UTF-8" standalone="no"?>
<!-- Created with Inkscape (http://www.inkscape.org/) -->

<svg
   version="1.1"
   id="svg2"
   width="4666.6665"
   height="2666.6667"
   viewBox="0 0 4666.6665 2666.6667"
   sodipodi:docname="vecteezy_success-businessman-sign-for-investment-contract-or-job_.eps"
   xmlns:inkscape="http://www.inkscape.org/namespaces/inkscape"
   xmlns:sodipodi="http://sodipodi.sourceforge.net/DTD/sodipodi-0.dtd"
   xmlns="http://www.w3.org/2000/svg"
   xmlns:svg="http://www.w3.org/2000/svg">
  <defs
     id="defs6">
    <clipPath
       clipPathUnits="userSpaceOnUse"
       id="clipPath218">
      <path
         d="m 11348.3,15709.7 1264.7,-161.1 -1107.9,-630.8 z"
         id="path216" />
    </clipPath>
  </defs>
  <sodipodi:namedview
     id="namedview4"
     pagecolor="#ffffff"
     bordercolor="#000000"
     borderopacity="0.25"
     inkscape:showpageshadow="2"
     inkscape:pageopacity="0.0"
     inkscape:pagecheckerboard="0"
     inkscape:deskcolor="#d1d1d1" />
  <g
     id="g8"
     inkscape:groupmode="layer"
     inkscape:label="ink_ext_XXXXXX"
     transform="matrix(1.3333333,0,0,-1.3333333,0,2666.6667)">
    <g
       id="g10"
       transform="scale(0.1)">
      <path
         d="M 35000,0 H 0 V 20000 H 35000 V 0"
         style="fill:#ffffff;fill-opacity:1;fill-rule:nonzero;stroke:none"
         id="path12" />
      <path
         d="m 21769.5,16228 c -670,-559.6 -1167.4,-1297.9 -1342.3,-2206.8 -127.7,-663.4 -43.9,-1358.2 184.1,-1994.1 411.2,-1146.7 1353.3,-2140.7 2541,-2411.2 458.6,-104.4 934.4,-100.9 1404.3,-82.1 1394.4,56 2805.9,300.3 4118.9,787.8 972,360.9 1896.3,911.4 2549.3,1716.8 849,1046.9 1276.8,2677.6 219.8,3728.7 -211.8,210.5 -467.5,371.5 -730.2,513.3 -1517.5,819.7 -3557.4,1247 -5274.5,1233.6 -1275.3,-10 -2666.6,-447.6 -3670.4,-1286"
         style="fill:#f4f7fd;fill-opacity:1;fill-rule:nonzero;stroke:none"
         id="path14" />
      <path
         d="m 11690.7,11495.1 c 1168.2,205.2 2404.3,1080 3188.7,1655.1 864.4,633.7 1759.1,1550.5 1798.3,2686.3 38.7,1125.7 -1014.4,1998.3 -1999.7,2317.3 -1249.3,404.4 -2924.8,394.8 -4108,-209.4 -2195.07,-1120.9 -2499.19,-4591 -565.4,-6096.4 496,-386.1 1081.9,-459.1 1686.1,-352.9"
         style="fill:#f4f7fd;fill-opacity:1;fill-rule:nonzero;stroke:none"
         id="path16" />
      <path
         d="M 7527.5,9509.2 C 7532.34,9145.9 7476.95,8790.6 7371,8522 7251.31,8218.6 7032,7963.6 6786.5,7748.9 6051.67,7106 4920.15,6802.6 4085.77,7309.5 c -797.64,484.7 -1067.12,1611.6 -701.65,2470.4 507.9,1193.5 2673.24,2305.6 3721.25,1113.3 284,-323.2 415.19,-862 422.13,-1384"
         style="fill:#f4f7fd;fill-opacity:1;fill-rule:nonzero;stroke:none"
         id="path18" />
      <path
         d="m 4486.47,1966.6 c 0,0 27365.83,0 27367.63,0 0.1,0 0.2,0 0.5,0 83.9,4.2 -551.8,1992.9 -615.1,2161.7 -432.7,1154.4 -1238.1,2300.3 -2228,3085.9 -2972.3,2358.9 -6965.1,41.2 -9904.6,-1125.3 -936.6,-371.7 -1932,-675.1 -2953.3,-707.7 -1084.7,-34.6 -2028.4,327.2 -3049.4,617.3 C 11362,6493.7 9436.74,6572.8 7757.87,5907.6 6078.99,5242.3 4645.29,3695.7 4486.47,1966.6"
         style="fill:#f4f7fd;fill-opacity:1;fill-rule:nonzero;stroke:none"
         id="path20" />
      <path
         d="M 23296.9,1841.9 H 11759.2 c -251.4,0 -455.3,203.9 -455.3,455.3 v 14108.4 c 0,251.5 203.9,455.3 455.3,455.3 h 11537.7 c 251.5,0 455.3,-203.8 455.3,-455.3 V 2297.2 c 0,-251.4 -203.8,-455.3 -455.3,-455.3"
         style="fill:#f4f7fd;fill-opacity:1;fill-rule:nonzero;stroke:none"
         id="path22" />
      <path
         d="m 11937.2,17033 c -243.5,0 -441.7,-198.2 -441.7,-441.7 V 2482.9 c 0,-243.6 198.2,-441.7 441.7,-441.7 h 11537.7 c 243.6,0 441.8,198.1 441.8,441.7 v 14108.4 c 0,243.5 -198.2,441.7 -441.8,441.7 z M 23474.9,2014 H 11937.2 c -258.5,0 -468.9,210.3 -468.9,468.9 v 14108.4 c 0,258.5 210.4,468.9 468.9,468.9 h 11537.7 c 258.6,0 468.9,-210.4 468.9,-468.9 V 2482.9 c 0,-258.6 -210.3,-468.9 -468.9,-468.9"
         style="fill:#102a54;fill-opacity:1;fill-rule:nonzero;stroke:none"
         id="path24" />
      <path
         d="m 15244,15191.2 c 53.6,54.7 121.7,82.1 204.5,82.1 110.7,0 191.6,-36.7 242.8,-110.1 28.3,-41.2 43.5,-82.6 45.5,-124.1 h -138.9 c -8.9,31.9 -20.2,56 -34.1,72.2 -24.7,28.9 -61.4,43.3 -110,43.3 -49.6,0 -88.6,-20.3 -117.2,-61.1 -28.6,-40.8 -42.9,-98.4 -42.9,-173.1 0,-74.5 15.1,-130.4 45.3,-167.6 30.1,-37.1 68.5,-55.7 115,-55.7 47.6,0 84,15.9 109,47.8 13.8,17.2 25.3,42.9 34.4,77.2 h 138.1 c -11.9,-72.5 -42.4,-131.5 -91.3,-176.9 -49,-45.4 -111.7,-68.1 -188.2,-68.1 -94.6,0 -169,30.7 -223.2,92 -54.1,61.7 -81.2,146.2 -81.2,253.6 0,116.1 30.8,205.6 92.4,268.5"
         style="fill:#102a54;fill-opacity:1;fill-rule:nonzero;stroke:none"
         id="path26" />
      <path
         d="m 16273.1,14755.8 c 32.3,40.6 48.5,98.3 48.5,173.2 0,74.6 -16.2,132.3 -48.5,173.1 -32.3,40.7 -76,61.1 -131.1,61.1 -55,0 -98.9,-20.3 -131.7,-60.9 -32.8,-40.6 -49.2,-98.4 -49.2,-173.3 0,-74.9 16.4,-132.6 49.2,-173.2 32.8,-40.6 76.7,-60.9 131.7,-60.9 55.1,0 98.8,20.3 131.1,60.9 z m 86.9,-101.1 c -50.3,-51.8 -122.9,-77.6 -218,-77.6 -95,0 -167.7,25.8 -217.9,77.6 -67.4,63.5 -101.1,154.9 -101.1,274.3 0,121.9 33.7,213.3 101.1,274.4 50.2,51.7 122.9,77.6 217.9,77.6 95.1,0 167.7,-25.9 218,-77.6 67,-61.1 100.6,-152.5 100.6,-274.4 0,-119.4 -33.6,-210.8 -100.6,-274.3"
         style="fill:#102a54;fill-opacity:1;fill-rule:nonzero;stroke:none"
         id="path28" />
      <path
         d="m 16564.4,15260.7 h 145.7 l 264,-463.8 v 463.8 h 129.5 v -665.1 h -139 l -270.7,471.9 v -471.9 h -129.5 v 665.1"
         style="fill:#102a54;fill-opacity:1;fill-rule:nonzero;stroke:none"
         id="path30" />
      <path
         d="m 17717.2,15260.7 v -117.8 h -199 v -547.3 h -139.8 v 547.3 h -199.9 v 117.8 h 538.7"
         style="fill:#102a54;fill-opacity:1;fill-rule:nonzero;stroke:none"
         id="path32" />
      <path
         d="m 17937.4,15145.2 v -178.7 h 149.6 c 29.7,0 52,3.6 66.8,10.8 26.3,12.6 39.5,37.6 39.5,74.9 0,40.3 -12.7,67.4 -38.2,81.2 -14.3,7.9 -35.7,11.8 -64.2,11.8 z m 287.3,98.3 c 24.5,-10.5 45.2,-26 62.2,-46.4 14.1,-16.9 25.3,-35.5 33.5,-56 8.2,-20.4 12.3,-43.8 12.3,-69.9 0,-31.6 -8,-62.7 -23.9,-93.2 -16,-30.5 -42.3,-52.1 -79,-64.8 30.7,-12.3 52.4,-29.8 65.2,-52.5 12.8,-22.8 19.2,-57.4 19.2,-104 v -44.7 c 0,-30.4 1.2,-51 3.7,-61.8 3.6,-17.2 12.2,-29.8 25.6,-37.9 v -16.7 h -153.4 c -4.2,14.7 -7.2,26.6 -9,35.6 -3.6,18.7 -5.6,37.8 -5.9,57.3 l -0.9,61.9 c -0.5,42.4 -7.9,70.6 -22,84.8 -14,14.1 -40.4,21.2 -79.1,21.2 h -135.8 v -260.8 h -135.8 v 665.1 h 318.1 c 45.5,-0.9 80.5,-6.6 105,-17.2"
         style="fill:#102a54;fill-opacity:1;fill-rule:nonzero;stroke:none"
         id="path34" />
      <path
         d="m 18646.8,14846.9 h 170.4 l -84,261.7 z m 9.2,413.8 h 157.2 l 235.4,-665.1 h -150.7 l -43.9,136.7 h -245 l -45.1,-136.7 h -145.3 l 237.4,665.1"
         style="fill:#102a54;fill-opacity:1;fill-rule:nonzero;stroke:none"
         id="path36" />
      <path
         d="m 19196.7,15191.2 c 53.6,54.7 121.7,82.1 204.4,82.1 110.7,0 191.7,-36.7 242.9,-110.1 28.2,-41.2 43.4,-82.6 45.5,-124.1 h -139 c -8.8,31.9 -20.2,56 -34,72.2 -24.8,28.9 -61.4,43.3 -110.1,43.3 -49.5,0 -88.5,-20.3 -117.1,-61.1 -28.6,-40.8 -42.9,-98.4 -42.9,-173.1 0,-74.5 15.1,-130.4 45.3,-167.6 30.1,-37.1 68.4,-55.7 114.9,-55.7 47.7,0 84,15.9 109.1,47.8 13.8,17.2 25.3,42.9 34.4,77.2 h 138.1 c -11.9,-72.5 -42.4,-131.5 -91.3,-176.9 -49,-45.4 -111.7,-68.1 -188.2,-68.1 -94.6,0 -169,30.7 -223.2,92 -54.1,61.7 -81.2,146.2 -81.2,253.6 0,116.1 30.8,205.6 92.4,268.5"
         style="fill:#102a54;fill-opacity:1;fill-rule:nonzero;stroke:none"
         id="path38" />
      <path
         d="m 20283.8,15260.7 v -117.8 h -199 v -547.3 h -139.9 v 547.3 H 19745 v 117.8 h 538.8"
         style="fill:#102a54;fill-opacity:1;fill-rule:nonzero;stroke:none"
         id="path40" />
      <path
         d="M 22844.2,13218 H 12279.6 v 338.6 H 22844.2 V 13218"
         style="fill:#ffffff;fill-opacity:1;fill-rule:nonzero;stroke:none"
         id="path42" />
      <path
         d="M 22844.2,12277.9 H 12279.6 v 338.6 h 10564.6 v -338.6"
         style="fill:#ffffff;fill-opacity:1;fill-rule:nonzero;stroke:none"
         id="path44" />
      <path
         d="M 22844.2,11337.7 H 12279.6 v 338.6 h 10564.6 v -338.6"
         style="fill:#ffffff;fill-opacity:1;fill-rule:nonzero;stroke:none"
         id="path46" />
      <path
         d="M 22844.2,10397.6 H 12279.6 v 338.6 h 10564.6 v -338.6"
         style="fill:#ffffff;fill-opacity:1;fill-rule:nonzero;stroke:none"
         id="path48" />
      <path
         d="M 22844.2,9457.4 H 12279.6 V 9796 h 10564.6 v -338.6"
         style="fill:#ffffff;fill-opacity:1;fill-rule:nonzero;stroke:none"
         id="path50" />
      <path
         d="M 22844.2,8517.2 H 12279.6 v 338.7 h 10564.6 v -338.7"
         style="fill:#ffffff;fill-opacity:1;fill-rule:nonzero;stroke:none"
         id="path52" />
      <path
         d="M 22844.2,7577.1 H 12279.6 v 338.6 h 10564.6 v -338.6"
         style="fill:#ffffff;fill-opacity:1;fill-rule:nonzero;stroke:none"
         id="path54" />
      <path
         d="M 22844.2,6636.9 H 12279.6 v 338.7 h 10564.6 v -338.7"
         style="fill:#ffffff;fill-opacity:1;fill-rule:nonzero;stroke:none"
         id="path56" />
      <path
         d="M 22844.2,5696.8 H 12279.6 v 338.6 h 10564.6 v -338.6"
         style="fill:#ffffff;fill-opacity:1;fill-rule:nonzero;stroke:none"
         id="path58" />
      <path
         d="M 22844.2,4756.6 H 12279.6 v 338.6 h 10564.6 v -338.6"
         style="fill:#ffffff;fill-opacity:1;fill-rule:nonzero;stroke:none"
         id="path60" />
      <path
         d="M 22844.2,3816.5 H 12279.6 v 338.6 h 10564.6 v -338.6"
         style="fill:#ffffff;fill-opacity:1;fill-rule:nonzero;stroke:none"
         id="path62" />
      <path
         d="M 22844.2,2876.3 H 12279.6 v 338.6 h 10564.6 v -338.6"
         style="fill:#ffffff;fill-opacity:1;fill-rule:nonzero;stroke:none"
         id="path64" />
      <path
         d="m 16503.3,9467.8 350.6,-118.9 264.9,17.6 -49.9,-120.8 451.5,-262.3 -268.8,-165.3 c -97.2,-59.8 -221.1,-53.8 -312,15.1 l -212.5,160.9 -398.6,104.3 174.8,369.4"
         style="fill:#ffc0b1;fill-opacity:1;fill-rule:nonzero;stroke:none"
         id="path66" />
      <path
         d="m 17714.2,9408.4 -320.2,-116.9 -314.8,85.8 -10.3,-131.6 -314.9,-272 243.4,-187.2 c 97.2,-59.8 221.1,-53.8 312.1,15.1 l 212.5,160.9 305.8,80 -113.6,365.9"
         style="fill:#ffc0b1;fill-opacity:1;fill-rule:nonzero;stroke:none"
         id="path68" />
      <path
         d="m 17405.2,8862.6 c -2,0 -4.1,0.5 -6,1.6 l -372.7,226.2 c -5.4,3.3 -7.2,10.4 -3.9,15.9 3.3,5.5 10.5,7.2 15.9,3.9 l 372.7,-226.2 c 5.5,-3.3 7.2,-10.4 3.9,-15.9 -2.2,-3.6 -6,-5.5 -9.9,-5.5"
         style="fill:#102a54;fill-opacity:1;fill-rule:nonzero;stroke:none"
         id="path70" />
      <path
         d="m 17283.6,8776.1 c -2,0 -4.1,0.5 -6,1.6 l -347.1,210.7 c -5.4,3.3 -7.2,10.4 -3.9,15.9 3.3,5.4 10.5,7.2 15.9,3.9 l 347.1,-210.7 c 5.5,-3.3 7.2,-10.4 3.9,-15.9 -2.2,-3.6 -6,-5.5 -9.9,-5.5"
         style="fill:#102a54;fill-opacity:1;fill-rule:nonzero;stroke:none"
         id="path72" />
      <path
         d="m 17516.6,8946.9 c -2.1,0 -4.1,0.5 -6,1.7 l -394.7,239.5 c -16,-3 -73.5,-14 -129,-26.7 -72.7,-16.8 -122.3,51.6 -124.3,54.5 l -7.1,9.9 235,149 c 5.4,3.4 12.5,1.8 15.9,-3.6 3.4,-5.4 1.8,-12.5 -3.5,-15.9 l -213.6,-135.4 c 14.9,-16 49.5,-45.9 92.4,-36 65.5,15 133.6,27.6 134.3,27.8 l 4.3,0.7 3.8,-2.2 398.5,-241.9 c 5.4,-3.3 7.2,-10.4 3.9,-15.8 -2.2,-3.6 -6,-5.6 -9.9,-5.6"
         style="fill:#102a54;fill-opacity:1;fill-rule:nonzero;stroke:none"
         id="path74" />
      <path
         d="m 15276.7,8776.8 216.8,-3091.4 c 8,-113.6 8.7,-227.7 2.1,-341.5 l -152,-2635 H 14704 l -689.3,3941.6 -45.6,2126.3 h 1307.6"
         style="fill:#0c203f;fill-opacity:1;fill-rule:nonzero;stroke:none"
         id="path76" />
      <path
         d="m 15276.7,8776.8 -383.2,-3301.1 c -10.8,-93.6 -25.7,-186.7 -44.5,-279.1 l -506.2,-2487.7 h -738 l 91.7,2566 -167.1,1935.5 c 0,0 -483.2,695.2 -196.1,1566.4 h 1943.4"
         style="fill:#102a54;fill-opacity:1;fill-rule:nonzero;stroke:none"
         id="path78" />
      <path
         d="m 13667.3,2466.5 h 449.4 v -118.3 l 464.4,-174.1 c 62.1,-23.3 103.3,-82.8 103.3,-149.2 v 0 h -1021.7 c -50.1,0 -87.1,46.6 -75.8,95.4 l 80.4,346.2"
         style="fill:#102a54;fill-opacity:1;fill-rule:nonzero;stroke:none"
         id="path80" />
      <path
         d="m 13705.6,2708.9 -9.1,-242.4 h 363.3 l 41.6,242.4 h -395.8"
         style="fill:#ffc0b1;fill-opacity:1;fill-rule:nonzero;stroke:none"
         id="path82" />
      <path
         d="m 14816.6,2466.5 h 449.5 v -118.3 l 464.3,-174.1 c 62.2,-23.3 103.4,-82.8 103.4,-149.2 v 0 H 14812 c -50,0 -87,46.6 -75.7,95.4 l 80.3,346.2"
         style="fill:#0c203f;fill-opacity:1;fill-rule:nonzero;stroke:none"
         id="path84" />
      <path
         d="m 14832.2,2708.9 19.5,-242.4 h 363.4 l 16.3,242.4 h -399.2"
         style="fill:#ffc0b1;fill-opacity:1;fill-rule:nonzero;stroke:none"
         id="path86" />
      <path
         d="m 16664.6,8475.6 -911.7,1228.8 c -37.6,149.7 -75.3,299.3 -113,449 -72.9,289.4 -145.8,578.7 -218.7,868.1 -58,230.3 -89.7,492.3 -180.7,711.5 -71.2,171.2 -240.9,287.6 -426.3,292.1 -3.8,0.1 -7.7,0.1 -11.5,0.1 h -1189.3 c -274.9,0 -492.2,-233.1 -472.9,-507.3 l 192.8,-2741.1 h 1943.4 v 316.5 l 970.3,-923.3 417.6,305.6"
         style="fill:#3c94f8;fill-opacity:1;fill-rule:nonzero;stroke:none"
         id="path88" />
      <path
         d="m 15276.7,8968.9 c -6.3,0 -11.4,5.1 -11.5,11.4 l -5.3,377.2 c -0.1,6.4 5,11.6 11.4,11.7 6,0 11.6,-5 11.7,-11.4 l 5.3,-377.2 c 0.1,-6.4 -5,-11.6 -11.4,-11.7 -0.1,0 -0.1,0 -0.2,0"
         style="fill:#102a54;fill-opacity:1;fill-rule:nonzero;stroke:none"
         id="path90" />
      <path
         d="m 15175.7,10202.6 c -6.2,0 -11.4,4.9 -11.6,11.1 l -33.9,958.4 c -0.2,6.4 4.8,11.8 11.2,12 6.5,0.1 11.7,-4.8 11.9,-11.1 l 33.9,-958.4 c 0.2,-6.4 -4.8,-11.8 -11.1,-12 -0.2,0 -0.3,0 -0.4,0"
         style="fill:#102a54;fill-opacity:1;fill-rule:nonzero;stroke:none"
         id="path92" />
      <path
         d="m 14278.9,11702.7 v 0 c -143,-1.5 -257.1,119.1 -247.5,261.8 l 57.2,855.2 346.9,3.7 85,-850.9 c 14.3,-143.4 -97.5,-268.3 -241.6,-269.8"
         style="fill:#ffc0b1;fill-opacity:1;fill-rule:nonzero;stroke:none"
         id="path94" />
      <path
         d="m 14016.8,13531.6 1097.4,11.7 -8.4,-68.1 c -29.1,-235.7 -36.7,-473.7 -18.4,-710.5 8.8,-113.2 2.1,-248.4 -53.3,-358.2 -108.6,-215.4 -365.9,-314.1 -586.1,-215.6 -222,99.3 -567.3,414.1 -431.2,1340.7"
         style="fill:#ffc0b1;fill-opacity:1;fill-rule:nonzero;stroke:none"
         id="path96" />
      <path
         d="m 14641.4,12735.2 c -6.3,0 -11.5,5.1 -11.6,11.5 0,6.3 5.1,11.6 11.5,11.6 l 101.3,1.1 c 8.8,0.1 16.8,4.2 22,11.2 5.2,7 6.8,15.9 4.4,24.3 l -91.3,316.5 c -1.8,6.1 1.7,12.5 7.9,14.3 6.1,1.7 12.5,-1.8 14.3,-7.9 l 91.3,-316.5 c 4.5,-15.4 1.5,-31.6 -8,-44.5 -9.6,-12.8 -24.3,-20.3 -40.3,-20.5 l -101.4,-1.1 h -0.1"
         style="fill:#102a54;fill-opacity:1;fill-rule:nonzero;stroke:none"
         id="path98" />
      <path
         d="m 14555.6,13080.2 c 0.3,-30.8 -24.4,-56 -55.1,-56.3 -30.8,-0.4 -56,24.3 -56.3,55.1 -0.4,30.8 24.3,56 55.1,56.3 30.8,0.3 56,-24.4 56.3,-55.1"
         style="fill:#102a54;fill-opacity:1;fill-rule:nonzero;stroke:none"
         id="path100" />
      <path
         d="m 14952.9,13095.4 c 0.4,-30.7 -24.3,-56 -55.1,-56.3 -30.8,-0.3 -56,24.4 -56.3,55.1 -0.3,30.8 24.3,56 55.1,56.4 30.8,0.3 56,-24.4 56.3,-55.2"
         style="fill:#102a54;fill-opacity:1;fill-rule:nonzero;stroke:none"
         id="path102" />
      <path
         d="m 14568.6,13162.1 -229.2,-2.5 c -16.9,-0.2 -30.7,13.4 -30.9,30.3 v 0 c -0.2,16.9 13.4,30.7 30.3,30.9 l 229.1,2.4 c 16.9,0.2 30.7,-13.3 30.9,-30.2 v 0 c 0.2,-16.9 -13.3,-30.7 -30.2,-30.9"
         style="fill:#102a54;fill-opacity:1;fill-rule:nonzero;stroke:none"
         id="path104" />
      <path
         d="m 15010.9,13178.5 -229.1,-2.4 c -16.9,-0.2 -30.8,13.3 -30.9,30.2 v 0 c -0.2,16.9 13.3,30.7 30.2,30.9 l 229.2,2.5 c 16.8,0.2 30.7,-13.4 30.9,-30.3 v 0 c 0.1,-16.9 -13.4,-30.7 -30.3,-30.9"
         style="fill:#102a54;fill-opacity:1;fill-rule:nonzero;stroke:none"
         id="path106" />
      <path
         d="m 14500.6,12159.7 c -1.1,0 -2.3,0.2 -3.4,0.6 -6.6,2 -162,52 -270.5,176.8 -4.2,4.8 -3.7,12.1 1.2,16.3 4.8,4.1 12.1,3.6 16.3,-1.2 104,-119.7 258.4,-169.4 259.9,-169.9 6.1,-1.9 9.5,-8.4 7.6,-14.5 -1.6,-4.9 -6.2,-8.1 -11.1,-8.1"
         style="fill:#102a54;fill-opacity:1;fill-rule:nonzero;stroke:none"
         id="path108" />
      <path
         d="m 14134.5,13491 c 0,0 19.9,-385.9 -71.6,-447.7 -91.4,-61.9 -123.2,54.8 -123.2,54.8 0,0 -134.8,393.6 74.4,483.2 128.2,54.9 120.4,-90.3 120.4,-90.3"
         style="fill:#102a54;fill-opacity:1;fill-rule:nonzero;stroke:none"
         id="path110" />
      <path
         d="m 14091,13075.2 c 1,-99.3 -53,-180.4 -120.7,-181.1 -67.8,-0.7 -123.6,79.2 -124.6,178.5 -1.1,99.2 53,180.3 120.7,181 67.7,0.8 123.5,-79.1 124.6,-178.4"
         style="fill:#ffc0b1;fill-opacity:1;fill-rule:nonzero;stroke:none"
         id="path112" />
      <path
         d="m 14730.3,12523.5 c -0.1,0 -0.3,0 -0.4,0 -4.6,0.2 -114,5.8 -210.1,151.3 -3.5,5.3 -2,12.5 3.3,16 5.3,3.5 12.5,2.1 16,-3.3 89.1,-134.9 190.6,-140.9 191.7,-140.9 6.3,-0.3 11.3,-5.7 11,-12 -0.2,-6.2 -5.3,-11.1 -11.5,-11.1"
         style="fill:#102a54;fill-opacity:1;fill-rule:nonzero;stroke:none"
         id="path114" />
      <path
         d="m 15488.2,13749.5 c -130.6,104.9 -269.1,65.6 -269.1,65.6 0,0 147.1,105.6 46.3,125 -100.8,19.5 -830.2,-48.3 -830.2,-48.3 v 0 c -468.5,-20.2 -725.3,-506.4 -357.7,-498 210.6,4.7 383.2,77.8 496.4,143.3 84,-85.2 307.9,-250.9 729.4,-172.9 556.9,103 -11.1,241.5 -11.1,241.5 0,0 326.5,38.9 196,143.8"
         style="fill:#102a54;fill-opacity:1;fill-rule:nonzero;stroke:none"
         id="path116" />
      <path
         d="m 14247.8,11701.9 h 23.3 c 178.5,0 323.3,144.7 323.3,323.3 v 0 h -669.9 v 0 c 0,-178.6 144.8,-323.3 323.3,-323.3"
         style="fill:#ffc0b1;fill-opacity:1;fill-rule:nonzero;stroke:none"
         id="path118" />
      <path
         d="m 13984.6,11593.8 499.6,-981 c 51.6,-101.4 135.4,-182.7 238.2,-231.4 l 1808.1,-856.2 -224.9,-475.1 -1885.4,475.1 c -318.7,80.3 -597.8,272.5 -786.5,541.6 l -203.3,289.9 c -254.2,362.5 -250.6,846.3 8.9,1205 l 51,70.6 c 127.3,176 395.7,155.1 494.3,-38.5"
         style="fill:#3c94f8;fill-opacity:1;fill-rule:nonzero;stroke:none"
         id="path120" />
      <path
         d="m 16305.6,9038.5 c -0.9,0 -1.8,0.1 -2.8,0.4 L 14417.4,9514 c -321.3,80.9 -603,274.9 -793.2,546.2 -3.6,5.2 -2.4,12.4 2.9,16.1 5.2,3.6 12.4,2.4 16,-2.9 187.1,-266.7 464.1,-457.4 780,-537 l 1885.4,-475.1 c 6.2,-1.6 9.9,-7.8 8.3,-14 -1.3,-5.3 -6,-8.8 -11.2,-8.8"
         style="fill:#102a54;fill-opacity:1;fill-rule:nonzero;stroke:none"
         id="path122" />
      <path
         d="m 15547.3,9979.2 c -1.6,0 -3.2,0.3 -4.8,1 l -717.9,331.5 c -189.1,85 -343.6,234.5 -434.7,420.9 l -485.8,993.9 c -2.8,5.7 -0.5,12.6 5.3,15.4 5.7,2.8 12.6,0.5 15.4,-5.3 l 485.9,-993.9 c 88.7,-181.5 239.1,-327.1 423.5,-410 l 718,-331.5 c 5.8,-2.7 8.3,-9.5 5.6,-15.3 -1.9,-4.2 -6.1,-6.7 -10.5,-6.7"
         style="fill:#102a54;fill-opacity:1;fill-rule:nonzero;stroke:none"
         id="path124" />
      <path
         d="m 16594.3,8424.1 79.9,-104.3 90.9,-32.8 c 33.2,-12 54.7,-44.4 52.8,-79.7 l -8.8,-168.3 c -2.4,-44.7 -33,-82.8 -76.1,-94.8 l -123.5,-34.4 c -26.2,-7.3 -53.5,-9.4 -80.5,-6.2 l -58.6,7 c -56.1,6.6 -100.6,50.1 -108.5,106 l -16.7,117.5 -42.2,76.8 291.3,213.2"
         style="fill:#ffc0b1;fill-opacity:1;fill-rule:nonzero;stroke:none"
         id="path126" />
      <path
         d="m 16427.5,7901.1 c -13.4,58.6 23.4,117.1 81.9,130.5 l 375.4,85.8 c 58.5,13.4 117,-23.3 130.4,-81.9 l 17.3,-75.7 -587.7,-134.3 z m 1304.6,218.5 -664.2,-151.8 -17.3,75.8 c -17.9,78 -95.9,127 -173.9,109.1 l -375.4,-85.8 c -78,-17.8 -127,-95.8 -109.1,-173.8 l 17.3,-75.9 -664.2,-151.8 c -75.9,-17.4 -123.4,-93 -106,-168.9 l 315.1,-1378.3 c 17.3,-75.9 92.9,-123.4 168.9,-106.1 l 1986.7,454.3 c 76,17.3 123.5,93 106.1,168.9 L 17901,8013.5 c -17.4,76 -93,123.5 -168.9,106.1"
         style="fill:#102a54;fill-opacity:1;fill-rule:nonzero;stroke:none"
         id="path128" />
      <path
         d="m 16914.8,7122.2 -1249.1,427.2 c -14.2,4.8 -21.8,20.3 -16.9,34.5 4.8,14.2 20.3,21.9 34.5,16.9 l 1217.2,-416.2 914.6,902.9 c 10.6,10.6 27.9,10.5 38.4,-0.2 10.6,-10.7 10.4,-27.9 -0.2,-38.5 l -938.5,-926.6"
         style="fill:#0c203f;fill-opacity:1;fill-rule:nonzero;stroke:none"
         id="path130" />
      <path
         d="m 17034.8,7132.1 -236.9,-54.2 c -8.5,-2 -17,3.4 -18.9,11.9 l -31.4,137 c -1.9,8.5 3.4,17 11.9,19 l 237,54.1 c 8.5,2 17,-3.4 18.9,-11.9 l 31.3,-137 c 2,-8.5 -3.3,-17 -11.9,-18.9"
         style="fill:#ffb841;fill-opacity:1;fill-rule:nonzero;stroke:none"
         id="path132" />
      <path
         d="m 16619.1,8186.7 74.2,16.9 c 0,0 7,-116.5 35.3,-161.1 28.4,-44.7 75.1,-31.4 75.1,-31.4 l 14.2,196.2 -89.3,63.3 -109.5,-83.9"
         style="fill:#ffc0b1;fill-opacity:1;fill-rule:nonzero;stroke:none"
         id="path134" />
      <path
         d="m 16787.9,8000.1 c -20.5,0 -48.2,7.9 -66.9,37.5 -24.7,39 -33.7,108 -36.1,130.5 l -67.1,9.6 c -4.9,0.7 -8.4,5.3 -7.7,10.3 0.8,4.9 5.3,8.3 10.3,7.7 l 81.3,-11.6 0.6,-7.3 c 0.1,-0.8 7.2,-87.3 34,-129.5 24.4,-38.5 64.5,-27.6 64.9,-27.5 4.8,1.4 9.8,-1.4 11.2,-6.2 1.4,-4.8 -1.4,-9.8 -6.2,-11.2 -4.8,-1.3 -11.1,-2.3 -18.3,-2.3"
         style="fill:#102a54;fill-opacity:1;fill-rule:nonzero;stroke:none"
         id="path136" />
      <path
         d="m 16693.3,8016.8 c 0,0 -50.9,104.7 -85.2,123.1 -34.4,18.4 -206.1,-57.2 -215.7,-108 -9.7,-50.8 -7.7,-71.4 -7.7,-71.4 0,0 -3.5,-58.7 144.3,-56.9 147.8,1.9 164.3,113.2 164.3,113.2"
         style="fill:#ffc0b1;fill-opacity:1;fill-rule:nonzero;stroke:none"
         id="path138" />
      <path
         d="m 16376.8,7963.7 c -4.3,0 -8.1,3.1 -8.9,7.4 -0.2,1.2 -20.3,115.8 88.5,157.5 128.1,49.1 179,4.9 198,-25.9 2.6,-4.2 1.3,-9.8 -3,-12.4 -4.2,-2.7 -9.8,-1.4 -12.4,2.9 -27.7,44.9 -90.2,51.4 -176.1,18.5 -94.9,-36.4 -77.9,-133.1 -77.2,-137.2 1,-4.9 -2.3,-9.7 -7.2,-10.6 -0.6,-0.1 -1.1,-0.2 -1.7,-0.2"
         style="fill:#102a54;fill-opacity:1;fill-rule:nonzero;stroke:none"
         id="path140" />
      <path
         d="m 14244.8,11689.9 c -85.8,0 -157.5,25.2 -213.2,75.2 -109,97.6 -118.3,253.3 -118.6,259.9 -0.4,6.4 4.5,11.8 10.9,12.1 6.4,0.4 11.8,-4.5 12.1,-10.9 0.1,-1.5 9.3,-153 111.1,-244 56.7,-50.8 131.9,-73.7 223.3,-68.4 6.3,0.5 11.8,-4.5 12.2,-10.9 0.4,-6.3 -4.5,-11.8 -10.9,-12.2 -9.1,-0.5 -18.1,-0.8 -26.9,-0.8"
         style="fill:#102a54;fill-opacity:1;fill-rule:nonzero;stroke:none"
         id="path142" />
      <path
         d="M 19897.6,8786.5 19240.7,5758 c -24.1,-111.3 -41.1,-224.1 -50.9,-337.7 l -226.6,-2629.6 633,-91.6 1246.2,3802.5 349.3,2097.9 -1294.1,187"
         style="fill:#0c203f;fill-opacity:1;fill-rule:nonzero;stroke:none"
         id="path144" />
      <path
         d="m 19976.3,8765.3 763.9,-3488 c 24,-91.1 51.9,-181.2 83.6,-270 l 852.8,-2391.1 730.6,104.3 -453.5,2527.3 -108.3,1939.7 c 0,0 380.1,756.5 -27.3,1578.3 l -1841.8,-0.5"
         style="fill:#102a54;fill-opacity:1;fill-rule:nonzero;stroke:none"
         id="path146" />
      <path
         d="m 22385.7,2428.4 h -449.4 V 2310.1 L 21471.9,2136 c -62.1,-23.3 -103.3,-82.7 -103.3,-149.1 v 0 h 1021.7 c 50.1,0 87.1,46.6 75.8,95.3 l -80.4,346.2"
         style="fill:#102a54;fill-opacity:1;fill-rule:nonzero;stroke:none"
         id="path148" />
      <path
         d="m 22322.3,2708.4 34.3,-280 h -389.3 l -48.9,222.3 403.9,57.7"
         style="fill:#ffc0b1;fill-opacity:1;fill-rule:nonzero;stroke:none"
         id="path150" />
      <path
         d="m 19412.9,2428.4 h -449.4 l -33.8,-130.9 -430.5,-161.5 c -62.2,-23.3 -103.4,-82.7 -103.4,-149.1 v 0 h 1021.7 c 50.1,0 87.1,46.6 75.8,95.3 l -80.4,346.2"
         style="fill:#0c203f;fill-opacity:1;fill-rule:nonzero;stroke:none"
         id="path152" />
      <path
         d="m 19459,2719 -63.6,-290.6 h -398.2 l 31.2,352.8 430.6,-62.2"
         style="fill:#ffc0b1;fill-opacity:1;fill-rule:nonzero;stroke:none"
         id="path154" />
      <path
         d="m 19894.2,8765.3 24.7,2776.9 c 2.3,253.3 208.2,457.4 461.5,457.4 h 1082 c 260.6,0 469.5,-215.5 461.3,-475.9 l -86,-2758.4 h -1943.5"
         style="fill:#e6515c;fill-opacity:1;fill-rule:nonzero;stroke:none"
         id="path156" />
      <path
         d="m 19944.9,11691.2 -481.5,-1321.6 c -52.2,-143.2 -161.6,-258.2 -301.9,-317.6 l -1455.9,-615.8 128.6,-414.4 1343.8,167.5 c 288.8,36 558,164.9 766.9,367.4 v 0 2134.5"
         style="fill:#e6515c;fill-opacity:1;fill-rule:nonzero;stroke:none"
         id="path158" />
      <path
         d="m 21865.4,11763.2 879.1,-1450.3 c 68.6,-113.1 114.6,-238.5 135.3,-369.2 v 0 c 34.9,-219.4 -2.9,-444.3 -107.4,-640.4 l -652.3,-1223.5 -444.5,179.7 482.4,1522.7 -624.2,851.2 331.6,1129.8"
         style="fill:#e6515c;fill-opacity:1;fill-rule:nonzero;stroke:none"
         id="path160" />
      <path
         d="m 19909.8,9504.4 h -0.1 c -6.4,0 -11.5,5.2 -11.5,11.5 l 6.4,1729.8 c 0.1,6.3 5.2,11.5 11.6,11.5 v 0 c 6.4,0 11.6,-5.2 11.5,-11.6 l -6.4,-1729.7 c 0,-6.4 -5.2,-11.5 -11.5,-11.5"
         style="fill:#102a54;fill-opacity:1;fill-rule:nonzero;stroke:none"
         id="path162" />
      <path
         d="m 21874.1,10157.7 c -3.5,0 -7,1.6 -9.3,4.7 l -340.4,464.2 c -3.7,5.1 -2.6,12.3 2.5,16.1 5.2,3.8 12.4,2.7 16.2,-2.5 l 340.3,-464.1 c 3.8,-5.2 2.7,-12.4 -2.4,-16.2 -2.1,-1.5 -4.5,-2.2 -6.9,-2.2"
         style="fill:#102a54;fill-opacity:1;fill-rule:nonzero;stroke:none"
         id="path164" />
      <path
         d="m 20671.2,13926.8 c -107.2,9.5 -215.9,-3.6 -309.6,-37.1 -258.9,-92.5 -312.3,-363.3 -284.5,-596.8 21.4,-179.5 20.3,-359.6 6.4,-539.6 -8.8,-113.3 -2.1,-248.4 53.3,-358.2 108.6,-215.4 365.9,-314.1 586.1,-215.7 219.1,98 349.4,301.5 408.9,527.5 47.2,179.3 29.6,361.9 43,544.5 12.6,171.9 27.1,335.3 -92.4,479.4 -98.6,118.9 -253.2,181.9 -411.2,196"
         style="fill:#ffc0b1;fill-opacity:1;fill-rule:nonzero;stroke:none"
         id="path166" />
      <path
         d="m 20892,11691.2 v 0 c 143.1,-1.5 257.1,119.1 247.5,261.8 l -57.2,855.2 -346.9,3.7 -85,-850.9 c -14.3,-143.4 97.5,-268.2 241.6,-269.8"
         style="fill:#ffc0b1;fill-opacity:1;fill-rule:nonzero;stroke:none"
         id="path168" />
      <path
         d="m 20529.5,12723.7 c 0,0 0,0 -0.1,0 l -101.3,1.1 c -16.1,0.2 -30.8,7.7 -40.3,20.5 -9.6,12.9 -12.5,29.1 -8.1,44.5 l 91.3,316.5 c 1.8,6.1 8.3,9.7 14.3,7.9 6.2,-1.8 9.7,-8.2 7.9,-14.3 l -91.3,-316.5 c -2.4,-8.4 -0.8,-17.2 4.4,-24.3 5.2,-7 13.3,-11.1 22,-11.2 l 101.4,-1.1 c 6.3,0 11.5,-5.3 11.4,-11.6 -0.1,-6.4 -5.2,-11.5 -11.6,-11.5"
         style="fill:#102a54;fill-opacity:1;fill-rule:nonzero;stroke:none"
         id="path170" />
      <path
         d="m 20615.3,13068.7 c -0.3,-30.8 24.4,-56 55.1,-56.3 30.8,-0.4 56,24.3 56.4,55.1 0.3,30.8 -24.4,56 -55.2,56.3 -30.7,0.3 -55.9,-24.3 -56.3,-55.1"
         style="fill:#102a54;fill-opacity:1;fill-rule:nonzero;stroke:none"
         id="path172" />
      <path
         d="m 20218,13083.9 c -0.3,-30.7 24.3,-56 55.1,-56.3 30.8,-0.3 56,24.4 56.3,55.2 0.4,30.7 -24.3,55.9 -55.1,56.3 -30.8,0.3 -56,-24.4 -56.3,-55.2"
         style="fill:#102a54;fill-opacity:1;fill-rule:nonzero;stroke:none"
         id="path174" />
      <path
         d="m 20670.3,12148.3 c -4.9,0 -9.5,3.1 -11,8 -2,6.1 1.4,12.6 7.5,14.5 1.6,0.5 155.9,50.2 260,169.9 4.2,4.9 11.5,5.4 16.3,1.2 4.8,-4.2 5.3,-11.5 1.1,-16.3 -108.4,-124.8 -263.9,-174.7 -270.4,-176.8 -1.2,-0.4 -2.4,-0.5 -3.5,-0.5"
         style="fill:#102a54;fill-opacity:1;fill-rule:nonzero;stroke:none"
         id="path176" />
      <path
         d="m 21036.4,13479.6 c 0,0 -19.9,-386 71.6,-447.8 91.5,-61.9 123.2,54.8 123.2,54.8 0,0 134.8,393.6 -74.4,483.2 -128.2,55 -120.4,-90.2 -120.4,-90.2"
         style="fill:#102a54;fill-opacity:1;fill-rule:nonzero;stroke:none"
         id="path178" />
      <path
         d="m 21079.9,13063.7 c -1,-99.3 53,-180.4 120.8,-181.1 67.7,-0.7 123.5,79.2 124.6,178.5 1,99.3 -53,180.3 -120.8,181.1 -67.7,0.7 -123.5,-79.2 -124.6,-178.5"
         style="fill:#ffc0b1;fill-opacity:1;fill-rule:nonzero;stroke:none"
         id="path180" />
      <path
         d="m 20108.3,13638.1 c 0,0 -115.2,-43 -125.4,-167.4 -8.6,-103.5 13.1,-305.9 108.9,-367.6 0,0 -7.9,207.5 16.5,535"
         style="fill:#102a54;fill-opacity:1;fill-rule:nonzero;stroke:none"
         id="path182" />
      <path
         d="m 20273.7,13241.1 c -87,0 -157.7,-70.8 -157.7,-157.7 0,-87 70.7,-157.8 157.7,-157.8 87,0 157.8,70.8 157.8,157.8 0,86.9 -70.8,157.7 -157.8,157.7 z m 0,-324.6 c -92,0 -166.8,74.9 -166.8,166.9 0,91.9 74.8,166.8 166.8,166.8 92,0 166.8,-74.9 166.8,-166.8 0,-92 -74.8,-166.9 -166.8,-166.9"
         style="fill:#102a54;fill-opacity:1;fill-rule:nonzero;stroke:none"
         id="path184" />
      <path
         d="m 20691.8,13241.1 c -87,0 -157.7,-70.8 -157.7,-157.7 0,-87 70.7,-157.8 157.7,-157.8 87,0 157.8,70.8 157.8,157.8 0,86.9 -70.8,157.7 -157.8,157.7 z m 0,-324.6 c -92,0 -166.8,74.9 -166.8,166.9 0,91.9 74.8,166.8 166.8,166.8 92,0 166.8,-74.9 166.8,-166.8 0,-92 -74.8,-166.9 -166.8,-166.9"
         style="fill:#102a54;fill-opacity:1;fill-rule:nonzero;stroke:none"
         id="path186" />
      <path
         d="m 20459.4,12522.2 c -5.9,0 -11,4.5 -11.5,10.5 -0.6,6.4 4.1,12 10.4,12.6 1.6,0.1 157.8,16.4 212.1,158.2 2.3,6 8.9,8.9 14.9,6.7 6,-2.3 9,-9 6.7,-15 -59.6,-155.4 -229.9,-172.8 -231.6,-172.9 -0.3,0 -0.7,-0.1 -1,-0.1"
         style="fill:#102a54;fill-opacity:1;fill-rule:nonzero;stroke:none"
         id="path188" />
      <path
         d="m 20171.9,13307.3 c -15.8,0 -29.5,11.9 -31.5,28 -2,17.4 10.4,33.2 27.8,35.3 l 228.3,27 c 17.4,2.1 33.2,-10.3 35.2,-27.7 2.1,-17.4 -10.3,-33.2 -27.7,-35.3 l -228.3,-27 c -1.3,-0.2 -2.5,-0.3 -3.8,-0.3"
         style="fill:#102a54;fill-opacity:1;fill-rule:nonzero;stroke:none"
         id="path190" />
      <path
         d="m 20828.7,13292 c -2.7,0 -5.3,0.3 -8,1 l -222.5,57.8 c -17,4.4 -27.2,21.7 -22.8,38.6 4.5,17 21.7,27.2 38.7,22.8 l 222.5,-57.8 c 17,-4.4 27.2,-21.7 22.8,-38.6 -3.7,-14.3 -16.6,-23.8 -30.7,-23.8"
         style="fill:#102a54;fill-opacity:1;fill-rule:nonzero;stroke:none"
         id="path192" />
      <path
         d="m 20654.3,11999.6 211.3,-298.5 -80.7,-41.9 c -123.6,-64.1 -273.2,14.8 -290,153.1 l -22.8,187.3 h 182.2"
         style="fill:#ffffff;fill-opacity:1;fill-rule:nonzero;stroke:none"
         id="path194" />
      <path
         d="m 20865.6,11701.1 92.9,-50.9 c 118.8,-65.1 266.5,4.5 291.9,137.5 l 40.6,211.9 h -154.7 l -270.7,-298.5"
         style="fill:#ffffff;fill-opacity:1;fill-rule:nonzero;stroke:none"
         id="path196" />
      <path
         d="m 20865.6,11701.1 76.2,-41.7 -6.3,-2096.7 -218.2,-353.5 -150.6,396.3 227.3,2058.4 71.6,37.2"
         style="fill:#102a54;fill-opacity:1;fill-rule:nonzero;stroke:none"
         id="path198" />
      <path
         d="m 21743.3,8232.1 -56.9,-111.8 -123.5,-40.5 251.8,-488.7 243.7,513.7 -315.1,127.3"
         style="fill:#ffc0b1;fill-opacity:1;fill-rule:nonzero;stroke:none"
         id="path200" />
      <path
         d="m 19894.2,8765.3 h 1943.5 v 108.8 h -1942.5 l -1,-108.8"
         style="fill:#ffffff;fill-opacity:1;fill-rule:nonzero;stroke:none"
         id="path202" />
      <path
         d="m 20445.6,8735.5 h -180.9 c -16.2,0 -29.3,13.2 -29.3,29.4 v 108.5 c 0,16.2 13.1,29.4 29.3,29.4 h 180.9 c 16.2,0 29.3,-13.2 29.3,-29.4 v -108.5 c 0,-16.2 -13.1,-29.4 -29.3,-29.4"
         style="fill:#0c203f;fill-opacity:1;fill-rule:nonzero;stroke:none"
         id="path204" />
      <path
         d="m 4530.08,12974 -824.66,1010 c -65.44,80.2 -62.06,196.2 7.92,272.4 v 0 c 78.02,85 210.23,90.2 294.8,11.8 L 5112.07,13244.3 6276.71,12235.1 5645.24,11709.3 4530.08,12974"
         style="fill:#ffc0b1;fill-opacity:1;fill-rule:nonzero;stroke:none"
         id="path206" />
      <path
         d="M 11505.1,14917.8 3653.47,13363.2 c -218.68,-43.3 -431.05,98.8 -474.35,317.5 v 0 c -43.3,218.7 98.87,431.1 317.55,474.4 l 7851.63,1554.6 156.8,-791.9"
         style="fill:#0c203f;fill-opacity:1;fill-rule:nonzero;stroke:none"
         id="path208" />
      <path
         d="m 11348.3,15709.7 1264.7,-161.1 -1107.9,-630.8 z"
         style="fill:#3d4d65;fill-opacity:1;fill-rule:nonzero;stroke:none"
         id="path210" />
      <g
         id="g212">
        <g
           id="g214"
           clip-path="url(#clipPath218)">
          <path
             d="m 12694,15560.7 c 17.3,-87.5 -66.2,-177.7 -186.5,-201.5 -120.2,-23.8 -231.7,27.8 -249.1,115.2 -17.3,87.5 66.2,177.6 186.4,201.5 120.3,23.8 231.8,-27.8 249.2,-115.2"
             style="fill:#0c203f;fill-opacity:1;fill-rule:nonzero;stroke:none"
             id="path220" />
        </g>
      </g>
      <path
         d="m 3472.8,14150.3 -22.66,114.5 c -10.42,52.6 1.76,107.6 33.43,150.9 31.67,43.3 80.4,71.6 133.7,77.6 l 1495.8,168.4 c 69.2,7.8 134.77,29.6 194.87,64.8 l 298.69,174.9 24.59,-42 -298.69,-174.9 c -66.01,-38.7 -138.01,-62.6 -214.01,-71.1 l -1495.81,-168.5 c -40.39,-4.6 -75.86,-25.1 -99.85,-58 -24,-32.8 -32.87,-72.8 -24.98,-112.7 l 22.66,-114.4 -47.74,-9.5"
         style="fill:#0c203f;fill-opacity:1;fill-rule:nonzero;stroke:none"
         id="path222" />
      <path
         d="m 7867.91,2428.4 h 449.42 V 2310.1 L 8781.67,2136 c 62.16,-23.3 103.35,-82.7 103.35,-149.1 v 0 H 7863.29 c -50.05,0 -87.06,46.6 -75.74,95.3 l 80.36,346.2"
         style="fill:#0c203f;fill-opacity:1;fill-rule:nonzero;stroke:none"
         id="path224" />
      <path
         d="m 7883.44,2670.8 19.57,-242.4 h 363.38 l 16.23,242.4 h -399.18"
         style="fill:#ffc0b1;fill-opacity:1;fill-rule:nonzero;stroke:none"
         id="path226" />
      <path
         d="M 5658.48,2428.4 H 6107.9 V 2310.1 L 6572.24,2136 c 62.17,-23.3 103.35,-82.7 103.35,-149.1 v 0 H 5653.86 c -50.05,0 -87.06,46.6 -75.75,95.3 l 80.37,346.2"
         style="fill:#0c203f;fill-opacity:1;fill-rule:nonzero;stroke:none"
         id="path228" />
      <path
         d="m 5752.35,2670.8 -58.77,-242.4 h 363.38 l 60.98,242.4 h -365.59"
         style="fill:#ffc0b1;fill-opacity:1;fill-rule:nonzero;stroke:none"
         id="path230" />
      <path
         d="M 8327.99,8738.7 H 6384.53 c 0,0 -480.53,-653.4 -113.98,-1676.9 l -131.79,-1939 c -4.11,-60.3 -11.86,-120.4 -23.21,-179.8 L 5681.43,2670.8 h 595.28 l 852.66,2287.4 c 18.35,49.2 32.15,100.1 41.21,151.8 l 196.35,1121.9 137.14,-552.1 251.21,-3009 h 639.63 l 172.41,3034 -239.33,3033.9"
         style="fill:#3c94f8;fill-opacity:1;fill-rule:nonzero;stroke:none"
         id="path232" />
      <path
         d="m 7456.99,7661 v 1077.7 c 0,6.4 5.17,11.6 11.55,11.6 6.39,0 11.56,-5.2 11.56,-11.6 V 7705.8 l 42.97,30.6 c 66,47 105.4,123.4 105.4,204.5 v 797.8 c 0,6.4 5.17,11.6 11.55,11.6 6.39,0 11.56,-5.2 11.56,-11.6 v -797.8 c 0,-88.5 -43.03,-172 -115.1,-223.3 l -79.49,-56.6"
         style="fill:#102a54;fill-opacity:1;fill-rule:nonzero;stroke:none"
         id="path234" />
      <path
         d="m 7366.93,6220.4 c -0.26,0 -0.54,0 -0.81,0 -6.37,0.4 -11.17,5.9 -10.72,12.3 l 101.62,1451.5 c 0.45,6.3 5.95,11.2 12.33,10.7 6.37,-0.4 11.17,-6 10.72,-12.3 L 7378.45,6231.1 c -0.43,-6.1 -5.5,-10.7 -11.52,-10.7"
         style="fill:#102a54;fill-opacity:1;fill-rule:nonzero;stroke:none"
         id="path236" />
      <path
         d="m 7329.58,11657.1 v 0 c -143.04,-1.5 -257.07,119.1 -247.52,261.8 l 57.26,855.2 346.9,3.7 84.94,-850.9 c 14.31,-143.4 -97.46,-268.2 -241.58,-269.8"
         style="fill:#ffc0b1;fill-opacity:1;fill-rule:nonzero;stroke:none"
         id="path238" />
      <path
         d="m 7067.47,13486 1097.41,11.8 -8.42,-68.2 c -29.12,-235.7 -36.66,-473.7 -18.36,-710.4 8.76,-113.3 2.1,-248.4 -53.28,-358.3 -108.64,-215.3 -365.9,-314 -586.13,-215.6 -222,99.3 -567.27,414.1 -431.22,1340.7"
         style="fill:#ffc0b1;fill-opacity:1;fill-rule:nonzero;stroke:none"
         id="path240" />
      <path
         d="m 7692.06,12689.6 c -6.32,0 -11.48,5.1 -11.55,11.5 -0.07,6.3 5.05,11.6 11.43,11.6 l 101.35,1.1 c 8.75,0.1 16.77,4.2 22,11.2 5.23,7.1 6.83,15.9 4.4,24.3 l -91.33,316.5 c -1.77,6.1 1.77,12.5 7.9,14.3 6.15,1.7 12.53,-1.8 14.31,-7.9 l 91.33,-316.5 c 4.44,-15.4 1.5,-31.6 -8.07,-44.5 -9.57,-12.8 -24.26,-20.3 -40.3,-20.5 l -101.34,-1.1 c -0.04,0 -0.09,0 -0.13,0"
         style="fill:#102a54;fill-opacity:1;fill-rule:nonzero;stroke:none"
         id="path242" />
      <path
         d="m 7606.27,13034.6 c 0.33,-30.8 -24.35,-56 -55.12,-56.3 -30.78,-0.4 -55.99,24.3 -56.32,55.1 -0.33,30.8 24.35,56 55.12,56.3 30.78,0.3 55.99,-24.3 56.32,-55.1"
         style="fill:#102a54;fill-opacity:1;fill-rule:nonzero;stroke:none"
         id="path244" />
      <path
         d="m 8003.62,13049.8 c 0.33,-30.7 -24.35,-55.9 -55.13,-56.3 -30.77,-0.3 -55.99,24.4 -56.32,55.2 -0.33,30.7 24.35,55.9 55.13,56.3 30.77,0.3 55.99,-24.4 56.32,-55.2"
         style="fill:#102a54;fill-opacity:1;fill-rule:nonzero;stroke:none"
         id="path246" />
      <path
         d="m 7551.32,12114.2 c -1.15,0 -2.32,0.1 -3.47,0.5 -6.57,2.1 -162.03,52 -270.47,176.8 -4.18,4.8 -3.67,12.1 1.14,16.3 4.82,4.2 12.11,3.7 16.3,-1.2 104.05,-119.7 258.42,-169.4 259.97,-169.9 6.08,-1.9 9.46,-8.4 7.54,-14.5 -1.55,-4.9 -6.1,-8 -11.01,-8"
         style="fill:#102a54;fill-opacity:1;fill-rule:nonzero;stroke:none"
         id="path248" />
      <path
         d="m 7707.8,12523.1 c -41.06,0 -93.54,8.6 -155.88,36.2 -5.83,2.6 -8.46,9.4 -5.88,15.2 2.59,5.9 9.42,8.5 15.25,5.9 147.79,-65.5 236.5,-15.7 237.39,-15.2 5.49,3.2 12.57,1.3 15.79,-4.2 3.22,-5.4 1.4,-12.5 -4.07,-15.7 -2.42,-1.5 -38.63,-22.2 -102.6,-22.2"
         style="fill:#102a54;fill-opacity:1;fill-rule:nonzero;stroke:none"
         id="path250" />
      <path
         d="m 7141.65,13029.6 223.18,402.3 780.86,-99.8 c 0,0 291.24,176.6 19.19,431.1 -272.05,254.5 -1136.23,33.6 -1189.05,-187.3 -52.81,-220.8 -28.8,-486.2 -28.8,-486.2 l 194.62,-60.1"
         style="fill:#102a54;fill-opacity:1;fill-rule:nonzero;stroke:none"
         id="path252" />
      <path
         d="m 7141.65,13029.6 c 1.07,-99.3 -52.98,-180.4 -120.72,-181.1 -67.74,-0.7 -123.52,79.2 -124.59,178.5 -1.06,99.3 52.99,180.3 120.73,181.1 67.74,0.7 123.52,-79.2 124.58,-178.5"
         style="fill:#ffc0b1;fill-opacity:1;fill-rule:nonzero;stroke:none"
         id="path254" />
      <path
         d="m 7400.44,13124.9 c -8.74,0 -17.5,3.2 -24.43,9.5 -14.68,13.5 -15.85,36.2 -2.5,51 3.8,4.2 94.47,102.2 238.37,55.8 19.06,-6.1 29.53,-26.5 23.39,-45.6 -6.15,-19.1 -26.59,-29.5 -45.63,-23.4 -98.34,31.7 -159.92,-32.9 -162.5,-35.6 -7.16,-7.7 -16.92,-11.7 -26.7,-11.7"
         style="fill:#102a54;fill-opacity:1;fill-rule:nonzero;stroke:none"
         id="path256" />
      <path
         d="m 7804.55,13134.3 c -8.75,0 -17.51,3.2 -24.44,9.5 -14.68,13.5 -15.85,36.2 -2.5,51 3.8,4.1 94.48,102.2 238.38,55.8 19.05,-6.1 29.52,-26.6 23.39,-45.6 -6.15,-19.1 -26.58,-29.6 -45.63,-23.4 -98.33,31.7 -159.94,-32.9 -162.51,-35.7 -7.16,-7.6 -16.92,-11.6 -26.69,-11.6"
         style="fill:#102a54;fill-opacity:1;fill-rule:nonzero;stroke:none"
         id="path258" />
      <path
         d="m 10011.3,13266.3 -1199.75,1128.8 -400.2,-86 -74.68,95.2 c -34.73,44.3 -94.91,59.6 -146.57,37.3 l 94.59,-219.3 c 13.88,-32.2 37.5,-59.2 67.55,-77.3 l 272.78,-164 804.32,-985 -611.3,-460.4 496.68,-605.5 709.38,714 c 81.7,82.2 126.9,193.8 125.6,309.7 -1.3,118.8 -51.3,231.7 -138.4,312.5"
         style="fill:#ffc0b1;fill-opacity:1;fill-rule:nonzero;stroke:none"
         id="path260" />
      <path
         d="m 9378.28,11916.6 -532.2,688.5 -889.59,-641.5 c -23.02,3.1 -46.44,5 -70.27,5.2 l -1029.92,11.6 c -8.99,0.1 -17.9,-0.1 -26.79,-0.4 l 0.05,0.1 -898.19,647.7 -572.67,-647.4 936.12,-1030.9 v 0 l 89.71,-2210.8 h 1943.46 l 104.72,2215.4 945.57,962.5"
         style="fill:#102a54;fill-opacity:1;fill-rule:nonzero;stroke:none"
         id="path262" />
      <path
         d="m 4175.71,14297.2 -291.6,44.7 c -62.84,12.7 -144.38,-29.2 -199.66,-64.7 -35.85,-23.1 -67.93,-51.5 -95.62,-83.9 l -76.92,-90 c -17.36,-20.3 -6.86,-51.8 19.22,-57.6 l 88.12,-19.7 c 72.08,-16.1 147.52,3.1 203.11,51.8 l 147.29,133.1 91.68,-9.9 c 79.42,3.3 76.02,13 121.15,78.5 l 0.54,0.7 c 4.55,6.7 0.62,15.8 -7.31,17"
         style="fill:#ffc0b1;fill-opacity:1;fill-rule:nonzero;stroke:none"
         id="path264" />
      <path
         d="m 8720.28,14243 c -2.02,0 -4.07,0.5 -5.93,1.6 -75.42,45.3 -301.1,52.9 -303.37,53 -6.38,0.2 -11.38,5.5 -11.18,11.9 0.2,6.4 5.47,11.3 11.91,11.2 9.52,-0.3 233.98,-7.9 314.53,-56.3 5.47,-3.2 7.25,-10.3 3.96,-15.8 -2.17,-3.6 -5.99,-5.6 -9.92,-5.6"
         style="fill:#102a54;fill-opacity:1;fill-rule:nonzero;stroke:none"
         id="path266" />
      <path
         d="m 3969.66,14199.3 c -0.39,0 -0.79,0 -1.19,0.1 l -103.62,10.6 c -6.35,0.6 -10.97,6.3 -10.32,12.6 0.65,6.4 6.29,11 12.67,10.3 l 103.62,-10.5 c 6.35,-0.7 10.97,-6.4 10.32,-12.7 -0.6,-5.9 -5.62,-10.4 -11.48,-10.4"
         style="fill:#102a54;fill-opacity:1;fill-rule:nonzero;stroke:none"
         id="path268" />
      <path
         d="m 5030.19,12873.5 c -0.78,0 -1.58,0.1 -2.37,0.3 -6.25,1.3 -10.26,7.4 -8.96,13.6 31.17,149.8 209.58,250.5 217.16,254.8 5.56,3.1 12.6,1.1 15.71,-4.5 3.11,-5.6 1.1,-12.6 -4.47,-15.8 -1.76,-0.9 -176.77,-99.9 -205.77,-239.2 -1.14,-5.4 -5.94,-9.2 -11.3,-9.2"
         style="fill:#102a54;fill-opacity:1;fill-rule:nonzero;stroke:none"
         id="path270" />
      <path
         d="m 9725,12905.4 c -160.11,0 -294.79,76.7 -301.45,80.6 -5.52,3.2 -7.4,10.2 -4.21,15.8 3.19,5.5 10.25,7.4 15.79,4.2 1.86,-1.1 187.71,-106.8 375.38,-69.3 6.24,1.2 12.34,-2.8 13.59,-9.1 1.26,-6.2 -2.8,-12.3 -9.06,-13.6 -30.44,-6.1 -60.68,-8.6 -90.04,-8.6"
         style="fill:#102a54;fill-opacity:1;fill-rule:nonzero;stroke:none"
         id="path272" />
      <path
         d="m 28288.5,12114.4 h 499.4 l 91.8,-3248.4 h -1943.5 l 213.8,3248.4 h 468.6 669.9"
         style="fill:#ffffff;fill-opacity:1;fill-rule:nonzero;stroke:none"
         id="path274" />
      <path
         d="m 26765.5,5526.7 v -757.2 l 221.9,-2348.2 h 363.4 l 148.9,2293.4 56.4,812 h -790.6"
         style="fill:#ffc0b1;fill-opacity:1;fill-rule:nonzero;stroke:none"
         id="path276" />
      <path
         d="m 27350.8,2421.3 h -363.4 L 26951.3,2303 26487,2128.9 c -62.2,-23.3 -103.4,-82.7 -103.4,-149.1 v 0 h 1021.8 c 50,0 87,46.6 75.7,95.3 l -130.3,346.2"
         style="fill:#0c203f;fill-opacity:1;fill-rule:nonzero;stroke:none"
         id="path278" />
      <path
         d="m 27669.8,5526.7 v -762.4 l 221.9,-2343 h 363.4 l 145.8,2343 92.9,762.4 h -824"
         style="fill:#ffc0b1;fill-opacity:1;fill-rule:nonzero;stroke:none"
         id="path280" />
      <path
         d="m 28255.1,2421.3 h -363.4 l -56.9,-118.3 -464.3,-174.1 c -62.2,-23.3 -103.4,-82.7 -103.4,-149.1 v 0 h 1021.7 c 50.1,0 87.1,46.6 75.8,95.3 l -109.5,346.2"
         style="fill:#102a54;fill-opacity:1;fill-rule:nonzero;stroke:none"
         id="path282" />
      <path
         d="m 26936.2,8866 -437.7,-3339.3 h 2230.3 l -12.7,495.4 c -15.4,603.5 54.3,1207.3 220.4,1787.8 77.6,270.9 105.3,635 -56.8,1056.1 h -1943.5"
         style="fill:#102a54;fill-opacity:1;fill-rule:nonzero;stroke:none"
         id="path284" />
      <path
         d="m 30104.2,13332.9 -100.7,2035.4 H 29551 l -124.9,-1967 c -4.3,-68.2 -27.4,-133.9 -66.7,-189.7 l -836.6,-1097.2 114,-3779.7 1038.6,359.5 -365.1,1913.1 c -100.5,527.1 -6,1072.9 266.1,1535.4 l 404,686.6 c 89.5,152.2 132.6,327.3 123.8,503.6"
         style="fill:#e6515c;fill-opacity:1;fill-rule:nonzero;stroke:none"
         id="path286" />
      <path
         d="m 25858.7,13332.5 100.6,2035.4 h 452.6 l 124.9,-1967 c 4.3,-68.2 27.4,-133.8 66.7,-189.7 l 836.6,-1097.2 -114,-3779.7 -1038.6,359.5 415.1,2175.7 c 68.3,357.9 4.1,728.4 -180.6,1042.4 l -539.5,917.1 c -89.5,152.1 -132.6,327.2 -123.8,503.5"
         style="fill:#e6515c;fill-opacity:1;fill-rule:nonzero;stroke:none"
         id="path288" />
      <path
         d="m 27965.1,11791 h -23.2 c -178.6,0 -323.3,144.8 -323.3,323.4 v 0 h 669.9 v 0 c 0,-178.6 -144.8,-323.4 -323.4,-323.4"
         style="fill:#ffc0b1;fill-opacity:1;fill-rule:nonzero;stroke:none"
         id="path290" />
      <path
         d="m 27149.9,13397.8 -102,-889.1 h 332.7 l 72.7,925.7 -303.4,-36.6"
         style="fill:#102a54;fill-opacity:1;fill-rule:nonzero;stroke:none"
         id="path292" />
      <path
         d="m 27952.3,11851.5 v 0 c 126.9,-1.4 228,105.6 219.5,232.2 l -50.7,758.6 -307.8,3.3 -75.3,-754.8 c -12.7,-127.2 86.5,-237.9 214.3,-239.3"
         style="fill:#ffc0b1;fill-opacity:1;fill-rule:nonzero;stroke:none"
         id="path294" />
      <path
         d="m 28184.8,13473.8 -973.4,10.4 7.4,-60.5 c 25.9,-209 32.5,-420.1 16.3,-630.1 -7.8,-100.5 -1.9,-220.4 47.3,-317.8 96.3,-191 324.5,-278.6 519.9,-191.2 196.9,88 503.2,367.3 382.5,1189.2"
         style="fill:#ffc0b1;fill-opacity:1;fill-rule:nonzero;stroke:none"
         id="path296" />
      <path
         d="m 27630.8,12767.4 c -0.1,0 -0.1,0 -0.1,0 l -89.9,0.9 c -14.3,0.2 -27.3,6.8 -35.8,18.3 -8.5,11.4 -11.1,25.8 -7.1,39.4 l 81,280.7 c 1.5,5.5 7.2,8.6 12.7,7 5.4,-1.5 8.5,-7.2 7,-12.7 l -81.1,-280.7 c -2.1,-7.4 -0.7,-15.3 3.9,-21.5 4.7,-6.2 11.8,-9.9 19.6,-10 l 89.9,-0.9 c 5.6,-0.1 10.2,-4.7 10.1,-10.4 -0.1,-5.6 -4.6,-10.1 -10.2,-10.1"
         style="fill:#102a54;fill-opacity:1;fill-rule:nonzero;stroke:none"
         id="path298" />
      <path
         d="m 27706.9,13073.4 c -0.3,-27.3 21.6,-49.7 48.9,-50 27.3,-0.3 49.6,21.6 49.9,48.9 0.3,27.3 -21.6,49.7 -48.9,50 -27.3,0.3 -49.6,-21.6 -49.9,-48.9"
         style="fill:#102a54;fill-opacity:1;fill-rule:nonzero;stroke:none"
         id="path300" />
      <path
         d="m 27354.4,13086.9 c -0.3,-27.3 21.6,-49.7 48.9,-50 27.3,-0.2 49.7,21.6 50,48.9 0.2,27.3 -21.6,49.7 -48.9,50 -27.3,0.3 -49.7,-21.6 -50,-48.9"
         style="fill:#102a54;fill-opacity:1;fill-rule:nonzero;stroke:none"
         id="path302" />
      <path
         d="m 27755.6,12256.9 c -4.3,0 -8.4,2.8 -9.8,7.2 -1.7,5.4 1.3,11.1 6.7,12.8 1.4,0.5 138.3,44.6 230.6,150.8 3.7,4.2 10.2,4.7 14.5,1 4.3,-3.7 4.7,-10.2 1,-14.5 -96.2,-110.7 -234.1,-155 -239.9,-156.8 -1,-0.3 -2.1,-0.5 -3.1,-0.5"
         style="fill:#102a54;fill-opacity:1;fill-rule:nonzero;stroke:none"
         id="path304" />
      <path
         d="m 28119,13068.9 c -1,-88 47,-160 107.1,-160.6 60.1,-0.6 109.5,70.2 110.5,158.3 0.9,88.1 -47,160 -107.1,160.6 -60.1,0.7 -109.6,-70.2 -110.5,-158.3"
         style="fill:#ffc0b1;fill-opacity:1;fill-rule:nonzero;stroke:none"
         id="path306" />
      <path
         d="m 27551.9,12579.6 c -5.5,0 -10,4.3 -10.2,9.9 -0.3,5.6 4.1,10.3 9.8,10.6 v 0 c 0.9,0 91,5.3 170,125 3.1,4.7 9.5,6 14.2,2.9 4.7,-3.1 6,-9.5 2.9,-14.2 -85.3,-129.1 -182.2,-134.1 -186.3,-134.2 -0.2,0 -0.3,0 -0.4,0"
         style="fill:#102a54;fill-opacity:1;fill-rule:nonzero;stroke:none"
         id="path308" />
      <path
         d="m 27641,13484.2 c 0,0 308.4,-270.4 570.2,-297.6 l -122.6,-677.9 h 353.8 c 0,0 198.9,795 -175.7,1209.9 -374.6,414.9 -754.5,-49.5 -625.7,-234.4"
         style="fill:#102a54;fill-opacity:1;fill-rule:nonzero;stroke:none"
         id="path310" />
      <path
         d="m 27641,13484.2 c 0,0 -125.9,-156.8 -411,-163.7 -285.1,-6.9 -219.2,472.8 84.7,546 303.9,73.3 582.3,-18.3 582.3,-18.3 l -256,-364"
         style="fill:#102a54;fill-opacity:1;fill-rule:nonzero;stroke:none"
         id="path312" />
      <path
         d="m 27506.3,13172.9 c -8,0 -15.9,3 -22.1,8.9 -61.8,58.7 -144.7,6.7 -148.2,4.5 -14.9,-9.6 -34.8,-5.3 -44.4,9.5 -9.6,14.9 -5.4,34.7 9.4,44.4 44.1,28.8 148.4,63.4 227.5,-11.8 12.8,-12.2 13.4,-32.6 1.1,-45.4 -6.3,-6.7 -14.8,-10.1 -23.3,-10.1"
         style="fill:#102a54;fill-opacity:1;fill-rule:nonzero;stroke:none"
         id="path314" />
      <path
         d="m 27873.2,13172.9 c -7.9,0 -15.9,3 -22.1,8.9 -61.8,58.7 -144.6,6.7 -148.1,4.5 -15,-9.6 -34.8,-5.3 -44.4,9.5 -9.7,14.9 -5.5,34.7 9.3,44.4 44.1,28.8 148.4,63.4 227.5,-11.8 12.9,-12.2 13.4,-32.6 1.1,-45.4 -6.3,-6.7 -14.8,-10.1 -23.3,-10.1"
         style="fill:#102a54;fill-opacity:1;fill-rule:nonzero;stroke:none"
         id="path316" />
      <path
         d="m 29616.7,15368.3 v 201.5 l -169.7,368.5 v 0 c 49.5,28.3 112.1,18.3 150.3,-24.1 l 92.1,-102 195.1,313.4 c 60.7,97.4 199.7,104.8 270.4,14.4 v 0 c 38.9,-49.8 48.1,-116.6 24,-175 l -82.8,-200.8 c -25,-60.7 -65.5,-113.8 -117.4,-153.9 l -71.1,-55.1 v -186.9 h -290.9"
         style="fill:#ffc0b1;fill-opacity:1;fill-rule:nonzero;stroke:none"
         id="path318" />
      <path
         d="m 29849.5,15605 c -0.1,0 -0.1,0 -0.2,0 -5.7,0.1 -10.1,4.8 -10,10.4 2.5,120.5 -152.3,186.7 -153.8,187.3 -5.3,2.2 -7.7,8.2 -5.5,13.5 2.1,5.2 8.1,7.6 13.4,5.5 1.7,-0.8 42.5,-18 83.6,-51.7 55.3,-45.4 83.9,-99 82.8,-155 -0.2,-5.6 -4.7,-10 -10.3,-10"
         style="fill:#102a54;fill-opacity:1;fill-rule:nonzero;stroke:none"
         id="path320" />
      <path
         d="m 26331.8,15368.3 v 201.5 l 169.7,368.5 v 0 c -49.5,28.3 -112.1,18.3 -150.3,-24.1 l -92.1,-102 -195.1,313.4 c -60.7,97.4 -199.7,104.8 -270.4,14.4 v 0 c -38.9,-49.8 -48.1,-116.6 -24,-175 l 82.8,-200.8 c 25,-60.7 65.5,-113.8 117.4,-153.9 l 71.1,-55.1 v -186.9 h 290.9"
         style="fill:#ffc0b1;fill-opacity:1;fill-rule:nonzero;stroke:none"
         id="path322" />
      <path
         d="m 26099,15605 c -5.6,0 -10.1,4.4 -10.2,10 -1.2,56 27.4,109.6 82.7,155 41.1,33.7 81.9,50.9 83.6,51.7 5.3,2.1 11.3,-0.3 13.4,-5.5 2.2,-5.3 -0.2,-11.3 -5.5,-13.5 -1.5,-0.6 -156.3,-66.8 -153.8,-187.3 0.2,-5.6 -4.3,-10.3 -10,-10.4 -0.1,0 -0.1,0 -0.2,0"
         style="fill:#102a54;fill-opacity:1;fill-rule:nonzero;stroke:none"
         id="path324" />
      <path
         d="m 28775.6,9307.5 c -7.5,0 -14.4,4.6 -17.1,12 -3.4,9.4 1.5,19.8 10.9,23.2 l 538.5,194.6 c 9.4,3.4 19.8,-1.4 23.2,-10.9 3.4,-9.4 -1.5,-19.8 -10.9,-23.2 l -538.5,-194.6 c -2,-0.7 -4.1,-1.1 -6.1,-1.1"
         style="fill:#102a54;fill-opacity:1;fill-rule:nonzero;stroke:none"
         id="path326" />
      <path
         d="m 27205.5,9404.8 c -2.1,0 -4.2,0.4 -6.2,1.1 l -538.5,194.6 c -9.4,3.4 -14.3,13.8 -10.9,23.2 3.4,9.5 13.9,14.3 23.2,10.9 l 538.5,-194.6 c 9.4,-3.4 14.3,-13.8 10.9,-23.2 -2.7,-7.4 -9.6,-12 -17,-12"
         style="fill:#102a54;fill-opacity:1;fill-rule:nonzero;stroke:none"
         id="path328" />
      <path
         d="M 33224.4,1942 H 2251.49 c -17.52,0 -31.72,14.2 -31.72,31.7 0,17.5 14.2,31.7 31.72,31.7 H 33224.4 c 17.5,0 31.7,-14.2 31.7,-31.7 0,-17.5 -14.2,-31.7 -31.7,-31.7"
         style="fill:#102a54;fill-opacity:1;fill-rule:nonzero;stroke:none"
         id="path330" />
    </g>
  </g>
</svg>
